M48
;Layer_Color=15461320
;FILE_FORMAT=4:3
METRIC
;TYPE=PLATED
T1F00S00C0.600
T2F00S00C0.850
T3F00S00C0.900
T4F00S00C1.000
T5F00S00C1.100
T6F00S00C1.500
T7F00S00C1.600
T8F00S00C3.250
T9F00S00C3.500
%
T01
X0322750Y0142040
X0317265Y0142725
X0311290Y0141500
X0309500Y0149790
X0305500Y0147040
X0302960
X0300420
X0295340
X0292800
X0291045Y0150445
X0298665Y0150425
X0317251Y0153640
X0247750Y0156540
X0216200Y0141062
X0212000Y0141034
X0207200Y0140986
X0214750Y0161290
X0216750Y0167790
X0217071Y0173315
X0222800Y0174440
Y0171900
Y0169360
X0228000Y0165040
X0226500Y0163040
X0228500Y0161040
X0228750Y0159290
X0236600Y0164290
Y0175540
X0236750Y0179590
X0234250Y0185040
X0234800Y0191340
X0237800Y0192340
X0226000Y0193540
X0222800Y0191240
Y0188700
Y0186160
X0213750Y0184790
X0215450Y0181590
X0216048Y0197361
X0238500Y0197290
X0244500Y0197540
Y0195540
X0244512Y0190281
X0248112Y0184682
X0243000Y0182540
X0240407Y0183741
X0240600Y0180540
X0239395Y0178135
X0238275Y0176865
X0241800Y0174540
X0241845Y0171785
X0251005
X0258200Y0170940
X0257927Y0169193
X0258720Y0167523
X0260554Y0167594
X0262000Y0168790
X0262500Y0166790
X0261500Y0165290
X0257179Y0166440
X0264485Y0162055
X0264250Y0171290
X0263750Y0173040
X0261600Y0183950
X0260400Y0185340
X0255735Y0179405
X0255000Y0191540
X0255024Y0193375
X0253500Y0195540
X0270550Y0183940
X0274500Y0187290
X0274000Y0179540
X0274250Y0167540
X0272500Y0166540
X0270500Y0166290
X0277250Y0167040
X0240600Y0162140
X0287000Y0161040
X0289000Y0161040
X0297264Y0164162
X0299000Y0164290
X0299250Y0170290
X0298440Y0177980
X0300600Y0177940
X0304000Y0178040
X0305500Y0177040
X0304350Y0175640
X0305700Y0173840
X0305177Y0179717
X0306252Y0180792
X0307327Y0181867
X0308402Y0182942
X0309476Y0184016
X0310551Y0185091
X0311626Y0186166
X0312701Y0187241
X0313776Y0188316
X0314850Y0189390
X0315925Y0190465
X0317000Y0191540
X0299250Y0192290
X0298200Y0190740
X0296250Y0192290
X0294003Y0193748
X0292250Y0196040
X0290250Y0196540
X0289250Y0192290
X0280240Y0192200
X0283500Y0196290
X0282000Y0177340
X0285090Y0174531
X0287004Y0174519
X0280375Y0171715
X0297000Y0177040
X0299500Y0180540
X0299502Y0182406
X0298000Y0185740
X0298500Y0187290
X0303750Y0162290
X0305500Y0161540
X0306835Y0160383
X0309250Y0159040
X0320940Y0173100
X0319500Y0185540
X0318750Y0204790
X0322765Y0204725
X0328000Y0204290
X0321500Y0216040
X0316865Y0216168
X0314500Y0215540
Y0213540
X0314000Y0208290
X0306763Y0212074
X0296750Y0212040
X0297500Y0209040
Y0207040
X0293250Y0205540
X0293500Y0199040
X0285200Y0204740
X0287600Y0212940
X0292800Y0212940
X0294800Y0217540
X0293400Y0220740
X0292500Y0222290
X0283250Y0221790
X0302400Y0224690
X0306750Y0224790
X0316790Y0221500
X0275600Y0223140
X0264127Y0217204
X0262250Y0205417
X0259750Y0200040
X0250000Y0199040
X0248400Y0202582
X0243150Y0199490
X0241593Y0210240
X0246400Y0213640
X0245250Y0216540
X0247000Y0218540
X0243500Y0224040
X0275750Y0205540
Y0199040
X0233800Y0200740
X0222800Y0202610
Y0205150
Y0207690
X0227250Y0209540
X0227915Y0212625
X0229500Y0216290
X0234800Y0214940
X0236750Y0213790
X0222800Y0217520
Y0220060
Y0222600
X0213800Y0217340
X0215750Y0213790
X0213772Y0200768
T02
X0294220Y0150420
X0301840
X0213700Y0166540
Y0176700
X0294220Y0160580
X0301840
X0253990Y0221110
X0243830
T03
X0321000Y0146020
Y0148560
Y0151100
Y0153640
X0318460Y0157790
X0315920
X0313380Y0153640
Y0151100
Y0148560
Y0146020
X0288000Y0146830
Y0149370
Y0151910
Y0154450
Y0156990
X0282375Y0157880
X0279835
X0288000Y0144290
X0270000Y0144290
Y0146830
Y0149370
Y0151910
Y0154450
Y0156990
X0263960Y0157880
X0261420
X0258880
X0251500Y0156990
Y0154450
Y0151910
Y0149370
Y0146830
Y0144290
X0245545Y0157880
X0243005
X0240465
X0277295Y0157880
X0231940Y0167280
Y0169820
Y0172360
Y0174900
Y0177440
Y0179980
Y0182520
Y0185060
Y0187600
Y0190140
X0229400
Y0187600
Y0185060
Y0182520
Y0179980
Y0177440
Y0174900
Y0172360
Y0169820
Y0167280
X0239195Y0160420
X0241735
X0244275
X0257610Y0160420
X0260150
X0262690
X0276025Y0160420
X0266300Y0177505
Y0180045
Y0182585
Y0185125
Y0187665
Y0190205
Y0192745
Y0195285
Y0197825
X0263760
Y0195285
Y0192745
Y0190205
Y0187665
Y0185125
Y0182585
Y0180045
Y0177505
X0278565Y0160420
X0281105
X0298000Y0194140
Y0196680
X0300540
Y0194140
X0303080Y0194140
Y0196680
X0305620Y0196680
Y0194140
X0308160
Y0196680
X0310700
Y0194140
X0313240
X0315780
X0315780Y0196680
X0313240
X0318320Y0196680
Y0194140
X0320860
Y0196680
X0318880Y0208020
Y0210560
Y0213100
Y0215640
X0326500
Y0213100
Y0210560
Y0208020
X0331250Y0215540
X0333790
X0277770Y0215760
Y0213220
X0277770Y0218300
X0277770Y0220840
X0270150Y0220840
X0270150Y0218300
Y0215760
X0270150Y0213220
X0258680Y0212430
Y0209890
Y0207350
Y0204810
X0251060
Y0207350
Y0209890
Y0212430
X0263760Y0200365
X0266300
T04
X0213030Y0158920
X0218110
T05
X0220500Y0152540
X0223040
X0229600Y0152540
X0232140
X0208000Y0159000
Y0161540
Y0169600
Y0172140
X0208080Y0182720
Y0185260
Y0194150
Y0196690
X0327920Y0190165
X0330460
X0333000
Y0180790
X0330460
X0327920
Y0171415
X0325380
X0330460
X0333000
Y0162040
X0330460
X0327920
X0325380
X0322840
X0327920Y0199540
X0330460
X0333000
X0208080Y0205580
Y0208120
Y0220820
Y0223360
T06
X0331000Y0153540
X0322000Y0224540
X0259400Y0221140
X0238500Y0224540
T07
X0328460Y0151000
X0333540
Y0156080
X0328460
X0324540Y0222000
X0319460
Y0227080
X0324540
X0261940Y0223680
X0256860
Y0218600
X0261940Y0218600
X0241040Y0222000
Y0227080
X0235960
Y0222000
T08
X0284280Y0151530
X0274120
X0265865Y0151530
X0255705
X0247450Y0151530
X0237290
T09
X0332000Y0144540
X0230000
X0332000Y0224540
X0230000
M30
