%FSAX43Y43*%
%MOMM*%
G71*
G01*
G75*
G04 Layer_Physical_Order=1*
G04 Layer_Color=255*
%ADD10R,1.450X1.150*%
%ADD11R,1.300X0.850*%
%ADD12R,1.350X0.950*%
%ADD13R,1.400X1.050*%
%ADD14R,1.500X1.250*%
%ADD15R,0.950X1.350*%
%ADD16O,2.050X0.600*%
%ADD17R,1.050X1.400*%
%ADD18R,0.850X1.300*%
%ADD19O,2.200X0.600*%
%ADD20R,1.250X1.500*%
%ADD21R,1.150X1.450*%
%ADD22R,1.400X1.200*%
%ADD23R,1.550X1.350*%
%ADD24R,1.350X1.550*%
%ADD25O,1.900X0.450*%
G04:AMPARAMS|DCode=26|XSize=5.5mm|YSize=1.5mm|CornerRadius=0.188mm|HoleSize=0mm|Usage=FLASHONLY|Rotation=180.000|XOffset=0mm|YOffset=0mm|HoleType=Round|Shape=RoundedRectangle|*
%AMROUNDEDRECTD26*
21,1,5.500,1.125,0,0,180.0*
21,1,5.125,1.500,0,0,180.0*
1,1,0.375,-2.563,0.563*
1,1,0.375,2.563,0.563*
1,1,0.375,2.563,-0.563*
1,1,0.375,-2.563,-0.563*
%
%ADD26ROUNDEDRECTD26*%
%ADD27R,1.800X0.600*%
%ADD28R,0.900X1.000*%
%ADD29R,1.200X1.400*%
%ADD30R,1.000X0.900*%
%ADD31R,5.400X1.550*%
%ADD32R,1.700X0.950*%
%ADD33R,1.900X0.900*%
%ADD34R,1.900X3.200*%
%ADD35R,1.524X1.524*%
G04:AMPARAMS|DCode=36|XSize=0.6mm|YSize=1mm|CornerRadius=0.075mm|HoleSize=0mm|Usage=FLASHONLY|Rotation=0.000|XOffset=0mm|YOffset=0mm|HoleType=Round|Shape=RoundedRectangle|*
%AMROUNDEDRECTD36*
21,1,0.600,0.850,0,0,0.0*
21,1,0.450,1.000,0,0,0.0*
1,1,0.150,0.225,-0.425*
1,1,0.150,-0.225,-0.425*
1,1,0.150,-0.225,0.425*
1,1,0.150,0.225,0.425*
%
%ADD36ROUNDEDRECTD36*%
%ADD37O,0.250X1.550*%
%ADD38O,1.550X0.250*%
%ADD39O,0.450X2.400*%
%ADD40C,0.250*%
%ADD41C,0.500*%
%ADD42C,0.450*%
%ADD43C,1.000*%
%ADD44C,0.750*%
%ADD45C,0.254*%
%ADD46R,1.500X1.500*%
%ADD47C,1.500*%
%ADD48C,3.000*%
%ADD49R,2.000X2.500*%
%ADD50O,2.000X2.500*%
%ADD51C,1.400*%
%ADD52R,1.500X1.500*%
%ADD53C,1.800*%
%ADD54C,8.000*%
%ADD55R,2.500X2.000*%
%ADD56O,2.500X2.000*%
%ADD57R,1.500X1.500*%
%ADD58C,2.950*%
%ADD59C,1.500*%
%ADD60C,1.270*%
G36*
X0294310Y0206931D02*
X0294508Y0206798D01*
X0294641Y0206600D01*
X0294685Y0206377D01*
X0294676Y0206366D01*
X0294676D01*
X0294688Y0198214D01*
X0294641Y0197980D01*
X0294508Y0197782D01*
X0294310Y0197649D01*
X0294087Y0197605D01*
X0294076Y0197614D01*
Y0197614D01*
X0287950Y0197611D01*
Y0196790D01*
X0287650D01*
Y0197610D01*
X0287240Y0197610D01*
X0287150Y0197700D01*
Y0197790D01*
X0285531D01*
Y0199803D01*
X0285882Y0200154D01*
X0286003Y0200113D01*
X0286018Y0199998D01*
X0286087Y0199831D01*
X0286197Y0199687D01*
X0286341Y0199577D01*
X0286508Y0199508D01*
X0286688Y0199484D01*
X0291812D01*
X0291992Y0199508D01*
X0292159Y0199577D01*
X0292303Y0199687D01*
X0292413Y0199831D01*
X0292482Y0199998D01*
X0292506Y0200178D01*
Y0201302D01*
X0292482Y0201482D01*
X0292413Y0201649D01*
X0292303Y0201793D01*
X0292159Y0201903D01*
X0291992Y0201972D01*
X0291812Y0201996D01*
X0289633D01*
Y0203565D01*
X0290175D01*
Y0205915D01*
X0288225D01*
Y0205715D01*
X0287750D01*
Y0204740D01*
Y0203765D01*
X0288225D01*
Y0203565D01*
X0288767D01*
Y0201996D01*
X0286688D01*
X0286508Y0201972D01*
X0286341Y0201903D01*
X0286197Y0201793D01*
X0286087Y0201649D01*
X0286018Y0201482D01*
X0285994Y0201302D01*
Y0201070D01*
X0285873Y0201046D01*
X0285838Y0201022D01*
X0285766Y0200974D01*
X0284966Y0200174D01*
X0284846Y0200163D01*
X0284034Y0200974D01*
X0284006Y0200993D01*
Y0201302D01*
X0283982Y0201482D01*
X0283913Y0201649D01*
X0283803Y0201793D01*
X0283659Y0201903D01*
X0283492Y0201972D01*
X0283312Y0201996D01*
X0281183D01*
Y0203565D01*
X0281775D01*
Y0203765D01*
X0282250D01*
Y0204740D01*
Y0205715D01*
X0281775D01*
Y0205915D01*
X0279825D01*
Y0203565D01*
X0280317D01*
Y0201996D01*
X0278188D01*
X0278008Y0201972D01*
X0277841Y0201903D01*
X0277697Y0201793D01*
X0277587Y0201649D01*
X0277518Y0201482D01*
X0277494Y0201302D01*
Y0200178D01*
X0277518Y0199998D01*
X0277587Y0199831D01*
X0277697Y0199687D01*
X0277841Y0199577D01*
X0278008Y0199508D01*
X0278188Y0199484D01*
X0283312D01*
X0283492Y0199508D01*
X0283659Y0199577D01*
X0283803Y0199687D01*
X0283913Y0199831D01*
X0283965Y0199957D01*
X0284090Y0199982D01*
X0284369Y0199703D01*
Y0197608D01*
X0274924Y0197603D01*
X0274690Y0197649D01*
X0274492Y0197782D01*
X0274359Y0197980D01*
X0274315Y0198203D01*
X0274324Y0198214D01*
X0274324D01*
X0274312Y0206366D01*
X0274359Y0206600D01*
X0274492Y0206798D01*
X0274690Y0206931D01*
X0274783Y0206949D01*
X0294217D01*
X0294310Y0206931D01*
D02*
G37*
%LPC*%
G36*
X0293650Y0199963D02*
Y0199190D01*
X0294423D01*
X0294411Y0199284D01*
X0294317Y0199512D01*
X0294167Y0199707D01*
X0293972Y0199857D01*
X0293744Y0199951D01*
X0293650Y0199963D01*
D02*
G37*
G36*
X0293350D02*
X0293256Y0199951D01*
X0293028Y0199857D01*
X0292833Y0199707D01*
X0292683Y0199512D01*
X0292589Y0199284D01*
X0292577Y0199190D01*
X0293350D01*
Y0199963D01*
D02*
G37*
G36*
X0285050Y0204590D02*
X0284277D01*
X0284289Y0204496D01*
X0284383Y0204268D01*
X0284533Y0204073D01*
X0284728Y0203923D01*
X0284956Y0203829D01*
X0285050Y0203817D01*
Y0204590D01*
D02*
G37*
G36*
X0287450D02*
X0286825D01*
Y0203765D01*
X0287450D01*
Y0204590D01*
D02*
G37*
G36*
X0283175D02*
X0282550D01*
Y0203765D01*
X0283175D01*
Y0204590D01*
D02*
G37*
G36*
X0293350Y0198890D02*
X0292577D01*
X0292589Y0198796D01*
X0292683Y0198568D01*
X0292833Y0198373D01*
X0293028Y0198223D01*
X0293256Y0198129D01*
X0293350Y0198117D01*
Y0198890D01*
D02*
G37*
G36*
X0276673D02*
X0275900D01*
Y0198117D01*
X0275994Y0198129D01*
X0276222Y0198223D01*
X0276417Y0198373D01*
X0276567Y0198568D01*
X0276661Y0198796D01*
X0276673Y0198890D01*
D02*
G37*
G36*
X0275600D02*
X0274827D01*
X0274839Y0198796D01*
X0274933Y0198568D01*
X0275083Y0198373D01*
X0275278Y0198223D01*
X0275506Y0198129D01*
X0275600Y0198117D01*
Y0198890D01*
D02*
G37*
G36*
X0275900Y0199963D02*
Y0199190D01*
X0276673D01*
X0276661Y0199284D01*
X0276567Y0199512D01*
X0276417Y0199707D01*
X0276222Y0199857D01*
X0275994Y0199951D01*
X0275900Y0199963D01*
D02*
G37*
G36*
X0275600D02*
X0275506Y0199951D01*
X0275278Y0199857D01*
X0275083Y0199707D01*
X0274933Y0199512D01*
X0274839Y0199284D01*
X0274827Y0199190D01*
X0275600D01*
Y0199963D01*
D02*
G37*
G36*
X0294423Y0198890D02*
X0293650D01*
Y0198117D01*
X0293744Y0198129D01*
X0293972Y0198223D01*
X0294167Y0198373D01*
X0294317Y0198568D01*
X0294411Y0198796D01*
X0294423Y0198890D01*
D02*
G37*
G36*
X0286123Y0204590D02*
X0285350D01*
Y0203817D01*
X0285444Y0203829D01*
X0285672Y0203923D01*
X0285867Y0204073D01*
X0286017Y0204268D01*
X0286111Y0204496D01*
X0286123Y0204590D01*
D02*
G37*
G36*
X0275600Y0206463D02*
X0275506Y0206451D01*
X0275278Y0206357D01*
X0275083Y0206207D01*
X0274933Y0206012D01*
X0274839Y0205784D01*
X0274827Y0205690D01*
X0275600D01*
Y0206463D01*
D02*
G37*
G36*
X0287450Y0205715D02*
X0286825D01*
Y0204890D01*
X0287450D01*
Y0205715D01*
D02*
G37*
G36*
X0285350Y0205663D02*
Y0204890D01*
X0286123D01*
X0286111Y0204984D01*
X0286017Y0205212D01*
X0285867Y0205407D01*
X0285672Y0205557D01*
X0285444Y0205651D01*
X0285350Y0205663D01*
D02*
G37*
G36*
X0293400Y0206463D02*
Y0205690D01*
X0294173D01*
X0294161Y0205784D01*
X0294067Y0206012D01*
X0293917Y0206207D01*
X0293722Y0206357D01*
X0293494Y0206451D01*
X0293400Y0206463D01*
D02*
G37*
G36*
X0293100D02*
X0293006Y0206451D01*
X0292778Y0206357D01*
X0292583Y0206207D01*
X0292433Y0206012D01*
X0292339Y0205784D01*
X0292327Y0205690D01*
X0293100D01*
Y0206463D01*
D02*
G37*
G36*
X0275900D02*
Y0205690D01*
X0276673D01*
X0276661Y0205784D01*
X0276567Y0206012D01*
X0276417Y0206207D01*
X0276222Y0206357D01*
X0275994Y0206451D01*
X0275900Y0206463D01*
D02*
G37*
G36*
X0293100Y0205390D02*
X0292327D01*
X0292339Y0205296D01*
X0292433Y0205068D01*
X0292583Y0204873D01*
X0292778Y0204723D01*
X0293006Y0204629D01*
X0293100Y0204617D01*
Y0205390D01*
D02*
G37*
G36*
X0276673D02*
X0275900D01*
Y0204617D01*
X0275994Y0204629D01*
X0276222Y0204723D01*
X0276417Y0204873D01*
X0276567Y0205068D01*
X0276661Y0205296D01*
X0276673Y0205390D01*
D02*
G37*
G36*
X0275600D02*
X0274827D01*
X0274839Y0205296D01*
X0274933Y0205068D01*
X0275083Y0204873D01*
X0275278Y0204723D01*
X0275506Y0204629D01*
X0275600Y0204617D01*
Y0205390D01*
D02*
G37*
G36*
X0285050Y0205663D02*
X0284956Y0205651D01*
X0284728Y0205557D01*
X0284533Y0205407D01*
X0284383Y0205212D01*
X0284289Y0204984D01*
X0284277Y0204890D01*
X0285050D01*
Y0205663D01*
D02*
G37*
G36*
X0283175Y0205715D02*
X0282550D01*
Y0204890D01*
X0283175D01*
Y0205715D01*
D02*
G37*
G36*
X0294173Y0205390D02*
X0293400D01*
Y0204617D01*
X0293494Y0204629D01*
X0293722Y0204723D01*
X0293917Y0204873D01*
X0294067Y0205068D01*
X0294161Y0205296D01*
X0294173Y0205390D01*
D02*
G37*
%LPD*%
D10*
X0319040Y0143650D02*
D03*
Y0141850D02*
D03*
X0324540Y0205650D02*
D03*
Y0203850D02*
D03*
X0311290Y0155850D02*
D03*
Y0157650D02*
D03*
X0248800Y0210040D02*
D03*
Y0211840D02*
D03*
X0307200Y0215640D02*
D03*
Y0213840D02*
D03*
X0310000Y0223190D02*
D03*
Y0221390D02*
D03*
X0302400Y0223290D02*
D03*
Y0221490D02*
D03*
X0316790Y0217850D02*
D03*
Y0219650D02*
D03*
X0321000Y0189640D02*
D03*
Y0191440D02*
D03*
X0307200Y0175640D02*
D03*
Y0173840D02*
D03*
X0275600Y0183040D02*
D03*
Y0181240D02*
D03*
X0270350Y0187440D02*
D03*
Y0185640D02*
D03*
D11*
X0324540Y0215650D02*
D03*
Y0217350D02*
D03*
Y0213850D02*
D03*
Y0212150D02*
D03*
X0316790Y0210350D02*
D03*
Y0208650D02*
D03*
X0324540Y0210600D02*
D03*
Y0208900D02*
D03*
X0322790Y0212150D02*
D03*
Y0213850D02*
D03*
X0319040Y0153650D02*
D03*
Y0155350D02*
D03*
X0323040Y0156100D02*
D03*
Y0154400D02*
D03*
X0319040Y0148600D02*
D03*
Y0146900D02*
D03*
X0319040Y0151850D02*
D03*
Y0150150D02*
D03*
X0317290D02*
D03*
Y0151850D02*
D03*
X0311290Y0148350D02*
D03*
Y0146650D02*
D03*
X0243600Y0214890D02*
D03*
Y0216590D02*
D03*
X0319000Y0191390D02*
D03*
Y0189690D02*
D03*
X0307200Y0170190D02*
D03*
Y0171890D02*
D03*
X0273600Y0181290D02*
D03*
Y0182990D02*
D03*
X0234250Y0160390D02*
D03*
Y0158690D02*
D03*
X0216200Y0164190D02*
D03*
Y0162490D02*
D03*
X0212000Y0152190D02*
D03*
Y0150490D02*
D03*
X0207200Y0152190D02*
D03*
Y0150490D02*
D03*
X0216200Y0152190D02*
D03*
Y0150490D02*
D03*
D12*
X0326540Y0205550D02*
D03*
Y0203950D02*
D03*
X0321040Y0143550D02*
D03*
Y0141950D02*
D03*
X0313290Y0155950D02*
D03*
Y0157550D02*
D03*
X0312800Y0215540D02*
D03*
Y0213940D02*
D03*
X0311000Y0215540D02*
D03*
X0311000Y0213940D02*
D03*
X0309000Y0215540D02*
D03*
X0309000Y0213940D02*
D03*
X0304200Y0223190D02*
D03*
X0304200Y0221590D02*
D03*
X0305000Y0215540D02*
D03*
X0305000Y0213940D02*
D03*
X0303250Y0215590D02*
D03*
Y0213990D02*
D03*
X0301500Y0215590D02*
D03*
X0301500Y0213990D02*
D03*
X0299750Y0215590D02*
D03*
Y0213990D02*
D03*
X0299400Y0210740D02*
D03*
X0299400Y0209140D02*
D03*
X0318790Y0217950D02*
D03*
Y0219550D02*
D03*
D13*
X0321040Y0205700D02*
D03*
Y0203800D02*
D03*
X0322790Y0208800D02*
D03*
Y0210700D02*
D03*
X0316790Y0205300D02*
D03*
Y0207200D02*
D03*
X0317290Y0146800D02*
D03*
Y0148700D02*
D03*
X0315540Y0143700D02*
D03*
Y0141800D02*
D03*
X0311290Y0143300D02*
D03*
Y0145200D02*
D03*
X0294800Y0213390D02*
D03*
Y0215290D02*
D03*
X0308000Y0223240D02*
D03*
Y0221340D02*
D03*
X0306000Y0221340D02*
D03*
Y0223240D02*
D03*
X0299400Y0200190D02*
D03*
Y0202090D02*
D03*
X0257500Y0175090D02*
D03*
Y0176990D02*
D03*
X0218000Y0164290D02*
D03*
Y0162390D02*
D03*
X0291045Y0159625D02*
D03*
Y0157725D02*
D03*
X0298665D02*
D03*
Y0159625D02*
D03*
D14*
X0316790Y0214550D02*
D03*
Y0212450D02*
D03*
X0323040Y0150550D02*
D03*
Y0148450D02*
D03*
X0311290Y0152550D02*
D03*
Y0150450D02*
D03*
X0297800Y0221340D02*
D03*
Y0223440D02*
D03*
X0313500Y0206090D02*
D03*
Y0203990D02*
D03*
X0328540Y0212550D02*
D03*
Y0210450D02*
D03*
D15*
X0322340Y0157750D02*
D03*
X0320740D02*
D03*
X0290800Y0222290D02*
D03*
X0289200Y0222290D02*
D03*
X0275050Y0213540D02*
D03*
X0273450Y0213540D02*
D03*
X0272450Y0221040D02*
D03*
X0274050D02*
D03*
X0280800Y0204740D02*
D03*
X0282400D02*
D03*
X0289200D02*
D03*
X0287600D02*
D03*
X0289200Y0212940D02*
D03*
X0290800D02*
D03*
D16*
X0253270Y0164165D02*
D03*
Y0165435D02*
D03*
Y0166705D02*
D03*
Y0167975D02*
D03*
Y0169245D02*
D03*
Y0170515D02*
D03*
Y0171785D02*
D03*
Y0173055D02*
D03*
Y0174325D02*
D03*
Y0175595D02*
D03*
Y0176865D02*
D03*
Y0178135D02*
D03*
Y0179405D02*
D03*
Y0180675D02*
D03*
X0244070Y0164165D02*
D03*
Y0165435D02*
D03*
Y0166705D02*
D03*
Y0167975D02*
D03*
Y0169245D02*
D03*
Y0170515D02*
D03*
Y0171785D02*
D03*
Y0173055D02*
D03*
Y0174325D02*
D03*
Y0175595D02*
D03*
Y0176865D02*
D03*
Y0178135D02*
D03*
Y0179405D02*
D03*
Y0180675D02*
D03*
X0309695Y0180720D02*
D03*
Y0179450D02*
D03*
Y0178180D02*
D03*
Y0176910D02*
D03*
Y0175640D02*
D03*
Y0174370D02*
D03*
Y0173100D02*
D03*
Y0171830D02*
D03*
Y0170560D02*
D03*
Y0169290D02*
D03*
Y0168020D02*
D03*
Y0166750D02*
D03*
Y0165480D02*
D03*
Y0164210D02*
D03*
X0318895Y0180720D02*
D03*
Y0179450D02*
D03*
Y0178180D02*
D03*
Y0176910D02*
D03*
Y0175640D02*
D03*
Y0174370D02*
D03*
Y0173100D02*
D03*
Y0171830D02*
D03*
Y0170560D02*
D03*
Y0169290D02*
D03*
Y0168020D02*
D03*
Y0166750D02*
D03*
Y0165480D02*
D03*
Y0164210D02*
D03*
D17*
X0289050Y0220340D02*
D03*
X0290950Y0220340D02*
D03*
X0246450Y0207340D02*
D03*
X0248350D02*
D03*
X0285250Y0211140D02*
D03*
X0287150Y0211140D02*
D03*
X0291950Y0169040D02*
D03*
X0290050D02*
D03*
X0291950Y0166540D02*
D03*
X0290050D02*
D03*
X0291950Y0171540D02*
D03*
X0290050Y0171540D02*
D03*
X0291950Y0174040D02*
D03*
X0290050D02*
D03*
D18*
X0289150Y0224040D02*
D03*
X0290850Y0224040D02*
D03*
X0279950Y0215740D02*
D03*
X0281650D02*
D03*
X0279910Y0221030D02*
D03*
X0281610Y0221030D02*
D03*
X0267450Y0213140D02*
D03*
X0265750D02*
D03*
X0254020Y0209400D02*
D03*
X0255720D02*
D03*
X0262250Y0209940D02*
D03*
X0260550D02*
D03*
Y0207340D02*
D03*
X0262250D02*
D03*
X0251950Y0199940D02*
D03*
X0253650D02*
D03*
X0252250Y0224140D02*
D03*
X0250550D02*
D03*
D19*
X0287600Y0218445D02*
D03*
Y0217175D02*
D03*
Y0215905D02*
D03*
Y0214635D02*
D03*
X0292400Y0218445D02*
D03*
Y0217175D02*
D03*
X0292400Y0215905D02*
D03*
X0292400Y0214635D02*
D03*
D20*
X0279710Y0218230D02*
D03*
X0281810D02*
D03*
X0272910Y0217030D02*
D03*
X0275010Y0217030D02*
D03*
X0265550Y0220940D02*
D03*
X0267650Y0220940D02*
D03*
X0267650Y0215740D02*
D03*
X0265550D02*
D03*
X0297650Y0180540D02*
D03*
X0295550D02*
D03*
D21*
X0275150Y0210040D02*
D03*
X0273350D02*
D03*
X0272100Y0223040D02*
D03*
X0273900Y0223040D02*
D03*
X0265700Y0218340D02*
D03*
X0267500Y0218340D02*
D03*
X0246350Y0191820D02*
D03*
X0248150D02*
D03*
X0248100Y0186540D02*
D03*
X0246300D02*
D03*
X0289100Y0211140D02*
D03*
X0290900D02*
D03*
X0275300Y0168940D02*
D03*
X0277100D02*
D03*
D22*
X0243600Y0213240D02*
D03*
Y0210240D02*
D03*
X0299400Y0207040D02*
D03*
Y0204040D02*
D03*
X0260000Y0177540D02*
D03*
Y0174540D02*
D03*
X0207200Y0146040D02*
D03*
Y0143040D02*
D03*
X0212000D02*
D03*
Y0146040D02*
D03*
X0298665Y0152095D02*
D03*
Y0155095D02*
D03*
X0291045D02*
D03*
Y0152095D02*
D03*
X0216200Y0146040D02*
D03*
Y0143040D02*
D03*
D23*
X0246400Y0211940D02*
D03*
Y0209940D02*
D03*
X0314000Y0210040D02*
D03*
Y0212040D02*
D03*
X0300200Y0223390D02*
D03*
Y0221390D02*
D03*
X0256000Y0168940D02*
D03*
Y0170940D02*
D03*
D24*
X0255870Y0204320D02*
D03*
X0253870D02*
D03*
X0255870Y0206860D02*
D03*
X0253870D02*
D03*
X0255870Y0211305D02*
D03*
X0253870D02*
D03*
X0248400Y0204740D02*
D03*
X0246400D02*
D03*
X0255775Y0199875D02*
D03*
X0257775D02*
D03*
X0246250Y0197535D02*
D03*
X0248250D02*
D03*
X0246250Y0195630D02*
D03*
X0248250D02*
D03*
Y0193725D02*
D03*
X0246250D02*
D03*
X0248250Y0188915D02*
D03*
X0246250D02*
D03*
D25*
X0251260Y0196840D02*
D03*
Y0196190D02*
D03*
Y0195540D02*
D03*
Y0194890D02*
D03*
Y0194240D02*
D03*
Y0193590D02*
D03*
Y0192940D02*
D03*
Y0192290D02*
D03*
Y0191640D02*
D03*
Y0190990D02*
D03*
Y0190340D02*
D03*
Y0189690D02*
D03*
Y0189040D02*
D03*
Y0188390D02*
D03*
X0258360Y0196840D02*
D03*
Y0196190D02*
D03*
Y0195540D02*
D03*
Y0194890D02*
D03*
Y0194240D02*
D03*
Y0193590D02*
D03*
Y0192940D02*
D03*
Y0192290D02*
D03*
Y0191640D02*
D03*
Y0190990D02*
D03*
Y0190340D02*
D03*
Y0189690D02*
D03*
Y0189040D02*
D03*
Y0188390D02*
D03*
D26*
X0280750Y0200740D02*
D03*
X0289250D02*
D03*
D27*
X0317500Y0184590D02*
D03*
Y0186490D02*
D03*
X0315500Y0185540D02*
D03*
D28*
X0295000Y0190740D02*
D03*
X0296600D02*
D03*
X0295000Y0186740D02*
D03*
X0296600D02*
D03*
X0295800Y0182540D02*
D03*
X0297400D02*
D03*
X0286800Y0176240D02*
D03*
X0285200D02*
D03*
X0286200Y0196790D02*
D03*
X0287800D02*
D03*
D29*
X0296750Y0171540D02*
D03*
X0293750D02*
D03*
X0296750Y0166540D02*
D03*
X0293750D02*
D03*
X0296750Y0169040D02*
D03*
X0293750Y0169040D02*
D03*
X0296750Y0174040D02*
D03*
X0293750Y0174040D02*
D03*
X0248700Y0224140D02*
D03*
X0245700D02*
D03*
D30*
X0280400Y0177340D02*
D03*
Y0175740D02*
D03*
X0275800Y0187340D02*
D03*
Y0185740D02*
D03*
D31*
X0276600Y0176965D02*
D03*
Y0171715D02*
D03*
D32*
X0272550Y0187940D02*
D03*
Y0185140D02*
D03*
D33*
X0272550Y0169040D02*
D03*
Y0171340D02*
D03*
Y0173640D02*
D03*
D34*
X0266650Y0171340D02*
D03*
D35*
X0215700Y0190975D02*
D03*
X0212271D02*
D03*
X0215570Y0223690D02*
D03*
X0212141D02*
D03*
X0215570Y0207180D02*
D03*
X0212141D02*
D03*
D36*
X0212845Y0189100D02*
D03*
X0214745Y0186500D02*
D03*
X0213795D02*
D03*
X0212845D02*
D03*
X0214745Y0189100D02*
D03*
X0212845Y0204975D02*
D03*
X0214745Y0202375D02*
D03*
X0213795D02*
D03*
X0212845D02*
D03*
X0214745Y0204975D02*
D03*
X0212845Y0221485D02*
D03*
X0214745Y0218885D02*
D03*
X0213795D02*
D03*
X0212845D02*
D03*
X0214745Y0221485D02*
D03*
D37*
X0279200Y0179215D02*
D03*
X0279700D02*
D03*
X0280200D02*
D03*
X0280700D02*
D03*
X0281200D02*
D03*
X0281700D02*
D03*
X0282200D02*
D03*
X0282700D02*
D03*
X0283200D02*
D03*
X0283700D02*
D03*
X0284200D02*
D03*
X0284700D02*
D03*
X0285200D02*
D03*
X0285700D02*
D03*
X0286200D02*
D03*
X0286700D02*
D03*
X0287200D02*
D03*
X0287700D02*
D03*
X0288200D02*
D03*
X0288700D02*
D03*
X0289200D02*
D03*
X0289700D02*
D03*
X0290200D02*
D03*
X0290700D02*
D03*
X0291200D02*
D03*
Y0194265D02*
D03*
X0290700D02*
D03*
X0290200D02*
D03*
X0289700D02*
D03*
X0289200D02*
D03*
X0288700D02*
D03*
X0288200D02*
D03*
X0287700D02*
D03*
X0287200D02*
D03*
X0286700D02*
D03*
X0286200D02*
D03*
X0285700D02*
D03*
X0285200D02*
D03*
X0284700D02*
D03*
X0284200D02*
D03*
X0283700D02*
D03*
X0283200D02*
D03*
X0282700D02*
D03*
X0282200D02*
D03*
X0281700D02*
D03*
X0281200D02*
D03*
X0280700D02*
D03*
X0280200D02*
D03*
X0279700D02*
D03*
X0279200D02*
D03*
D38*
X0292725Y0180740D02*
D03*
Y0181240D02*
D03*
Y0181740D02*
D03*
Y0182240D02*
D03*
Y0182740D02*
D03*
Y0183240D02*
D03*
Y0183740D02*
D03*
Y0184240D02*
D03*
Y0184740D02*
D03*
Y0185240D02*
D03*
Y0185740D02*
D03*
Y0186240D02*
D03*
Y0186740D02*
D03*
Y0187240D02*
D03*
Y0187740D02*
D03*
Y0188240D02*
D03*
Y0188740D02*
D03*
Y0189240D02*
D03*
Y0189740D02*
D03*
Y0190240D02*
D03*
Y0190740D02*
D03*
Y0191240D02*
D03*
Y0191740D02*
D03*
Y0192240D02*
D03*
Y0192740D02*
D03*
X0277675D02*
D03*
Y0192240D02*
D03*
Y0191740D02*
D03*
Y0191240D02*
D03*
Y0190740D02*
D03*
Y0190240D02*
D03*
Y0189740D02*
D03*
Y0189240D02*
D03*
Y0188740D02*
D03*
Y0188240D02*
D03*
Y0187740D02*
D03*
Y0187240D02*
D03*
Y0186740D02*
D03*
Y0186240D02*
D03*
Y0185740D02*
D03*
Y0185240D02*
D03*
Y0184740D02*
D03*
Y0184240D02*
D03*
Y0183740D02*
D03*
Y0183240D02*
D03*
Y0182740D02*
D03*
Y0182240D02*
D03*
Y0181740D02*
D03*
Y0181240D02*
D03*
Y0180740D02*
D03*
D39*
X0302210Y0202185D02*
D03*
X0302860D02*
D03*
X0303510D02*
D03*
X0304160D02*
D03*
X0304810D02*
D03*
X0305460D02*
D03*
X0306110D02*
D03*
X0306760D02*
D03*
X0307410D02*
D03*
X0308060D02*
D03*
X0308710D02*
D03*
X0309360D02*
D03*
X0310010D02*
D03*
X0310660D02*
D03*
X0302210Y0209185D02*
D03*
X0302860D02*
D03*
X0303510D02*
D03*
X0304160D02*
D03*
X0304810D02*
D03*
X0305460D02*
D03*
X0306110D02*
D03*
X0306760D02*
D03*
X0307410D02*
D03*
X0308060D02*
D03*
X0308710D02*
D03*
X0309360D02*
D03*
X0310010D02*
D03*
X0310660D02*
D03*
D40*
X0312600Y0213940D02*
X0312700Y0213840D01*
X0314375Y0213415D02*
X0314500Y0213290D01*
X0291000Y0211140D02*
X0291000Y0212740D01*
X0313400Y0202200D02*
Y0204490D01*
X0320610Y0197280D02*
X0320860D01*
X0289200Y0211140D02*
Y0211240D01*
X0307301Y0181841D02*
X0307327D01*
X0309450Y0183990D02*
X0309476D01*
X0312675Y0187215D02*
X0312701D01*
X0314824Y0189364D02*
X0314850D01*
X0299893Y0190439D02*
X0315925D01*
X0289150Y0220340D02*
Y0223740D01*
X0289150Y0216290D02*
X0289150Y0220340D01*
X0306650Y0212290D02*
X0307410Y0211530D01*
X0296540Y0207890D02*
X0299390Y0210740D01*
X0294600Y0190740D02*
X0294800Y0190540D01*
X0289200Y0191590D02*
Y0192540D01*
X0266300Y0200365D02*
X0273216Y0207281D01*
X0280800Y0200790D02*
Y0204740D01*
X0280750Y0200740D02*
X0280800Y0200790D01*
X0294003Y0193104D02*
Y0193748D01*
X0293639Y0192740D02*
X0294003Y0193104D01*
X0292725Y0192740D02*
X0293639D01*
X0294604Y0179015D02*
X0298596D01*
X0294021Y0179598D02*
X0294604Y0179015D01*
X0294021Y0179598D02*
Y0180383D01*
X0293664Y0180740D02*
X0294021Y0180383D01*
X0298596Y0179015D02*
X0298596Y0179015D01*
X0292725Y0180740D02*
X0293664D01*
X0298596Y0179015D02*
X0301510D01*
X0304336Y0181841D01*
X0293801Y0181240D02*
X0294471Y0180570D01*
Y0179784D02*
X0294790Y0179465D01*
X0294471Y0179784D02*
Y0180570D01*
X0292725Y0181240D02*
X0293801D01*
X0317398Y0192500D02*
X0317960Y0191938D01*
Y0190730D02*
Y0191938D01*
Y0190730D02*
X0319000Y0189690D01*
X0288050Y0170240D02*
X0289250Y0169040D01*
X0288050Y0170240D02*
Y0176535D01*
X0301560Y0177594D02*
X0303683Y0179717D01*
X0301560Y0177542D02*
Y0177594D01*
X0299634Y0175616D02*
X0301560Y0177542D01*
X0299820Y0175166D02*
X0303040Y0178386D01*
X0298726Y0176066D02*
X0300600Y0177940D01*
X0291328Y0175166D02*
X0299820D01*
X0303040Y0178386D02*
Y0178438D01*
X0291515Y0175616D02*
X0299634D01*
X0291701Y0176066D02*
X0298726D01*
X0291500Y0177540D02*
X0295800D01*
X0291200Y0177840D02*
X0291500Y0177540D01*
X0291200Y0177840D02*
Y0179215D01*
X0298468Y0189650D02*
X0300358Y0191540D01*
X0297043Y0189650D02*
X0298468D01*
X0298654Y0189200D02*
X0299893Y0190439D01*
X0297229Y0189200D02*
X0298654D01*
X0299455Y0189364D02*
X0314824D01*
X0298840Y0188750D02*
X0299455Y0189364D01*
X0297416Y0188750D02*
X0298840D01*
X0297231Y0188565D02*
X0297416Y0188750D01*
X0297602Y0188300D02*
X0313760D01*
X0297417Y0188115D02*
X0297602Y0188300D01*
X0293856Y0188565D02*
X0297231D01*
X0293670Y0188115D02*
X0297417D01*
X0295825Y0187565D02*
X0297575D01*
X0297044Y0189015D02*
X0297229Y0189200D01*
X0294043Y0189015D02*
X0297044D01*
X0295000Y0186740D02*
X0295825Y0187565D01*
X0296858Y0189465D02*
X0297043Y0189650D01*
X0294229Y0189465D02*
X0296858D01*
X0296600Y0190740D02*
X0298200D01*
X0304640Y0178757D02*
X0305575D01*
X0304397Y0179000D02*
X0304640Y0178757D01*
X0303602Y0179000D02*
X0304397D01*
X0303040Y0178438D02*
X0303602Y0179000D01*
X0303683Y0179717D02*
X0305177D01*
X0289200Y0192540D02*
Y0194265D01*
X0289200Y0192540D02*
X0289200Y0192540D01*
X0286000Y0192540D02*
X0289200D01*
X0289200Y0191590D02*
X0290050Y0190740D01*
X0292725D01*
X0273000Y0166040D02*
X0279886D01*
X0282450Y0168604D01*
X0280063Y0165580D02*
X0282900Y0168417D01*
X0280249Y0165130D02*
X0283350Y0168231D01*
X0276250Y0167290D02*
X0277250D01*
X0275540Y0166580D02*
X0276250Y0167290D01*
X0273852Y0166580D02*
X0275540D01*
X0294415Y0189915D02*
X0295585D01*
X0293545Y0188240D02*
X0293670Y0188115D01*
X0293681Y0188740D02*
X0293856Y0188565D01*
X0293818Y0189240D02*
X0294043Y0189015D01*
X0293954Y0189740D02*
X0294229Y0189465D01*
X0294090Y0190240D02*
X0294415Y0189915D01*
X0295585D02*
X0296410Y0190740D01*
X0296600D01*
X0302441Y0161605D02*
X0303466Y0160580D01*
X0305290Y0161330D02*
X0305500Y0161540D01*
X0303352Y0161330D02*
X0305290D01*
X0302627Y0162055D02*
X0303352Y0161330D01*
X0277250Y0167290D02*
X0277250Y0167290D01*
X0285700Y0192840D02*
X0286000Y0192540D01*
X0301836Y0211540D02*
X0302860Y0210516D01*
X0299400Y0210740D02*
X0302000D01*
X0292725Y0190240D02*
X0294090D01*
X0292725Y0189740D02*
X0293954D01*
X0292725Y0189240D02*
X0293818D01*
X0292725Y0188740D02*
X0293681D01*
X0292725Y0188240D02*
X0293545D01*
X0295600Y0185740D02*
X0296600Y0186740D01*
X0292725Y0185740D02*
X0295600D01*
X0294950Y0183740D02*
X0295025Y0183815D01*
X0292725Y0183740D02*
X0294950D01*
X0299400Y0195880D02*
Y0200190D01*
Y0195880D02*
X0300540Y0194740D01*
X0302005Y0197725D02*
X0302860Y0198580D01*
X0302005Y0195815D02*
Y0197725D01*
Y0195815D02*
X0303080Y0194740D01*
X0304160Y0196200D02*
Y0202185D01*
Y0196200D02*
X0305620Y0194740D01*
X0305460Y0199280D02*
X0307085Y0197655D01*
Y0195815D02*
Y0197655D01*
Y0195815D02*
X0308160Y0194740D01*
X0309400Y0196040D02*
X0310700Y0194740D01*
X0309400Y0196040D02*
Y0197740D01*
X0306760Y0200380D02*
X0309400Y0197740D01*
X0307410Y0200570D02*
X0310700Y0197280D01*
X0306110Y0199330D02*
Y0202185D01*
X0305460Y0199280D02*
Y0202185D01*
X0308150Y0223240D02*
X0310000Y0221390D01*
X0308000Y0223240D02*
X0308150D01*
X0306750Y0224790D02*
X0309000D01*
X0310000Y0223790D01*
Y0223190D02*
Y0223790D01*
X0308000Y0221340D02*
X0308000Y0221340D01*
X0306000Y0221340D02*
X0308000D01*
X0306000Y0223240D02*
Y0224040D01*
X0306750Y0224790D01*
X0304200Y0221590D02*
X0305750D01*
X0306000Y0221340D01*
X0308060Y0209185D02*
Y0212980D01*
X0307200Y0213840D02*
X0308060Y0212980D01*
X0305000Y0213940D02*
X0306650Y0212290D01*
X0306750D01*
X0306110Y0209185D02*
Y0210288D01*
X0290050Y0165740D02*
Y0166540D01*
Y0165740D02*
X0290275Y0165515D01*
X0297675D01*
X0298910Y0166750D01*
X0309695D01*
X0284465Y0163780D02*
X0292788D01*
X0285535Y0163330D02*
X0292975D01*
X0287482Y0162880D02*
X0293161D01*
X0286040Y0161438D02*
X0287482Y0162880D01*
X0288339Y0162379D02*
X0293297D01*
X0287000Y0161040D02*
X0288339Y0162379D01*
X0290796Y0161479D02*
X0293669D01*
X0285673Y0156355D02*
X0290796Y0161479D01*
X0296619Y0164807D02*
X0297264Y0164162D01*
X0292542Y0164807D02*
X0296619D01*
X0292416Y0164680D02*
X0292542Y0164807D01*
X0295711Y0164357D02*
X0296290Y0163778D01*
X0292729Y0164357D02*
X0295711D01*
X0292602Y0164230D02*
X0292729Y0164357D01*
X0296866Y0163202D02*
X0297662D01*
X0296290Y0163778D02*
X0296866Y0163202D01*
X0296290Y0163778D02*
Y0163778D01*
X0295693Y0163739D02*
X0296680Y0162752D01*
X0295390Y0163405D02*
X0296494Y0162302D01*
X0293050Y0163405D02*
X0295390D01*
X0295204Y0162955D02*
X0296307Y0161852D01*
X0293236Y0162955D02*
X0295204D01*
X0295017Y0162505D02*
X0296121Y0161402D01*
X0293423Y0162505D02*
X0295017D01*
X0294831Y0162055D02*
X0295934Y0160952D01*
X0293609Y0162055D02*
X0294831D01*
X0294645Y0161605D02*
X0295748Y0160502D01*
X0293795Y0161605D02*
X0294645D01*
X0290700Y0177704D02*
Y0179215D01*
X0290200Y0177567D02*
X0291701Y0176066D01*
X0290200Y0177567D02*
Y0179215D01*
X0289200Y0177931D02*
X0291515Y0175616D01*
X0289200Y0177931D02*
Y0179215D01*
X0288700Y0177794D02*
X0291328Y0175166D01*
X0288700Y0177794D02*
Y0179215D01*
X0288200Y0177658D02*
X0290050Y0175808D01*
X0288200Y0177658D02*
Y0179215D01*
X0287700Y0177522D02*
X0288700Y0176522D01*
X0287700Y0177522D02*
Y0179215D01*
X0287200Y0177385D02*
Y0179215D01*
Y0177385D02*
X0288050Y0176535D01*
X0288700Y0172340D02*
Y0176522D01*
X0290050Y0174790D02*
Y0175808D01*
X0298410Y0179465D02*
X0301323D01*
X0298410Y0179465D02*
X0298410Y0179465D01*
X0294790Y0179465D02*
X0298410D01*
X0301323Y0179465D02*
X0304800Y0182942D01*
X0295693Y0163739D02*
Y0163739D01*
X0293161Y0162880D02*
X0293236Y0162955D01*
X0293297Y0162379D02*
X0293423Y0162505D01*
X0293483Y0161929D02*
X0293609Y0162055D01*
X0289889Y0161929D02*
X0293483D01*
X0293669Y0161479D02*
X0293795Y0161605D01*
X0289000Y0161040D02*
X0289889Y0161929D01*
X0280085Y0157880D02*
X0285535Y0163330D01*
X0292975D02*
X0293050Y0163405D01*
X0281105Y0160420D02*
X0284465Y0163780D01*
X0292788D02*
X0292863Y0163855D01*
X0295577D01*
X0279835Y0157880D02*
X0280085D01*
X0283350Y0168231D02*
Y0175890D01*
X0280750Y0167540D02*
X0282000Y0168790D01*
X0277500Y0167540D02*
X0280750D01*
X0282000Y0168790D02*
Y0177340D01*
X0277250Y0167290D02*
X0277500Y0167540D01*
X0282450Y0168604D02*
Y0176263D01*
X0282900Y0168417D02*
Y0176076D01*
X0295577Y0163855D02*
X0295693Y0163739D01*
X0288700Y0172340D02*
X0289500Y0171540D01*
X0290050D01*
X0289250Y0169040D02*
X0290050D01*
X0316564Y0163354D02*
X0317420Y0164210D01*
X0286040Y0160025D02*
Y0161438D01*
X0282820Y0156805D02*
X0286040Y0160025D01*
X0303535Y0162505D02*
X0303750Y0162290D01*
X0275935Y0156355D02*
X0285673D01*
X0276025Y0157630D02*
X0276850Y0156805D01*
X0276025Y0157630D02*
Y0160420D01*
X0276850Y0156805D02*
X0282820D01*
X0270235Y0162055D02*
X0275935Y0156355D01*
X0264485Y0162055D02*
X0270235D01*
X0291710Y0196040D02*
X0292250D01*
X0291035Y0195365D02*
X0291710Y0196040D01*
X0286700Y0195051D02*
X0287014Y0195365D01*
X0286700Y0194265D02*
Y0195051D01*
X0281132Y0197165D02*
X0282700Y0195597D01*
Y0194265D02*
Y0195597D01*
X0280946Y0196715D02*
X0282200Y0195461D01*
Y0194265D02*
Y0195461D01*
X0280759Y0196265D02*
X0281700Y0195324D01*
Y0194265D02*
Y0195324D01*
X0280650Y0194315D02*
Y0195101D01*
X0280386Y0195365D02*
X0280650Y0195101D01*
X0285700Y0192840D02*
Y0194265D01*
X0281200D02*
Y0195188D01*
X0280573Y0195815D02*
X0281200Y0195188D01*
X0269225Y0195365D02*
X0280386D01*
X0306110Y0199330D02*
X0308160Y0197280D01*
X0306760Y0200380D02*
Y0202185D01*
X0307410Y0200570D02*
Y0202185D01*
X0308060Y0200680D02*
X0310000Y0198740D01*
X0308060Y0200680D02*
Y0202185D01*
X0308710Y0200721D02*
X0310241Y0199190D01*
X0308710Y0200721D02*
Y0202185D01*
X0309360Y0200707D02*
Y0202185D01*
Y0200707D02*
X0310427Y0199640D01*
X0310010Y0200694D02*
X0310614Y0200090D01*
X0310010Y0200694D02*
Y0202185D01*
X0310614Y0200090D02*
X0312970D01*
X0310427Y0199640D02*
X0312400D01*
X0310241Y0199190D02*
X0311330D01*
X0310000Y0198740D02*
X0310760D01*
X0311775Y0197725D01*
Y0196205D02*
Y0197725D01*
X0311330Y0199190D02*
X0313240Y0197280D01*
X0304810Y0198090D02*
Y0202185D01*
X0302860Y0198580D02*
Y0202185D01*
X0311000Y0200680D02*
X0313900D01*
X0310660Y0201020D02*
X0311000Y0200680D01*
X0310660Y0201020D02*
Y0202185D01*
X0304810Y0198090D02*
X0305620Y0197280D01*
X0306252Y0179434D02*
Y0180792D01*
X0305575Y0178757D02*
X0306252Y0179434D01*
X0283350Y0175890D02*
X0285200Y0177740D01*
X0282900Y0176076D02*
X0284700Y0177876D01*
X0282450Y0176263D02*
X0284200Y0178013D01*
X0285200Y0177740D02*
Y0179215D01*
X0284700Y0177876D02*
Y0179215D01*
X0284200Y0178013D02*
Y0179215D01*
X0286700Y0176340D02*
Y0179215D01*
Y0176340D02*
X0286800Y0176240D01*
X0285200Y0176990D02*
X0286200Y0177990D01*
Y0179215D01*
X0285200Y0176240D02*
Y0176990D01*
X0304800Y0182942D02*
X0308402D01*
X0304336Y0181841D02*
X0307301D01*
X0275800Y0187340D02*
X0276200Y0187740D01*
X0277675D01*
X0293750Y0173840D02*
X0293750Y0173840D01*
X0267524Y0196265D02*
X0280759D01*
X0267429Y0196360D02*
X0267524Y0196265D01*
X0265855Y0196360D02*
X0267429D01*
X0264780Y0195285D02*
X0265855Y0196360D01*
X0267680Y0193820D02*
X0269225Y0195365D01*
X0265343Y0193820D02*
X0267680D01*
X0268735Y0197165D02*
X0281132D01*
X0263760Y0197825D02*
X0264780D01*
X0310000Y0212540D02*
Y0214550D01*
X0309360Y0209185D02*
Y0211900D01*
X0310000Y0212540D01*
X0308710Y0213650D02*
X0308900Y0213840D01*
X0309000Y0213940D01*
X0307200Y0213840D02*
X0308900D01*
X0308710Y0209185D02*
Y0213650D01*
X0307410Y0209185D02*
Y0211530D01*
X0310010Y0209185D02*
Y0210950D01*
X0266830Y0195815D02*
X0280573D01*
X0273600Y0182990D02*
X0275550D01*
X0275600Y0183040D01*
Y0183740D01*
X0276100Y0184240D01*
X0277675D01*
X0263719Y0180045D02*
X0263760D01*
Y0195285D02*
X0264780D01*
X0263760Y0190205D02*
X0264538D01*
X0263760Y0187665D02*
X0265225Y0189130D01*
X0263760Y0185125D02*
X0264538D01*
X0276400Y0192740D02*
X0276400Y0192740D01*
X0277675D01*
X0264538Y0190205D02*
X0266003Y0191670D01*
X0266745D01*
X0263760Y0192745D02*
X0264268D01*
X0265343Y0193820D01*
X0280650Y0194315D02*
X0280700Y0194265D01*
X0266300Y0195285D02*
X0266830Y0195815D01*
X0266600Y0197825D02*
X0267710Y0196715D01*
X0266300Y0197825D02*
X0266600D01*
X0267710Y0196715D02*
X0280946D01*
X0292725Y0190740D02*
X0294600D01*
X0305000Y0213940D02*
X0305010D01*
X0306760Y0209185D02*
X0306800Y0209225D01*
X0309000Y0215540D02*
X0309010D01*
X0310000Y0214550D01*
X0305460Y0209185D02*
Y0210288D01*
X0288705Y0214635D02*
X0289200Y0214140D01*
X0287600Y0214635D02*
X0288705D01*
X0288765Y0215905D02*
X0289150Y0216290D01*
X0287600Y0215905D02*
X0288765D01*
X0290800Y0223690D02*
X0290850Y0223740D01*
X0290800Y0220190D02*
X0290950Y0220340D01*
X0290835Y0217175D02*
X0292400D01*
X0290800Y0217140D02*
X0290835Y0217175D01*
X0290800Y0217140D02*
Y0220190D01*
X0289200Y0212940D02*
X0289200Y0212940D01*
X0290900Y0212840D02*
X0291000Y0212740D01*
X0289200Y0211240D02*
X0289200Y0212940D01*
X0289200Y0211240D02*
X0289200Y0211240D01*
X0289100Y0211140D02*
X0289200Y0211240D01*
X0299400Y0200190D02*
X0301660D01*
X0302210Y0200740D01*
Y0202185D01*
X0299400Y0202090D02*
Y0204040D01*
X0299400Y0204040D02*
X0299400Y0204040D01*
X0303510Y0207130D02*
X0303600Y0207040D01*
X0313400Y0202200D02*
X0318320Y0197280D01*
X0302210Y0209185D02*
Y0210530D01*
X0302000Y0210740D02*
X0302210Y0210530D01*
X0302860Y0209185D02*
Y0210516D01*
X0303080Y0197280D02*
X0303510Y0197710D01*
Y0202185D01*
X0311775Y0196205D02*
X0313240Y0194740D01*
X0312400Y0199640D02*
X0314705Y0197335D01*
X0312970Y0200090D02*
X0315780Y0197280D01*
X0314705Y0195815D02*
Y0197335D01*
Y0195815D02*
X0315780Y0194740D01*
X0314824Y0189364D02*
X0314850Y0189390D01*
X0312675Y0187215D02*
X0312701Y0187241D01*
X0309450Y0183990D02*
X0309476Y0184016D01*
X0307301Y0181841D02*
X0307327Y0181867D01*
X0279700Y0177640D02*
Y0179215D01*
Y0177640D02*
X0279775Y0177565D01*
X0274545Y0187340D02*
X0275800D01*
X0290800Y0212940D02*
Y0217140D01*
Y0212940D02*
X0292800D01*
X0290800Y0212940D02*
X0290800Y0212940D01*
X0287600Y0212940D02*
X0289200D01*
Y0211240D02*
Y0212940D01*
Y0214140D01*
X0295800Y0180790D02*
Y0182540D01*
X0295550Y0180540D02*
X0295800Y0180790D01*
X0302500Y0221590D02*
X0304200D01*
X0302400Y0221490D02*
X0302500Y0221590D01*
X0297850Y0221390D02*
X0300200D01*
X0297800Y0221340D02*
X0297850Y0221390D01*
X0311000Y0211940D02*
Y0213940D01*
X0310010Y0210950D02*
X0311000Y0211940D01*
X0292400Y0217175D02*
X0294435D01*
X0294800Y0217540D01*
X0294800Y0215290D02*
X0295760Y0216250D01*
X0294185Y0215905D02*
X0294800Y0215290D01*
X0292400Y0215905D02*
X0294185D01*
X0289685Y0173855D02*
X0289700Y0173840D01*
X0292725Y0186240D02*
X0293900D01*
X0294400Y0186740D02*
X0295000D01*
X0293900Y0186240D02*
X0294400Y0186740D01*
X0292725Y0184240D02*
X0292750Y0184265D01*
X0313760Y0188300D02*
X0313776Y0188316D01*
X0264538Y0185125D02*
X0266003Y0186590D01*
X0266745D01*
X0269065Y0181290D02*
X0273600D01*
X0266745Y0178970D02*
X0269065Y0181290D01*
X0320860Y0191580D02*
Y0194140D01*
Y0191580D02*
X0321000Y0191440D01*
X0319050Y0189640D02*
X0321000D01*
X0319000Y0189690D02*
X0319050Y0189640D01*
X0319000Y0191390D02*
Y0193460D01*
X0318320Y0194140D02*
X0319000Y0193460D01*
X0317000Y0195460D02*
X0318320Y0194140D01*
X0313900Y0200680D02*
X0317000Y0197580D01*
Y0195460D02*
Y0197580D01*
X0311000Y0213940D02*
X0312600D01*
X0300358Y0191540D02*
X0317000D01*
X0304000Y0178040D02*
X0304140Y0178180D01*
X0309695D01*
X0305630Y0176910D02*
X0309695D01*
X0305500Y0177040D02*
X0305630Y0176910D01*
X0303600Y0207040D02*
X0304300D01*
X0304810Y0207550D01*
Y0209185D01*
X0303510Y0207130D02*
Y0209185D01*
X0310660Y0205880D02*
Y0209185D01*
X0299400Y0207040D02*
X0303600D01*
X0299400D02*
Y0209140D01*
X0312050Y0204490D02*
X0313400D01*
X0310660Y0205880D02*
X0312050Y0204490D01*
X0307200Y0170190D02*
X0307455Y0169935D01*
X0316750Y0164210D02*
X0317420D01*
X0318895D01*
X0265508Y0181510D02*
X0266745D01*
X0263760Y0182585D02*
X0264433D01*
X0265508Y0181510D01*
X0263760Y0180045D02*
X0264835Y0178970D01*
X0266745D01*
X0295760Y0216250D02*
Y0222300D01*
X0296900Y0223440D01*
X0297800D01*
X0310000Y0223190D02*
X0311050Y0222140D01*
X0279200Y0193240D02*
Y0194265D01*
Y0193240D02*
X0280240Y0192200D01*
X0262000Y0168790D02*
X0262000Y0168790D01*
X0260554Y0167594D02*
X0260710Y0167750D01*
X0262500Y0166790D02*
X0264610Y0164680D01*
X0260710Y0167750D02*
X0262898D01*
X0265518Y0165130D01*
X0262000Y0168790D02*
X0262494D01*
X0264780Y0197825D02*
X0265855Y0198900D01*
X0267000D01*
X0268735Y0197165D01*
X0297650Y0180540D02*
X0299500D01*
X0297210Y0182540D02*
X0297400D01*
X0292725Y0182740D02*
X0295600D01*
X0295800Y0182540D01*
X0292725Y0183240D02*
X0295086D01*
X0296600Y0186740D02*
X0297600Y0185740D01*
X0298000D01*
X0295086Y0183240D02*
X0295211Y0183365D01*
X0296385D01*
X0297210Y0182540D01*
X0292725Y0185240D02*
X0297142D01*
X0292725Y0184740D02*
X0297006D01*
X0292750Y0184265D02*
X0296844D01*
X0300832Y0187215D02*
X0312675D01*
X0296844Y0184265D02*
X0297229Y0183880D01*
X0296658Y0183815D02*
X0297043Y0183430D01*
X0297142Y0185240D02*
X0297602Y0184780D01*
X0297006Y0184740D02*
X0297416Y0184330D01*
X0295025Y0183815D02*
X0296658D01*
X0299250Y0192290D02*
X0299460Y0192500D01*
X0317398D01*
X0275600Y0181140D02*
Y0181240D01*
X0274000Y0179540D02*
X0275600Y0181140D01*
X0295000Y0190740D02*
X0296250Y0191990D01*
Y0192290D01*
X0263760Y0200515D02*
X0270976Y0207731D01*
X0294946D01*
X0294759Y0207281D02*
X0295250Y0206790D01*
Y0193479D02*
Y0206790D01*
X0273216Y0207281D02*
X0294759D01*
X0266745Y0186590D02*
X0267375Y0187220D01*
X0266300Y0185125D02*
X0267825Y0186650D01*
X0272550Y0187940D02*
X0272850Y0188240D01*
X0266300Y0187665D02*
Y0188048D01*
Y0190205D02*
X0267835Y0191740D01*
X0266745Y0191670D02*
X0267315Y0192240D01*
X0277670Y0192745D02*
X0277675Y0192740D01*
X0266300Y0192745D02*
X0277670D01*
X0267315Y0192240D02*
X0277675D01*
X0267835Y0191740D02*
X0277675D01*
X0268855Y0191240D02*
X0277675D01*
X0268992Y0190740D02*
X0277675D01*
X0269128Y0190240D02*
X0277675D01*
X0269264Y0189740D02*
X0277675D01*
X0269401Y0189240D02*
X0277675D01*
X0265225Y0189130D02*
X0266745D01*
X0267375Y0187220D02*
Y0188487D01*
X0267825Y0186650D02*
Y0188301D01*
X0266745Y0189130D02*
X0268855Y0191240D01*
X0266300Y0188048D02*
X0268992Y0190740D01*
X0267375Y0188487D02*
X0269128Y0190240D01*
X0267825Y0188301D02*
X0269264Y0189740D01*
X0268418Y0188257D02*
X0269401Y0189240D01*
X0268906Y0188109D02*
X0269537Y0188740D01*
X0277675D01*
X0273350Y0188240D02*
X0273360Y0188250D01*
X0277665D02*
X0277675Y0188240D01*
X0274295Y0187340D02*
X0274345Y0187290D01*
X0274500D01*
X0266745Y0181510D02*
X0268906Y0183671D01*
X0266300Y0182585D02*
X0268418Y0184703D01*
Y0188257D01*
X0268906Y0183671D02*
Y0188109D01*
X0273110Y0188250D02*
X0273360D01*
X0277665D01*
X0284200Y0194265D02*
Y0195590D01*
X0283500Y0196290D02*
X0284200Y0195590D01*
X0285700Y0194265D02*
Y0196190D01*
X0286250Y0196740D01*
X0286200Y0194265D02*
Y0195188D01*
X0286827Y0195815D01*
X0280750Y0200740D02*
X0283800D01*
X0284700Y0199840D01*
X0286000Y0200740D02*
X0289250D01*
X0285200Y0199940D02*
X0286000Y0200740D01*
X0285200Y0194265D02*
Y0199940D01*
X0284700Y0194265D02*
Y0199840D01*
X0283500Y0196290D02*
Y0198040D01*
X0300694Y0163354D02*
X0316564D01*
X0300482Y0162505D02*
X0303535D01*
X0300668Y0162055D02*
X0302627D01*
X0300855Y0161605D02*
X0302441D01*
X0295748Y0160502D02*
X0299751D01*
X0300855Y0161605D01*
X0295934Y0160952D02*
X0299565D01*
X0300668Y0162055D01*
X0296121Y0161402D02*
X0299378D01*
X0300482Y0162505D01*
X0296307Y0161852D02*
X0299192D01*
X0300694Y0163354D01*
X0300914Y0164210D02*
X0309695D01*
X0296494Y0162302D02*
X0299006D01*
X0300914Y0164210D01*
X0301548Y0165480D02*
X0309695D01*
X0296680Y0162752D02*
X0298819D01*
X0301548Y0165480D01*
X0298750Y0164290D02*
X0299000D01*
X0297662Y0163202D02*
X0298750Y0164290D01*
X0272932Y0167500D02*
X0273852Y0166580D01*
X0262494Y0168790D02*
X0264454Y0166830D01*
X0272500Y0166540D02*
X0273000Y0166040D01*
X0262810Y0164230D02*
X0292602D01*
X0264610Y0164680D02*
X0292416D01*
X0265518Y0165130D02*
X0280249D01*
X0264454Y0166830D02*
X0268790D01*
X0269460Y0167500D01*
X0272932D01*
X0270500Y0166290D02*
X0271210Y0165580D01*
X0280063D01*
X0295800Y0177540D02*
X0296260Y0178000D01*
X0298420D01*
X0298440Y0177980D01*
X0290700Y0177704D02*
X0291364Y0177040D01*
X0297000D01*
X0296750Y0212040D02*
X0297250Y0211540D01*
X0301836D01*
X0303258Y0213140D02*
X0306110Y0210288D01*
X0306760Y0209185D02*
Y0210480D01*
X0302750Y0211990D02*
X0304160Y0210580D01*
Y0209185D02*
Y0210580D01*
X0303250Y0213990D02*
X0306760Y0210480D01*
X0303058Y0212690D02*
X0305460Y0210288D01*
X0301500Y0213640D02*
X0302000Y0213140D01*
X0301500Y0213640D02*
Y0213990D01*
X0302000Y0213140D02*
X0303258D01*
X0299750Y0213990D02*
X0301500D01*
X0299750Y0213990D02*
X0299750Y0213990D01*
X0299050Y0211990D02*
X0302750D01*
X0297550Y0213490D02*
X0299050Y0211990D01*
X0297550Y0213490D02*
Y0221090D01*
X0297800Y0221340D01*
X0298500Y0214290D02*
X0298800Y0213990D01*
X0298500Y0214290D02*
Y0216540D01*
X0299440Y0212690D02*
X0303058D01*
X0298050Y0214080D02*
X0299440Y0212690D01*
X0298050Y0217140D02*
X0302400Y0221490D01*
X0298050Y0214080D02*
Y0217140D01*
X0298500Y0216540D02*
X0300000Y0218040D01*
X0298800Y0213990D02*
X0299750D01*
X0309250Y0218040D02*
X0310000Y0218790D01*
Y0221390D01*
X0300000Y0218040D02*
X0309250D01*
X0310000Y0216790D02*
X0311050Y0217840D01*
Y0222140D01*
X0299750Y0215590D02*
Y0216540D01*
X0300000Y0216790D01*
X0310000D01*
X0261500Y0165290D02*
X0261750D01*
X0262810Y0164230D01*
X0296540Y0198140D02*
X0298000Y0196680D01*
X0296540Y0198140D02*
Y0207890D01*
X0299390Y0210740D02*
X0299400D01*
X0297500Y0207040D02*
X0297500Y0207040D01*
X0299400D01*
X0297575Y0187565D02*
X0297850Y0187290D01*
X0298500D01*
X0287014Y0195365D02*
X0291035D01*
X0286827Y0195815D02*
X0289525D01*
X0290250Y0196540D01*
X0303466Y0160580D02*
X0306639D01*
X0306835Y0160383D01*
X0297602Y0184780D02*
X0298397D01*
X0300832Y0187215D01*
X0299917Y0183990D02*
X0309450D01*
X0300382Y0185091D02*
X0310551D01*
X0300820Y0186166D02*
X0311626D01*
X0297416Y0184330D02*
X0298984D01*
X0300820Y0186166D01*
X0297229Y0183880D02*
X0299170D01*
X0300382Y0185091D01*
X0297043Y0183430D02*
X0299357D01*
X0299917Y0183990D01*
X0299368Y0182540D02*
X0299502Y0182406D01*
X0297400Y0182540D02*
X0299368D01*
X0285200Y0174642D02*
Y0176240D01*
X0285090Y0174531D02*
X0285200Y0174642D01*
X0286800Y0174723D02*
Y0176240D01*
Y0174723D02*
X0287004Y0174519D01*
X0294946Y0207731D02*
X0295700Y0206976D01*
Y0193292D02*
Y0206976D01*
X0292725Y0191240D02*
X0294002D01*
X0293866Y0191740D02*
X0294625Y0192499D01*
Y0192853D01*
X0295075Y0192313D02*
Y0192667D01*
X0295700Y0193292D01*
X0294002Y0191240D02*
X0295075Y0192313D01*
X0292725Y0191740D02*
X0293866D01*
X0294625Y0192853D02*
X0295250Y0193479D01*
X0307455Y0169935D02*
X0311025D01*
X0316750Y0164210D01*
X0290800Y0222140D02*
Y0223690D01*
D41*
X0314500Y0211790D02*
Y0213290D01*
X0328090Y0203950D02*
Y0208127D01*
X0326540Y0203950D02*
X0328090D01*
X0302400Y0223390D02*
X0304000D01*
X0300200D02*
X0302400D01*
X0310740Y0157550D02*
X0313290D01*
X0322590Y0141950D02*
Y0146127D01*
X0270550Y0185040D02*
X0275100D01*
X0275150Y0213540D02*
Y0213820D01*
X0275260Y0213030D02*
X0275450Y0213220D01*
X0320500Y0157790D02*
X0320740Y0157550D01*
X0294800Y0213104D02*
X0295200Y0213504D01*
X0294750Y0213054D02*
Y0213390D01*
X0285150Y0213154D02*
X0288339Y0209965D01*
X0214901Y0212705D02*
X0227915D01*
X0239495Y0160420D02*
Y0161035D01*
X0257205Y0160370D02*
X0257495Y0160080D01*
X0249390Y0202582D02*
X0250091Y0203283D01*
X0248400Y0202582D02*
X0249390D01*
X0248400D02*
Y0204740D01*
X0213950Y0181590D02*
X0215450D01*
X0212095Y0183445D02*
X0213950Y0181590D01*
X0326500Y0213100D02*
X0326560D01*
X0312800Y0213940D02*
X0314100D01*
X0314500Y0213540D01*
X0334450Y0160604D02*
Y0163476D01*
X0334186Y0160340D02*
X0334450Y0160604D01*
X0329620Y0160340D02*
X0334186D01*
X0327920Y0162040D02*
X0329620Y0160340D01*
X0329906Y0168020D02*
X0334450Y0163476D01*
X0318895Y0168020D02*
X0329906D01*
X0325750Y0166750D02*
X0330460Y0162040D01*
X0325380D02*
Y0163660D01*
X0323560Y0165480D02*
X0325380Y0163660D01*
X0330460Y0196205D02*
Y0199540D01*
X0324640Y0203950D02*
X0326540D01*
X0324540Y0203850D02*
X0324640Y0203950D01*
X0323690Y0205650D02*
X0324540D01*
X0322765Y0204725D02*
X0323690Y0205650D01*
X0321840Y0203800D02*
X0322765Y0204725D01*
X0321040Y0203800D02*
X0321840D01*
X0316790Y0208650D02*
X0316970D01*
X0324540Y0213850D02*
Y0215650D01*
X0316790Y0210350D02*
Y0212450D01*
X0325540Y0209220D02*
X0326997D01*
X0325220Y0208900D02*
X0325540Y0209220D01*
X0326997D02*
X0328090Y0208127D01*
X0324540Y0208900D02*
X0325220D01*
X0322790Y0212150D02*
X0324540D01*
X0322890Y0208900D02*
X0324540D01*
X0322790Y0208800D02*
X0322890Y0208900D01*
X0316790Y0207200D02*
Y0208650D01*
X0326490Y0215650D02*
X0326500Y0215640D01*
X0324540Y0215650D02*
X0326490D01*
X0325550Y0212150D02*
X0326500Y0213100D01*
X0324540Y0212150D02*
X0325550D01*
X0324580Y0210560D02*
X0326500D01*
X0324540Y0210600D02*
X0324580Y0210560D01*
X0318230Y0212450D02*
X0318880Y0213100D01*
X0316790Y0212450D02*
X0318230D01*
X0316970Y0208650D02*
X0318880Y0210560D01*
X0321560Y0210700D02*
X0322790D01*
X0318880Y0208020D02*
X0321560Y0210700D01*
X0318880Y0207711D02*
Y0208020D01*
X0214836Y0193540D02*
X0226000D01*
X0212271Y0190975D02*
X0214836Y0193540D01*
X0212141Y0207180D02*
X0214501Y0209540D01*
X0227250D01*
X0227915Y0212625D02*
Y0212705D01*
X0209780Y0217826D02*
X0214901Y0212705D01*
X0209780Y0217826D02*
Y0221660D01*
X0208080Y0223360D02*
X0209780Y0221660D01*
X0305700Y0173840D02*
X0307200D01*
X0291950Y0174040D02*
X0293750D01*
X0293750Y0174040D01*
X0291950Y0171540D02*
X0293750D01*
Y0169040D02*
X0293750Y0169040D01*
X0291950Y0169040D02*
X0293750D01*
X0291950Y0166540D02*
X0293750D01*
X0296750Y0166540D02*
Y0169040D01*
X0298000Y0171540D02*
X0299250Y0170290D01*
X0296750Y0171540D02*
X0298000D01*
X0296750D02*
Y0174040D01*
Y0169040D02*
Y0171540D01*
X0310510Y0152550D02*
X0311290D01*
X0309500Y0149790D02*
Y0151540D01*
X0310510Y0152550D01*
X0309500Y0149790D02*
X0309500Y0149790D01*
X0234250Y0160390D02*
X0234280Y0160420D01*
X0239195D01*
X0263725Y0177540D02*
X0263760Y0177505D01*
X0260000Y0177540D02*
X0263725D01*
X0259000Y0174540D02*
X0260000D01*
X0258450Y0175090D02*
X0259000Y0174540D01*
X0257500Y0175090D02*
X0258450D01*
X0257375Y0176865D02*
X0257500Y0176990D01*
X0253270Y0176865D02*
X0257375D01*
X0276600Y0171715D02*
X0280375D01*
Y0175715D01*
X0277100Y0168940D02*
Y0171215D01*
X0216930Y0168010D02*
X0225190D01*
X0216800Y0168140D02*
X0216930Y0168010D01*
X0242325Y0162715D02*
X0249975D01*
X0245106Y0163415D02*
X0247126Y0165435D01*
X0242615Y0163415D02*
X0245106D01*
X0239000Y0166040D02*
X0242325Y0162715D01*
X0238750Y0167280D02*
X0242615Y0163415D01*
X0239495Y0161035D02*
X0240600Y0162140D01*
X0230640Y0166040D02*
X0239000D01*
X0242855Y0164165D02*
X0244070D01*
X0238400Y0168620D02*
X0242855Y0164165D01*
X0231940Y0167280D02*
X0238750D01*
X0230600Y0168620D02*
X0238400D01*
X0229400Y0167280D02*
X0230640Y0166040D01*
X0229400Y0169820D02*
X0230600Y0168620D01*
X0318379Y0178180D02*
X0318895D01*
X0252250Y0224140D02*
Y0224151D01*
X0247126Y0165435D02*
X0253270D01*
X0249975Y0162715D02*
X0251425Y0164165D01*
X0253270D01*
X0214745Y0218885D02*
X0214944D01*
X0223359Y0184810D02*
X0224900Y0186351D01*
X0221955Y0184810D02*
X0223359D01*
X0224260Y0184110D02*
X0225600Y0185450D01*
X0217135Y0184110D02*
X0224260D01*
X0214745Y0186500D02*
X0217135Y0184110D01*
X0219315Y0187450D02*
X0221955Y0184810D01*
X0212403Y0187450D02*
X0219315D01*
X0212095Y0187142D02*
X0212403Y0187450D01*
X0212095Y0183445D02*
Y0187142D01*
X0307500Y0173840D02*
X0308030Y0174370D01*
X0307200Y0173840D02*
X0307500D01*
X0308030Y0174370D02*
X0309695D01*
X0309695Y0175640D02*
X0309695Y0175640D01*
X0307200Y0175640D02*
X0309695D01*
X0290950Y0220340D02*
X0293000D01*
X0293400Y0220740D01*
X0272550Y0171340D02*
X0276225D01*
X0276600Y0171715D01*
X0272550Y0173640D02*
X0273275D01*
X0276600Y0176965D01*
Y0171715D02*
X0277100Y0171215D01*
X0280375Y0175715D02*
X0280400Y0175740D01*
X0288339Y0209965D02*
X0291661D01*
X0294800Y0213104D02*
Y0213390D01*
X0294750D02*
X0294800D01*
X0291661Y0209965D02*
X0294750Y0213054D01*
X0277770Y0215760D02*
X0277790Y0215740D01*
X0253990Y0221110D02*
Y0223350D01*
X0253200Y0224140D02*
X0253990Y0223350D01*
X0252250Y0224140D02*
X0253200D01*
X0248700D02*
X0250550D01*
X0298665Y0150425D02*
Y0152095D01*
X0291045Y0150445D02*
Y0152095D01*
X0214745Y0218885D02*
X0218690Y0214940D01*
X0218889D01*
X0214944Y0218885D02*
X0218889Y0214940D01*
X0245960Y0209940D02*
X0246400D01*
X0243600Y0213240D02*
Y0214890D01*
X0255575Y0170515D02*
X0256000Y0170940D01*
X0253270Y0170515D02*
X0255575D01*
X0238275Y0176865D02*
X0244070D01*
X0225190Y0168010D02*
X0228200Y0171020D01*
X0239546D01*
X0241581Y0173055D01*
X0244070D01*
X0244040Y0175625D02*
X0244070Y0175595D01*
X0240820Y0173560D02*
X0241800Y0174540D01*
X0229400Y0172360D02*
X0230600Y0173560D01*
X0240820D01*
X0236685Y0175625D02*
X0244040D01*
X0236600Y0175540D02*
X0236685Y0175625D01*
X0323040Y0156100D02*
Y0157050D01*
X0322340Y0157750D02*
X0323040Y0157050D01*
X0320740Y0153900D02*
Y0157550D01*
Y0157750D01*
X0318460Y0157790D02*
X0320500D01*
X0321040Y0141950D02*
X0322590D01*
X0319140D02*
X0321040D01*
X0321497Y0147220D02*
X0322590Y0146127D01*
X0319720Y0146900D02*
X0320040Y0147220D01*
X0321497D01*
X0319040Y0141850D02*
X0319140Y0141950D01*
X0319040Y0146900D02*
X0319720D01*
X0315540Y0141800D02*
X0316340D01*
X0317265Y0142725D01*
X0318190Y0143650D01*
X0319040D01*
X0313380Y0146020D02*
X0316060Y0148700D01*
X0317290D01*
X0316060D02*
Y0155250D01*
X0316160Y0155350D02*
X0319040D01*
X0316060Y0155250D02*
X0316160Y0155350D01*
X0315920Y0157790D02*
X0316060Y0157650D01*
X0323040Y0153140D02*
Y0154400D01*
X0321000Y0151100D02*
X0323040Y0153140D01*
X0319040Y0151850D02*
Y0153650D01*
Y0150150D02*
X0320050D01*
X0317290D02*
X0319040D01*
X0320050D02*
X0321000Y0151100D01*
X0312790Y0143700D02*
X0315540D01*
X0311290Y0145200D02*
X0312790Y0143700D01*
X0311290Y0148350D02*
Y0150450D01*
X0311470Y0146650D02*
X0313380Y0148560D01*
X0311290Y0145200D02*
Y0146650D01*
X0311470D01*
X0319040Y0153650D02*
X0320990D01*
X0321000Y0153640D01*
Y0148560D02*
X0322930D01*
X0323040Y0148450D01*
X0311290Y0150450D02*
X0312730D01*
X0313380Y0151100D01*
X0319080Y0148560D02*
X0321000D01*
X0319040Y0148600D02*
X0319080Y0148560D01*
X0317390Y0146900D02*
X0319040D01*
X0317290Y0146800D02*
X0317390Y0146900D01*
X0313380Y0145711D02*
Y0146020D01*
X0318895Y0165480D02*
X0323560D01*
X0318895Y0175640D02*
X0323695D01*
X0327920Y0171415D01*
X0315500Y0185540D02*
X0319500D01*
X0318895Y0178180D02*
X0326235D01*
X0333000Y0171415D01*
X0318895Y0176910D02*
X0324965D01*
X0330460Y0171415D01*
X0314614Y0186490D02*
X0317500D01*
X0309695Y0180720D02*
Y0181571D01*
X0314614Y0186490D01*
X0318895Y0166750D02*
X0325750D01*
X0307200Y0171890D02*
Y0173840D01*
Y0171890D02*
X0307200Y0171890D01*
X0298665Y0159625D02*
X0300885D01*
X0301840Y0160580D01*
X0291045Y0159625D02*
X0293265D01*
X0294220Y0160580D01*
X0276570Y0216960D02*
X0277770Y0215760D01*
X0276570Y0222576D02*
X0276685Y0222691D01*
Y0223589D01*
X0276049Y0224225D02*
X0276685Y0223589D01*
X0268461Y0219740D02*
X0268950Y0220229D01*
X0266964Y0219740D02*
X0268461D01*
X0265700Y0218476D02*
X0266964Y0219740D01*
X0265700Y0218340D02*
Y0218476D01*
X0276570Y0216960D02*
Y0222576D01*
X0275150Y0213820D02*
X0275160Y0213830D01*
X0268950Y0222490D02*
X0270685Y0224225D01*
X0268950Y0220229D02*
Y0222490D01*
X0270685Y0224225D02*
X0276049D01*
X0326030Y0153540D02*
X0331000D01*
X0323040Y0150550D02*
X0326030Y0153540D01*
X0266160Y0180045D02*
X0266300D01*
X0264960Y0181245D02*
X0266160Y0180045D01*
X0240600Y0180540D02*
X0240735Y0180675D01*
X0244070D01*
X0236750Y0179590D02*
X0236935Y0179405D01*
X0239395Y0178135D02*
X0244070D01*
X0241593Y0210240D02*
X0241900D01*
X0316060Y0155250D02*
Y0157650D01*
X0290800Y0222140D02*
X0292200D01*
X0292200Y0222140D01*
X0262250Y0207340D02*
Y0209940D01*
Y0205417D02*
Y0207340D01*
X0207200Y0140986D02*
Y0143040D01*
X0212000Y0141034D02*
Y0143040D01*
X0216200Y0141062D02*
Y0143040D01*
X0304000Y0223390D02*
X0304200Y0223190D01*
X0302400Y0223290D02*
Y0223390D01*
Y0224690D01*
X0313500Y0206090D02*
Y0207790D01*
X0314000Y0208290D01*
Y0210040D01*
X0314000Y0210040D02*
X0314000Y0210040D01*
X0316790Y0207200D02*
X0317615Y0206375D01*
X0318949D01*
X0319624Y0205700D02*
X0321040D01*
X0318949Y0206375D02*
X0319624Y0205700D01*
X0316790Y0205300D02*
X0316800Y0205290D01*
X0318250D01*
X0318750Y0204790D01*
X0318895Y0173100D02*
X0320940D01*
X0304350Y0175640D02*
X0307200D01*
X0309250Y0159040D02*
X0310740Y0157550D01*
X0326600Y0215540D02*
X0331250D01*
X0326500Y0215640D02*
X0326600Y0215540D01*
X0331990Y0217340D02*
X0333790Y0215540D01*
X0324540Y0217350D02*
X0324550Y0217340D01*
X0331990D01*
X0322790Y0213850D02*
Y0214750D01*
X0321500Y0216040D02*
X0322790Y0214750D01*
X0320415Y0211845D02*
X0321560Y0210700D01*
X0320415Y0211845D02*
Y0216489D01*
X0321276Y0217350D01*
X0324540D01*
X0316790Y0219650D02*
Y0221500D01*
X0316890Y0219550D02*
X0318790D01*
X0316790Y0219650D02*
X0316890Y0219550D01*
X0311290Y0141500D02*
Y0143300D01*
X0263735Y0173055D02*
X0263750Y0173040D01*
X0253270Y0173055D02*
X0263735D01*
X0285835Y0217175D02*
X0287600D01*
X0285150Y0213154D02*
Y0216490D01*
X0285835Y0217175D01*
X0236935Y0179405D02*
X0244070D01*
X0225600Y0185450D02*
Y0188476D01*
X0224900Y0186351D02*
Y0188766D01*
X0237715Y0192425D02*
X0237800Y0192340D01*
X0224900Y0188766D02*
X0228559Y0192425D01*
X0237715D01*
X0225600Y0188476D02*
X0228464Y0191340D01*
X0234800D01*
X0250091Y0203283D02*
X0252833D01*
X0253870Y0204320D01*
X0261851Y0181245D02*
X0264960D01*
X0260665Y0182431D02*
X0261851Y0181245D01*
X0240407Y0183741D02*
X0247254D01*
X0248563Y0182431D01*
X0260665D01*
X0251005Y0171785D02*
X0253270D01*
X0218889Y0214940D02*
X0234800D01*
X0229500Y0216290D02*
X0229500Y0216290D01*
X0240750D01*
X0244085Y0219625D01*
X0252585D01*
X0253990Y0221030D01*
Y0221110D01*
X0275100Y0185040D02*
X0275800Y0185740D01*
X0270350Y0185640D02*
X0270550Y0185440D01*
Y0183940D02*
Y0185040D01*
Y0185440D01*
X0215750Y0213790D02*
X0236750D01*
X0215750Y0213790D02*
X0215750Y0213790D01*
X0236265Y0163955D02*
X0236600Y0164290D01*
X0218000Y0164290D02*
X0227216D01*
X0227551Y0163955D01*
X0236265D01*
X0317251Y0153640D02*
X0317290Y0153601D01*
Y0151850D02*
Y0153601D01*
X0238450Y0197340D02*
X0238500Y0197290D01*
X0216048Y0197361D02*
X0216068Y0197340D01*
X0238450D01*
X0316790Y0214550D02*
Y0216093D01*
X0316865Y0216168D01*
X0326769Y0182778D02*
X0328472D01*
X0330460Y0180790D01*
X0313581Y0183036D02*
X0315135Y0184590D01*
X0309695Y0173100D02*
X0312087D01*
X0309695Y0171830D02*
X0311807D01*
X0316000Y0176023D01*
X0312087Y0173100D02*
X0315300Y0176313D01*
X0311887Y0174370D02*
X0313581Y0176064D01*
X0315135Y0184590D02*
X0317500D01*
X0313581Y0176064D02*
Y0183036D01*
X0309695Y0174370D02*
X0311887D01*
X0309695Y0170560D02*
X0313666D01*
X0316700Y0173594D01*
X0325957Y0181967D02*
X0326769Y0182778D01*
X0323050Y0182755D02*
X0330460Y0190165D01*
X0320418Y0183455D02*
X0321142Y0184179D01*
Y0186887D01*
X0330460Y0196205D01*
X0317142Y0183455D02*
X0320418D01*
X0315300Y0176313D02*
Y0181614D01*
X0317142Y0183455D01*
X0316000Y0176023D02*
Y0181107D01*
X0317648Y0182755D01*
X0323050D01*
X0316700Y0180817D02*
X0317849Y0181967D01*
X0316700Y0173594D02*
Y0180817D01*
X0317849Y0181967D02*
X0325957D01*
D42*
X0301800Y0215540D02*
X0305000D01*
X0264000Y0217290D02*
X0265550Y0215740D01*
X0213795Y0200745D02*
Y0202375D01*
X0246350Y0186590D02*
Y0190340D01*
X0253270Y0179405D02*
X0255335D01*
X0289200Y0200790D02*
Y0204740D01*
X0280750Y0200740D02*
Y0204690D01*
X0280800Y0204740D01*
X0289200Y0200790D02*
X0289250Y0200740D01*
X0252250Y0201290D02*
X0254360D01*
X0251950Y0200990D02*
X0252250Y0201290D01*
X0251950Y0199940D02*
Y0200990D01*
X0254360Y0201290D02*
X0255775Y0199875D01*
X0253270Y0169245D02*
X0255695D01*
X0314500Y0215540D02*
X0314500Y0215540D01*
X0312800Y0215540D02*
X0314500D01*
X0307100Y0215540D02*
X0307200Y0215640D01*
X0305000Y0215540D02*
X0307100D01*
X0214745Y0202375D02*
X0216380Y0200740D01*
X0243000Y0157885D02*
X0243005Y0157880D01*
X0242540Y0165435D02*
X0244070D01*
X0238154Y0169820D02*
X0242540Y0165435D01*
X0231940Y0169820D02*
X0238154D01*
X0253650Y0197540D02*
Y0199940D01*
X0252300Y0196190D02*
X0253650Y0197540D01*
X0261682Y0194695D02*
X0263129D01*
X0261227Y0194240D02*
X0261682Y0194695D01*
X0258360Y0194240D02*
X0261227D01*
X0258360Y0195540D02*
X0260689D01*
X0251260Y0196190D02*
X0252300D01*
X0246250Y0193725D02*
X0246350Y0193625D01*
X0251260Y0188390D02*
X0252931D01*
X0254850Y0189690D02*
X0259200Y0185340D01*
X0255335Y0179405D02*
X0255735D01*
X0254800D02*
X0255335D01*
X0265861Y0200365D02*
X0266300D01*
X0265422Y0190205D02*
X0266300D01*
X0264247Y0189030D02*
X0265422Y0190205D01*
X0264989Y0183855D02*
X0266259Y0185125D01*
X0266300D01*
X0263368Y0183855D02*
X0264989D01*
X0258360Y0193590D02*
X0262943D01*
X0263129Y0194695D02*
X0263719Y0195285D01*
X0261889Y0195995D02*
X0263719Y0197825D01*
X0261144Y0195995D02*
X0261889D01*
X0258360Y0192940D02*
X0263565D01*
X0262585Y0184638D02*
X0263368Y0183855D01*
X0260073Y0189690D02*
X0263273Y0186490D01*
X0258360Y0189690D02*
X0260073D01*
X0260735Y0190340D02*
X0263410Y0187665D01*
X0263719Y0185125D02*
X0263760D01*
X0262585Y0189718D02*
X0263273Y0189030D01*
X0262585Y0189718D02*
Y0189759D01*
X0261354Y0190990D02*
X0262585Y0189759D01*
X0262124Y0192290D02*
X0262844Y0191570D01*
X0263273Y0189030D02*
X0264247D01*
X0260689Y0195540D02*
X0261144Y0195995D01*
X0263410Y0187665D02*
X0263760D01*
X0263719Y0195285D02*
X0263760D01*
X0279900Y0200740D02*
X0280035Y0200875D01*
X0291045Y0155095D02*
Y0157225D01*
X0298665Y0155095D02*
Y0157225D01*
X0258360Y0196840D02*
X0260085D01*
X0264686Y0199190D02*
X0265861Y0200365D01*
X0262844Y0191570D02*
X0265125D01*
X0266300Y0192745D01*
X0265385Y0194370D02*
X0266300Y0195285D01*
X0265104Y0194370D02*
X0265385D01*
X0264687Y0193953D02*
X0265104Y0194370D01*
X0263307Y0193953D02*
X0264687D01*
X0262943Y0193590D02*
X0263307Y0193953D01*
X0263565Y0192940D02*
X0263760Y0192745D01*
X0264935Y0196460D02*
X0266300Y0197825D01*
X0258730Y0209940D02*
X0260550D01*
X0258680Y0209890D02*
X0258730Y0209940D01*
X0258680Y0207350D02*
X0260540D01*
X0260550Y0207340D01*
X0285200Y0204740D02*
X0287600D01*
X0282400D02*
X0285200D01*
X0255695Y0169245D02*
X0256000Y0168940D01*
X0253270Y0179405D02*
X0254800D01*
X0258360Y0188390D02*
X0259225D01*
X0258360Y0189040D02*
X0259804D01*
X0258360Y0192290D02*
X0262124D01*
X0258360Y0191640D02*
X0261854D01*
X0258360Y0190990D02*
X0261354D01*
X0261854Y0191640D02*
X0263289Y0190205D01*
X0263760D01*
X0258360Y0190340D02*
X0260735D01*
X0251260Y0189040D02*
X0253900D01*
X0259200Y0185340D02*
X0260400D01*
X0253900Y0189040D02*
X0258990Y0183950D01*
X0261600D01*
X0307200Y0215640D02*
X0307300Y0215540D01*
X0213795Y0217345D02*
X0213800Y0217340D01*
X0213795Y0217345D02*
Y0218885D01*
X0255870Y0206860D02*
X0256650Y0206080D01*
X0248150Y0188815D02*
X0248250Y0188915D01*
X0249780Y0190340D02*
X0251260D01*
X0248250Y0188915D02*
X0248355D01*
X0249780Y0190340D01*
X0246300Y0186540D02*
X0246350Y0186590D01*
X0253270Y0167975D02*
X0254484D01*
X0241845Y0171785D02*
X0244070D01*
X0251260Y0192290D02*
X0254250D01*
X0255000Y0191540D01*
X0251260Y0196840D02*
Y0199250D01*
X0251950Y0199940D01*
X0251260Y0189690D02*
X0254850D01*
X0263273Y0186490D02*
X0265125D01*
X0266300Y0187665D01*
X0270750Y0187640D02*
X0271050Y0187940D01*
X0272550D01*
X0307300Y0215540D02*
X0309000D01*
X0309010D02*
X0311000D01*
X0312500D01*
X0259804Y0189040D02*
X0263719Y0185125D01*
X0262585Y0184638D02*
Y0185030D01*
X0259225Y0188390D02*
X0262585Y0185030D01*
X0252931Y0188390D02*
X0258214Y0183106D01*
X0260944D01*
X0261161Y0182890D01*
X0263455D02*
X0263760Y0182585D01*
X0261161Y0182890D02*
X0263455D01*
X0251260Y0193590D02*
X0253152D01*
X0258092Y0198530D01*
X0251260Y0194240D02*
Y0194890D01*
Y0195540D01*
Y0195540D02*
X0253500D01*
X0250000Y0195540D02*
X0251260D01*
X0249750Y0195790D02*
X0250000Y0195540D01*
X0249750Y0195790D02*
Y0198790D01*
X0250000Y0199040D01*
X0257775Y0199875D02*
X0257940Y0200040D01*
X0263610Y0200365D02*
X0263760D01*
X0262158Y0195345D02*
X0263273Y0196460D01*
X0264935D01*
X0258360Y0194890D02*
X0260958D01*
X0261413Y0195345D01*
X0262158D01*
X0258360Y0196190D02*
X0260420D01*
X0263420Y0199190D01*
X0264686D01*
X0260085Y0196840D02*
X0263610Y0200365D01*
X0257940Y0200040D02*
X0259750D01*
X0258092Y0198530D02*
X0259739D01*
X0260810Y0199601D01*
Y0204342D01*
X0259072Y0206080D02*
X0260810Y0204342D01*
X0256650Y0206080D02*
X0259072D01*
X0246400Y0211940D02*
Y0213640D01*
X0246500Y0211840D02*
X0248800D01*
X0246400Y0211940D02*
X0246500Y0211840D01*
X0281810Y0218230D02*
Y0220830D01*
X0281610Y0221030D02*
X0281810Y0220830D01*
X0216380Y0200740D02*
X0233800D01*
X0248150Y0187010D02*
Y0188815D01*
X0248170Y0191640D02*
X0251260D01*
X0246350Y0190340D02*
X0248800D01*
X0249450Y0190990D01*
X0251260D01*
X0248100Y0184840D02*
Y0186540D01*
X0243000Y0182540D02*
X0247500D01*
X0249365Y0180675D01*
X0253270D01*
X0245600Y0224040D02*
X0245700Y0224140D01*
X0243500Y0224040D02*
X0245600D01*
X0213795Y0185085D02*
Y0186500D01*
X0213750Y0184630D02*
X0213795Y0184585D01*
X0213750Y0184630D02*
Y0184790D01*
X0244500Y0197540D02*
X0244505Y0197535D01*
X0246250D01*
X0244500Y0195540D02*
X0244590Y0195630D01*
X0246250D01*
X0243600Y0216590D02*
X0245200D01*
X0245250Y0216540D01*
X0234250Y0185040D02*
X0234450Y0184840D01*
X0248100D01*
X0281610Y0221030D02*
X0282490D01*
X0283250Y0221790D01*
X0264000Y0217290D02*
Y0217290D01*
X0244512Y0190281D02*
X0244572Y0190340D01*
X0246350D01*
X0251260Y0192940D02*
X0254589D01*
X0255024Y0193375D01*
X0253270Y0166705D02*
X0256914D01*
X0257179Y0166440D01*
X0254484Y0167975D02*
X0254719Y0167740D01*
X0258504D01*
X0258720Y0167523D01*
X0256000Y0168940D02*
X0257650D01*
X0257903Y0169193D02*
X0257927D01*
X0257650Y0168940D02*
X0257903Y0169193D01*
X0246350Y0190340D02*
Y0193425D01*
D43*
X0273350Y0210040D02*
Y0214420D01*
X0253870Y0207350D02*
X0253970D01*
X0253870D02*
Y0211305D01*
X0253750Y0206921D02*
X0253870Y0207155D01*
X0251060Y0207350D02*
X0253870D01*
X0255870Y0206860D02*
Y0211305D01*
X0263738Y0168940D02*
X0274250D01*
Y0167540D02*
Y0168940D01*
X0213700Y0169890D02*
X0223790Y0179980D01*
X0246850Y0209890D02*
X0251060D01*
X0243550Y0210240D02*
X0246450Y0207340D01*
X0275010Y0216080D02*
Y0217030D01*
X0273350Y0214420D02*
X0275010Y0216080D01*
Y0217030D02*
Y0218503D01*
X0274050Y0219463D02*
Y0221040D01*
Y0219463D02*
X0275010Y0218503D01*
X0274050Y0221040D02*
Y0222890D01*
X0273900Y0223040D02*
X0274050Y0222890D01*
X0274000Y0223140D02*
X0275600D01*
X0273900Y0223040D02*
X0274000Y0223140D01*
X0256252Y0209890D02*
X0258680D01*
X0253870Y0207155D02*
X0253970Y0207350D01*
X0253870Y0207155D02*
Y0207350D01*
Y0206860D02*
Y0207155D01*
X0274250Y0168940D02*
X0275300D01*
X0223790Y0179980D02*
X0229400D01*
X0213700Y0166540D02*
Y0169890D01*
Y0166540D02*
X0214700Y0165540D01*
X0232750Y0158690D02*
X0234250D01*
X0228500Y0161040D02*
X0230400D01*
X0232750Y0158690D01*
X0234250D02*
X0239655D01*
X0240465Y0157880D01*
X0241915Y0156430D02*
X0247640D01*
X0240465Y0157880D02*
X0241915Y0156430D01*
X0247640D02*
X0247750Y0156540D01*
X0256000Y0170940D02*
X0258200D01*
X0222460Y0202610D02*
X0222800D01*
X0216080Y0207690D02*
X0222460D01*
X0296750Y0166540D02*
X0296750Y0166540D01*
X0291935Y0150445D02*
X0295340Y0147040D01*
X0291045Y0150445D02*
X0291935D01*
X0302120Y0150420D02*
X0305500Y0147040D01*
X0301840Y0150420D02*
X0302120D01*
X0241900Y0210240D02*
X0243550D01*
X0209200Y0161540D02*
X0211820Y0158920D01*
X0208114Y0172140D02*
X0209950Y0170304D01*
X0208000Y0172140D02*
X0208114D01*
X0208000Y0161540D02*
X0209200D01*
X0211820Y0158920D02*
X0213030D01*
X0246450Y0204790D02*
Y0207340D01*
X0246400Y0204740D02*
X0246450Y0204790D01*
X0251050Y0207340D02*
X0251060Y0207350D01*
X0248350Y0207340D02*
X0251050D01*
X0216200Y0146040D02*
Y0150490D01*
X0210030Y0190940D02*
Y0194854D01*
Y0187670D02*
Y0190940D01*
X0210065Y0190975D01*
X0212271D01*
X0208080Y0196690D02*
X0208194D01*
X0210030Y0194854D01*
X0207950Y0185590D02*
X0210030Y0187670D01*
X0208080Y0208120D02*
X0211201D01*
X0212141Y0207180D01*
X0212271Y0190975D02*
X0212845Y0190401D01*
Y0189100D02*
Y0190401D01*
X0215905Y0191180D02*
X0222460D01*
X0215700Y0190975D02*
X0215905Y0191180D01*
X0214745Y0190020D02*
X0215700Y0190975D01*
X0214745Y0189100D02*
Y0190020D01*
X0215570Y0207180D02*
X0216080Y0207690D01*
X0212141Y0207180D02*
X0212845Y0206476D01*
Y0204975D02*
Y0206476D01*
X0212141Y0223690D02*
X0212845Y0222986D01*
Y0221485D02*
Y0222986D01*
X0214745Y0222865D02*
X0215570Y0223690D01*
X0214745Y0221485D02*
Y0222865D01*
X0221710Y0223690D02*
X0222800Y0222600D01*
X0208080Y0223360D02*
X0208410Y0223690D01*
X0212000Y0146040D02*
Y0150490D01*
X0207200Y0146040D02*
Y0150490D01*
X0208410Y0223690D02*
X0212141D01*
X0215570D02*
X0221710D01*
X0214745Y0204975D02*
Y0206355D01*
X0215570Y0207180D01*
X0259400Y0221140D02*
X0265350D01*
X0243550Y0210240D02*
X0243600D01*
X0208000Y0161540D02*
Y0163190D01*
X0209950Y0165140D01*
Y0170304D01*
X0207200Y0153090D02*
X0213030Y0158920D01*
X0207200Y0152190D02*
Y0153090D01*
X0218110Y0154100D02*
Y0158920D01*
X0212000Y0152190D02*
X0216200D01*
X0216200Y0152190D02*
X0216200Y0152190D01*
X0218110Y0154100D01*
X0275370Y0213220D02*
X0275450D01*
X0277770D01*
X0275150Y0213440D02*
X0275370Y0213220D01*
X0275150Y0210040D02*
Y0213440D01*
X0275050Y0213540D02*
X0275150Y0213440D01*
X0322000Y0220540D02*
Y0224540D01*
Y0220540D02*
X0324065Y0218475D01*
X0326500Y0210560D02*
X0326610Y0210450D01*
X0328540D01*
Y0212550D02*
X0333510D01*
X0324065Y0218475D02*
X0333565D01*
X0333510Y0212550D02*
X0335500Y0214540D01*
Y0216540D01*
X0333565Y0218475D02*
X0335500Y0216540D01*
X0258200Y0170940D02*
X0261738D01*
X0263738Y0168940D01*
X0264750Y0171290D02*
X0264800Y0171340D01*
X0266650D01*
X0222800Y0217520D02*
X0222905Y0217625D01*
X0240345D01*
X0243830Y0221110D01*
X0214700Y0165540D02*
X0227500D01*
X0228000Y0165040D01*
X0264250Y0171290D02*
X0264750D01*
D44*
X0272260Y0221030D02*
Y0222630D01*
X0278240Y0217830D02*
X0279710D01*
X0282850Y0208740D02*
X0285250Y0211140D01*
X0272537Y0208740D02*
X0282850D01*
X0270150Y0211127D02*
X0272537Y0208740D01*
X0270150Y0211127D02*
Y0213220D01*
X0318790Y0217950D02*
X0318880Y0217860D01*
X0318690Y0217850D02*
X0318790Y0217950D01*
X0316790Y0217850D02*
X0318690D01*
X0326440Y0205650D02*
X0326540Y0205550D01*
X0324540Y0205650D02*
X0326440D01*
X0326500Y0208020D02*
X0326540Y0207980D01*
Y0205550D02*
Y0207980D01*
X0318880Y0215640D02*
Y0217860D01*
X0253903Y0202090D02*
X0255870Y0204057D01*
X0287800Y0196790D02*
Y0198490D01*
X0280400Y0177340D02*
X0282000D01*
X0218000Y0162390D02*
X0226350D01*
X0226500Y0162540D01*
Y0163040D01*
X0218110Y0158920D02*
Y0162280D01*
X0218000Y0162390D02*
X0218110Y0162280D01*
X0272070Y0220840D02*
X0272260Y0221030D01*
X0270150Y0220840D02*
X0272070D01*
X0279710Y0218230D02*
X0279910Y0218030D01*
X0277780Y0220830D02*
X0279710D01*
X0277770Y0220840D02*
X0277780Y0220830D01*
X0277770Y0218300D02*
X0278240Y0217830D01*
X0271640Y0218300D02*
X0272910Y0217030D01*
X0270150Y0218300D02*
X0271640Y0218300D01*
X0270150Y0218300D02*
Y0218300D01*
X0281650Y0215740D02*
Y0215928D01*
X0279710Y0217868D02*
X0281650Y0215928D01*
X0279710Y0217868D02*
Y0218230D01*
X0277790Y0215740D02*
X0279950D01*
X0265750Y0213140D02*
Y0213328D01*
X0267450Y0213140D02*
X0267530Y0213220D01*
X0267500Y0218140D02*
X0269990D01*
X0270150Y0218300D01*
X0267450Y0212952D02*
X0267450Y0213140D01*
X0270150Y0213220D02*
Y0213220D01*
X0267530Y0213220D02*
X0270150D01*
X0270150D01*
X0265750Y0213328D02*
X0267650Y0215228D01*
Y0215740D01*
X0267675Y0215715D01*
X0270105D02*
X0270150Y0215760D01*
X0267675Y0215715D02*
X0270105D01*
X0217900Y0164190D02*
X0218000Y0164290D01*
X0216200Y0164190D02*
X0217900D01*
X0276600Y0176965D02*
X0276975Y0177340D01*
X0280400D01*
X0248250Y0197535D02*
Y0199490D01*
X0256360Y0204810D02*
X0258680D01*
X0255870Y0204320D02*
X0256360Y0204810D01*
X0255870Y0204057D02*
Y0204320D01*
X0248150Y0191820D02*
X0248250Y0191920D01*
Y0193725D01*
Y0195630D01*
Y0197535D01*
X0243150Y0199490D02*
X0248250D01*
X0311290Y0155850D02*
X0313190D01*
X0313380Y0153640D02*
Y0155860D01*
X0313190Y0155850D02*
X0313290Y0155950D01*
X0313380Y0155860D01*
X0320940Y0143650D02*
X0321040Y0143550D01*
X0319040Y0143650D02*
X0320940D01*
X0321040Y0143550D02*
Y0145980D01*
X0321000Y0146020D02*
X0321040Y0145980D01*
X0277770Y0220840D02*
Y0223671D01*
X0267650Y0220940D02*
Y0222357D01*
X0270408Y0225115D01*
X0276326D01*
X0277770Y0223671D01*
X0301474Y0225961D02*
X0301513Y0226000D01*
X0309303D01*
X0315440Y0217850D02*
X0316790D01*
X0313507Y0219783D02*
Y0221797D01*
Y0219783D02*
X0315440Y0217850D01*
X0309303Y0226000D02*
X0313507Y0221797D01*
X0277770Y0213220D02*
X0281018D01*
X0284200Y0216402D01*
X0248250Y0199490D02*
X0250850Y0202090D01*
X0253903D01*
X0216200Y0162490D02*
X0216200D01*
X0215000Y0161290D02*
X0216200Y0162490D01*
X0214750Y0161290D02*
X0215000D01*
X0289171Y0225961D02*
X0301474D01*
X0284200Y0216402D02*
Y0220990D01*
X0289171Y0225961D01*
D45*
X0244500Y0228790D02*
Y0227290D01*
X0245250D01*
X0245500Y0227540D01*
Y0227790D01*
X0245250Y0228040D01*
X0244500D01*
X0245250D01*
X0245500Y0228290D01*
Y0228540D01*
X0245250Y0228790D01*
X0244500D01*
X0246999Y0227290D02*
X0246000D01*
X0246999Y0228290D01*
Y0228540D01*
X0246749Y0228790D01*
X0246249D01*
X0246000Y0228540D01*
X0247499Y0227540D02*
X0247749Y0227290D01*
X0248249D01*
X0248499Y0227540D01*
Y0228540D01*
X0248249Y0228790D01*
X0247749D01*
X0247499Y0228540D01*
Y0228290D01*
X0247749Y0228040D01*
X0248499D01*
X0248999Y0228540D02*
X0249248Y0228790D01*
X0249748D01*
X0249998Y0228540D01*
Y0228290D01*
X0249748Y0228040D01*
X0249498D01*
X0249748D01*
X0249998Y0227790D01*
Y0227540D01*
X0249748Y0227290D01*
X0249248D01*
X0248999Y0227540D01*
X0250498Y0227290D02*
Y0228290D01*
X0250998Y0228790D01*
X0251498Y0228290D01*
Y0227290D01*
Y0228040D01*
X0250498D01*
X0253497Y0227290D02*
Y0228790D01*
X0253997Y0228290D01*
X0254497Y0228790D01*
Y0227290D01*
X0255996D02*
X0255746Y0227540D01*
X0255496Y0227290D01*
X0255247D01*
X0254997Y0227540D01*
Y0227790D01*
X0255247Y0228040D01*
X0254997Y0228290D01*
Y0228540D01*
X0255247Y0228790D01*
X0255496D01*
X0255746Y0228540D01*
Y0228290D01*
X0255496Y0228040D01*
X0255746Y0227790D01*
Y0227540D01*
X0255996Y0228040D02*
X0255746Y0227790D01*
X0255247Y0228040D02*
X0255496D01*
X0256496Y0227290D02*
Y0228790D01*
X0256996Y0228290D01*
X0257496Y0228790D01*
Y0227290D01*
X0260495Y0228540D02*
X0260245Y0228790D01*
X0259745D01*
X0259495Y0228540D01*
Y0228290D01*
X0259745Y0228040D01*
X0260245D01*
X0260495Y0227790D01*
Y0227540D01*
X0260245Y0227290D01*
X0259745D01*
X0259495Y0227540D01*
X0260995Y0227290D02*
X0261495D01*
X0261245D01*
Y0228290D01*
X0260995D01*
X0262244Y0227290D02*
Y0228290D01*
X0262994D01*
X0263244Y0228040D01*
Y0227290D01*
X0264244Y0226790D02*
X0264494D01*
X0264743Y0227040D01*
Y0228290D01*
X0263994D01*
X0263744Y0228040D01*
Y0227540D01*
X0263994Y0227290D01*
X0264743D01*
X0265243D02*
X0265743D01*
X0265493D01*
Y0228790D01*
X0265243D01*
X0267243Y0227290D02*
X0266743D01*
X0266493Y0227540D01*
Y0228040D01*
X0266743Y0228290D01*
X0267243D01*
X0267493Y0228040D01*
Y0227790D01*
X0266493D01*
X0269492Y0228790D02*
Y0227290D01*
X0270242D01*
X0270492Y0227540D01*
Y0227790D01*
X0270242Y0228040D01*
X0269492D01*
X0270242D01*
X0270492Y0228290D01*
Y0228540D01*
X0270242Y0228790D01*
X0269492D01*
X0271241Y0227290D02*
X0271741D01*
X0271991Y0227540D01*
Y0228040D01*
X0271741Y0228290D01*
X0271241D01*
X0270991Y0228040D01*
Y0227540D01*
X0271241Y0227290D01*
X0272741Y0228290D02*
X0273241D01*
X0273491Y0228040D01*
Y0227290D01*
X0272741D01*
X0272491Y0227540D01*
X0272741Y0227790D01*
X0273491D01*
X0273990Y0228290D02*
Y0227290D01*
Y0227790D01*
X0274240Y0228040D01*
X0274490Y0228290D01*
X0274740D01*
X0276490Y0228790D02*
Y0227290D01*
X0275740D01*
X0275490Y0227540D01*
Y0228040D01*
X0275740Y0228290D01*
X0276490D01*
X0278489Y0227290D02*
Y0228790D01*
X0278989Y0228290D01*
X0279489Y0228790D01*
Y0227290D01*
X0279988D02*
Y0227540D01*
X0280238D01*
Y0227290D01*
X0279988D01*
X0282238Y0228540D02*
X0281988Y0228790D01*
X0281488D01*
X0281238Y0228540D01*
Y0228290D01*
X0281488Y0228040D01*
X0281988D01*
X0282238Y0227790D01*
Y0227540D01*
X0281988Y0227290D01*
X0281488D01*
X0281238Y0227540D01*
X0282988Y0227290D02*
X0283487D01*
X0283737Y0227540D01*
Y0228040D01*
X0283487Y0228290D01*
X0282988D01*
X0282738Y0228040D01*
Y0227540D01*
X0282988Y0227290D01*
X0284237Y0228290D02*
Y0227540D01*
X0284487Y0227290D01*
X0285237D01*
Y0228290D01*
X0285987Y0228540D02*
Y0228290D01*
X0285737D01*
X0286236D01*
X0285987D01*
Y0227540D01*
X0286236Y0227290D01*
X0286986Y0228790D02*
Y0227290D01*
Y0228040D01*
X0287236Y0228290D01*
X0287736D01*
X0287986Y0228040D01*
Y0227290D01*
X0288986Y0226790D02*
X0289236D01*
X0289485Y0227040D01*
Y0228290D01*
X0288736D01*
X0288486Y0228040D01*
Y0227540D01*
X0288736Y0227290D01*
X0289485D01*
X0290235Y0228290D02*
X0290735D01*
X0290985Y0228040D01*
Y0227290D01*
X0290235D01*
X0289985Y0227540D01*
X0290235Y0227790D01*
X0290985D01*
X0291735Y0228540D02*
Y0228290D01*
X0291485D01*
X0291985D01*
X0291735D01*
Y0227540D01*
X0291985Y0227290D01*
X0293484D02*
X0292984D01*
X0292734Y0227540D01*
Y0228040D01*
X0292984Y0228290D01*
X0293484D01*
X0293734Y0228040D01*
Y0227790D01*
X0292734D01*
X0296733Y0227290D02*
X0295733D01*
X0296733Y0228290D01*
Y0228540D01*
X0296483Y0228790D01*
X0295983D01*
X0295733Y0228540D01*
X0297233D02*
X0297483Y0228790D01*
X0297983D01*
X0298233Y0228540D01*
Y0227540D01*
X0297983Y0227290D01*
X0297483D01*
X0297233Y0227540D01*
Y0228540D01*
X0298732Y0227290D02*
X0299232D01*
X0298982D01*
Y0228790D01*
X0298732Y0228540D01*
X0300732Y0227290D02*
Y0228790D01*
X0299982Y0228040D01*
X0300982D01*
D46*
X0326500Y0215640D02*
D03*
X0298000Y0194140D02*
D03*
X0258680Y0212430D02*
D03*
X0270150Y0213220D02*
D03*
X0331250Y0215540D02*
D03*
X0318460Y0157790D02*
D03*
X0321000Y0153640D02*
D03*
D47*
X0326500Y0213100D02*
D03*
Y0210560D02*
D03*
Y0208020D02*
D03*
X0318880Y0215640D02*
D03*
Y0213100D02*
D03*
Y0210560D02*
D03*
Y0208020D02*
D03*
X0231940Y0190140D02*
D03*
X0229400Y0187600D02*
D03*
X0231940D02*
D03*
X0229400Y0185060D02*
D03*
X0231940D02*
D03*
X0229400Y0182520D02*
D03*
X0231940D02*
D03*
X0229400Y0179980D02*
D03*
X0231940D02*
D03*
X0229400Y0177440D02*
D03*
X0231940D02*
D03*
X0229400Y0174900D02*
D03*
X0231940D02*
D03*
X0229400Y0172360D02*
D03*
X0231940D02*
D03*
X0229400Y0169820D02*
D03*
X0231940D02*
D03*
X0229400Y0167280D02*
D03*
X0231940D02*
D03*
X0266300Y0200365D02*
D03*
X0263760Y0197825D02*
D03*
X0266300D02*
D03*
X0263760Y0195285D02*
D03*
X0266300D02*
D03*
X0263760Y0192745D02*
D03*
X0266300D02*
D03*
X0263760Y0190205D02*
D03*
X0266300D02*
D03*
X0263760Y0187665D02*
D03*
X0266300D02*
D03*
X0263760Y0185125D02*
D03*
X0266300D02*
D03*
X0263760Y0182585D02*
D03*
X0266300D02*
D03*
X0263760Y0180045D02*
D03*
X0266300D02*
D03*
X0263760Y0177505D02*
D03*
X0266300D02*
D03*
X0298000Y0196680D02*
D03*
X0300540Y0194140D02*
D03*
Y0196680D02*
D03*
X0303080Y0194140D02*
D03*
Y0196680D02*
D03*
X0305620Y0194140D02*
D03*
Y0196680D02*
D03*
X0308160Y0194140D02*
D03*
Y0196680D02*
D03*
X0310700Y0194140D02*
D03*
Y0196680D02*
D03*
X0313240Y0194140D02*
D03*
X0313240Y0196680D02*
D03*
X0315780Y0194140D02*
D03*
X0315780Y0196680D02*
D03*
X0318320Y0194140D02*
D03*
Y0196680D02*
D03*
X0320860Y0194140D02*
D03*
Y0196680D02*
D03*
X0251500Y0156990D02*
D03*
Y0154450D02*
D03*
Y0151910D02*
D03*
Y0149370D02*
D03*
Y0146830D02*
D03*
X0288000Y0156990D02*
D03*
Y0154450D02*
D03*
Y0151910D02*
D03*
Y0149370D02*
D03*
Y0146830D02*
D03*
X0258680Y0209890D02*
D03*
Y0207350D02*
D03*
Y0204810D02*
D03*
X0251060Y0212430D02*
D03*
Y0209890D02*
D03*
Y0207350D02*
D03*
Y0204810D02*
D03*
X0270150Y0215760D02*
D03*
Y0218300D02*
D03*
X0270150Y0220840D02*
D03*
X0277770Y0213220D02*
D03*
Y0215760D02*
D03*
X0277770Y0218300D02*
D03*
X0277770Y0220840D02*
D03*
X0333790Y0215540D02*
D03*
X0315920Y0157790D02*
D03*
X0321000Y0151100D02*
D03*
Y0148560D02*
D03*
Y0146020D02*
D03*
X0313380Y0153640D02*
D03*
Y0151100D02*
D03*
Y0148560D02*
D03*
Y0146020D02*
D03*
X0270000Y0146830D02*
D03*
Y0149370D02*
D03*
Y0151910D02*
D03*
Y0154450D02*
D03*
Y0156990D02*
D03*
X0293250Y0205540D02*
D03*
X0275750Y0199040D02*
D03*
Y0205540D02*
D03*
X0293500Y0199040D02*
D03*
X0297500Y0209040D02*
D03*
D48*
X0331000Y0153540D02*
D03*
X0333540Y0151000D02*
D03*
X0328460D02*
D03*
X0333540Y0156080D02*
D03*
X0328460D02*
D03*
X0238500Y0224540D02*
D03*
X0235960Y0222000D02*
D03*
Y0227080D02*
D03*
X0241040Y0222000D02*
D03*
Y0227080D02*
D03*
X0213030Y0158920D02*
D03*
X0218110D02*
D03*
X0259400Y0221140D02*
D03*
X0261940Y0223680D02*
D03*
Y0218600D02*
D03*
X0256860Y0223680D02*
D03*
Y0218600D02*
D03*
X0322000Y0224540D02*
D03*
X0324540Y0222000D02*
D03*
X0319460D02*
D03*
X0324540Y0227080D02*
D03*
X0319460D02*
D03*
D49*
X0333000Y0199540D02*
D03*
Y0190165D02*
D03*
Y0162040D02*
D03*
Y0180790D02*
D03*
Y0171415D02*
D03*
X0229600Y0152540D02*
D03*
X0220500Y0152540D02*
D03*
D50*
X0330460Y0199540D02*
D03*
X0327920D02*
D03*
X0330460Y0190165D02*
D03*
X0327920D02*
D03*
X0330460Y0162040D02*
D03*
X0327920D02*
D03*
X0325380D02*
D03*
X0322840D02*
D03*
X0330460Y0180790D02*
D03*
X0327920D02*
D03*
X0325380Y0171415D02*
D03*
X0327920D02*
D03*
X0330460D02*
D03*
X0232140Y0152540D02*
D03*
X0223040Y0152540D02*
D03*
D51*
X0243830Y0221110D02*
D03*
X0253990D02*
D03*
X0213700Y0176700D02*
D03*
Y0166540D02*
D03*
X0301840Y0150420D02*
D03*
Y0160580D02*
D03*
X0294220Y0150420D02*
D03*
Y0160580D02*
D03*
D52*
X0229400Y0190140D02*
D03*
X0263760Y0200365D02*
D03*
X0251500Y0144290D02*
D03*
X0288000Y0144290D02*
D03*
X0270000Y0144290D02*
D03*
D53*
X0222800Y0217520D02*
D03*
Y0220060D02*
D03*
Y0222600D02*
D03*
X0292800Y0147040D02*
D03*
X0295340D02*
D03*
X0300420D02*
D03*
X0302960D02*
D03*
X0305500D02*
D03*
X0222800Y0202610D02*
D03*
Y0205150D02*
D03*
Y0207690D02*
D03*
Y0186160D02*
D03*
Y0188700D02*
D03*
Y0191240D02*
D03*
Y0169360D02*
D03*
Y0171900D02*
D03*
Y0174440D02*
D03*
D54*
X0332000Y0224540D02*
D03*
Y0144540D02*
D03*
X0230000D02*
D03*
Y0224540D02*
D03*
D55*
X0208080Y0223360D02*
D03*
Y0208120D02*
D03*
Y0196690D02*
D03*
Y0185260D02*
D03*
X0208000Y0172140D02*
D03*
Y0161540D02*
D03*
D56*
X0208080Y0220820D02*
D03*
Y0205580D02*
D03*
Y0194150D02*
D03*
Y0182720D02*
D03*
X0208000Y0169600D02*
D03*
Y0159000D02*
D03*
D57*
X0239195Y0160420D02*
D03*
X0257610Y0160420D02*
D03*
X0276025Y0160420D02*
D03*
D58*
X0247450Y0151530D02*
D03*
X0237290D02*
D03*
X0255705Y0151530D02*
D03*
X0265865D02*
D03*
X0284280Y0151530D02*
D03*
X0274120D02*
D03*
D59*
X0240465Y0157880D02*
D03*
X0243005D02*
D03*
X0241735Y0160420D02*
D03*
X0244275D02*
D03*
X0245545Y0157880D02*
D03*
X0263960Y0157880D02*
D03*
X0262690Y0160420D02*
D03*
X0260150D02*
D03*
X0261420Y0157880D02*
D03*
X0258880D02*
D03*
X0277295Y0157880D02*
D03*
X0279835D02*
D03*
X0278565Y0160420D02*
D03*
X0281105D02*
D03*
X0282375Y0157880D02*
D03*
D60*
X0294003Y0193748D02*
D03*
X0248400Y0202582D02*
D03*
X0300600Y0177940D02*
D03*
X0298440Y0177980D02*
D03*
X0298200Y0190740D02*
D03*
X0292250Y0196040D02*
D03*
X0304000Y0178040D02*
D03*
X0305177Y0179717D02*
D03*
X0285200Y0204740D02*
D03*
X0305500Y0161540D02*
D03*
X0282000Y0177340D02*
D03*
X0322765Y0204725D02*
D03*
X0314500Y0213540D02*
D03*
X0238500Y0197290D02*
D03*
X0306750Y0224790D02*
D03*
X0306763Y0212074D02*
D03*
X0226000Y0193540D02*
D03*
X0227250Y0209540D02*
D03*
X0227915Y0212625D02*
D03*
X0305700Y0173840D02*
D03*
X0297264Y0164162D02*
D03*
X0299250Y0170290D02*
D03*
X0287000Y0161040D02*
D03*
X0264485Y0162055D02*
D03*
X0309500Y0149790D02*
D03*
X0283500Y0196290D02*
D03*
X0228500Y0161040D02*
D03*
X0280375Y0171715D02*
D03*
X0226500Y0163040D02*
D03*
X0243000Y0182540D02*
D03*
X0240600Y0162140D02*
D03*
X0247750Y0156540D02*
D03*
X0236600Y0164290D02*
D03*
X0270550Y0183940D02*
D03*
X0258200Y0170940D02*
D03*
X0216750Y0167790D02*
D03*
X0260400Y0185340D02*
D03*
X0313776Y0188316D02*
D03*
X0315925Y0190465D02*
D03*
X0317000Y0191540D02*
D03*
X0275600Y0223140D02*
D03*
X0292800Y0212940D02*
D03*
X0287600Y0212940D02*
D03*
X0293400Y0220740D02*
D03*
X0314500Y0215540D02*
D03*
X0294800Y0217540D02*
D03*
X0213800Y0217340D02*
D03*
X0215450Y0181590D02*
D03*
X0298665Y0150425D02*
D03*
X0291045Y0150445D02*
D03*
X0234800Y0191340D02*
D03*
X0255000Y0191540D02*
D03*
X0255735Y0179405D02*
D03*
X0236750Y0213790D02*
D03*
X0233800Y0200740D02*
D03*
X0238275Y0176865D02*
D03*
X0237800Y0192340D02*
D03*
X0241845Y0171785D02*
D03*
X0234800Y0214940D02*
D03*
X0243150Y0199490D02*
D03*
X0240600Y0180540D02*
D03*
X0241800Y0174540D02*
D03*
X0236750Y0179590D02*
D03*
X0236600Y0175540D02*
D03*
X0322750Y0142040D02*
D03*
X0317265Y0142725D02*
D03*
X0310551Y0185091D02*
D03*
X0311626Y0186166D02*
D03*
X0312701Y0187241D02*
D03*
X0314850Y0189390D02*
D03*
X0306252Y0180792D02*
D03*
X0309476Y0184016D02*
D03*
X0308402Y0182942D02*
D03*
X0307327Y0181867D02*
D03*
X0305500Y0177040D02*
D03*
X0303750Y0162290D02*
D03*
X0289000Y0161040D02*
D03*
X0247000Y0218540D02*
D03*
X0261600Y0183950D02*
D03*
X0239395Y0178135D02*
D03*
X0240407Y0183741D02*
D03*
X0241593Y0210240D02*
D03*
X0292500Y0222290D02*
D03*
X0280240Y0192200D02*
D03*
X0262250Y0205417D02*
D03*
X0207200Y0140986D02*
D03*
X0212000Y0141034D02*
D03*
X0216200Y0141062D02*
D03*
X0302400Y0224690D02*
D03*
X0314000Y0208290D02*
D03*
X0318750Y0204790D02*
D03*
X0320940Y0173100D02*
D03*
X0304350Y0175640D02*
D03*
X0309250Y0159040D02*
D03*
X0321500Y0216040D02*
D03*
X0316790Y0221500D02*
D03*
X0311290Y0141500D02*
D03*
X0260554Y0167594D02*
D03*
X0262500Y0166790D02*
D03*
X0262000Y0168790D02*
D03*
X0263750Y0173040D02*
D03*
X0253500Y0195540D02*
D03*
X0250000Y0199040D02*
D03*
X0259750Y0200040D02*
D03*
X0246400Y0213640D02*
D03*
X0299500Y0180540D02*
D03*
X0298000Y0185740D02*
D03*
X0299250Y0192290D02*
D03*
X0274000Y0179540D02*
D03*
X0251005Y0171785D02*
D03*
X0296250Y0192290D02*
D03*
X0229500Y0216290D02*
D03*
X0243500Y0224040D02*
D03*
X0213750Y0184790D02*
D03*
X0274500Y0187290D02*
D03*
X0214750Y0161290D02*
D03*
X0277250Y0167040D02*
D03*
X0215750Y0213790D02*
D03*
X0299000Y0164290D02*
D03*
X0244500Y0197540D02*
D03*
Y0195540D02*
D03*
X0228750Y0159290D02*
D03*
X0274250Y0167540D02*
D03*
X0272500Y0166540D02*
D03*
X0270500Y0166290D02*
D03*
X0297000Y0177040D02*
D03*
X0296750Y0212040D02*
D03*
X0245250Y0216540D02*
D03*
X0228000Y0165040D02*
D03*
X0328000Y0204290D02*
D03*
X0289250Y0192290D02*
D03*
X0234250Y0185040D02*
D03*
X0261500Y0165290D02*
D03*
X0283250Y0221790D02*
D03*
X0264250Y0171290D02*
D03*
X0297500Y0207040D02*
D03*
X0298500Y0187290D02*
D03*
X0290250Y0196540D02*
D03*
X0264127Y0217204D02*
D03*
X0306835Y0160383D02*
D03*
X0299502Y0182406D02*
D03*
X0244512Y0190281D02*
D03*
X0255024Y0193375D02*
D03*
X0285090Y0174531D02*
D03*
X0287004Y0174519D02*
D03*
X0248112Y0184682D02*
D03*
X0317251Y0153640D02*
D03*
X0216048Y0197361D02*
D03*
X0213772Y0200768D02*
D03*
X0217071Y0173315D02*
D03*
X0257179Y0166440D02*
D03*
X0258720Y0167523D02*
D03*
X0257927Y0169193D02*
D03*
X0316865Y0216168D02*
D03*
X0319500Y0185540D02*
D03*
M02*
