%FSAX43Y43*%
%MOMM*%
G71*
G01*
G75*
G04 Layer_Physical_Order=4*
G04 Layer_Color=16711680*
%ADD10R,1.450X1.150*%
%ADD11R,1.300X0.850*%
%ADD12R,1.350X0.950*%
%ADD13R,1.400X1.050*%
%ADD14R,1.500X1.250*%
%ADD15R,0.950X1.350*%
%ADD16O,2.050X0.600*%
%ADD17R,1.050X1.400*%
%ADD18R,0.850X1.300*%
%ADD19O,2.200X0.600*%
%ADD20R,1.250X1.500*%
%ADD21R,1.150X1.450*%
%ADD22R,1.400X1.200*%
%ADD23R,1.550X1.350*%
%ADD24R,1.350X1.550*%
%ADD25O,1.900X0.450*%
G04:AMPARAMS|DCode=26|XSize=5.5mm|YSize=1.5mm|CornerRadius=0.188mm|HoleSize=0mm|Usage=FLASHONLY|Rotation=180.000|XOffset=0mm|YOffset=0mm|HoleType=Round|Shape=RoundedRectangle|*
%AMROUNDEDRECTD26*
21,1,5.500,1.125,0,0,180.0*
21,1,5.125,1.500,0,0,180.0*
1,1,0.375,-2.563,0.563*
1,1,0.375,2.563,0.563*
1,1,0.375,2.563,-0.563*
1,1,0.375,-2.563,-0.563*
%
%ADD26ROUNDEDRECTD26*%
%ADD27R,1.800X0.600*%
%ADD28R,0.900X1.000*%
%ADD29R,1.200X1.400*%
%ADD30R,1.000X0.900*%
%ADD31R,5.400X1.550*%
%ADD32R,1.700X0.950*%
%ADD33R,1.900X0.900*%
%ADD34R,1.900X3.200*%
%ADD35R,1.524X1.524*%
G04:AMPARAMS|DCode=36|XSize=0.6mm|YSize=1mm|CornerRadius=0.075mm|HoleSize=0mm|Usage=FLASHONLY|Rotation=0.000|XOffset=0mm|YOffset=0mm|HoleType=Round|Shape=RoundedRectangle|*
%AMROUNDEDRECTD36*
21,1,0.600,0.850,0,0,0.0*
21,1,0.450,1.000,0,0,0.0*
1,1,0.150,0.225,-0.425*
1,1,0.150,-0.225,-0.425*
1,1,0.150,-0.225,0.425*
1,1,0.150,0.225,0.425*
%
%ADD36ROUNDEDRECTD36*%
%ADD37O,0.250X1.550*%
%ADD38O,1.550X0.250*%
%ADD39O,0.450X2.400*%
%ADD40C,0.250*%
%ADD41C,0.500*%
%ADD42C,0.450*%
%ADD43C,1.000*%
%ADD44C,0.750*%
%ADD45C,0.254*%
%ADD46R,1.500X1.500*%
%ADD47C,1.500*%
%ADD48C,3.000*%
%ADD49R,2.000X2.500*%
%ADD50O,2.000X2.500*%
%ADD51C,1.400*%
%ADD52R,1.500X1.500*%
%ADD53C,1.800*%
%ADD54C,8.000*%
%ADD55R,2.500X2.000*%
%ADD56O,2.500X2.000*%
%ADD57R,1.500X1.500*%
%ADD58C,2.950*%
%ADD59C,1.500*%
%ADD60C,1.270*%
%ADD61C,1.016*%
%ADD62C,1.016*%
%ADD63C,1.900*%
%ADD64C,2.500*%
G04:AMPARAMS|DCode=65|XSize=3.2mm|YSize=3.2mm|CornerRadius=0mm|HoleSize=0mm|Usage=FLASHONLY|Rotation=0.000|XOffset=0mm|YOffset=0mm|HoleType=Round|Shape=Relief|Width=0.3mm|Gap=0.3mm|Entries=4|*
%AMTHD65*
7,0,0,3.200,2.600,0.300,45*
%
%ADD65THD65*%
%ADD66C,2.100*%
G04:AMPARAMS|DCode=67|XSize=2.7mm|YSize=2.7mm|CornerRadius=0mm|HoleSize=0mm|Usage=FLASHONLY|Rotation=0.000|XOffset=0mm|YOffset=0mm|HoleType=Round|Shape=Relief|Width=0.3mm|Gap=0.3mm|Entries=4|*
%AMTHD67*
7,0,0,2.700,2.100,0.300,45*
%
%ADD67THD67*%
%ADD68C,1.850*%
G04:AMPARAMS|DCode=69|XSize=2.5mm|YSize=2.5mm|CornerRadius=0mm|HoleSize=0mm|Usage=FLASHONLY|Rotation=0.000|XOffset=0mm|YOffset=0mm|HoleType=Round|Shape=Relief|Width=0.3mm|Gap=0.3mm|Entries=4|*
%AMTHD69*
7,0,0,2.500,1.900,0.300,45*
%
%ADD69THD69*%
%ADD70C,2.000*%
%ADD71C,1.600*%
G04:AMPARAMS|DCode=72|XSize=2.2mm|YSize=2.2mm|CornerRadius=0mm|HoleSize=0mm|Usage=FLASHONLY|Rotation=0.000|XOffset=0mm|YOffset=0mm|HoleType=Round|Shape=Relief|Width=0.3mm|Gap=0.3mm|Entries=4|*
%AMTHD72*
7,0,0,2.200,1.600,0.300,45*
%
%ADD72THD72*%
%ADD73C,4.500*%
%ADD74C,1.900*%
%ADD75C,4.250*%
G04:AMPARAMS|DCode=76|XSize=2.5mm|YSize=2.5mm|CornerRadius=0mm|HoleSize=0mm|Usage=FLASHONLY|Rotation=0.000|XOffset=0mm|YOffset=0mm|HoleType=Round|Shape=Relief|Width=0.3mm|Gap=0.3mm|Entries=4|*
%AMTHD76*
7,0,0,2.500,1.900,0.300,45*
%
%ADD76THD76*%
%ADD77C,2.600*%
G04:AMPARAMS|DCode=78|XSize=2.45mm|YSize=2.45mm|CornerRadius=0mm|HoleSize=0mm|Usage=FLASHONLY|Rotation=0.000|XOffset=0mm|YOffset=0mm|HoleType=Round|Shape=Relief|Width=0.3mm|Gap=0.3mm|Entries=4|*
%AMTHD78*
7,0,0,2.450,1.850,0.300,45*
%
%ADD78THD78*%
%ADD79R,2.500X1.700*%
%ADD80R,1.700X2.500*%
G04:AMPARAMS|DCode=81|XSize=0.6mm|YSize=1mm|CornerRadius=0.075mm|HoleSize=0mm|Usage=FLASHONLY|Rotation=270.000|XOffset=0mm|YOffset=0mm|HoleType=Round|Shape=RoundedRectangle|*
%AMROUNDEDRECTD81*
21,1,0.600,0.850,0,0,270.0*
21,1,0.450,1.000,0,0,270.0*
1,1,0.150,-0.425,-0.225*
1,1,0.150,-0.425,0.225*
1,1,0.150,0.425,0.225*
1,1,0.150,0.425,-0.225*
%
%ADD81ROUNDEDRECTD81*%
%ADD82R,1.524X1.524*%
D10*
X0220200Y0186240D02*
D03*
Y0188040D02*
D03*
X0220600Y0202640D02*
D03*
Y0204440D02*
D03*
Y0217640D02*
D03*
Y0219440D02*
D03*
X0220400Y0169640D02*
D03*
Y0171440D02*
D03*
D11*
X0329500Y0176390D02*
D03*
Y0174690D02*
D03*
X0333000Y0176390D02*
D03*
Y0174690D02*
D03*
X0249000Y0216890D02*
D03*
Y0218590D02*
D03*
X0325000Y0176390D02*
D03*
Y0174690D02*
D03*
X0305100Y0154640D02*
D03*
Y0152940D02*
D03*
X0213800Y0181590D02*
D03*
Y0183290D02*
D03*
X0218600Y0169690D02*
D03*
Y0171390D02*
D03*
X0328500Y0216140D02*
D03*
Y0214440D02*
D03*
D13*
X0251000Y0216790D02*
D03*
Y0218690D02*
D03*
X0305100Y0156240D02*
D03*
Y0158140D02*
D03*
X0211800Y0213790D02*
D03*
Y0215690D02*
D03*
X0213800Y0215690D02*
D03*
Y0213790D02*
D03*
X0211797Y0197181D02*
D03*
Y0199081D02*
D03*
X0213820Y0199069D02*
D03*
Y0197169D02*
D03*
X0212000Y0181490D02*
D03*
Y0183390D02*
D03*
X0216800Y0169590D02*
D03*
Y0171490D02*
D03*
D15*
X0328050Y0218290D02*
D03*
X0326450D02*
D03*
D18*
X0330850Y0165540D02*
D03*
X0329150D02*
D03*
X0255525Y0157515D02*
D03*
X0257225D02*
D03*
D21*
X0295150Y0144790D02*
D03*
X0293350D02*
D03*
D40*
X0297159Y0193065D02*
X0297976D01*
X0298290Y0177830D02*
X0298440Y0177980D01*
X0303080Y0196680D02*
X0304200Y0195560D01*
Y0182844D02*
Y0195560D01*
X0298000Y0185740D02*
X0298200Y0185540D01*
X0303080Y0181814D02*
Y0194140D01*
X0305620Y0183574D02*
Y0194140D01*
Y0183574D02*
X0307327Y0181867D01*
X0304200Y0182844D02*
X0306252Y0180792D01*
X0303080Y0181814D02*
X0305177Y0179717D01*
X0305500Y0161540D02*
Y0163041D01*
X0305470Y0163071D02*
X0305500Y0163041D01*
X0305470Y0163071D02*
Y0172712D01*
X0304740Y0173442D02*
X0305470Y0172712D01*
X0304740Y0173442D02*
Y0174238D01*
X0260415Y0162205D02*
Y0166063D01*
X0259965Y0162775D02*
Y0167005D01*
X0260554Y0167594D01*
X0257610Y0160420D02*
X0259965Y0162775D01*
X0258880Y0160670D02*
X0260415Y0162205D01*
X0258880Y0157880D02*
Y0160670D01*
X0306750Y0212290D02*
Y0224790D01*
X0306750Y0212290D02*
X0306750Y0212290D01*
X0306750Y0212290D02*
X0306825Y0212215D01*
X0286925Y0160965D02*
X0287000Y0161040D01*
X0286925Y0155525D02*
Y0160965D01*
Y0155525D02*
X0288000Y0154450D01*
X0308160Y0185333D02*
Y0194140D01*
X0288000Y0151910D02*
X0289290Y0153200D01*
Y0160750D01*
X0272250Y0166290D02*
X0272500Y0166540D01*
X0272250Y0154160D02*
Y0166290D01*
X0270000Y0151910D02*
X0272250Y0154160D01*
X0270000Y0154450D02*
X0271075Y0155525D01*
X0277295Y0157880D02*
Y0166995D01*
X0315780Y0196680D02*
X0317000Y0195460D01*
Y0191540D02*
Y0195460D01*
X0314340Y0189900D02*
X0314850Y0189390D01*
X0313240Y0196680D02*
X0314340Y0195580D01*
Y0189900D02*
Y0195580D01*
X0312165Y0187777D02*
X0312701Y0187241D01*
X0310700Y0196680D02*
X0312165Y0195215D01*
Y0187777D02*
Y0195215D01*
X0308160Y0196680D02*
X0309302Y0195538D01*
Y0186341D02*
X0310551Y0185091D01*
X0305620Y0196680D02*
X0307085Y0195215D01*
Y0184258D02*
Y0195215D01*
Y0184258D02*
X0308402Y0182942D01*
X0310700Y0187092D02*
X0311626Y0186166D01*
X0313240Y0188851D02*
X0313776Y0188316D01*
X0313240Y0188851D02*
Y0194140D01*
X0315780Y0190610D02*
Y0194140D01*
Y0190610D02*
X0315925Y0190465D01*
X0294800Y0217540D02*
X0294800D01*
X0308160Y0185333D02*
X0309476Y0184016D01*
X0310700Y0187092D02*
Y0194140D01*
X0309302Y0186341D02*
Y0195538D01*
X0289000Y0161040D02*
X0289290Y0160750D01*
X0304740Y0174238D02*
X0305470Y0174968D01*
Y0177010D02*
X0305500Y0177040D01*
X0305470Y0174968D02*
Y0177010D01*
X0303390Y0162650D02*
X0303750Y0162290D01*
X0303390Y0162650D02*
Y0177430D01*
X0304000Y0178040D01*
X0260415Y0166063D02*
X0262000Y0167648D01*
Y0168790D01*
X0262690Y0160420D02*
Y0166600D01*
X0262500Y0166790D02*
X0262690Y0166600D01*
X0300540Y0194140D02*
X0300710Y0193970D01*
X0300600Y0177940D02*
X0300710Y0178050D01*
Y0193970D01*
X0297976Y0193065D02*
X0298751Y0192290D01*
X0299250D01*
X0296647Y0193250D02*
X0296832Y0193065D01*
X0297159D01*
X0294092Y0193480D02*
X0294322Y0193250D01*
X0296647D01*
X0277011Y0167279D02*
X0277011D01*
X0277250Y0167040D01*
X0298290Y0167540D02*
X0299000Y0166830D01*
Y0164290D02*
Y0166830D01*
X0298290Y0167540D02*
Y0177830D01*
X0270500Y0166290D02*
X0271075Y0165715D01*
Y0155525D02*
Y0165715D01*
X0297264Y0164162D02*
Y0176776D01*
X0297000Y0177040D02*
X0297264Y0176776D01*
X0261420Y0157880D02*
Y0165210D01*
X0261500Y0165290D01*
X0263290Y0170892D02*
Y0171688D01*
X0263750Y0172148D01*
Y0173040D01*
X0264485Y0162055D02*
Y0169697D01*
X0263290Y0170892D02*
X0264485Y0169697D01*
X0298400Y0187340D02*
X0298450Y0187290D01*
X0298500D01*
X0277011Y0167279D02*
X0277295Y0166995D01*
D41*
X0229400Y0190140D02*
Y0216390D01*
X0292250Y0196040D02*
X0295500D01*
X0225845Y0161182D02*
X0226153Y0161490D01*
X0225845Y0159348D02*
Y0161182D01*
X0226000Y0185920D02*
X0229400Y0182520D01*
X0226000Y0185920D02*
Y0193540D01*
X0227250Y0187210D02*
X0229400Y0185060D01*
X0227250Y0187210D02*
Y0209540D01*
X0228200Y0188800D02*
X0229400Y0187600D01*
X0228200Y0188800D02*
Y0208956D01*
X0228335Y0209091D01*
Y0212205D01*
X0227915Y0212625D02*
X0228335Y0212205D01*
X0228200Y0160740D02*
X0228500Y0161040D01*
X0226795Y0160740D02*
X0228200D01*
X0226153Y0161490D02*
X0226484D01*
X0225845Y0159348D02*
X0226353Y0158840D01*
X0226795D01*
X0236600Y0164290D02*
Y0175540D01*
X0258635Y0157515D02*
X0258790Y0157670D01*
X0257225Y0157515D02*
X0258635D01*
X0255525Y0158215D02*
X0257520Y0160210D01*
X0255525Y0157515D02*
Y0158215D01*
X0251000Y0218690D02*
Y0221020D01*
X0250910Y0221110D02*
X0251000Y0221020D01*
X0250900Y0216890D02*
X0251000Y0216790D01*
X0229400Y0167280D02*
X0230600Y0166080D01*
X0232437D01*
X0234800Y0201274D02*
Y0214940D01*
X0237800Y0192340D02*
X0238275Y0191865D01*
X0236715Y0213755D02*
X0236750Y0213790D01*
X0240600Y0162140D02*
Y0180540D01*
X0238275Y0176865D02*
Y0191865D01*
X0232437Y0166080D02*
X0235515Y0169158D01*
X0231940Y0167280D02*
X0234800Y0170140D01*
X0235515Y0169158D02*
Y0179889D01*
X0234800Y0201274D02*
X0235885Y0200189D01*
X0235515Y0179889D02*
X0236035Y0180409D01*
X0327920Y0171415D02*
Y0173270D01*
X0326500Y0174690D02*
X0327920Y0173270D01*
X0334500Y0176390D02*
Y0179290D01*
X0333000Y0180790D02*
X0334500Y0179290D01*
X0333000Y0180790D02*
Y0190165D01*
Y0199540D01*
X0329500Y0176390D02*
X0333000D01*
X0334500D01*
X0325000D02*
X0329500D01*
X0325000Y0174690D02*
X0326500D01*
X0329500D02*
X0330460Y0173730D01*
Y0171415D02*
Y0173730D01*
X0333000Y0171415D02*
Y0174690D01*
X0239165Y0160390D02*
X0239195Y0160420D01*
X0330850Y0165540D02*
X0332000D01*
X0333000Y0164540D01*
Y0162040D02*
Y0164540D01*
X0327920Y0164310D02*
X0329150Y0165540D01*
X0327920Y0162040D02*
Y0164310D01*
X0333000Y0162040D02*
X0334500Y0163540D01*
Y0176390D01*
X0241800Y0198140D02*
X0243150Y0199490D01*
X0241800Y0174540D02*
Y0198140D01*
X0238500Y0197290D02*
X0239322Y0196468D01*
Y0178208D02*
X0239395Y0178135D01*
X0239322Y0178208D02*
Y0196468D01*
X0240407Y0183741D02*
Y0209054D01*
X0241593Y0210240D01*
X0297340Y0197880D02*
X0321357D01*
X0295500Y0196040D02*
X0297340Y0197880D01*
X0303716Y0209506D02*
X0312000D01*
X0316750Y0214256D01*
X0321357Y0197880D02*
X0322060Y0197177D01*
X0309500Y0149790D02*
Y0155496D01*
X0322060Y0168056D01*
X0326500Y0213100D02*
X0327160D01*
X0328500Y0214440D01*
Y0216140D02*
Y0217840D01*
X0328050Y0218290D02*
X0328500Y0217840D01*
X0326450Y0215690D02*
Y0218290D01*
Y0215690D02*
X0326500Y0215640D01*
X0291335Y0197125D02*
X0294835D01*
X0297250Y0203040D02*
Y0203040D01*
X0295293Y0197583D02*
Y0201083D01*
X0297250Y0203040D01*
Y0203040D02*
X0303716Y0209506D01*
X0294835Y0197125D02*
X0295293Y0197583D01*
X0249860Y0204313D02*
Y0216800D01*
X0249950Y0216890D01*
X0249000D02*
X0249950D01*
X0250900D01*
X0229400Y0216390D02*
X0229500Y0216290D01*
X0226484Y0161490D02*
X0227585Y0162591D01*
Y0163921D01*
X0226915Y0164591D02*
X0227585Y0163921D01*
X0226915Y0164591D02*
Y0167335D01*
X0229400Y0169820D01*
X0235985Y0184321D02*
Y0185759D01*
X0236035Y0180409D02*
Y0183381D01*
X0236685Y0184031D01*
Y0186049D01*
X0235885Y0186849D02*
X0236685Y0186049D01*
X0235885Y0186849D02*
Y0200189D01*
X0236750Y0179590D02*
Y0183106D01*
X0237385Y0183741D01*
Y0186339D01*
X0236715Y0187009D02*
X0237385Y0186339D01*
X0236715Y0187009D02*
Y0213755D01*
X0234800Y0186944D02*
Y0191340D01*
Y0170140D02*
Y0183136D01*
X0235985Y0184321D01*
X0234800Y0186944D02*
X0235985Y0185759D01*
X0290250Y0196540D02*
X0290750D01*
X0291335Y0197125D01*
X0305100Y0156240D02*
X0306835Y0157975D01*
Y0160383D01*
X0249860Y0204313D02*
X0256250Y0197923D01*
Y0190540D02*
Y0197923D01*
X0251005Y0171785D02*
Y0185295D01*
X0256250Y0190540D01*
X0316750Y0214256D02*
Y0216053D01*
X0316865Y0216168D01*
X0322060Y0168056D02*
Y0197177D01*
D42*
X0255735Y0171440D02*
Y0179405D01*
X0244575Y0160280D02*
X0255735Y0171440D01*
X0253325Y0153735D02*
Y0160020D01*
X0251500Y0154450D02*
X0252675Y0155625D01*
X0251500Y0151910D02*
X0253325Y0153735D01*
X0226795Y0159790D02*
X0228250D01*
X0243000Y0157885D02*
Y0182540D01*
X0264935Y0183950D02*
X0266300Y0182585D01*
X0262895Y0180045D02*
X0263760D01*
X0261600Y0183950D02*
X0264935D01*
X0255000Y0191540D02*
X0255000Y0191540D01*
X0241800Y0171740D02*
X0241845Y0171785D01*
X0233740Y0200680D02*
X0233800Y0200740D01*
X0231940Y0169820D02*
X0233850Y0171730D01*
X0232237Y0176075D02*
X0233200Y0177038D01*
X0229400Y0174900D02*
X0230575Y0176075D01*
X0232237D01*
X0247000Y0218540D02*
X0248950D01*
X0249000Y0218590D01*
X0260400Y0182540D02*
Y0185340D01*
Y0182540D02*
X0262895Y0180045D01*
X0254285Y0192255D02*
X0255000Y0191540D01*
X0248085Y0192255D02*
X0254285D01*
X0244500Y0197540D02*
X0244705D01*
X0244800Y0195540D02*
X0248085Y0192255D01*
X0244500Y0195540D02*
X0244800D01*
X0228750Y0159290D02*
X0228750D01*
X0228250Y0159790D02*
X0228750Y0159290D01*
X0234689Y0183980D02*
X0235310Y0184601D01*
Y0185479D01*
X0234689Y0186100D02*
X0235310Y0185479D01*
X0233850Y0171730D02*
Y0183141D01*
X0234689Y0183980D01*
X0234689D01*
X0234689Y0186100D02*
X0234689D01*
X0233740Y0187049D02*
X0234689Y0186100D01*
X0233740Y0187049D02*
Y0200680D01*
X0233200Y0177038D02*
Y0183990D01*
X0234250Y0185040D01*
X0244705Y0197540D02*
X0248870Y0193375D01*
X0255024D01*
X0252675Y0155625D02*
Y0162194D01*
X0256821Y0166340D01*
X0257079D01*
X0257179Y0166440D01*
X0253325Y0160020D02*
X0258720Y0165415D01*
Y0167523D01*
D43*
X0213700Y0173420D02*
Y0176700D01*
X0228600Y0155540D02*
X0229600Y0154540D01*
X0220600Y0202640D02*
X0224665D01*
X0220600Y0186240D02*
X0224700D01*
X0301840Y0150420D02*
Y0153500D01*
X0302960Y0147040D02*
X0305100Y0149180D01*
Y0152940D01*
X0301840Y0160580D02*
X0301935Y0160675D01*
X0257712Y0170940D02*
X0258200D01*
X0247750Y0156540D02*
Y0160978D01*
X0257712Y0170940D01*
X0224800Y0169540D02*
Y0186340D01*
X0224620Y0169360D02*
X0224800Y0169540D01*
X0222800Y0169360D02*
X0224620D01*
X0224665Y0202640D02*
X0224700D01*
X0224665Y0186475D02*
Y0202640D01*
Y0186475D02*
X0224800Y0186340D01*
X0221220Y0220060D02*
X0222800D01*
X0220600Y0219440D02*
X0221220Y0220060D01*
X0221350Y0149940D02*
X0229500D01*
X0229600Y0150040D01*
Y0152540D01*
X0293350Y0142440D02*
Y0144790D01*
X0292850Y0141940D02*
X0293350Y0142440D01*
X0292800Y0147040D02*
X0293350Y0146490D01*
Y0144790D02*
Y0146490D01*
X0291045Y0150445D02*
X0291935D01*
X0295340Y0147040D01*
X0297603D02*
X0300420D01*
X0294223Y0150420D02*
X0297603Y0147040D01*
X0294220Y0150420D02*
X0294223D01*
X0295150Y0146850D02*
X0295340Y0147040D01*
X0295150Y0144790D02*
Y0146850D01*
X0223040Y0152540D02*
X0224600Y0154100D01*
Y0155540D01*
X0220500Y0150790D02*
Y0152540D01*
Y0150790D02*
X0221350Y0149940D01*
X0301840Y0157500D02*
Y0160580D01*
X0222840Y0160740D02*
X0224195D01*
X0221380Y0158771D02*
X0221449Y0158840D01*
X0221380Y0162200D02*
X0222840Y0160740D01*
X0218110Y0158920D02*
X0221231D01*
X0221380Y0158771D01*
X0220600Y0217640D02*
X0222680D01*
X0220600Y0188040D02*
X0221260Y0188700D01*
X0222800D01*
X0220400Y0169640D02*
X0222520D01*
X0222800Y0169360D01*
X0220400Y0171440D02*
X0220860Y0171900D01*
X0222800D01*
X0213700Y0176700D02*
X0213795Y0176605D01*
X0213700Y0173420D02*
X0213830Y0173290D01*
X0213700Y0166540D02*
X0213830Y0166670D01*
X0221449Y0158840D02*
X0224195D01*
X0222680Y0217640D02*
X0222800Y0217520D01*
X0213830Y0166670D02*
Y0169290D01*
X0220600Y0204440D02*
X0221310Y0205150D01*
X0222800D01*
X0250910Y0221110D02*
X0253990D01*
X0243830D02*
X0246910D01*
X0294220Y0150420D02*
Y0153510D01*
X0294300Y0153590D01*
X0214395Y0176605D02*
X0220635D01*
X0222800Y0174440D01*
X0229600Y0152540D02*
Y0154540D01*
X0218279Y0162200D02*
X0221380D01*
X0215910Y0159831D02*
X0218279Y0162200D01*
X0294220Y0157670D02*
X0294300Y0157590D01*
X0294220Y0157670D02*
Y0160580D01*
X0215910Y0155540D02*
X0218910Y0152540D01*
X0220500D01*
X0215910Y0155540D02*
Y0159831D01*
X0241600Y0141940D02*
X0292850D01*
X0233600Y0149940D02*
X0241600Y0141940D01*
X0229500Y0149940D02*
X0233600D01*
X0224665Y0202640D02*
Y0215655D01*
X0222800Y0217520D02*
X0224665Y0215655D01*
X0238500Y0213333D02*
X0241593Y0210240D01*
X0238500Y0213333D02*
Y0224540D01*
X0253990Y0212820D02*
Y0221110D01*
X0251060Y0209890D02*
X0253990Y0212820D01*
X0224195Y0160740D02*
X0224800Y0161345D01*
Y0169540D01*
X0228500Y0161040D02*
X0228535Y0161075D01*
Y0164505D01*
X0228000Y0165040D02*
X0228535Y0164505D01*
D44*
X0211800Y0197390D02*
X0216018D01*
X0305100Y0154640D02*
X0305100Y0154640D01*
X0305100Y0154640D02*
Y0156240D01*
X0301840Y0157500D02*
X0302480Y0158140D01*
X0216800Y0168140D02*
Y0169590D01*
X0208080Y0185260D02*
X0210630D01*
X0212000Y0183890D01*
X0212100Y0181590D02*
X0213800D01*
X0212000Y0181490D02*
X0212100Y0181590D01*
X0213795Y0199295D02*
Y0200745D01*
Y0199295D02*
X0213800Y0199290D01*
X0211800Y0199290D02*
Y0205940D01*
X0209620Y0208120D02*
X0211800Y0205940D01*
X0208080Y0208120D02*
X0209620D01*
X0211800Y0213790D02*
X0213800D01*
X0211800Y0213790D02*
X0211800Y0213790D01*
X0211800Y0215690D02*
Y0221740D01*
X0210180Y0223360D02*
X0211800Y0221740D01*
X0208080Y0223360D02*
X0210180D01*
X0215350Y0171490D02*
X0216800D01*
X0213600Y0169740D02*
X0215350Y0171490D01*
X0218600Y0171390D02*
X0220350D01*
X0220400Y0171440D01*
X0216900Y0169690D02*
X0218600D01*
X0216800Y0169590D02*
X0216900Y0169690D01*
X0213800Y0215690D02*
X0213800Y0215690D01*
Y0217340D01*
X0213800Y0181590D02*
X0215450D01*
X0302480Y0158140D02*
X0305100D01*
X0313380Y0153640D02*
Y0158210D01*
X0318880Y0215640D02*
X0321458Y0213062D01*
Y0204320D02*
Y0213062D01*
Y0204320D02*
X0322885Y0202894D01*
X0313380Y0158210D02*
X0322885Y0167715D01*
X0213750Y0184540D02*
X0213800Y0184490D01*
Y0183290D02*
Y0184490D01*
X0213750Y0184540D02*
Y0184790D01*
X0215750Y0213790D02*
X0215750Y0213790D01*
X0213800Y0213790D02*
X0215750D01*
X0226500Y0163040D02*
Y0163839D01*
X0226090Y0164249D02*
X0226500Y0163839D01*
X0226090Y0164249D02*
Y0174130D01*
X0229400Y0177440D01*
X0216018Y0197390D02*
X0216048Y0197361D01*
X0216800Y0171490D02*
Y0172990D01*
X0217071Y0173261D01*
Y0173315D01*
X0322885Y0167715D02*
Y0202894D01*
D45*
X0244500Y0228790D02*
Y0227290D01*
X0245250D01*
X0245500Y0227540D01*
Y0227790D01*
X0245250Y0228040D01*
X0244500D01*
X0245250D01*
X0245500Y0228290D01*
Y0228540D01*
X0245250Y0228790D01*
X0244500D01*
X0246999Y0227290D02*
X0246000D01*
X0246999Y0228290D01*
Y0228540D01*
X0246749Y0228790D01*
X0246249D01*
X0246000Y0228540D01*
X0247499Y0227540D02*
X0247749Y0227290D01*
X0248249D01*
X0248499Y0227540D01*
Y0228540D01*
X0248249Y0228790D01*
X0247749D01*
X0247499Y0228540D01*
Y0228290D01*
X0247749Y0228040D01*
X0248499D01*
X0248999Y0228540D02*
X0249248Y0228790D01*
X0249748D01*
X0249998Y0228540D01*
Y0228290D01*
X0249748Y0228040D01*
X0249498D01*
X0249748D01*
X0249998Y0227790D01*
Y0227540D01*
X0249748Y0227290D01*
X0249248D01*
X0248999Y0227540D01*
X0250498Y0227290D02*
Y0228290D01*
X0250998Y0228790D01*
X0251498Y0228290D01*
Y0227290D01*
Y0228040D01*
X0250498D01*
X0253497Y0227290D02*
Y0228790D01*
X0253997Y0228290D01*
X0254497Y0228790D01*
Y0227290D01*
X0255996D02*
X0255746Y0227540D01*
X0255496Y0227290D01*
X0255247D01*
X0254997Y0227540D01*
Y0227790D01*
X0255247Y0228040D01*
X0254997Y0228290D01*
Y0228540D01*
X0255247Y0228790D01*
X0255496D01*
X0255746Y0228540D01*
Y0228290D01*
X0255496Y0228040D01*
X0255746Y0227790D01*
Y0227540D01*
X0255996Y0228040D02*
X0255746Y0227790D01*
X0255247Y0228040D02*
X0255496D01*
X0256496Y0227290D02*
Y0228790D01*
X0256996Y0228290D01*
X0257496Y0228790D01*
Y0227290D01*
X0260495Y0228540D02*
X0260245Y0228790D01*
X0259745D01*
X0259495Y0228540D01*
Y0228290D01*
X0259745Y0228040D01*
X0260245D01*
X0260495Y0227790D01*
Y0227540D01*
X0260245Y0227290D01*
X0259745D01*
X0259495Y0227540D01*
X0260995Y0227290D02*
X0261495D01*
X0261245D01*
Y0228290D01*
X0260995D01*
X0262244Y0227290D02*
Y0228290D01*
X0262994D01*
X0263244Y0228040D01*
Y0227290D01*
X0264244Y0226790D02*
X0264494D01*
X0264743Y0227040D01*
Y0228290D01*
X0263994D01*
X0263744Y0228040D01*
Y0227540D01*
X0263994Y0227290D01*
X0264743D01*
X0265243D02*
X0265743D01*
X0265493D01*
Y0228790D01*
X0265243D01*
X0267243Y0227290D02*
X0266743D01*
X0266493Y0227540D01*
Y0228040D01*
X0266743Y0228290D01*
X0267243D01*
X0267493Y0228040D01*
Y0227790D01*
X0266493D01*
X0269492Y0228790D02*
Y0227290D01*
X0270242D01*
X0270492Y0227540D01*
Y0227790D01*
X0270242Y0228040D01*
X0269492D01*
X0270242D01*
X0270492Y0228290D01*
Y0228540D01*
X0270242Y0228790D01*
X0269492D01*
X0271241Y0227290D02*
X0271741D01*
X0271991Y0227540D01*
Y0228040D01*
X0271741Y0228290D01*
X0271241D01*
X0270991Y0228040D01*
Y0227540D01*
X0271241Y0227290D01*
X0272741Y0228290D02*
X0273241D01*
X0273491Y0228040D01*
Y0227290D01*
X0272741D01*
X0272491Y0227540D01*
X0272741Y0227790D01*
X0273491D01*
X0273990Y0228290D02*
Y0227290D01*
Y0227790D01*
X0274240Y0228040D01*
X0274490Y0228290D01*
X0274740D01*
X0276490Y0228790D02*
Y0227290D01*
X0275740D01*
X0275490Y0227540D01*
Y0228040D01*
X0275740Y0228290D01*
X0276490D01*
X0278489Y0227290D02*
Y0228790D01*
X0278989Y0228290D01*
X0279489Y0228790D01*
Y0227290D01*
X0279988D02*
Y0227540D01*
X0280238D01*
Y0227290D01*
X0279988D01*
X0282238Y0228540D02*
X0281988Y0228790D01*
X0281488D01*
X0281238Y0228540D01*
Y0228290D01*
X0281488Y0228040D01*
X0281988D01*
X0282238Y0227790D01*
Y0227540D01*
X0281988Y0227290D01*
X0281488D01*
X0281238Y0227540D01*
X0282988Y0227290D02*
X0283487D01*
X0283737Y0227540D01*
Y0228040D01*
X0283487Y0228290D01*
X0282988D01*
X0282738Y0228040D01*
Y0227540D01*
X0282988Y0227290D01*
X0284237Y0228290D02*
Y0227540D01*
X0284487Y0227290D01*
X0285237D01*
Y0228290D01*
X0285987Y0228540D02*
Y0228290D01*
X0285737D01*
X0286236D01*
X0285987D01*
Y0227540D01*
X0286236Y0227290D01*
X0286986Y0228790D02*
Y0227290D01*
Y0228040D01*
X0287236Y0228290D01*
X0287736D01*
X0287986Y0228040D01*
Y0227290D01*
X0288986Y0226790D02*
X0289236D01*
X0289485Y0227040D01*
Y0228290D01*
X0288736D01*
X0288486Y0228040D01*
Y0227540D01*
X0288736Y0227290D01*
X0289485D01*
X0290235Y0228290D02*
X0290735D01*
X0290985Y0228040D01*
Y0227290D01*
X0290235D01*
X0289985Y0227540D01*
X0290235Y0227790D01*
X0290985D01*
X0291735Y0228540D02*
Y0228290D01*
X0291485D01*
X0291985D01*
X0291735D01*
Y0227540D01*
X0291985Y0227290D01*
X0293484D02*
X0292984D01*
X0292734Y0227540D01*
Y0228040D01*
X0292984Y0228290D01*
X0293484D01*
X0293734Y0228040D01*
Y0227790D01*
X0292734D01*
X0296733Y0227290D02*
X0295733D01*
X0296733Y0228290D01*
Y0228540D01*
X0296483Y0228790D01*
X0295983D01*
X0295733Y0228540D01*
X0297233D02*
X0297483Y0228790D01*
X0297983D01*
X0298233Y0228540D01*
Y0227540D01*
X0297983Y0227290D01*
X0297483D01*
X0297233Y0227540D01*
Y0228540D01*
X0298732Y0227290D02*
X0299232D01*
X0298982D01*
Y0228790D01*
X0298732Y0228540D01*
X0300732Y0227290D02*
Y0228790D01*
X0299982Y0228040D01*
X0300982D01*
D46*
X0326500Y0215640D02*
D03*
X0298000Y0194140D02*
D03*
X0258680Y0212430D02*
D03*
X0270150Y0213220D02*
D03*
X0331250Y0215540D02*
D03*
X0318460Y0157790D02*
D03*
X0321000Y0153640D02*
D03*
D47*
X0326500Y0213100D02*
D03*
Y0210560D02*
D03*
Y0208020D02*
D03*
X0318880Y0215640D02*
D03*
Y0213100D02*
D03*
Y0210560D02*
D03*
Y0208020D02*
D03*
X0231940Y0190140D02*
D03*
X0229400Y0187600D02*
D03*
X0231940D02*
D03*
X0229400Y0185060D02*
D03*
X0231940D02*
D03*
X0229400Y0182520D02*
D03*
X0231940D02*
D03*
X0229400Y0179980D02*
D03*
X0231940D02*
D03*
X0229400Y0177440D02*
D03*
X0231940D02*
D03*
X0229400Y0174900D02*
D03*
X0231940D02*
D03*
X0229400Y0172360D02*
D03*
X0231940D02*
D03*
X0229400Y0169820D02*
D03*
X0231940D02*
D03*
X0229400Y0167280D02*
D03*
X0231940D02*
D03*
X0266300Y0200365D02*
D03*
X0263760Y0197825D02*
D03*
X0266300D02*
D03*
X0263760Y0195285D02*
D03*
X0266300D02*
D03*
X0263760Y0192745D02*
D03*
X0266300D02*
D03*
X0263760Y0190205D02*
D03*
X0266300D02*
D03*
X0263760Y0187665D02*
D03*
X0266300D02*
D03*
X0263760Y0185125D02*
D03*
X0266300D02*
D03*
X0263760Y0182585D02*
D03*
X0266300D02*
D03*
X0263760Y0180045D02*
D03*
X0266300D02*
D03*
X0263760Y0177505D02*
D03*
X0266300D02*
D03*
X0298000Y0196680D02*
D03*
X0300540Y0194140D02*
D03*
Y0196680D02*
D03*
X0303080Y0194140D02*
D03*
Y0196680D02*
D03*
X0305620Y0194140D02*
D03*
Y0196680D02*
D03*
X0308160Y0194140D02*
D03*
Y0196680D02*
D03*
X0310700Y0194140D02*
D03*
Y0196680D02*
D03*
X0313240Y0194140D02*
D03*
X0313240Y0196680D02*
D03*
X0315780Y0194140D02*
D03*
X0315780Y0196680D02*
D03*
X0318320Y0194140D02*
D03*
Y0196680D02*
D03*
X0320860Y0194140D02*
D03*
Y0196680D02*
D03*
X0251500Y0156990D02*
D03*
Y0154450D02*
D03*
Y0151910D02*
D03*
Y0149370D02*
D03*
Y0146830D02*
D03*
X0288000Y0156990D02*
D03*
Y0154450D02*
D03*
Y0151910D02*
D03*
Y0149370D02*
D03*
Y0146830D02*
D03*
X0258680Y0209890D02*
D03*
Y0207350D02*
D03*
Y0204810D02*
D03*
X0251060Y0212430D02*
D03*
Y0209890D02*
D03*
Y0207350D02*
D03*
Y0204810D02*
D03*
X0270150Y0215760D02*
D03*
Y0218300D02*
D03*
X0270150Y0220840D02*
D03*
X0277770Y0213220D02*
D03*
Y0215760D02*
D03*
X0277770Y0218300D02*
D03*
X0277770Y0220840D02*
D03*
X0333790Y0215540D02*
D03*
X0315920Y0157790D02*
D03*
X0321000Y0151100D02*
D03*
Y0148560D02*
D03*
Y0146020D02*
D03*
X0313380Y0153640D02*
D03*
Y0151100D02*
D03*
Y0148560D02*
D03*
Y0146020D02*
D03*
X0270000Y0146830D02*
D03*
Y0149370D02*
D03*
Y0151910D02*
D03*
Y0154450D02*
D03*
Y0156990D02*
D03*
X0293250Y0205540D02*
D03*
X0275750Y0199040D02*
D03*
Y0205540D02*
D03*
X0293500Y0199040D02*
D03*
X0297500Y0209040D02*
D03*
D48*
X0331000Y0153540D02*
D03*
X0333540Y0151000D02*
D03*
X0328460D02*
D03*
X0333540Y0156080D02*
D03*
X0328460D02*
D03*
X0238500Y0224540D02*
D03*
X0235960Y0222000D02*
D03*
Y0227080D02*
D03*
X0241040Y0222000D02*
D03*
Y0227080D02*
D03*
X0213030Y0158920D02*
D03*
X0218110D02*
D03*
X0259400Y0221140D02*
D03*
X0261940Y0223680D02*
D03*
Y0218600D02*
D03*
X0256860Y0223680D02*
D03*
Y0218600D02*
D03*
X0322000Y0224540D02*
D03*
X0324540Y0222000D02*
D03*
X0319460D02*
D03*
X0324540Y0227080D02*
D03*
X0319460D02*
D03*
D49*
X0333000Y0199540D02*
D03*
Y0190165D02*
D03*
Y0162040D02*
D03*
Y0180790D02*
D03*
Y0171415D02*
D03*
X0229600Y0152540D02*
D03*
X0220500Y0152540D02*
D03*
D50*
X0330460Y0199540D02*
D03*
X0327920D02*
D03*
X0330460Y0190165D02*
D03*
X0327920D02*
D03*
X0330460Y0162040D02*
D03*
X0327920D02*
D03*
X0325380D02*
D03*
X0322840D02*
D03*
X0330460Y0180790D02*
D03*
X0327920D02*
D03*
X0325380Y0171415D02*
D03*
X0327920D02*
D03*
X0330460D02*
D03*
X0232140Y0152540D02*
D03*
X0223040Y0152540D02*
D03*
D51*
X0243830Y0221110D02*
D03*
X0253990D02*
D03*
X0213700Y0176700D02*
D03*
Y0166540D02*
D03*
X0301840Y0150420D02*
D03*
Y0160580D02*
D03*
X0294220Y0150420D02*
D03*
Y0160580D02*
D03*
D52*
X0229400Y0190140D02*
D03*
X0263760Y0200365D02*
D03*
X0251500Y0144290D02*
D03*
X0288000Y0144290D02*
D03*
X0270000Y0144290D02*
D03*
D53*
X0222800Y0217520D02*
D03*
Y0220060D02*
D03*
Y0222600D02*
D03*
X0292800Y0147040D02*
D03*
X0295340D02*
D03*
X0300420D02*
D03*
X0302960D02*
D03*
X0305500D02*
D03*
X0222800Y0202610D02*
D03*
Y0205150D02*
D03*
Y0207690D02*
D03*
Y0186160D02*
D03*
Y0188700D02*
D03*
Y0191240D02*
D03*
Y0169360D02*
D03*
Y0171900D02*
D03*
Y0174440D02*
D03*
D54*
X0332000Y0224540D02*
D03*
Y0144540D02*
D03*
X0230000D02*
D03*
Y0224540D02*
D03*
D55*
X0208080Y0223360D02*
D03*
Y0208120D02*
D03*
Y0196690D02*
D03*
Y0185260D02*
D03*
X0208000Y0172140D02*
D03*
Y0161540D02*
D03*
D56*
X0208080Y0220820D02*
D03*
Y0205580D02*
D03*
Y0194150D02*
D03*
Y0182720D02*
D03*
X0208000Y0169600D02*
D03*
Y0159000D02*
D03*
D57*
X0239195Y0160420D02*
D03*
X0257610Y0160420D02*
D03*
X0276025Y0160420D02*
D03*
D58*
X0247450Y0151530D02*
D03*
X0237290D02*
D03*
X0255705Y0151530D02*
D03*
X0265865D02*
D03*
X0284280Y0151530D02*
D03*
X0274120D02*
D03*
D59*
X0240465Y0157880D02*
D03*
X0243005D02*
D03*
X0241735Y0160420D02*
D03*
X0244275D02*
D03*
X0245545Y0157880D02*
D03*
X0263960Y0157880D02*
D03*
X0262690Y0160420D02*
D03*
X0260150D02*
D03*
X0261420Y0157880D02*
D03*
X0258880D02*
D03*
X0277295Y0157880D02*
D03*
X0279835D02*
D03*
X0278565Y0160420D02*
D03*
X0281105D02*
D03*
X0282375Y0157880D02*
D03*
D60*
X0294003Y0193748D02*
D03*
X0248400Y0202582D02*
D03*
X0300600Y0177940D02*
D03*
X0298440Y0177980D02*
D03*
X0298200Y0190740D02*
D03*
X0292250Y0196040D02*
D03*
X0304000Y0178040D02*
D03*
X0305177Y0179717D02*
D03*
X0285200Y0204740D02*
D03*
X0305500Y0161540D02*
D03*
X0282000Y0177340D02*
D03*
X0322765Y0204725D02*
D03*
X0314500Y0213540D02*
D03*
X0238500Y0197290D02*
D03*
X0306750Y0224790D02*
D03*
X0306763Y0212074D02*
D03*
X0226000Y0193540D02*
D03*
X0227250Y0209540D02*
D03*
X0227915Y0212625D02*
D03*
X0305700Y0173840D02*
D03*
X0297264Y0164162D02*
D03*
X0299250Y0170290D02*
D03*
X0287000Y0161040D02*
D03*
X0264485Y0162055D02*
D03*
X0309500Y0149790D02*
D03*
X0283500Y0196290D02*
D03*
X0228500Y0161040D02*
D03*
X0280375Y0171715D02*
D03*
X0226500Y0163040D02*
D03*
X0243000Y0182540D02*
D03*
X0240600Y0162140D02*
D03*
X0247750Y0156540D02*
D03*
X0236600Y0164290D02*
D03*
X0270550Y0183940D02*
D03*
X0258200Y0170940D02*
D03*
X0216750Y0167790D02*
D03*
X0260400Y0185340D02*
D03*
X0313776Y0188316D02*
D03*
X0315925Y0190465D02*
D03*
X0317000Y0191540D02*
D03*
X0275600Y0223140D02*
D03*
X0292800Y0212940D02*
D03*
X0287600Y0212940D02*
D03*
X0293400Y0220740D02*
D03*
X0314500Y0215540D02*
D03*
X0294800Y0217540D02*
D03*
X0213800Y0217340D02*
D03*
X0215450Y0181590D02*
D03*
X0298665Y0150425D02*
D03*
X0291045Y0150445D02*
D03*
X0234800Y0191340D02*
D03*
X0255000Y0191540D02*
D03*
X0255735Y0179405D02*
D03*
X0236750Y0213790D02*
D03*
X0233800Y0200740D02*
D03*
X0238275Y0176865D02*
D03*
X0237800Y0192340D02*
D03*
X0241845Y0171785D02*
D03*
X0234800Y0214940D02*
D03*
X0243150Y0199490D02*
D03*
X0240600Y0180540D02*
D03*
X0241800Y0174540D02*
D03*
X0236750Y0179590D02*
D03*
X0236600Y0175540D02*
D03*
X0322750Y0142040D02*
D03*
X0317265Y0142725D02*
D03*
X0310551Y0185091D02*
D03*
X0311626Y0186166D02*
D03*
X0312701Y0187241D02*
D03*
X0314850Y0189390D02*
D03*
X0306252Y0180792D02*
D03*
X0309476Y0184016D02*
D03*
X0308402Y0182942D02*
D03*
X0307327Y0181867D02*
D03*
X0305500Y0177040D02*
D03*
X0303750Y0162290D02*
D03*
X0289000Y0161040D02*
D03*
X0247000Y0218540D02*
D03*
X0261600Y0183950D02*
D03*
X0239395Y0178135D02*
D03*
X0240407Y0183741D02*
D03*
X0241593Y0210240D02*
D03*
X0292500Y0222290D02*
D03*
X0280240Y0192200D02*
D03*
X0262250Y0205417D02*
D03*
X0207200Y0140986D02*
D03*
X0212000Y0141034D02*
D03*
X0216200Y0141062D02*
D03*
X0302400Y0224690D02*
D03*
X0314000Y0208290D02*
D03*
X0318750Y0204790D02*
D03*
X0320940Y0173100D02*
D03*
X0304350Y0175640D02*
D03*
X0309250Y0159040D02*
D03*
X0321500Y0216040D02*
D03*
X0316790Y0221500D02*
D03*
X0311290Y0141500D02*
D03*
X0260554Y0167594D02*
D03*
X0262500Y0166790D02*
D03*
X0262000Y0168790D02*
D03*
X0263750Y0173040D02*
D03*
X0253500Y0195540D02*
D03*
X0250000Y0199040D02*
D03*
X0259750Y0200040D02*
D03*
X0246400Y0213640D02*
D03*
X0299500Y0180540D02*
D03*
X0298000Y0185740D02*
D03*
X0299250Y0192290D02*
D03*
X0274000Y0179540D02*
D03*
X0251005Y0171785D02*
D03*
X0296250Y0192290D02*
D03*
X0229500Y0216290D02*
D03*
X0243500Y0224040D02*
D03*
X0213750Y0184790D02*
D03*
X0274500Y0187290D02*
D03*
X0214750Y0161290D02*
D03*
X0277250Y0167040D02*
D03*
X0215750Y0213790D02*
D03*
X0299000Y0164290D02*
D03*
X0244500Y0197540D02*
D03*
Y0195540D02*
D03*
X0228750Y0159290D02*
D03*
X0274250Y0167540D02*
D03*
X0272500Y0166540D02*
D03*
X0270500Y0166290D02*
D03*
X0297000Y0177040D02*
D03*
X0296750Y0212040D02*
D03*
X0245250Y0216540D02*
D03*
X0228000Y0165040D02*
D03*
X0328000Y0204290D02*
D03*
X0289250Y0192290D02*
D03*
X0234250Y0185040D02*
D03*
X0261500Y0165290D02*
D03*
X0283250Y0221790D02*
D03*
X0264250Y0171290D02*
D03*
X0297500Y0207040D02*
D03*
X0298500Y0187290D02*
D03*
X0290250Y0196540D02*
D03*
X0264127Y0217204D02*
D03*
X0306835Y0160383D02*
D03*
X0299502Y0182406D02*
D03*
X0244512Y0190281D02*
D03*
X0255024Y0193375D02*
D03*
X0285090Y0174531D02*
D03*
X0287004Y0174519D02*
D03*
X0248112Y0184682D02*
D03*
X0317251Y0153640D02*
D03*
X0216048Y0197361D02*
D03*
X0213772Y0200768D02*
D03*
X0217071Y0173315D02*
D03*
X0257179Y0166440D02*
D03*
X0258720Y0167523D02*
D03*
X0257927Y0169193D02*
D03*
X0316865Y0216168D02*
D03*
X0319500Y0185540D02*
D03*
D79*
X0246910Y0221110D02*
D03*
X0250910D02*
D03*
X0229000Y0155540D02*
D03*
X0225000D02*
D03*
D80*
X0301840Y0153500D02*
D03*
Y0157500D02*
D03*
X0294300Y0157590D02*
D03*
Y0153590D02*
D03*
X0213600Y0173740D02*
D03*
Y0169740D02*
D03*
D81*
X0224195Y0160740D02*
D03*
X0226795Y0158840D02*
D03*
Y0159790D02*
D03*
Y0160740D02*
D03*
X0224195Y0158840D02*
D03*
D82*
X0221380Y0162200D02*
D03*
Y0158771D02*
D03*
M02*
