%FSAX43Y43*%
%MOMM*%
G71*
G01*
G75*
G04 Layer_Color=8388736*
%ADD10R,1.450X1.150*%
%ADD11R,1.300X0.850*%
%ADD12R,1.350X0.950*%
%ADD13R,1.400X1.050*%
%ADD14R,1.500X1.250*%
%ADD15R,0.950X1.350*%
%ADD16O,2.050X0.600*%
%ADD17R,1.050X1.400*%
%ADD18R,0.850X1.300*%
%ADD19O,2.200X0.600*%
%ADD20R,1.250X1.500*%
%ADD21R,1.150X1.450*%
%ADD22R,1.400X1.200*%
%ADD23R,1.550X1.350*%
%ADD24R,1.350X1.550*%
%ADD25O,1.900X0.450*%
G04:AMPARAMS|DCode=26|XSize=5.5mm|YSize=1.5mm|CornerRadius=0.188mm|HoleSize=0mm|Usage=FLASHONLY|Rotation=180.000|XOffset=0mm|YOffset=0mm|HoleType=Round|Shape=RoundedRectangle|*
%AMROUNDEDRECTD26*
21,1,5.500,1.125,0,0,180.0*
21,1,5.125,1.500,0,0,180.0*
1,1,0.375,-2.563,0.563*
1,1,0.375,2.563,0.563*
1,1,0.375,2.563,-0.563*
1,1,0.375,-2.563,-0.563*
%
%ADD26ROUNDEDRECTD26*%
%ADD27R,1.800X0.600*%
%ADD28R,0.900X1.000*%
%ADD29R,1.200X1.400*%
%ADD30R,1.000X0.900*%
%ADD31R,5.400X1.550*%
%ADD32R,1.700X0.950*%
%ADD33R,1.900X0.900*%
%ADD34R,1.900X3.200*%
%ADD35R,1.524X1.524*%
G04:AMPARAMS|DCode=36|XSize=0.6mm|YSize=1mm|CornerRadius=0.075mm|HoleSize=0mm|Usage=FLASHONLY|Rotation=0.000|XOffset=0mm|YOffset=0mm|HoleType=Round|Shape=RoundedRectangle|*
%AMROUNDEDRECTD36*
21,1,0.600,0.850,0,0,0.0*
21,1,0.450,1.000,0,0,0.0*
1,1,0.150,0.225,-0.425*
1,1,0.150,-0.225,-0.425*
1,1,0.150,-0.225,0.425*
1,1,0.150,0.225,0.425*
%
%ADD36ROUNDEDRECTD36*%
%ADD37O,0.250X1.550*%
%ADD38O,1.550X0.250*%
%ADD39O,0.450X2.400*%
%ADD40C,0.250*%
%ADD41C,0.500*%
%ADD42C,0.450*%
%ADD43C,1.000*%
%ADD44C,0.750*%
%ADD45C,0.254*%
%ADD46R,1.500X1.500*%
%ADD47C,1.500*%
%ADD48C,3.000*%
%ADD49R,2.000X2.500*%
%ADD50O,2.000X2.500*%
%ADD51C,1.400*%
%ADD52R,1.500X1.500*%
%ADD53C,1.800*%
%ADD54C,8.000*%
%ADD55R,2.500X2.000*%
%ADD56O,2.500X2.000*%
%ADD57R,1.500X1.500*%
%ADD58C,2.950*%
%ADD59C,1.500*%
%ADD60C,1.270*%
%ADD61C,1.016*%
%ADD62C,1.016*%
%ADD63C,1.900*%
%ADD64C,2.500*%
G04:AMPARAMS|DCode=65|XSize=3.2mm|YSize=3.2mm|CornerRadius=0mm|HoleSize=0mm|Usage=FLASHONLY|Rotation=0.000|XOffset=0mm|YOffset=0mm|HoleType=Round|Shape=Relief|Width=0.3mm|Gap=0.3mm|Entries=4|*
%AMTHD65*
7,0,0,3.200,2.600,0.300,45*
%
%ADD65THD65*%
%ADD66C,2.100*%
G04:AMPARAMS|DCode=67|XSize=2.7mm|YSize=2.7mm|CornerRadius=0mm|HoleSize=0mm|Usage=FLASHONLY|Rotation=0.000|XOffset=0mm|YOffset=0mm|HoleType=Round|Shape=Relief|Width=0.3mm|Gap=0.3mm|Entries=4|*
%AMTHD67*
7,0,0,2.700,2.100,0.300,45*
%
%ADD67THD67*%
%ADD68C,1.850*%
G04:AMPARAMS|DCode=69|XSize=2.5mm|YSize=2.5mm|CornerRadius=0mm|HoleSize=0mm|Usage=FLASHONLY|Rotation=0.000|XOffset=0mm|YOffset=0mm|HoleType=Round|Shape=Relief|Width=0.3mm|Gap=0.3mm|Entries=4|*
%AMTHD69*
7,0,0,2.500,1.900,0.300,45*
%
%ADD69THD69*%
%ADD70C,2.000*%
%ADD71C,1.600*%
G04:AMPARAMS|DCode=72|XSize=2.2mm|YSize=2.2mm|CornerRadius=0mm|HoleSize=0mm|Usage=FLASHONLY|Rotation=0.000|XOffset=0mm|YOffset=0mm|HoleType=Round|Shape=Relief|Width=0.3mm|Gap=0.3mm|Entries=4|*
%AMTHD72*
7,0,0,2.200,1.600,0.300,45*
%
%ADD72THD72*%
%ADD73C,4.500*%
%ADD74C,1.900*%
%ADD75C,4.250*%
G04:AMPARAMS|DCode=76|XSize=2.5mm|YSize=2.5mm|CornerRadius=0mm|HoleSize=0mm|Usage=FLASHONLY|Rotation=0.000|XOffset=0mm|YOffset=0mm|HoleType=Round|Shape=Relief|Width=0.3mm|Gap=0.3mm|Entries=4|*
%AMTHD76*
7,0,0,2.500,1.900,0.300,45*
%
%ADD76THD76*%
%ADD77C,2.600*%
G04:AMPARAMS|DCode=78|XSize=2.45mm|YSize=2.45mm|CornerRadius=0mm|HoleSize=0mm|Usage=FLASHONLY|Rotation=0.000|XOffset=0mm|YOffset=0mm|HoleType=Round|Shape=Relief|Width=0.3mm|Gap=0.3mm|Entries=4|*
%AMTHD78*
7,0,0,2.450,1.850,0.300,45*
%
%ADD78THD78*%
%ADD79R,2.500X1.700*%
%ADD80R,1.700X2.500*%
G04:AMPARAMS|DCode=81|XSize=0.6mm|YSize=1mm|CornerRadius=0.075mm|HoleSize=0mm|Usage=FLASHONLY|Rotation=270.000|XOffset=0mm|YOffset=0mm|HoleType=Round|Shape=RoundedRectangle|*
%AMROUNDEDRECTD81*
21,1,0.600,0.850,0,0,270.0*
21,1,0.450,1.000,0,0,270.0*
1,1,0.150,-0.425,-0.225*
1,1,0.150,-0.425,0.225*
1,1,0.150,0.425,0.225*
1,1,0.150,0.425,-0.225*
%
%ADD81ROUNDEDRECTD81*%
%ADD82R,1.524X1.524*%
%ADD83C,0.600*%
%ADD84C,0.400*%
%ADD85C,0.200*%
%ADD86C,0.203*%
%ADD87C,0.127*%
%ADD88C,0.305*%
%ADD89R,1.800X1.600*%
%ADD90R,1.600X1.800*%
%ADD91R,1.700X1.400*%
%ADD92R,1.550X1.100*%
%ADD93R,1.600X1.200*%
%ADD94R,1.650X1.300*%
%ADD95R,1.750X1.500*%
%ADD96R,1.200X1.600*%
%ADD97O,2.300X0.850*%
%ADD98R,1.300X1.650*%
%ADD99R,1.100X1.550*%
%ADD100O,2.450X0.850*%
%ADD101R,1.500X1.750*%
%ADD102R,1.400X1.700*%
%ADD103R,1.650X1.450*%
%ADD104R,1.800X1.600*%
%ADD105R,1.600X1.800*%
%ADD106O,2.150X0.700*%
G04:AMPARAMS|DCode=107|XSize=5.75mm|YSize=1.75mm|CornerRadius=0.313mm|HoleSize=0mm|Usage=FLASHONLY|Rotation=180.000|XOffset=0mm|YOffset=0mm|HoleType=Round|Shape=RoundedRectangle|*
%AMROUNDEDRECTD107*
21,1,5.750,1.125,0,0,180.0*
21,1,5.125,1.750,0,0,180.0*
1,1,0.625,-2.563,0.563*
1,1,0.625,2.563,0.563*
1,1,0.625,2.563,-0.563*
1,1,0.625,-2.563,-0.563*
%
%ADD107ROUNDEDRECTD107*%
%ADD108R,2.050X0.850*%
%ADD109R,1.150X1.250*%
%ADD110R,1.450X1.650*%
%ADD111R,1.250X1.150*%
%ADD112R,5.650X1.800*%
%ADD113R,1.950X1.200*%
%ADD114R,2.150X1.150*%
%ADD115R,2.150X3.450*%
%ADD116R,1.774X1.774*%
G04:AMPARAMS|DCode=117|XSize=0.85mm|YSize=1.25mm|CornerRadius=0.2mm|HoleSize=0mm|Usage=FLASHONLY|Rotation=0.000|XOffset=0mm|YOffset=0mm|HoleType=Round|Shape=RoundedRectangle|*
%AMROUNDEDRECTD117*
21,1,0.850,0.850,0,0,0.0*
21,1,0.450,1.250,0,0,0.0*
1,1,0.400,0.225,-0.425*
1,1,0.400,-0.225,-0.425*
1,1,0.400,-0.225,0.425*
1,1,0.400,0.225,0.425*
%
%ADD117ROUNDEDRECTD117*%
%ADD118O,0.500X1.800*%
%ADD119O,1.800X0.500*%
%ADD120O,0.700X2.650*%
%ADD121R,1.750X1.750*%
%ADD122C,1.750*%
%ADD123C,3.250*%
%ADD124R,2.250X2.750*%
%ADD125O,2.250X2.750*%
%ADD126C,1.650*%
%ADD127R,1.750X1.750*%
%ADD128C,2.050*%
%ADD129C,8.250*%
%ADD130R,2.750X2.250*%
%ADD131O,2.750X2.250*%
%ADD132R,1.750X1.750*%
%ADD133C,3.200*%
%ADD134C,1.750*%
%ADD135C,1.520*%
D91*
X0319040Y0143650D02*
D03*
Y0141850D02*
D03*
X0324540Y0205650D02*
D03*
Y0203850D02*
D03*
X0311290Y0155850D02*
D03*
Y0157650D02*
D03*
X0248800Y0210040D02*
D03*
Y0211840D02*
D03*
X0307200Y0215640D02*
D03*
Y0213840D02*
D03*
X0310000Y0223190D02*
D03*
Y0221390D02*
D03*
X0302400Y0223290D02*
D03*
Y0221490D02*
D03*
X0316790Y0217850D02*
D03*
Y0219650D02*
D03*
X0321000Y0189640D02*
D03*
Y0191440D02*
D03*
X0307200Y0175640D02*
D03*
Y0173840D02*
D03*
X0275600Y0183040D02*
D03*
Y0181240D02*
D03*
X0270350Y0187440D02*
D03*
Y0185640D02*
D03*
D92*
X0324540Y0215650D02*
D03*
Y0217350D02*
D03*
Y0213850D02*
D03*
Y0212150D02*
D03*
X0316790Y0210350D02*
D03*
Y0208650D02*
D03*
X0324540Y0210600D02*
D03*
Y0208900D02*
D03*
X0322790Y0212150D02*
D03*
Y0213850D02*
D03*
X0319040Y0153650D02*
D03*
Y0155350D02*
D03*
X0323040Y0156100D02*
D03*
Y0154400D02*
D03*
X0319040Y0148600D02*
D03*
Y0146900D02*
D03*
X0319040Y0151850D02*
D03*
Y0150150D02*
D03*
X0317290D02*
D03*
Y0151850D02*
D03*
X0311290Y0148350D02*
D03*
Y0146650D02*
D03*
X0243600Y0214890D02*
D03*
Y0216590D02*
D03*
X0319000Y0191390D02*
D03*
Y0189690D02*
D03*
X0307200Y0170190D02*
D03*
Y0171890D02*
D03*
X0273600Y0181290D02*
D03*
Y0182990D02*
D03*
X0234250Y0160390D02*
D03*
Y0158690D02*
D03*
X0216200Y0164190D02*
D03*
Y0162490D02*
D03*
X0212000Y0152190D02*
D03*
Y0150490D02*
D03*
X0207200Y0152190D02*
D03*
Y0150490D02*
D03*
X0216200Y0152190D02*
D03*
Y0150490D02*
D03*
D93*
X0326540Y0205550D02*
D03*
Y0203950D02*
D03*
X0321040Y0143550D02*
D03*
Y0141950D02*
D03*
X0313290Y0155950D02*
D03*
Y0157550D02*
D03*
X0312800Y0215540D02*
D03*
Y0213940D02*
D03*
X0311000Y0215540D02*
D03*
X0311000Y0213940D02*
D03*
X0309000Y0215540D02*
D03*
X0309000Y0213940D02*
D03*
X0304200Y0223190D02*
D03*
X0304200Y0221590D02*
D03*
X0305000Y0215540D02*
D03*
X0305000Y0213940D02*
D03*
X0303250Y0215590D02*
D03*
Y0213990D02*
D03*
X0301500Y0215590D02*
D03*
X0301500Y0213990D02*
D03*
X0299750Y0215590D02*
D03*
Y0213990D02*
D03*
X0299400Y0210740D02*
D03*
X0299400Y0209140D02*
D03*
X0318790Y0217950D02*
D03*
Y0219550D02*
D03*
D94*
X0321040Y0205700D02*
D03*
Y0203800D02*
D03*
X0322790Y0208800D02*
D03*
Y0210700D02*
D03*
X0316790Y0205300D02*
D03*
Y0207200D02*
D03*
X0317290Y0146800D02*
D03*
Y0148700D02*
D03*
X0315540Y0143700D02*
D03*
Y0141800D02*
D03*
X0311290Y0143300D02*
D03*
Y0145200D02*
D03*
X0294800Y0213390D02*
D03*
Y0215290D02*
D03*
X0308000Y0223240D02*
D03*
Y0221340D02*
D03*
X0306000Y0221340D02*
D03*
Y0223240D02*
D03*
X0299400Y0200190D02*
D03*
Y0202090D02*
D03*
X0257500Y0175090D02*
D03*
Y0176990D02*
D03*
X0218000Y0164290D02*
D03*
Y0162390D02*
D03*
X0291045Y0159625D02*
D03*
Y0157725D02*
D03*
X0298665D02*
D03*
Y0159625D02*
D03*
D95*
X0316790Y0214550D02*
D03*
Y0212450D02*
D03*
X0323040Y0150550D02*
D03*
Y0148450D02*
D03*
X0311290Y0152550D02*
D03*
Y0150450D02*
D03*
X0297800Y0221340D02*
D03*
Y0223440D02*
D03*
X0313500Y0206090D02*
D03*
Y0203990D02*
D03*
X0328540Y0212550D02*
D03*
Y0210450D02*
D03*
D96*
X0322340Y0157750D02*
D03*
X0320740D02*
D03*
X0290800Y0222290D02*
D03*
X0289200Y0222290D02*
D03*
X0275050Y0213540D02*
D03*
X0273450Y0213540D02*
D03*
X0272450Y0221040D02*
D03*
X0274050D02*
D03*
X0280800Y0204740D02*
D03*
X0282400D02*
D03*
X0289200D02*
D03*
X0287600D02*
D03*
X0289200Y0212940D02*
D03*
X0290800D02*
D03*
D97*
X0253270Y0164165D02*
D03*
Y0165435D02*
D03*
Y0166705D02*
D03*
Y0167975D02*
D03*
Y0169245D02*
D03*
Y0170515D02*
D03*
Y0171785D02*
D03*
Y0173055D02*
D03*
Y0174325D02*
D03*
Y0175595D02*
D03*
Y0176865D02*
D03*
Y0178135D02*
D03*
Y0179405D02*
D03*
Y0180675D02*
D03*
X0244070Y0164165D02*
D03*
Y0165435D02*
D03*
Y0166705D02*
D03*
Y0167975D02*
D03*
Y0169245D02*
D03*
Y0170515D02*
D03*
Y0171785D02*
D03*
Y0173055D02*
D03*
Y0174325D02*
D03*
Y0175595D02*
D03*
Y0176865D02*
D03*
Y0178135D02*
D03*
Y0179405D02*
D03*
Y0180675D02*
D03*
X0309695Y0180720D02*
D03*
Y0179450D02*
D03*
Y0178180D02*
D03*
Y0176910D02*
D03*
Y0175640D02*
D03*
Y0174370D02*
D03*
Y0173100D02*
D03*
Y0171830D02*
D03*
Y0170560D02*
D03*
Y0169290D02*
D03*
Y0168020D02*
D03*
Y0166750D02*
D03*
Y0165480D02*
D03*
Y0164210D02*
D03*
X0318895Y0180720D02*
D03*
Y0179450D02*
D03*
Y0178180D02*
D03*
Y0176910D02*
D03*
Y0175640D02*
D03*
Y0174370D02*
D03*
Y0173100D02*
D03*
Y0171830D02*
D03*
Y0170560D02*
D03*
Y0169290D02*
D03*
Y0168020D02*
D03*
Y0166750D02*
D03*
Y0165480D02*
D03*
Y0164210D02*
D03*
D98*
X0289050Y0220340D02*
D03*
X0290950Y0220340D02*
D03*
X0246450Y0207340D02*
D03*
X0248350D02*
D03*
X0285250Y0211140D02*
D03*
X0287150Y0211140D02*
D03*
X0291950Y0169040D02*
D03*
X0290050D02*
D03*
X0291950Y0166540D02*
D03*
X0290050D02*
D03*
X0291950Y0171540D02*
D03*
X0290050Y0171540D02*
D03*
X0291950Y0174040D02*
D03*
X0290050D02*
D03*
D99*
X0289150Y0224040D02*
D03*
X0290850Y0224040D02*
D03*
X0279950Y0215740D02*
D03*
X0281650D02*
D03*
X0279910Y0221030D02*
D03*
X0281610Y0221030D02*
D03*
X0267450Y0213140D02*
D03*
X0265750D02*
D03*
X0254020Y0209400D02*
D03*
X0255720D02*
D03*
X0262250Y0209940D02*
D03*
X0260550D02*
D03*
Y0207340D02*
D03*
X0262250D02*
D03*
X0251950Y0199940D02*
D03*
X0253650D02*
D03*
X0252250Y0224140D02*
D03*
X0250550D02*
D03*
D100*
X0287600Y0218445D02*
D03*
Y0217175D02*
D03*
Y0215905D02*
D03*
Y0214635D02*
D03*
X0292400Y0218445D02*
D03*
Y0217175D02*
D03*
X0292400Y0215905D02*
D03*
X0292400Y0214635D02*
D03*
D101*
X0279710Y0218230D02*
D03*
X0281810D02*
D03*
X0272910Y0217030D02*
D03*
X0275010Y0217030D02*
D03*
X0265550Y0220940D02*
D03*
X0267650Y0220940D02*
D03*
X0267650Y0215740D02*
D03*
X0265550D02*
D03*
X0297650Y0180540D02*
D03*
X0295550D02*
D03*
D102*
X0275150Y0210040D02*
D03*
X0273350D02*
D03*
X0272100Y0223040D02*
D03*
X0273900Y0223040D02*
D03*
X0265700Y0218340D02*
D03*
X0267500Y0218340D02*
D03*
X0246350Y0191820D02*
D03*
X0248150D02*
D03*
X0248100Y0186540D02*
D03*
X0246300D02*
D03*
X0289100Y0211140D02*
D03*
X0290900D02*
D03*
X0275300Y0168940D02*
D03*
X0277100D02*
D03*
D103*
X0243600Y0213240D02*
D03*
Y0210240D02*
D03*
X0299400Y0207040D02*
D03*
Y0204040D02*
D03*
X0260000Y0177540D02*
D03*
Y0174540D02*
D03*
X0207200Y0146040D02*
D03*
Y0143040D02*
D03*
X0212000D02*
D03*
Y0146040D02*
D03*
X0298665Y0152095D02*
D03*
Y0155095D02*
D03*
X0291045D02*
D03*
Y0152095D02*
D03*
X0216200Y0146040D02*
D03*
Y0143040D02*
D03*
D104*
X0246400Y0211940D02*
D03*
Y0209940D02*
D03*
X0314000Y0210040D02*
D03*
Y0212040D02*
D03*
X0300200Y0223390D02*
D03*
Y0221390D02*
D03*
X0256000Y0168940D02*
D03*
Y0170940D02*
D03*
D105*
X0255870Y0204320D02*
D03*
X0253870D02*
D03*
X0255870Y0206860D02*
D03*
X0253870D02*
D03*
X0255870Y0211305D02*
D03*
X0253870D02*
D03*
X0248400Y0204740D02*
D03*
X0246400D02*
D03*
X0255775Y0199875D02*
D03*
X0257775D02*
D03*
X0246250Y0197535D02*
D03*
X0248250D02*
D03*
X0246250Y0195630D02*
D03*
X0248250D02*
D03*
Y0193725D02*
D03*
X0246250D02*
D03*
X0248250Y0188915D02*
D03*
X0246250D02*
D03*
D106*
X0251260Y0196840D02*
D03*
Y0196190D02*
D03*
Y0195540D02*
D03*
Y0194890D02*
D03*
Y0194240D02*
D03*
Y0193590D02*
D03*
Y0192940D02*
D03*
Y0192290D02*
D03*
Y0191640D02*
D03*
Y0190990D02*
D03*
Y0190340D02*
D03*
Y0189690D02*
D03*
Y0189040D02*
D03*
Y0188390D02*
D03*
X0258360Y0196840D02*
D03*
Y0196190D02*
D03*
Y0195540D02*
D03*
Y0194890D02*
D03*
Y0194240D02*
D03*
Y0193590D02*
D03*
Y0192940D02*
D03*
Y0192290D02*
D03*
Y0191640D02*
D03*
Y0190990D02*
D03*
Y0190340D02*
D03*
Y0189690D02*
D03*
Y0189040D02*
D03*
Y0188390D02*
D03*
D107*
X0280750Y0200740D02*
D03*
X0289250D02*
D03*
D108*
X0317500Y0184590D02*
D03*
Y0186490D02*
D03*
X0315500Y0185540D02*
D03*
D109*
X0295000Y0190740D02*
D03*
X0296600D02*
D03*
X0295000Y0186740D02*
D03*
X0296600D02*
D03*
X0295800Y0182540D02*
D03*
X0297400D02*
D03*
X0286800Y0176240D02*
D03*
X0285200D02*
D03*
X0286200Y0196790D02*
D03*
X0287800D02*
D03*
D110*
X0296750Y0171540D02*
D03*
X0293750D02*
D03*
X0296750Y0166540D02*
D03*
X0293750D02*
D03*
X0296750Y0169040D02*
D03*
X0293750Y0169040D02*
D03*
X0296750Y0174040D02*
D03*
X0293750Y0174040D02*
D03*
X0248700Y0224140D02*
D03*
X0245700D02*
D03*
D111*
X0280400Y0177340D02*
D03*
Y0175740D02*
D03*
X0275800Y0187340D02*
D03*
Y0185740D02*
D03*
D112*
X0276600Y0176965D02*
D03*
Y0171715D02*
D03*
D113*
X0272550Y0187940D02*
D03*
Y0185140D02*
D03*
D114*
X0272550Y0169040D02*
D03*
Y0171340D02*
D03*
Y0173640D02*
D03*
D115*
X0266650Y0171340D02*
D03*
D116*
X0215700Y0190975D02*
D03*
X0212271D02*
D03*
X0215570Y0223690D02*
D03*
X0212141D02*
D03*
X0215570Y0207180D02*
D03*
X0212141D02*
D03*
D117*
X0212845Y0189100D02*
D03*
X0214745Y0186500D02*
D03*
X0213795D02*
D03*
X0212845D02*
D03*
X0214745Y0189100D02*
D03*
X0212845Y0204975D02*
D03*
X0214745Y0202375D02*
D03*
X0213795D02*
D03*
X0212845D02*
D03*
X0214745Y0204975D02*
D03*
X0212845Y0221485D02*
D03*
X0214745Y0218885D02*
D03*
X0213795D02*
D03*
X0212845D02*
D03*
X0214745Y0221485D02*
D03*
D118*
X0279200Y0179215D02*
D03*
X0279700D02*
D03*
X0280200D02*
D03*
X0280700D02*
D03*
X0281200D02*
D03*
X0281700D02*
D03*
X0282200D02*
D03*
X0282700D02*
D03*
X0283200D02*
D03*
X0283700D02*
D03*
X0284200D02*
D03*
X0284700D02*
D03*
X0285200D02*
D03*
X0285700D02*
D03*
X0286200D02*
D03*
X0286700D02*
D03*
X0287200D02*
D03*
X0287700D02*
D03*
X0288200D02*
D03*
X0288700D02*
D03*
X0289200D02*
D03*
X0289700D02*
D03*
X0290200D02*
D03*
X0290700D02*
D03*
X0291200D02*
D03*
Y0194265D02*
D03*
X0290700D02*
D03*
X0290200D02*
D03*
X0289700D02*
D03*
X0289200D02*
D03*
X0288700D02*
D03*
X0288200D02*
D03*
X0287700D02*
D03*
X0287200D02*
D03*
X0286700D02*
D03*
X0286200D02*
D03*
X0285700D02*
D03*
X0285200D02*
D03*
X0284700D02*
D03*
X0284200D02*
D03*
X0283700D02*
D03*
X0283200D02*
D03*
X0282700D02*
D03*
X0282200D02*
D03*
X0281700D02*
D03*
X0281200D02*
D03*
X0280700D02*
D03*
X0280200D02*
D03*
X0279700D02*
D03*
X0279200D02*
D03*
D119*
X0292725Y0180740D02*
D03*
Y0181240D02*
D03*
Y0181740D02*
D03*
Y0182240D02*
D03*
Y0182740D02*
D03*
Y0183240D02*
D03*
Y0183740D02*
D03*
Y0184240D02*
D03*
Y0184740D02*
D03*
Y0185240D02*
D03*
Y0185740D02*
D03*
Y0186240D02*
D03*
Y0186740D02*
D03*
Y0187240D02*
D03*
Y0187740D02*
D03*
Y0188240D02*
D03*
Y0188740D02*
D03*
Y0189240D02*
D03*
Y0189740D02*
D03*
Y0190240D02*
D03*
Y0190740D02*
D03*
Y0191240D02*
D03*
Y0191740D02*
D03*
Y0192240D02*
D03*
Y0192740D02*
D03*
X0277675D02*
D03*
Y0192240D02*
D03*
Y0191740D02*
D03*
Y0191240D02*
D03*
Y0190740D02*
D03*
Y0190240D02*
D03*
Y0189740D02*
D03*
Y0189240D02*
D03*
Y0188740D02*
D03*
Y0188240D02*
D03*
Y0187740D02*
D03*
Y0187240D02*
D03*
Y0186740D02*
D03*
Y0186240D02*
D03*
Y0185740D02*
D03*
Y0185240D02*
D03*
Y0184740D02*
D03*
Y0184240D02*
D03*
Y0183740D02*
D03*
Y0183240D02*
D03*
Y0182740D02*
D03*
Y0182240D02*
D03*
Y0181740D02*
D03*
Y0181240D02*
D03*
Y0180740D02*
D03*
D120*
X0302210Y0202185D02*
D03*
X0302860D02*
D03*
X0303510D02*
D03*
X0304160D02*
D03*
X0304810D02*
D03*
X0305460D02*
D03*
X0306110D02*
D03*
X0306760D02*
D03*
X0307410D02*
D03*
X0308060D02*
D03*
X0308710D02*
D03*
X0309360D02*
D03*
X0310010D02*
D03*
X0310660D02*
D03*
X0302210Y0209185D02*
D03*
X0302860D02*
D03*
X0303510D02*
D03*
X0304160D02*
D03*
X0304810D02*
D03*
X0305460D02*
D03*
X0306110D02*
D03*
X0306760D02*
D03*
X0307410D02*
D03*
X0308060D02*
D03*
X0308710D02*
D03*
X0309360D02*
D03*
X0310010D02*
D03*
X0310660D02*
D03*
D121*
X0326500Y0215640D02*
D03*
X0298000Y0194140D02*
D03*
X0258680Y0212430D02*
D03*
X0270150Y0213220D02*
D03*
X0331250Y0215540D02*
D03*
X0318460Y0157790D02*
D03*
X0321000Y0153640D02*
D03*
D122*
X0326500Y0213100D02*
D03*
Y0210560D02*
D03*
Y0208020D02*
D03*
X0318880Y0215640D02*
D03*
Y0213100D02*
D03*
Y0210560D02*
D03*
Y0208020D02*
D03*
X0231940Y0190140D02*
D03*
X0229400Y0187600D02*
D03*
X0231940D02*
D03*
X0229400Y0185060D02*
D03*
X0231940D02*
D03*
X0229400Y0182520D02*
D03*
X0231940D02*
D03*
X0229400Y0179980D02*
D03*
X0231940D02*
D03*
X0229400Y0177440D02*
D03*
X0231940D02*
D03*
X0229400Y0174900D02*
D03*
X0231940D02*
D03*
X0229400Y0172360D02*
D03*
X0231940D02*
D03*
X0229400Y0169820D02*
D03*
X0231940D02*
D03*
X0229400Y0167280D02*
D03*
X0231940D02*
D03*
X0266300Y0200365D02*
D03*
X0263760Y0197825D02*
D03*
X0266300D02*
D03*
X0263760Y0195285D02*
D03*
X0266300D02*
D03*
X0263760Y0192745D02*
D03*
X0266300D02*
D03*
X0263760Y0190205D02*
D03*
X0266300D02*
D03*
X0263760Y0187665D02*
D03*
X0266300D02*
D03*
X0263760Y0185125D02*
D03*
X0266300D02*
D03*
X0263760Y0182585D02*
D03*
X0266300D02*
D03*
X0263760Y0180045D02*
D03*
X0266300D02*
D03*
X0263760Y0177505D02*
D03*
X0266300D02*
D03*
X0298000Y0196680D02*
D03*
X0300540Y0194140D02*
D03*
Y0196680D02*
D03*
X0303080Y0194140D02*
D03*
Y0196680D02*
D03*
X0305620Y0194140D02*
D03*
Y0196680D02*
D03*
X0308160Y0194140D02*
D03*
Y0196680D02*
D03*
X0310700Y0194140D02*
D03*
Y0196680D02*
D03*
X0313240Y0194140D02*
D03*
X0313240Y0196680D02*
D03*
X0315780Y0194140D02*
D03*
X0315780Y0196680D02*
D03*
X0318320Y0194140D02*
D03*
Y0196680D02*
D03*
X0320860Y0194140D02*
D03*
Y0196680D02*
D03*
X0251500Y0156990D02*
D03*
Y0154450D02*
D03*
Y0151910D02*
D03*
Y0149370D02*
D03*
Y0146830D02*
D03*
X0288000Y0156990D02*
D03*
Y0154450D02*
D03*
Y0151910D02*
D03*
Y0149370D02*
D03*
Y0146830D02*
D03*
X0258680Y0209890D02*
D03*
Y0207350D02*
D03*
Y0204810D02*
D03*
X0251060Y0212430D02*
D03*
Y0209890D02*
D03*
Y0207350D02*
D03*
Y0204810D02*
D03*
X0270150Y0215760D02*
D03*
Y0218300D02*
D03*
X0270150Y0220840D02*
D03*
X0277770Y0213220D02*
D03*
Y0215760D02*
D03*
X0277770Y0218300D02*
D03*
X0277770Y0220840D02*
D03*
X0333790Y0215540D02*
D03*
X0315920Y0157790D02*
D03*
X0321000Y0151100D02*
D03*
Y0148560D02*
D03*
Y0146020D02*
D03*
X0313380Y0153640D02*
D03*
Y0151100D02*
D03*
Y0148560D02*
D03*
Y0146020D02*
D03*
X0270000Y0146830D02*
D03*
Y0149370D02*
D03*
Y0151910D02*
D03*
Y0154450D02*
D03*
Y0156990D02*
D03*
X0293250Y0205540D02*
D03*
X0275750Y0199040D02*
D03*
Y0205540D02*
D03*
X0293500Y0199040D02*
D03*
X0297500Y0209040D02*
D03*
D123*
X0331000Y0153540D02*
D03*
X0333540Y0151000D02*
D03*
X0328460D02*
D03*
X0333540Y0156080D02*
D03*
X0328460D02*
D03*
X0238500Y0224540D02*
D03*
X0235960Y0222000D02*
D03*
Y0227080D02*
D03*
X0241040Y0222000D02*
D03*
Y0227080D02*
D03*
X0213030Y0158920D02*
D03*
X0218110D02*
D03*
X0259400Y0221140D02*
D03*
X0261940Y0223680D02*
D03*
Y0218600D02*
D03*
X0256860Y0223680D02*
D03*
Y0218600D02*
D03*
X0322000Y0224540D02*
D03*
X0324540Y0222000D02*
D03*
X0319460D02*
D03*
X0324540Y0227080D02*
D03*
X0319460D02*
D03*
D124*
X0333000Y0199540D02*
D03*
Y0190165D02*
D03*
Y0162040D02*
D03*
Y0180790D02*
D03*
Y0171415D02*
D03*
X0229600Y0152540D02*
D03*
X0220500Y0152540D02*
D03*
D125*
X0330460Y0199540D02*
D03*
X0327920D02*
D03*
X0330460Y0190165D02*
D03*
X0327920D02*
D03*
X0330460Y0162040D02*
D03*
X0327920D02*
D03*
X0325380D02*
D03*
X0322840D02*
D03*
X0330460Y0180790D02*
D03*
X0327920D02*
D03*
X0325380Y0171415D02*
D03*
X0327920D02*
D03*
X0330460D02*
D03*
X0232140Y0152540D02*
D03*
X0223040Y0152540D02*
D03*
D126*
X0243830Y0221110D02*
D03*
X0253990D02*
D03*
X0213700Y0176700D02*
D03*
Y0166540D02*
D03*
X0301840Y0150420D02*
D03*
Y0160580D02*
D03*
X0294220Y0150420D02*
D03*
Y0160580D02*
D03*
D127*
X0229400Y0190140D02*
D03*
X0263760Y0200365D02*
D03*
X0251500Y0144290D02*
D03*
X0288000Y0144290D02*
D03*
X0270000Y0144290D02*
D03*
D128*
X0222800Y0217520D02*
D03*
Y0220060D02*
D03*
Y0222600D02*
D03*
X0292800Y0147040D02*
D03*
X0295340D02*
D03*
X0300420D02*
D03*
X0302960D02*
D03*
X0305500D02*
D03*
X0222800Y0202610D02*
D03*
Y0205150D02*
D03*
Y0207690D02*
D03*
Y0186160D02*
D03*
Y0188700D02*
D03*
Y0191240D02*
D03*
Y0169360D02*
D03*
Y0171900D02*
D03*
Y0174440D02*
D03*
D129*
X0332000Y0224540D02*
D03*
Y0144540D02*
D03*
X0230000D02*
D03*
Y0224540D02*
D03*
D130*
X0208080Y0223360D02*
D03*
Y0208120D02*
D03*
Y0196690D02*
D03*
Y0185260D02*
D03*
X0208000Y0172140D02*
D03*
Y0161540D02*
D03*
D131*
X0208080Y0220820D02*
D03*
Y0205580D02*
D03*
Y0194150D02*
D03*
Y0182720D02*
D03*
X0208000Y0169600D02*
D03*
Y0159000D02*
D03*
D132*
X0239195Y0160420D02*
D03*
X0257610Y0160420D02*
D03*
X0276025Y0160420D02*
D03*
D133*
X0247450Y0151530D02*
D03*
X0237290D02*
D03*
X0255705Y0151530D02*
D03*
X0265865D02*
D03*
X0284280Y0151530D02*
D03*
X0274120D02*
D03*
D134*
X0240465Y0157880D02*
D03*
X0243005D02*
D03*
X0241735Y0160420D02*
D03*
X0244275D02*
D03*
X0245545Y0157880D02*
D03*
X0263960Y0157880D02*
D03*
X0262690Y0160420D02*
D03*
X0260150D02*
D03*
X0261420Y0157880D02*
D03*
X0258880D02*
D03*
X0277295Y0157880D02*
D03*
X0279835D02*
D03*
X0278565Y0160420D02*
D03*
X0281105D02*
D03*
X0282375Y0157880D02*
D03*
D135*
X0294003Y0193748D02*
D03*
X0248400Y0202582D02*
D03*
X0300600Y0177940D02*
D03*
X0298440Y0177980D02*
D03*
X0298200Y0190740D02*
D03*
X0292250Y0196040D02*
D03*
X0304000Y0178040D02*
D03*
X0305177Y0179717D02*
D03*
X0285200Y0204740D02*
D03*
X0305500Y0161540D02*
D03*
X0282000Y0177340D02*
D03*
X0322765Y0204725D02*
D03*
X0314500Y0213540D02*
D03*
X0238500Y0197290D02*
D03*
X0306750Y0224790D02*
D03*
X0306763Y0212074D02*
D03*
X0226000Y0193540D02*
D03*
X0227250Y0209540D02*
D03*
X0227915Y0212625D02*
D03*
X0305700Y0173840D02*
D03*
X0297264Y0164162D02*
D03*
X0299250Y0170290D02*
D03*
X0287000Y0161040D02*
D03*
X0264485Y0162055D02*
D03*
X0309500Y0149790D02*
D03*
X0283500Y0196290D02*
D03*
X0228500Y0161040D02*
D03*
X0280375Y0171715D02*
D03*
X0226500Y0163040D02*
D03*
X0243000Y0182540D02*
D03*
X0240600Y0162140D02*
D03*
X0247750Y0156540D02*
D03*
X0236600Y0164290D02*
D03*
X0270550Y0183940D02*
D03*
X0258200Y0170940D02*
D03*
X0216750Y0167790D02*
D03*
X0260400Y0185340D02*
D03*
X0313776Y0188316D02*
D03*
X0315925Y0190465D02*
D03*
X0317000Y0191540D02*
D03*
X0275600Y0223140D02*
D03*
X0292800Y0212940D02*
D03*
X0287600Y0212940D02*
D03*
X0293400Y0220740D02*
D03*
X0314500Y0215540D02*
D03*
X0294800Y0217540D02*
D03*
X0213800Y0217340D02*
D03*
X0215450Y0181590D02*
D03*
X0298665Y0150425D02*
D03*
X0291045Y0150445D02*
D03*
X0234800Y0191340D02*
D03*
X0255000Y0191540D02*
D03*
X0255735Y0179405D02*
D03*
X0236750Y0213790D02*
D03*
X0233800Y0200740D02*
D03*
X0238275Y0176865D02*
D03*
X0237800Y0192340D02*
D03*
X0241845Y0171785D02*
D03*
X0234800Y0214940D02*
D03*
X0243150Y0199490D02*
D03*
X0240600Y0180540D02*
D03*
X0241800Y0174540D02*
D03*
X0236750Y0179590D02*
D03*
X0236600Y0175540D02*
D03*
X0322750Y0142040D02*
D03*
X0317265Y0142725D02*
D03*
X0310551Y0185091D02*
D03*
X0311626Y0186166D02*
D03*
X0312701Y0187241D02*
D03*
X0314850Y0189390D02*
D03*
X0306252Y0180792D02*
D03*
X0309476Y0184016D02*
D03*
X0308402Y0182942D02*
D03*
X0307327Y0181867D02*
D03*
X0305500Y0177040D02*
D03*
X0303750Y0162290D02*
D03*
X0289000Y0161040D02*
D03*
X0247000Y0218540D02*
D03*
X0261600Y0183950D02*
D03*
X0239395Y0178135D02*
D03*
X0240407Y0183741D02*
D03*
X0241593Y0210240D02*
D03*
X0292500Y0222290D02*
D03*
X0280240Y0192200D02*
D03*
X0262250Y0205417D02*
D03*
X0207200Y0140986D02*
D03*
X0212000Y0141034D02*
D03*
X0216200Y0141062D02*
D03*
X0302400Y0224690D02*
D03*
X0314000Y0208290D02*
D03*
X0318750Y0204790D02*
D03*
X0320940Y0173100D02*
D03*
X0304350Y0175640D02*
D03*
X0309250Y0159040D02*
D03*
X0321500Y0216040D02*
D03*
X0316790Y0221500D02*
D03*
X0311290Y0141500D02*
D03*
X0260554Y0167594D02*
D03*
X0262500Y0166790D02*
D03*
X0262000Y0168790D02*
D03*
X0263750Y0173040D02*
D03*
X0253500Y0195540D02*
D03*
X0250000Y0199040D02*
D03*
X0259750Y0200040D02*
D03*
X0246400Y0213640D02*
D03*
X0299500Y0180540D02*
D03*
X0298000Y0185740D02*
D03*
X0299250Y0192290D02*
D03*
X0274000Y0179540D02*
D03*
X0251005Y0171785D02*
D03*
X0296250Y0192290D02*
D03*
X0229500Y0216290D02*
D03*
X0243500Y0224040D02*
D03*
X0213750Y0184790D02*
D03*
X0274500Y0187290D02*
D03*
X0214750Y0161290D02*
D03*
X0277250Y0167040D02*
D03*
X0215750Y0213790D02*
D03*
X0299000Y0164290D02*
D03*
X0244500Y0197540D02*
D03*
Y0195540D02*
D03*
X0228750Y0159290D02*
D03*
X0274250Y0167540D02*
D03*
X0272500Y0166540D02*
D03*
X0270500Y0166290D02*
D03*
X0297000Y0177040D02*
D03*
X0296750Y0212040D02*
D03*
X0245250Y0216540D02*
D03*
X0228000Y0165040D02*
D03*
X0328000Y0204290D02*
D03*
X0289250Y0192290D02*
D03*
X0234250Y0185040D02*
D03*
X0261500Y0165290D02*
D03*
X0283250Y0221790D02*
D03*
X0264250Y0171290D02*
D03*
X0297500Y0207040D02*
D03*
X0298500Y0187290D02*
D03*
X0290250Y0196540D02*
D03*
X0264127Y0217204D02*
D03*
X0306835Y0160383D02*
D03*
X0299502Y0182406D02*
D03*
X0244512Y0190281D02*
D03*
X0255024Y0193375D02*
D03*
X0285090Y0174531D02*
D03*
X0287004Y0174519D02*
D03*
X0248112Y0184682D02*
D03*
X0317251Y0153640D02*
D03*
X0216048Y0197361D02*
D03*
X0213772Y0200768D02*
D03*
X0217071Y0173315D02*
D03*
X0257179Y0166440D02*
D03*
X0258720Y0167523D02*
D03*
X0257927Y0169193D02*
D03*
X0316865Y0216168D02*
D03*
X0319500Y0185540D02*
D03*
M02*
