%FSAX43Y43*%
%MOMM*%
G71*
G01*
G75*
G04 Layer_Color=32896*
%ADD10R,1.450X1.150*%
%ADD11R,1.300X0.850*%
%ADD12R,1.350X0.950*%
%ADD13R,1.400X1.050*%
%ADD14R,1.500X1.250*%
%ADD15R,0.950X1.350*%
%ADD16O,2.050X0.600*%
%ADD17R,1.050X1.400*%
%ADD18R,0.850X1.300*%
%ADD19O,2.200X0.600*%
%ADD20R,1.250X1.500*%
%ADD21R,1.150X1.450*%
%ADD22R,1.400X1.200*%
%ADD23R,1.550X1.350*%
%ADD24R,1.350X1.550*%
%ADD25O,1.900X0.450*%
G04:AMPARAMS|DCode=26|XSize=5.5mm|YSize=1.5mm|CornerRadius=0.188mm|HoleSize=0mm|Usage=FLASHONLY|Rotation=180.000|XOffset=0mm|YOffset=0mm|HoleType=Round|Shape=RoundedRectangle|*
%AMROUNDEDRECTD26*
21,1,5.500,1.125,0,0,180.0*
21,1,5.125,1.500,0,0,180.0*
1,1,0.375,-2.563,0.563*
1,1,0.375,2.563,0.563*
1,1,0.375,2.563,-0.563*
1,1,0.375,-2.563,-0.563*
%
%ADD26ROUNDEDRECTD26*%
%ADD27R,1.800X0.600*%
%ADD28R,0.900X1.000*%
%ADD29R,1.200X1.400*%
%ADD30R,1.000X0.900*%
%ADD31R,5.400X1.550*%
%ADD32R,1.700X0.950*%
%ADD33R,1.900X0.900*%
%ADD34R,1.900X3.200*%
%ADD35R,1.524X1.524*%
G04:AMPARAMS|DCode=36|XSize=0.6mm|YSize=1mm|CornerRadius=0.075mm|HoleSize=0mm|Usage=FLASHONLY|Rotation=0.000|XOffset=0mm|YOffset=0mm|HoleType=Round|Shape=RoundedRectangle|*
%AMROUNDEDRECTD36*
21,1,0.600,0.850,0,0,0.0*
21,1,0.450,1.000,0,0,0.0*
1,1,0.150,0.225,-0.425*
1,1,0.150,-0.225,-0.425*
1,1,0.150,-0.225,0.425*
1,1,0.150,0.225,0.425*
%
%ADD36ROUNDEDRECTD36*%
%ADD37O,0.250X1.550*%
%ADD38O,1.550X0.250*%
%ADD39O,0.450X2.400*%
%ADD40C,0.250*%
%ADD41C,0.500*%
%ADD42C,0.450*%
%ADD43C,1.000*%
%ADD44C,0.750*%
%ADD45C,0.254*%
%ADD46R,1.500X1.500*%
%ADD47C,1.500*%
%ADD48C,3.000*%
%ADD49R,2.000X2.500*%
%ADD50O,2.000X2.500*%
%ADD51C,1.400*%
%ADD52R,1.500X1.500*%
%ADD53C,1.800*%
%ADD54C,8.000*%
%ADD55R,2.500X2.000*%
%ADD56O,2.500X2.000*%
%ADD57R,1.500X1.500*%
%ADD58C,2.950*%
%ADD59C,1.500*%
%ADD60C,1.270*%
%ADD61C,1.016*%
%ADD62C,1.016*%
%ADD63C,1.900*%
%ADD64C,2.500*%
G04:AMPARAMS|DCode=65|XSize=3.2mm|YSize=3.2mm|CornerRadius=0mm|HoleSize=0mm|Usage=FLASHONLY|Rotation=0.000|XOffset=0mm|YOffset=0mm|HoleType=Round|Shape=Relief|Width=0.3mm|Gap=0.3mm|Entries=4|*
%AMTHD65*
7,0,0,3.200,2.600,0.300,45*
%
%ADD65THD65*%
%ADD66C,2.100*%
G04:AMPARAMS|DCode=67|XSize=2.7mm|YSize=2.7mm|CornerRadius=0mm|HoleSize=0mm|Usage=FLASHONLY|Rotation=0.000|XOffset=0mm|YOffset=0mm|HoleType=Round|Shape=Relief|Width=0.3mm|Gap=0.3mm|Entries=4|*
%AMTHD67*
7,0,0,2.700,2.100,0.300,45*
%
%ADD67THD67*%
%ADD68C,1.850*%
G04:AMPARAMS|DCode=69|XSize=2.5mm|YSize=2.5mm|CornerRadius=0mm|HoleSize=0mm|Usage=FLASHONLY|Rotation=0.000|XOffset=0mm|YOffset=0mm|HoleType=Round|Shape=Relief|Width=0.3mm|Gap=0.3mm|Entries=4|*
%AMTHD69*
7,0,0,2.500,1.900,0.300,45*
%
%ADD69THD69*%
%ADD70C,2.000*%
%ADD71C,1.600*%
G04:AMPARAMS|DCode=72|XSize=2.2mm|YSize=2.2mm|CornerRadius=0mm|HoleSize=0mm|Usage=FLASHONLY|Rotation=0.000|XOffset=0mm|YOffset=0mm|HoleType=Round|Shape=Relief|Width=0.3mm|Gap=0.3mm|Entries=4|*
%AMTHD72*
7,0,0,2.200,1.600,0.300,45*
%
%ADD72THD72*%
%ADD73C,4.500*%
%ADD74C,1.900*%
%ADD75C,4.250*%
G04:AMPARAMS|DCode=76|XSize=2.5mm|YSize=2.5mm|CornerRadius=0mm|HoleSize=0mm|Usage=FLASHONLY|Rotation=0.000|XOffset=0mm|YOffset=0mm|HoleType=Round|Shape=Relief|Width=0.3mm|Gap=0.3mm|Entries=4|*
%AMTHD76*
7,0,0,2.500,1.900,0.300,45*
%
%ADD76THD76*%
%ADD77C,2.600*%
G04:AMPARAMS|DCode=78|XSize=2.45mm|YSize=2.45mm|CornerRadius=0mm|HoleSize=0mm|Usage=FLASHONLY|Rotation=0.000|XOffset=0mm|YOffset=0mm|HoleType=Round|Shape=Relief|Width=0.3mm|Gap=0.3mm|Entries=4|*
%AMTHD78*
7,0,0,2.450,1.850,0.300,45*
%
%ADD78THD78*%
%ADD79R,2.500X1.700*%
%ADD80R,1.700X2.500*%
G04:AMPARAMS|DCode=81|XSize=0.6mm|YSize=1mm|CornerRadius=0.075mm|HoleSize=0mm|Usage=FLASHONLY|Rotation=270.000|XOffset=0mm|YOffset=0mm|HoleType=Round|Shape=RoundedRectangle|*
%AMROUNDEDRECTD81*
21,1,0.600,0.850,0,0,270.0*
21,1,0.450,1.000,0,0,270.0*
1,1,0.150,-0.425,-0.225*
1,1,0.150,-0.425,0.225*
1,1,0.150,0.425,0.225*
1,1,0.150,0.425,-0.225*
%
%ADD81ROUNDEDRECTD81*%
%ADD82R,1.524X1.524*%
%ADD83C,0.600*%
%ADD84C,0.400*%
%ADD85C,0.200*%
%ADD86C,0.203*%
%ADD87C,0.127*%
%ADD88C,0.305*%
%ADD89R,1.800X1.600*%
%ADD90R,1.600X1.800*%
%ADD91R,1.700X1.400*%
%ADD92R,1.550X1.100*%
%ADD93R,1.600X1.200*%
%ADD94R,1.650X1.300*%
%ADD95R,1.750X1.500*%
%ADD96R,1.200X1.600*%
%ADD97O,2.300X0.850*%
%ADD98R,1.300X1.650*%
%ADD99R,1.100X1.550*%
%ADD100O,2.450X0.850*%
%ADD101R,1.500X1.750*%
%ADD102R,1.400X1.700*%
%ADD103R,1.650X1.450*%
%ADD104R,1.800X1.600*%
%ADD105R,1.600X1.800*%
%ADD106O,2.150X0.700*%
G04:AMPARAMS|DCode=107|XSize=5.75mm|YSize=1.75mm|CornerRadius=0.313mm|HoleSize=0mm|Usage=FLASHONLY|Rotation=180.000|XOffset=0mm|YOffset=0mm|HoleType=Round|Shape=RoundedRectangle|*
%AMROUNDEDRECTD107*
21,1,5.750,1.125,0,0,180.0*
21,1,5.125,1.750,0,0,180.0*
1,1,0.625,-2.563,0.563*
1,1,0.625,2.563,0.563*
1,1,0.625,2.563,-0.563*
1,1,0.625,-2.563,-0.563*
%
%ADD107ROUNDEDRECTD107*%
%ADD108R,2.050X0.850*%
%ADD109R,1.150X1.250*%
%ADD110R,1.450X1.650*%
%ADD111R,1.250X1.150*%
%ADD112R,5.650X1.800*%
%ADD113R,1.950X1.200*%
%ADD114R,2.150X1.150*%
%ADD115R,2.150X3.450*%
%ADD116R,1.774X1.774*%
G04:AMPARAMS|DCode=117|XSize=0.85mm|YSize=1.25mm|CornerRadius=0.2mm|HoleSize=0mm|Usage=FLASHONLY|Rotation=0.000|XOffset=0mm|YOffset=0mm|HoleType=Round|Shape=RoundedRectangle|*
%AMROUNDEDRECTD117*
21,1,0.850,0.850,0,0,0.0*
21,1,0.450,1.250,0,0,0.0*
1,1,0.400,0.225,-0.425*
1,1,0.400,-0.225,-0.425*
1,1,0.400,-0.225,0.425*
1,1,0.400,0.225,0.425*
%
%ADD117ROUNDEDRECTD117*%
%ADD118O,0.500X1.800*%
%ADD119O,1.800X0.500*%
%ADD120O,0.700X2.650*%
%ADD121R,1.750X1.750*%
%ADD122C,1.750*%
%ADD123C,3.250*%
%ADD124R,2.250X2.750*%
%ADD125O,2.250X2.750*%
%ADD126C,1.650*%
%ADD127R,1.750X1.750*%
%ADD128C,2.050*%
%ADD129C,8.250*%
%ADD130R,2.750X2.250*%
%ADD131O,2.750X2.250*%
%ADD132R,1.750X1.750*%
%ADD133C,3.200*%
%ADD134C,1.750*%
%ADD135C,1.520*%
%ADD136R,2.750X1.950*%
%ADD137R,1.950X2.750*%
G04:AMPARAMS|DCode=138|XSize=0.85mm|YSize=1.25mm|CornerRadius=0.2mm|HoleSize=0mm|Usage=FLASHONLY|Rotation=270.000|XOffset=0mm|YOffset=0mm|HoleType=Round|Shape=RoundedRectangle|*
%AMROUNDEDRECTD138*
21,1,0.850,0.850,0,0,270.0*
21,1,0.450,1.250,0,0,270.0*
1,1,0.400,-0.425,-0.225*
1,1,0.400,-0.425,0.225*
1,1,0.400,0.425,0.225*
1,1,0.400,0.425,-0.225*
%
%ADD138ROUNDEDRECTD138*%
%ADD139R,1.774X1.774*%
%ADD140R,0.342X1.621*%
%ADD141R,0.520X0.248*%
%ADD142R,0.496X0.272*%
%ADD143R,1.621X0.342*%
%ADD144R,0.248X0.520*%
%ADD145R,0.272X0.496*%
%ADD146R,0.248X0.520*%
%ADD147R,0.272X0.496*%
%ADD148R,0.496X0.272*%
G36*
X0226003Y0160582D02*
X0225442Y0161143D01*
X0226003D01*
Y0160582D01*
D02*
G37*
D40*
X0326625Y0216940D02*
G03*
X0326625Y0216940I-0000125J0000000D01*
G01*
X0258805Y0213730D02*
G03*
X0258805Y0213730I-0000125J0000000D01*
G01*
X0247035Y0219208D02*
G03*
X0247035Y0219208I-0000125J0000000D01*
G01*
X0270275Y0211920D02*
G03*
X0270275Y0211920I-0000125J0000000D01*
G01*
X0321125Y0154940D02*
G03*
X0321125Y0154940I-0000125J0000000D01*
G01*
X0303868Y0153500D02*
G03*
X0303868Y0153500I-0000125J0000000D01*
G01*
X0292522Y0157590D02*
G03*
X0292522Y0157590I-0000125J0000000D01*
G01*
X0229125Y0157443D02*
G03*
X0229125Y0157443I-0000125J0000000D01*
G01*
X0211822Y0173740D02*
G03*
X0211822Y0173740I-0000125J0000000D01*
G01*
D41*
X0227765Y0160750D02*
X0227770Y0160745D01*
X0227765Y0160740D01*
X0227760Y0160745D01*
X0227765Y0160750D01*
D45*
X0299484Y0145310D02*
X0299738Y0145564D01*
X0300246D01*
X0300500Y0145310D01*
Y0144294D01*
X0300246Y0144040D01*
X0299738D01*
X0299484Y0144294D01*
X0297961Y0145564D02*
X0298977D01*
Y0144802D01*
X0298469Y0145056D01*
X0298215D01*
X0297961Y0144802D01*
Y0144294D01*
X0298215Y0144040D01*
X0298723D01*
X0298977Y0144294D01*
X0296437Y0145564D02*
X0297453D01*
Y0144802D01*
X0296945Y0145056D01*
X0296691D01*
X0296437Y0144802D01*
Y0144294D01*
X0296691Y0144040D01*
X0297199D01*
X0297453Y0144294D01*
X0228000Y0153064D02*
Y0151540D01*
X0227238D01*
X0226984Y0151794D01*
Y0152810D01*
X0227238Y0153064D01*
X0228000D01*
X0225461D02*
X0226476D01*
Y0152302D01*
X0225969Y0152556D01*
X0225715D01*
X0225461Y0152302D01*
Y0151794D01*
X0225715Y0151540D01*
X0226223D01*
X0226476Y0151794D01*
X0292750Y0159814D02*
Y0158290D01*
X0291988D01*
X0291734Y0158544D01*
Y0159560D01*
X0291988Y0159814D01*
X0292750D01*
X0290465Y0158290D02*
Y0159814D01*
X0291227Y0159052D01*
X0290211D01*
X0300500Y0159814D02*
Y0158290D01*
X0299738D01*
X0299484Y0158544D01*
Y0159560D01*
X0299738Y0159814D01*
X0300500D01*
X0298977Y0159560D02*
X0298723Y0159814D01*
X0298215D01*
X0297961Y0159560D01*
Y0159306D01*
X0298215Y0159052D01*
X0298469D01*
X0298215D01*
X0297961Y0158798D01*
Y0158544D01*
X0298215Y0158290D01*
X0298723D01*
X0298977Y0158544D01*
X0269000Y0213314D02*
Y0212044D01*
X0268746Y0211790D01*
X0268238D01*
X0267984Y0212044D01*
Y0213314D01*
X0266461Y0211790D02*
X0267477D01*
X0266461Y0212806D01*
Y0213060D01*
X0266715Y0213314D01*
X0267223D01*
X0267477Y0213060D01*
X0265953Y0211790D02*
X0265445D01*
X0265699D01*
Y0213314D01*
X0265953Y0213060D01*
X0231500Y0163564D02*
Y0162294D01*
X0231246Y0162040D01*
X0230738D01*
X0230484Y0162294D01*
Y0163564D01*
X0229976Y0162040D02*
X0229469D01*
X0229723D01*
Y0163564D01*
X0229976Y0163310D01*
X0227691Y0162040D02*
X0228707D01*
X0227691Y0163056D01*
Y0163310D01*
X0227945Y0163564D01*
X0228453D01*
X0228707Y0163310D01*
X0322750Y0157064D02*
Y0155794D01*
X0322496Y0155540D01*
X0321988D01*
X0321734Y0155794D01*
Y0157064D01*
X0321227Y0156810D02*
X0320973Y0157064D01*
X0320465D01*
X0320211Y0156810D01*
Y0156556D01*
X0320465Y0156302D01*
X0320719D01*
X0320465D01*
X0320211Y0156048D01*
Y0155794D01*
X0320465Y0155540D01*
X0320973D01*
X0321227Y0155794D01*
X0325250Y0219064D02*
Y0217794D01*
X0324996Y0217540D01*
X0324488D01*
X0324234Y0217794D01*
Y0219064D01*
X0323727Y0218810D02*
X0323473Y0219064D01*
X0322965D01*
X0322711Y0218810D01*
Y0218556D01*
X0322965Y0218302D01*
X0323219D01*
X0322965D01*
X0322711Y0218048D01*
Y0217794D01*
X0322965Y0217540D01*
X0323473D01*
X0323727Y0217794D01*
X0310250Y0153040D02*
Y0154564D01*
X0309488D01*
X0309234Y0154310D01*
Y0153802D01*
X0309488Y0153548D01*
X0310250D01*
X0309742D02*
X0309234Y0153040D01*
X0307711Y0154564D02*
X0308219Y0154310D01*
X0308727Y0153802D01*
Y0153294D01*
X0308473Y0153040D01*
X0307965D01*
X0307711Y0153294D01*
Y0153548D01*
X0307965Y0153802D01*
X0308727D01*
X0306187Y0153040D02*
X0307203D01*
X0306187Y0154056D01*
Y0154310D01*
X0306441Y0154564D01*
X0306949D01*
X0307203Y0154310D01*
X0310250Y0156290D02*
Y0157814D01*
X0309488D01*
X0309234Y0157560D01*
Y0157052D01*
X0309488Y0156798D01*
X0310250D01*
X0309742D02*
X0309234Y0156290D01*
X0307711Y0157814D02*
X0308219Y0157560D01*
X0308727Y0157052D01*
Y0156544D01*
X0308473Y0156290D01*
X0307965D01*
X0307711Y0156544D01*
Y0156798D01*
X0307965Y0157052D01*
X0308727D01*
X0307203Y0156290D02*
X0306695D01*
X0306949D01*
Y0157814D01*
X0307203Y0157560D01*
X0248250Y0211790D02*
X0249774D01*
Y0212552D01*
X0249520Y0212806D01*
X0249012D01*
X0248758Y0212552D01*
Y0211790D01*
Y0212298D02*
X0248250Y0212806D01*
X0249774Y0214329D02*
X0249520Y0213821D01*
X0249012Y0213314D01*
X0248504D01*
X0248250Y0213567D01*
Y0214075D01*
X0248504Y0214329D01*
X0248758D01*
X0249012Y0214075D01*
Y0213314D01*
X0249520Y0214837D02*
X0249774Y0215091D01*
Y0215599D01*
X0249520Y0215853D01*
X0248504D01*
X0248250Y0215599D01*
Y0215091D01*
X0248504Y0214837D01*
X0249520D01*
X0252250Y0215540D02*
X0253774D01*
Y0216302D01*
X0253520Y0216556D01*
X0253012D01*
X0252758Y0216302D01*
Y0215540D01*
Y0216048D02*
X0252250Y0216556D01*
X0253774Y0218079D02*
Y0217064D01*
X0253012D01*
X0253266Y0217571D01*
Y0217825D01*
X0253012Y0218079D01*
X0252504D01*
X0252250Y0217825D01*
Y0217317D01*
X0252504Y0217064D01*
Y0218587D02*
X0252250Y0218841D01*
Y0219349D01*
X0252504Y0219603D01*
X0253520D01*
X0253774Y0219349D01*
Y0218841D01*
X0253520Y0218587D01*
X0253266D01*
X0253012Y0218841D01*
Y0219603D01*
X0217750Y0172540D02*
X0219274D01*
Y0173302D01*
X0219020Y0173556D01*
X0218512D01*
X0218258Y0173302D01*
Y0172540D01*
Y0173048D02*
X0217750Y0173556D01*
X0219274Y0175079D02*
Y0174064D01*
X0218512D01*
X0218766Y0174571D01*
Y0174825D01*
X0218512Y0175079D01*
X0218004D01*
X0217750Y0174825D01*
Y0174317D01*
X0218004Y0174064D01*
X0219274Y0175587D02*
Y0176603D01*
X0219020D01*
X0218004Y0175587D01*
X0217750D01*
X0216000Y0172540D02*
X0217524D01*
Y0173302D01*
X0217270Y0173556D01*
X0216762D01*
X0216508Y0173302D01*
Y0172540D01*
Y0173048D02*
X0216000Y0173556D01*
X0217524Y0175079D02*
Y0174064D01*
X0216762D01*
X0217016Y0174571D01*
Y0174825D01*
X0216762Y0175079D01*
X0216254D01*
X0216000Y0174825D01*
Y0174317D01*
X0216254Y0174064D01*
X0217524Y0176603D02*
X0217270Y0176095D01*
X0216762Y0175587D01*
X0216254D01*
X0216000Y0175841D01*
Y0176349D01*
X0216254Y0176603D01*
X0216508D01*
X0216762Y0176349D01*
Y0175587D01*
X0215000Y0182790D02*
X0216524D01*
Y0183552D01*
X0216270Y0183806D01*
X0215762D01*
X0215508Y0183552D01*
Y0182790D01*
Y0183298D02*
X0215000Y0183806D01*
X0216524Y0185329D02*
Y0184314D01*
X0215762D01*
X0216016Y0184821D01*
Y0185075D01*
X0215762Y0185329D01*
X0215254D01*
X0215000Y0185075D01*
Y0184567D01*
X0215254Y0184314D01*
X0216524Y0186853D02*
Y0185837D01*
X0215762D01*
X0216016Y0186345D01*
Y0186599D01*
X0215762Y0186853D01*
X0215254D01*
X0215000Y0186599D01*
Y0186091D01*
X0215254Y0185837D01*
X0211250Y0184290D02*
X0212774D01*
Y0185052D01*
X0212520Y0185306D01*
X0212012D01*
X0211758Y0185052D01*
Y0184290D01*
Y0184798D02*
X0211250Y0185306D01*
X0212774Y0186829D02*
Y0185814D01*
X0212012D01*
X0212266Y0186321D01*
Y0186575D01*
X0212012Y0186829D01*
X0211504D01*
X0211250Y0186575D01*
Y0186067D01*
X0211504Y0185814D01*
X0211250Y0188099D02*
X0212774D01*
X0212012Y0187337D01*
Y0188353D01*
X0215000Y0215040D02*
X0216524D01*
Y0215802D01*
X0216270Y0216056D01*
X0215762D01*
X0215508Y0215802D01*
Y0215040D01*
Y0215548D02*
X0215000Y0216056D01*
X0216524Y0217579D02*
Y0216564D01*
X0215762D01*
X0216016Y0217071D01*
Y0217325D01*
X0215762Y0217579D01*
X0215254D01*
X0215000Y0217325D01*
Y0216817D01*
X0215254Y0216564D01*
X0215000Y0219103D02*
Y0218087D01*
X0216016Y0219103D01*
X0216270D01*
X0216524Y0218849D01*
Y0218341D01*
X0216270Y0218087D01*
X0211000Y0216790D02*
X0212524D01*
Y0217552D01*
X0212270Y0217806D01*
X0211762D01*
X0211508Y0217552D01*
Y0216790D01*
Y0217298D02*
X0211000Y0217806D01*
X0212524Y0219329D02*
Y0218314D01*
X0211762D01*
X0212016Y0218821D01*
Y0219075D01*
X0211762Y0219329D01*
X0211254D01*
X0211000Y0219075D01*
Y0218567D01*
X0211254Y0218314D01*
X0212270Y0219837D02*
X0212524Y0220091D01*
Y0220599D01*
X0212270Y0220853D01*
X0211254D01*
X0211000Y0220599D01*
Y0220091D01*
X0211254Y0219837D01*
X0212270D01*
X0215020Y0198319D02*
X0216544D01*
Y0199081D01*
X0216290Y0199335D01*
X0215782D01*
X0215528Y0199081D01*
Y0198319D01*
Y0198827D02*
X0215020Y0199335D01*
Y0200604D02*
X0216544D01*
X0215782Y0199843D01*
Y0200858D01*
X0215020Y0202128D02*
X0216544D01*
X0215782Y0201366D01*
Y0202382D01*
X0211247Y0200081D02*
X0212771D01*
Y0200843D01*
X0212517Y0201097D01*
X0212009D01*
X0211755Y0200843D01*
Y0200081D01*
Y0200589D02*
X0211247Y0201097D01*
Y0202366D02*
X0212771D01*
X0212009Y0201605D01*
Y0202620D01*
X0212517Y0203128D02*
X0212771Y0203382D01*
Y0203890D01*
X0212517Y0204144D01*
X0212263D01*
X0212009Y0203890D01*
Y0203636D01*
Y0203890D01*
X0211755Y0204144D01*
X0211501D01*
X0211247Y0203890D01*
Y0203382D01*
X0211501Y0203128D01*
X0220750Y0163790D02*
X0222274D01*
Y0164552D01*
X0222020Y0164806D01*
X0221512D01*
X0221258Y0164552D01*
Y0163790D01*
Y0164298D02*
X0220750Y0164806D01*
Y0166075D02*
X0222274D01*
X0221512Y0165314D01*
Y0166329D01*
X0222020Y0166837D02*
X0222274Y0167091D01*
Y0167599D01*
X0222020Y0167853D01*
X0221004D01*
X0220750Y0167599D01*
Y0167091D01*
X0221004Y0166837D01*
X0222020D01*
X0256250Y0158790D02*
Y0160314D01*
X0255488D01*
X0255234Y0160060D01*
Y0159552D01*
X0255488Y0159298D01*
X0256250D01*
X0255742D02*
X0255234Y0158790D01*
X0254726Y0160060D02*
X0254473Y0160314D01*
X0253965D01*
X0253711Y0160060D01*
Y0159806D01*
X0253965Y0159552D01*
X0254219D01*
X0253965D01*
X0253711Y0159298D01*
Y0159044D01*
X0253965Y0158790D01*
X0254473D01*
X0254726Y0159044D01*
X0252441Y0158790D02*
Y0160314D01*
X0253203Y0159552D01*
X0252187D01*
X0335250Y0164790D02*
Y0166314D01*
X0334488D01*
X0334234Y0166060D01*
Y0165552D01*
X0334488Y0165298D01*
X0335250D01*
X0334742D02*
X0334234Y0164790D01*
X0333727Y0166060D02*
X0333473Y0166314D01*
X0332965D01*
X0332711Y0166060D01*
Y0165806D01*
X0332965Y0165552D01*
X0333219D01*
X0332965D01*
X0332711Y0165298D01*
Y0165044D01*
X0332965Y0164790D01*
X0333473D01*
X0333727Y0165044D01*
X0332203Y0164790D02*
X0331695D01*
X0331949D01*
Y0166314D01*
X0332203Y0166060D01*
X0334000Y0173790D02*
X0335523D01*
Y0174552D01*
X0335270Y0174806D01*
X0334762D01*
X0334508Y0174552D01*
Y0173790D01*
Y0174298D02*
X0334000Y0174806D01*
X0335270Y0175314D02*
X0335523Y0175567D01*
Y0176075D01*
X0335270Y0176329D01*
X0335016D01*
X0334762Y0176075D01*
Y0175821D01*
Y0176075D01*
X0334508Y0176329D01*
X0334254D01*
X0334000Y0176075D01*
Y0175567D01*
X0334254Y0175314D01*
X0335270Y0176837D02*
X0335523Y0177091D01*
Y0177599D01*
X0335270Y0177853D01*
X0334254D01*
X0334000Y0177599D01*
Y0177091D01*
X0334254Y0176837D01*
X0335270D01*
X0330500Y0173790D02*
X0332023D01*
Y0174552D01*
X0331770Y0174806D01*
X0331262D01*
X0331008Y0174552D01*
Y0173790D01*
Y0174298D02*
X0330500Y0174806D01*
Y0176329D02*
Y0175314D01*
X0331516Y0176329D01*
X0331770D01*
X0332023Y0176075D01*
Y0175567D01*
X0331770Y0175314D01*
X0330754Y0176837D02*
X0330500Y0177091D01*
Y0177599D01*
X0330754Y0177853D01*
X0331770D01*
X0332023Y0177599D01*
Y0177091D01*
X0331770Y0176837D01*
X0331516D01*
X0331262Y0177091D01*
Y0177853D01*
X0326250Y0173790D02*
X0327773D01*
Y0174552D01*
X0327520Y0174806D01*
X0327012D01*
X0326758Y0174552D01*
Y0173790D01*
Y0174298D02*
X0326250Y0174806D01*
Y0176329D02*
Y0175314D01*
X0327266Y0176329D01*
X0327520D01*
X0327773Y0176075D01*
Y0175567D01*
X0327520Y0175314D01*
Y0176837D02*
X0327773Y0177091D01*
Y0177599D01*
X0327520Y0177853D01*
X0327266D01*
X0327012Y0177599D01*
X0326758Y0177853D01*
X0326504D01*
X0326250Y0177599D01*
Y0177091D01*
X0326504Y0176837D01*
X0326758D01*
X0327012Y0177091D01*
X0327266Y0176837D01*
X0327520D01*
X0327012Y0177091D02*
Y0177599D01*
X0331500Y0212040D02*
Y0213564D01*
X0330738D01*
X0330484Y0213310D01*
Y0212802D01*
X0330738Y0212548D01*
X0331500D01*
X0330992D02*
X0330484Y0212040D01*
X0329977D02*
X0329469D01*
X0329723D01*
Y0213564D01*
X0329977Y0213310D01*
X0328707D02*
X0328453Y0213564D01*
X0327945D01*
X0327691Y0213310D01*
Y0212294D01*
X0327945Y0212040D01*
X0328453D01*
X0328707Y0212294D01*
Y0213310D01*
X0320000Y0159790D02*
Y0161314D01*
X0319238D01*
X0318984Y0161060D01*
Y0160552D01*
X0319238Y0160298D01*
X0320000D01*
X0317461Y0159790D02*
X0318477D01*
X0317461Y0160806D01*
Y0161060D01*
X0317715Y0161314D01*
X0318223D01*
X0318477Y0161060D01*
X0334000Y0217290D02*
Y0218814D01*
X0333238D01*
X0332984Y0218560D01*
Y0218052D01*
X0333238Y0217798D01*
X0334000D01*
X0331461Y0217290D02*
X0332477D01*
X0331461Y0218306D01*
Y0218560D01*
X0331715Y0218814D01*
X0332223D01*
X0332477Y0218560D01*
X0250250Y0224564D02*
Y0223040D01*
X0249488D01*
X0249234Y0223294D01*
Y0224310D01*
X0249488Y0224564D01*
X0250250D01*
X0247711Y0223040D02*
X0248726D01*
X0247711Y0224056D01*
Y0224310D01*
X0247965Y0224564D01*
X0248473D01*
X0248726Y0224310D01*
X0214524Y0178040D02*
X0213000D01*
Y0178802D01*
X0213254Y0179056D01*
X0214270D01*
X0214524Y0178802D01*
Y0178040D01*
X0213000Y0179564D02*
Y0180071D01*
Y0179817D01*
X0214524D01*
X0214270Y0179564D01*
X0220770Y0173556D02*
X0221024Y0173302D01*
Y0172794D01*
X0220770Y0172540D01*
X0219754D01*
X0219500Y0172794D01*
Y0173302D01*
X0219754Y0173556D01*
X0221024Y0175079D02*
Y0174064D01*
X0220262D01*
X0220516Y0174571D01*
Y0174825D01*
X0220262Y0175079D01*
X0219754D01*
X0219500Y0174825D01*
Y0174317D01*
X0219754Y0174064D01*
X0219500Y0176349D02*
X0221024D01*
X0220262Y0175587D01*
Y0176603D01*
X0220770Y0190306D02*
X0221024Y0190052D01*
Y0189544D01*
X0220770Y0189290D01*
X0219754D01*
X0219500Y0189544D01*
Y0190052D01*
X0219754Y0190306D01*
X0221024Y0191829D02*
Y0190814D01*
X0220262D01*
X0220516Y0191321D01*
Y0191575D01*
X0220262Y0191829D01*
X0219754D01*
X0219500Y0191575D01*
Y0191067D01*
X0219754Y0190814D01*
X0220770Y0192337D02*
X0221024Y0192591D01*
Y0193099D01*
X0220770Y0193353D01*
X0220516D01*
X0220262Y0193099D01*
Y0192845D01*
Y0193099D01*
X0220008Y0193353D01*
X0219754D01*
X0219500Y0193099D01*
Y0192591D01*
X0219754Y0192337D01*
X0221020Y0221556D02*
X0221274Y0221302D01*
Y0220794D01*
X0221020Y0220540D01*
X0220004D01*
X0219750Y0220794D01*
Y0221302D01*
X0220004Y0221556D01*
X0221274Y0223079D02*
Y0222064D01*
X0220512D01*
X0220766Y0222571D01*
Y0222825D01*
X0220512Y0223079D01*
X0220004D01*
X0219750Y0222825D01*
Y0222317D01*
X0220004Y0222064D01*
X0219750Y0224603D02*
Y0223587D01*
X0220766Y0224603D01*
X0221020D01*
X0221274Y0224349D01*
Y0223841D01*
X0221020Y0223587D01*
X0221270Y0206556D02*
X0221524Y0206302D01*
Y0205794D01*
X0221270Y0205540D01*
X0220254D01*
X0220000Y0205794D01*
Y0206302D01*
X0220254Y0206556D01*
X0221524Y0208079D02*
Y0207064D01*
X0220762D01*
X0221016Y0207571D01*
Y0207825D01*
X0220762Y0208079D01*
X0220254D01*
X0220000Y0207825D01*
Y0207317D01*
X0220254Y0207064D01*
X0220000Y0208587D02*
Y0209095D01*
Y0208841D01*
X0221524D01*
X0221270Y0208587D01*
X0328730Y0220565D02*
X0328985Y0220820D01*
X0329495D01*
X0329750Y0220565D01*
Y0219545D01*
X0329495Y0219290D01*
X0328985D01*
X0328730Y0219545D01*
X0328220Y0219290D02*
X0327711D01*
X0327966D01*
Y0220820D01*
X0328220Y0220565D01*
X0326946D02*
X0326691Y0220820D01*
X0326181D01*
X0325926Y0220565D01*
Y0220310D01*
X0326181Y0220055D01*
X0325926Y0219800D01*
Y0219545D01*
X0326181Y0219290D01*
X0326691D01*
X0326946Y0219545D01*
Y0219800D01*
X0326691Y0220055D01*
X0326946Y0220310D01*
Y0220565D01*
X0326691Y0220055D02*
X0326181D01*
X0262000Y0215564D02*
Y0214294D01*
X0261746Y0214040D01*
X0261238D01*
X0260984Y0214294D01*
Y0215564D01*
X0259715Y0214040D02*
Y0215564D01*
X0260477Y0214802D01*
X0259461D01*
D83*
X0324640Y0215930D02*
G03*
X0324640Y0215930I-0000300J0000000D01*
G01*
X0256820Y0212720D02*
G03*
X0256820Y0212720I-0000300J0000000D01*
G01*
X0272610Y0212930D02*
G03*
X0272610Y0212930I-0000300J0000000D01*
G01*
X0319140Y0153930D02*
G03*
X0319140Y0153930I-0000300J0000000D01*
G01*
D85*
X0322055Y0216930D02*
G03*
X0323325Y0216930I0000635J0000000D01*
G01*
X0254235Y0213720D02*
G03*
X0255505Y0213720I0000635J0000000D01*
G01*
X0274595Y0211930D02*
G03*
X0273325Y0211930I-0000635J0000000D01*
G01*
X0316555Y0154930D02*
G03*
X0317825Y0154930I0000635J0000000D01*
G01*
X0325340Y0206730D02*
Y0216930D01*
X0320040Y0206730D02*
Y0216930D01*
X0323325D02*
X0325340D01*
X0320040D02*
X0322055D01*
X0320040Y0206730D02*
X0325340D01*
X0220825Y0187090D02*
Y0187190D01*
X0219575Y0187090D02*
Y0187190D01*
X0328950Y0175490D02*
Y0175590D01*
X0330050Y0175490D02*
Y0175590D01*
X0332450Y0175490D02*
Y0175590D01*
X0333550Y0175490D02*
Y0175590D01*
X0251600Y0217690D02*
Y0217790D01*
X0250400Y0217690D02*
Y0217790D01*
X0249550Y0217690D02*
Y0217790D01*
X0248450Y0217690D02*
Y0217790D01*
X0257520Y0203520D02*
Y0213720D01*
X0252220Y0203520D02*
Y0213720D01*
X0255505D02*
X0257520D01*
X0252220D02*
X0254235D01*
X0252220Y0203520D02*
X0257520D01*
X0251060Y0219807D02*
Y0219860D01*
Y0222360D02*
Y0222413D01*
X0246760Y0219807D02*
Y0219860D01*
Y0222360D02*
Y0222413D01*
X0251060D01*
X0246760Y0219807D02*
X0251060D01*
X0271310Y0211930D02*
Y0222130D01*
X0276610Y0211930D02*
Y0222130D01*
X0271310Y0211930D02*
X0273325Y0211930D01*
X0274595Y0211930D02*
X0276610D01*
X0271310Y0222130D02*
X0276610D01*
X0335060Y0214270D02*
Y0216810D01*
X0329980D02*
X0335060D01*
X0329980Y0214270D02*
Y0216810D01*
Y0214270D02*
X0335060D01*
X0324450Y0175490D02*
Y0175590D01*
X0325550Y0175490D02*
Y0175590D01*
X0329950Y0166090D02*
X0330050D01*
X0329950Y0164990D02*
X0330050D01*
X0314650Y0156520D02*
Y0159060D01*
Y0156520D02*
X0319730D01*
Y0159060D01*
X0314650D02*
X0319730D01*
X0319840Y0144730D02*
Y0154930D01*
X0314540Y0144730D02*
Y0154930D01*
X0317825D02*
X0319840D01*
X0314540D02*
X0316555D01*
X0314540Y0144730D02*
X0319840D01*
X0303090Y0157650D02*
X0303143D01*
X0300537D02*
X0300590D01*
X0303090Y0153350D02*
X0303143D01*
X0300537D02*
X0300590D01*
X0300537D02*
Y0157650D01*
X0303143Y0153350D02*
Y0157650D01*
X0305700Y0157140D02*
Y0157240D01*
X0304500Y0157140D02*
Y0157240D01*
X0304550Y0153740D02*
Y0153840D01*
X0305650Y0153740D02*
Y0153840D01*
X0292997Y0153440D02*
X0293050D01*
X0295550D02*
X0295603D01*
X0292997Y0157740D02*
X0293050D01*
X0295550D02*
X0295603D01*
Y0153440D02*
Y0157740D01*
X0292997Y0153440D02*
Y0157740D01*
X0256325Y0156965D02*
X0256425D01*
X0256325Y0158065D02*
X0256425D01*
X0224850Y0156790D02*
Y0156843D01*
Y0154237D02*
Y0154290D01*
X0229150Y0156790D02*
Y0156843D01*
Y0154237D02*
Y0154290D01*
X0224850Y0154237D02*
X0229150D01*
X0224850Y0156843D02*
X0229150D01*
X0221225Y0203490D02*
Y0203590D01*
X0219975Y0203490D02*
Y0203590D01*
X0221225Y0218490D02*
Y0218590D01*
X0219975Y0218490D02*
Y0218590D01*
X0212400Y0214790D02*
X0212400Y0214690D01*
X0211200D02*
Y0214790D01*
X0213200Y0214690D02*
Y0214790D01*
X0214400Y0214690D02*
Y0214790D01*
X0212397Y0198081D02*
Y0198181D01*
X0211197Y0198081D02*
Y0198181D01*
X0213220Y0198069D02*
Y0198169D01*
X0214420Y0198069D02*
Y0198169D01*
X0212600Y0182390D02*
Y0182490D01*
X0211400Y0182390D02*
Y0182490D01*
X0212297Y0169590D02*
X0212350D01*
X0214850D02*
X0214903D01*
X0212297Y0173890D02*
X0212350D01*
X0214850D02*
X0214903D01*
Y0169590D02*
Y0173890D01*
X0212297Y0169590D02*
Y0173890D01*
X0214350Y0182390D02*
Y0182490D01*
X0213250Y0182390D02*
Y0182490D01*
X0217400Y0170490D02*
Y0170590D01*
X0216200Y0170490D02*
Y0170590D01*
X0219150Y0170490D02*
Y0170590D01*
X0218050Y0170490D02*
Y0170590D01*
X0294200Y0145415D02*
X0294300D01*
X0294200Y0144165D02*
X0294300D01*
X0221025Y0170490D02*
Y0170590D01*
X0219775Y0170490D02*
Y0170590D01*
X0327950Y0215240D02*
Y0215340D01*
X0329050Y0215240D02*
Y0215340D01*
X0327200Y0218865D02*
X0327300D01*
X0327200Y0217715D02*
X0327300D01*
D87*
X0224987Y0161143D02*
X0226003D01*
X0224987Y0158443D02*
Y0161143D01*
Y0158443D02*
X0226003D01*
Y0161143D01*
D88*
X0222380Y0161400D02*
Y0163200D01*
X0220380D02*
X0222380D01*
X0220380Y0161400D02*
Y0163200D01*
Y0157800D02*
Y0159600D01*
Y0157800D02*
X0222380D01*
Y0159600D01*
D140*
X0248658Y0221127D02*
D03*
X0227252Y0155522D02*
D03*
D141*
X0249038Y0220436D02*
D03*
X0226872Y0156214D02*
D03*
D142*
X0249080Y0221800D02*
D03*
D143*
X0301821Y0155248D02*
D03*
X0294317Y0155843D02*
D03*
X0213617Y0171992D02*
D03*
D144*
X0302513Y0155628D02*
D03*
D145*
X0301147Y0155669D02*
D03*
D146*
X0293626Y0155463D02*
D03*
X0212926Y0171612D02*
D03*
D147*
X0294986Y0155424D02*
D03*
X0214288Y0171574D02*
D03*
D148*
X0226833Y0154846D02*
D03*
M02*
