%FSAX43Y43*%
%MOMM*%
G71*
G01*
G75*
G04 Layer_Color=65535*
%ADD10R,1.450X1.150*%
%ADD11R,1.300X0.850*%
%ADD12R,1.350X0.950*%
%ADD13R,1.400X1.050*%
%ADD14R,1.500X1.250*%
%ADD15R,0.950X1.350*%
%ADD16O,2.050X0.600*%
%ADD17R,1.050X1.400*%
%ADD18R,0.850X1.300*%
%ADD19O,2.200X0.600*%
%ADD20R,1.250X1.500*%
%ADD21R,1.150X1.450*%
%ADD22R,1.400X1.200*%
%ADD23R,1.550X1.350*%
%ADD24R,1.350X1.550*%
%ADD25O,1.900X0.450*%
G04:AMPARAMS|DCode=26|XSize=5.5mm|YSize=1.5mm|CornerRadius=0.188mm|HoleSize=0mm|Usage=FLASHONLY|Rotation=180.000|XOffset=0mm|YOffset=0mm|HoleType=Round|Shape=RoundedRectangle|*
%AMROUNDEDRECTD26*
21,1,5.500,1.125,0,0,180.0*
21,1,5.125,1.500,0,0,180.0*
1,1,0.375,-2.563,0.563*
1,1,0.375,2.563,0.563*
1,1,0.375,2.563,-0.563*
1,1,0.375,-2.563,-0.563*
%
%ADD26ROUNDEDRECTD26*%
%ADD27R,1.800X0.600*%
%ADD28R,0.900X1.000*%
%ADD29R,1.200X1.400*%
%ADD30R,1.000X0.900*%
%ADD31R,5.400X1.550*%
%ADD32R,1.700X0.950*%
%ADD33R,1.900X0.900*%
%ADD34R,1.900X3.200*%
%ADD35R,1.524X1.524*%
G04:AMPARAMS|DCode=36|XSize=0.6mm|YSize=1mm|CornerRadius=0.075mm|HoleSize=0mm|Usage=FLASHONLY|Rotation=0.000|XOffset=0mm|YOffset=0mm|HoleType=Round|Shape=RoundedRectangle|*
%AMROUNDEDRECTD36*
21,1,0.600,0.850,0,0,0.0*
21,1,0.450,1.000,0,0,0.0*
1,1,0.150,0.225,-0.425*
1,1,0.150,-0.225,-0.425*
1,1,0.150,-0.225,0.425*
1,1,0.150,0.225,0.425*
%
%ADD36ROUNDEDRECTD36*%
%ADD37O,0.250X1.550*%
%ADD38O,1.550X0.250*%
%ADD39O,0.450X2.400*%
%ADD40C,0.250*%
%ADD41C,0.500*%
%ADD42C,0.450*%
%ADD43C,1.000*%
%ADD44C,0.750*%
%ADD45C,0.254*%
%ADD46R,1.500X1.500*%
%ADD47C,1.500*%
%ADD48C,3.000*%
%ADD49R,2.000X2.500*%
%ADD50O,2.000X2.500*%
%ADD51C,1.400*%
%ADD52R,1.500X1.500*%
%ADD53C,1.800*%
%ADD54C,8.000*%
%ADD55R,2.500X2.000*%
%ADD56O,2.500X2.000*%
%ADD57R,1.500X1.500*%
%ADD58C,2.950*%
%ADD59C,1.500*%
%ADD60C,1.270*%
%ADD61C,1.016*%
%ADD62C,1.016*%
%ADD63C,1.900*%
%ADD64C,2.500*%
G04:AMPARAMS|DCode=65|XSize=3.2mm|YSize=3.2mm|CornerRadius=0mm|HoleSize=0mm|Usage=FLASHONLY|Rotation=0.000|XOffset=0mm|YOffset=0mm|HoleType=Round|Shape=Relief|Width=0.3mm|Gap=0.3mm|Entries=4|*
%AMTHD65*
7,0,0,3.200,2.600,0.300,45*
%
%ADD65THD65*%
%ADD66C,2.100*%
G04:AMPARAMS|DCode=67|XSize=2.7mm|YSize=2.7mm|CornerRadius=0mm|HoleSize=0mm|Usage=FLASHONLY|Rotation=0.000|XOffset=0mm|YOffset=0mm|HoleType=Round|Shape=Relief|Width=0.3mm|Gap=0.3mm|Entries=4|*
%AMTHD67*
7,0,0,2.700,2.100,0.300,45*
%
%ADD67THD67*%
%ADD68C,1.850*%
G04:AMPARAMS|DCode=69|XSize=2.5mm|YSize=2.5mm|CornerRadius=0mm|HoleSize=0mm|Usage=FLASHONLY|Rotation=0.000|XOffset=0mm|YOffset=0mm|HoleType=Round|Shape=Relief|Width=0.3mm|Gap=0.3mm|Entries=4|*
%AMTHD69*
7,0,0,2.500,1.900,0.300,45*
%
%ADD69THD69*%
%ADD70C,2.000*%
%ADD71C,1.600*%
G04:AMPARAMS|DCode=72|XSize=2.2mm|YSize=2.2mm|CornerRadius=0mm|HoleSize=0mm|Usage=FLASHONLY|Rotation=0.000|XOffset=0mm|YOffset=0mm|HoleType=Round|Shape=Relief|Width=0.3mm|Gap=0.3mm|Entries=4|*
%AMTHD72*
7,0,0,2.200,1.600,0.300,45*
%
%ADD72THD72*%
%ADD73C,4.500*%
%ADD74C,1.900*%
%ADD75C,4.250*%
G04:AMPARAMS|DCode=76|XSize=2.5mm|YSize=2.5mm|CornerRadius=0mm|HoleSize=0mm|Usage=FLASHONLY|Rotation=0.000|XOffset=0mm|YOffset=0mm|HoleType=Round|Shape=Relief|Width=0.3mm|Gap=0.3mm|Entries=4|*
%AMTHD76*
7,0,0,2.500,1.900,0.300,45*
%
%ADD76THD76*%
%ADD77C,2.600*%
G04:AMPARAMS|DCode=78|XSize=2.45mm|YSize=2.45mm|CornerRadius=0mm|HoleSize=0mm|Usage=FLASHONLY|Rotation=0.000|XOffset=0mm|YOffset=0mm|HoleType=Round|Shape=Relief|Width=0.3mm|Gap=0.3mm|Entries=4|*
%AMTHD78*
7,0,0,2.450,1.850,0.300,45*
%
%ADD78THD78*%
%ADD79R,2.500X1.700*%
%ADD80R,1.700X2.500*%
G04:AMPARAMS|DCode=81|XSize=0.6mm|YSize=1mm|CornerRadius=0.075mm|HoleSize=0mm|Usage=FLASHONLY|Rotation=270.000|XOffset=0mm|YOffset=0mm|HoleType=Round|Shape=RoundedRectangle|*
%AMROUNDEDRECTD81*
21,1,0.600,0.850,0,0,270.0*
21,1,0.450,1.000,0,0,270.0*
1,1,0.150,-0.425,-0.225*
1,1,0.150,-0.425,0.225*
1,1,0.150,0.425,0.225*
1,1,0.150,0.425,-0.225*
%
%ADD81ROUNDEDRECTD81*%
%ADD82R,1.524X1.524*%
%ADD83C,0.600*%
%ADD84C,0.400*%
%ADD85C,0.200*%
%ADD86C,0.203*%
%ADD87C,0.127*%
%ADD88C,0.305*%
G36*
X0213003Y0187292D02*
X0212442D01*
Y0187853D01*
X0213003Y0187292D01*
D02*
G37*
G36*
Y0203167D02*
X0212442D01*
Y0203728D01*
X0213003Y0203167D01*
D02*
G37*
G36*
Y0219677D02*
X0212442D01*
Y0220238D01*
X0213003Y0219677D01*
D02*
G37*
D40*
X0244195Y0181525D02*
G03*
X0244195Y0181525I-0000125J0000000D01*
G01*
X0287725Y0219295D02*
G03*
X0287725Y0219295I-0000125J0000000D01*
G01*
X0258485Y0187615D02*
G03*
X0258485Y0187615I-0000125J0000000D01*
G01*
X0317625Y0183740D02*
G03*
X0317625Y0183740I-0000125J0000000D01*
G01*
X0319020Y0163360D02*
G03*
X0319020Y0163360I-0000125J0000000D01*
G01*
X0272675Y0168040D02*
G03*
X0272675Y0168040I-0000125J0000000D01*
G01*
X0278650Y0179215D02*
G03*
X0278650Y0179215I-0000125J0000000D01*
G01*
X0301560Y0202185D02*
G03*
X0301560Y0202185I-0000125J0000000D01*
G01*
D41*
X0212835Y0185530D02*
X0212840Y0185525D01*
X0212845Y0185530D01*
X0212840Y0185535D01*
X0212835Y0185530D01*
Y0201405D02*
X0212840Y0201400D01*
X0212845Y0201405D01*
X0212840Y0201410D01*
X0212835Y0201405D01*
Y0217915D02*
X0212840Y0217910D01*
X0212845Y0217915D01*
X0212840Y0217920D01*
X0212835Y0217915D01*
D45*
X0334150Y0153540D02*
G03*
X0334150Y0153540I-0003150J0000000D01*
G01*
X0241650Y0224540D02*
G03*
X0241650Y0224540I-0003150J0000000D01*
G01*
X0262550Y0221140D02*
G03*
X0262550Y0221140I-0003150J0000000D01*
G01*
X0325150Y0224540D02*
G03*
X0325150Y0224540I-0003150J0000000D01*
G01*
X0315500Y0215790D02*
X0315750Y0215540D01*
X0315500Y0215790D02*
Y0216040D01*
X0325380Y0202080D02*
X0326650D01*
X0325380Y0197000D02*
Y0202080D01*
Y0197000D02*
X0335540D01*
Y0202080D01*
X0334270D02*
X0335540D01*
X0334270D02*
Y0203350D01*
X0326650D02*
X0334270D01*
X0326650Y0202080D02*
Y0203350D01*
X0325380Y0192705D02*
X0326650D01*
X0325380Y0187625D02*
Y0192705D01*
Y0187625D02*
X0335540D01*
Y0192705D01*
X0334270D02*
X0335540D01*
X0334270D02*
Y0193975D01*
X0326650D02*
X0334270D01*
X0326650Y0192705D02*
Y0193975D01*
X0320300Y0164580D02*
X0324110D01*
X0320300Y0159500D02*
Y0164580D01*
Y0159500D02*
X0335540D01*
Y0164580D01*
X0331730D02*
X0335540D01*
X0331730D02*
Y0165850D01*
X0324110D02*
X0331730D01*
X0324110Y0164580D02*
Y0165850D01*
X0325380Y0183330D02*
X0326650D01*
X0325380Y0178250D02*
Y0183330D01*
Y0178250D02*
X0335540D01*
Y0183330D01*
X0334270D02*
X0335540D01*
X0334270D02*
Y0184600D01*
X0326650D02*
X0334270D01*
X0326650Y0183330D02*
Y0184600D01*
X0325380Y0173955D02*
Y0175225D01*
X0333000D01*
Y0173955D02*
Y0175225D01*
Y0173955D02*
X0335540D01*
Y0168875D02*
Y0173955D01*
X0322840Y0168875D02*
X0335540D01*
X0322840D02*
Y0173955D01*
X0325380D01*
X0211820Y0157420D02*
X0219320D01*
Y0160420D01*
X0211820D02*
X0219320D01*
X0211820Y0157420D02*
Y0160420D01*
X0234680Y0150000D02*
Y0155080D01*
X0227060D02*
X0234680D01*
X0227060Y0150000D02*
Y0155080D01*
Y0148730D02*
Y0150000D01*
Y0148730D02*
X0234680D01*
Y0150000D01*
X0225580Y0150000D02*
Y0155080D01*
X0217960D02*
X0225580D01*
X0217960Y0150000D02*
Y0155080D01*
Y0148730D02*
Y0150000D01*
Y0148730D02*
X0225580D01*
Y0150000D01*
X0205540Y0218280D02*
X0210620D01*
Y0225900D01*
X0205540D02*
X0210620D01*
X0204270D02*
X0205540D01*
X0204270Y0218280D02*
Y0225900D01*
Y0218280D02*
X0205540D01*
Y0203040D02*
X0210620D01*
Y0210660D01*
X0205540D02*
X0210620D01*
X0204270D02*
X0205540D01*
X0204270Y0203040D02*
Y0210660D01*
Y0203040D02*
X0205540D01*
Y0191610D02*
X0210620D01*
Y0199230D01*
X0205540D02*
X0210620D01*
X0204270D02*
X0205540D01*
X0204270Y0191610D02*
Y0199230D01*
Y0191610D02*
X0205540D01*
Y0180180D02*
X0210620D01*
Y0187800D01*
X0205540D02*
X0210620D01*
X0204270D02*
X0205540D01*
X0204270Y0180180D02*
Y0187800D01*
Y0180180D02*
X0205540D01*
X0205460Y0167060D02*
X0210540D01*
Y0174680D01*
X0205460D02*
X0210540D01*
X0204190D02*
X0205460D01*
X0204190Y0167060D02*
Y0174680D01*
Y0167060D02*
X0205460D01*
Y0156460D02*
X0210540D01*
Y0164080D01*
X0205460D02*
X0210540D01*
X0204190D02*
X0205460D01*
X0204190Y0156460D02*
Y0164080D01*
Y0156460D02*
X0205460D01*
X0309730Y0225306D02*
X0309477Y0225052D01*
Y0224544D01*
X0309730Y0224290D01*
X0310746D01*
X0311000Y0224544D01*
Y0225052D01*
X0310746Y0225306D01*
X0309477Y0226829D02*
X0309730Y0226321D01*
X0310238Y0225814D01*
X0310746D01*
X0311000Y0226067D01*
Y0226575D01*
X0310746Y0226829D01*
X0310492D01*
X0310238Y0226575D01*
Y0225814D01*
X0267750Y0141040D02*
Y0142564D01*
X0268512D01*
X0268766Y0142310D01*
Y0141802D01*
X0268512Y0141548D01*
X0267750D01*
X0269273Y0141040D02*
X0269781D01*
X0269527D01*
Y0142564D01*
X0269273Y0142310D01*
X0270543Y0141294D02*
X0270797Y0141040D01*
X0271305D01*
X0271559Y0141294D01*
Y0142310D01*
X0271305Y0142564D01*
X0270797D01*
X0270543Y0142310D01*
Y0142056D01*
X0270797Y0141802D01*
X0271559D01*
X0303000Y0150064D02*
Y0148794D01*
X0303254Y0148540D01*
X0303762D01*
X0304016Y0148794D01*
Y0150064D01*
X0305539Y0148540D02*
X0304523D01*
X0305539Y0149556D01*
Y0149810D01*
X0305285Y0150064D01*
X0304777D01*
X0304523Y0149810D01*
X0306047D02*
X0306301Y0150064D01*
X0306809D01*
X0307063Y0149810D01*
Y0148794D01*
X0306809Y0148540D01*
X0306301D01*
X0306047Y0148794D01*
Y0149810D01*
X0219500Y0155540D02*
Y0157064D01*
X0220262D01*
X0220516Y0156810D01*
Y0156302D01*
X0220262Y0156048D01*
X0219500D01*
X0221024Y0155540D02*
X0221531D01*
X0221277D01*
Y0157064D01*
X0221024Y0156810D01*
X0223309Y0157064D02*
X0222801Y0156810D01*
X0222293Y0156302D01*
Y0155794D01*
X0222547Y0155540D01*
X0223055D01*
X0223309Y0155794D01*
Y0156048D01*
X0223055Y0156302D01*
X0222293D01*
X0314750Y0162814D02*
Y0161544D01*
X0315004Y0161290D01*
X0315512D01*
X0315766Y0161544D01*
Y0162814D01*
X0316273D02*
X0317289D01*
Y0162560D01*
X0316273Y0161544D01*
Y0161290D01*
X0312750Y0184814D02*
Y0183544D01*
X0313004Y0183290D01*
X0313512D01*
X0313766Y0183544D01*
Y0184814D01*
X0315289D02*
X0314781Y0184560D01*
X0314273Y0184052D01*
Y0183544D01*
X0314527Y0183290D01*
X0315035D01*
X0315289Y0183544D01*
Y0183798D01*
X0315035Y0184052D01*
X0314273D01*
X0306980Y0177556D02*
X0306727Y0177302D01*
Y0176794D01*
X0306980Y0176540D01*
X0307996D01*
X0308250Y0176794D01*
Y0177302D01*
X0307996Y0177556D01*
X0306980Y0178064D02*
X0306727Y0178317D01*
Y0178825D01*
X0306980Y0179079D01*
X0307234D01*
X0307488Y0178825D01*
Y0178571D01*
Y0178825D01*
X0307742Y0179079D01*
X0307996D01*
X0308250Y0178825D01*
Y0178317D01*
X0307996Y0178064D01*
X0306727Y0180603D02*
X0306980Y0180095D01*
X0307488Y0179587D01*
X0307996D01*
X0308250Y0179841D01*
Y0180349D01*
X0307996Y0180603D01*
X0307742D01*
X0307488Y0180349D01*
Y0179587D01*
X0275416Y0179123D02*
X0275250Y0179290D01*
X0274917D01*
X0274750Y0179123D01*
Y0178457D01*
X0274917Y0178290D01*
X0275250D01*
X0275416Y0178457D01*
X0276416Y0179290D02*
X0276083Y0179123D01*
X0275750Y0178790D01*
Y0178457D01*
X0275916Y0178290D01*
X0276250D01*
X0276416Y0178457D01*
Y0178623D01*
X0276250Y0178790D01*
X0275750D01*
X0277416Y0178290D02*
X0276749D01*
X0277416Y0178956D01*
Y0179123D01*
X0277249Y0179290D01*
X0276916D01*
X0276749Y0179123D01*
X0283230Y0174306D02*
X0282977Y0174052D01*
Y0173544D01*
X0283230Y0173290D01*
X0284246D01*
X0284500Y0173544D01*
Y0174052D01*
X0284246Y0174306D01*
X0284500Y0175575D02*
X0282977D01*
X0283738Y0174814D01*
Y0175829D01*
X0282977Y0177353D02*
Y0176337D01*
X0283738D01*
X0283484Y0176845D01*
Y0177099D01*
X0283738Y0177353D01*
X0284246D01*
X0284500Y0177099D01*
Y0176591D01*
X0284246Y0176337D01*
X0300500Y0179790D02*
Y0181314D01*
X0301262D01*
X0301516Y0181060D01*
Y0180552D01*
X0301262Y0180298D01*
X0300500D01*
X0301008D02*
X0301516Y0179790D01*
X0302023Y0181314D02*
X0303039D01*
Y0181060D01*
X0302023Y0180044D01*
Y0179790D01*
X0303547D02*
X0304055D01*
X0303801D01*
Y0181314D01*
X0303547Y0181060D01*
X0217500Y0228314D02*
Y0227044D01*
X0217754Y0226790D01*
X0218262D01*
X0218516Y0227044D01*
Y0228314D01*
X0219024Y0226790D02*
X0219531D01*
X0219277D01*
Y0228314D01*
X0219024Y0228060D01*
X0221055Y0226790D02*
Y0228314D01*
X0220293Y0227552D01*
X0221309D01*
X0274750Y0202064D02*
Y0201810D01*
X0275258Y0201302D01*
X0275766Y0201810D01*
Y0202064D01*
X0275258Y0201302D02*
Y0200540D01*
X0276273D02*
X0276781D01*
X0276527D01*
Y0202064D01*
X0276273Y0201810D01*
X0280516Y0207060D02*
X0280262Y0207314D01*
X0279754D01*
X0279500Y0207060D01*
Y0206044D01*
X0279754Y0205790D01*
X0280262D01*
X0280516Y0206044D01*
X0281785Y0205790D02*
Y0207314D01*
X0281023Y0206552D01*
X0282039D01*
X0282547Y0205790D02*
X0283055D01*
X0282801D01*
Y0207314D01*
X0282547Y0207060D01*
X0287266D02*
X0287012Y0207314D01*
X0286504D01*
X0286250Y0207060D01*
Y0206044D01*
X0286504Y0205790D01*
X0287012D01*
X0287266Y0206044D01*
X0288535Y0205790D02*
Y0207314D01*
X0287773Y0206552D01*
X0288789D01*
X0289297Y0207060D02*
X0289551Y0207314D01*
X0290059D01*
X0290313Y0207060D01*
Y0206044D01*
X0290059Y0205790D01*
X0289551D01*
X0289297Y0206044D01*
Y0207060D01*
X0229000Y0155540D02*
Y0157064D01*
X0229762D01*
X0230016Y0156810D01*
Y0156302D01*
X0229762Y0156048D01*
X0229000D01*
X0230524Y0155540D02*
X0231031D01*
X0230777D01*
Y0157064D01*
X0230524Y0156810D01*
X0231793Y0157064D02*
X0232809D01*
Y0156810D01*
X0231793Y0155794D01*
Y0155540D01*
X0256500Y0174290D02*
X0254976D01*
Y0175052D01*
X0255230Y0175306D01*
X0255738D01*
X0255992Y0175052D01*
Y0174290D01*
Y0174798D02*
X0256500Y0175306D01*
X0254976Y0175814D02*
Y0176829D01*
X0255230D01*
X0256246Y0175814D01*
X0256500D01*
X0255230Y0177337D02*
X0254976Y0177591D01*
Y0178099D01*
X0255230Y0178353D01*
X0256246D01*
X0256500Y0178099D01*
Y0177591D01*
X0256246Y0177337D01*
X0255230D01*
X0257477Y0179040D02*
X0259000D01*
Y0180056D01*
X0257477Y0181579D02*
Y0180564D01*
X0259000D01*
Y0181579D01*
X0258238Y0180564D02*
Y0181071D01*
X0257477Y0182087D02*
X0259000D01*
Y0182849D01*
X0258746Y0183103D01*
X0257730D01*
X0257477Y0182849D01*
Y0182087D01*
X0259000Y0183611D02*
Y0184118D01*
Y0183864D01*
X0257477D01*
X0257730Y0183611D01*
X0259000Y0184880D02*
Y0185388D01*
Y0185134D01*
X0257477D01*
X0257730Y0184880D01*
X0205500Y0175290D02*
Y0176814D01*
X0206262D01*
X0206516Y0176560D01*
Y0176052D01*
X0206262Y0175798D01*
X0205500D01*
X0207024Y0175290D02*
X0207531D01*
X0207277D01*
Y0176814D01*
X0207024Y0176560D01*
X0208293Y0175290D02*
X0208801D01*
X0208547D01*
Y0176814D01*
X0208293Y0176560D01*
X0206000Y0164790D02*
Y0166314D01*
X0206762D01*
X0207016Y0166060D01*
Y0165552D01*
X0206762Y0165298D01*
X0206000D01*
X0207524Y0165044D02*
X0207777Y0164790D01*
X0208285D01*
X0208539Y0165044D01*
Y0166060D01*
X0208285Y0166314D01*
X0207777D01*
X0207524Y0166060D01*
Y0165806D01*
X0207777Y0165552D01*
X0208539D01*
X0255016Y0163314D02*
X0254508D01*
X0254762D01*
Y0162044D01*
X0254508Y0161790D01*
X0254254D01*
X0254000Y0162044D01*
X0256539Y0161790D02*
X0255524D01*
X0256539Y0162806D01*
Y0163060D01*
X0256285Y0163314D01*
X0255777D01*
X0255524Y0163060D01*
X0273766Y0163314D02*
X0273258D01*
X0273512D01*
Y0162044D01*
X0273258Y0161790D01*
X0273004D01*
X0272750Y0162044D01*
X0274273Y0161790D02*
X0274781D01*
X0274527D01*
Y0163314D01*
X0274273Y0163060D01*
X0215266Y0156814D02*
X0214250D01*
Y0156052D01*
X0214758D01*
X0214250D01*
Y0155290D01*
X0215774D02*
X0216281D01*
X0216027D01*
Y0156814D01*
X0215774Y0156560D01*
X0244250Y0183814D02*
Y0182544D01*
X0244504Y0182290D01*
X0245012D01*
X0245266Y0182544D01*
Y0183814D01*
X0245774Y0182290D02*
X0246281D01*
X0246027D01*
Y0183814D01*
X0245774Y0183560D01*
X0247043Y0182544D02*
X0247297Y0182290D01*
X0247805D01*
X0248059Y0182544D01*
Y0183560D01*
X0247805Y0183814D01*
X0247297D01*
X0247043Y0183560D01*
Y0183306D01*
X0247297Y0183052D01*
X0248059D01*
X0217348Y0180136D02*
Y0178867D01*
X0217602Y0178613D01*
X0218110D01*
X0218363Y0178867D01*
Y0180136D01*
X0218871Y0178613D02*
X0219379D01*
X0219125D01*
Y0180136D01*
X0218871Y0179882D01*
X0220141D02*
X0220395Y0180136D01*
X0220903D01*
X0221157Y0179882D01*
Y0179628D01*
X0220903Y0179375D01*
X0221157Y0179121D01*
Y0178867D01*
X0220903Y0178613D01*
X0220395D01*
X0220141Y0178867D01*
Y0179121D01*
X0220395Y0179375D01*
X0220141Y0179628D01*
Y0179882D01*
X0220395Y0179375D02*
X0220903D01*
X0210726Y0185540D02*
X0211996D01*
X0212250Y0185794D01*
Y0186302D01*
X0211996Y0186556D01*
X0210726D01*
X0212250Y0187064D02*
Y0187571D01*
Y0187317D01*
X0210726D01*
X0210980Y0187064D01*
X0210726Y0188333D02*
Y0189349D01*
X0210980D01*
X0211996Y0188333D01*
X0212250D01*
X0217348Y0196926D02*
Y0195656D01*
X0217602Y0195402D01*
X0218110D01*
X0218363Y0195656D01*
Y0196926D01*
X0218871Y0195402D02*
X0219379D01*
X0219125D01*
Y0196926D01*
X0218871Y0196672D01*
X0221157Y0196926D02*
X0220649Y0196672D01*
X0220141Y0196164D01*
Y0195656D01*
X0220395Y0195402D01*
X0220903D01*
X0221157Y0195656D01*
Y0195910D01*
X0220903Y0196164D01*
X0220141D01*
X0211023Y0218481D02*
X0211856D01*
X0212023Y0218647D01*
Y0218981D01*
X0211856Y0219147D01*
X0211023D01*
X0212023Y0219480D02*
Y0219814D01*
Y0219647D01*
X0211023D01*
X0211190Y0219480D01*
X0211023Y0220980D02*
Y0220314D01*
X0211523D01*
X0211356Y0220647D01*
Y0220813D01*
X0211523Y0220980D01*
X0211856D01*
X0212023Y0220813D01*
Y0220480D01*
X0211856Y0220314D01*
X0210726Y0201290D02*
X0211996D01*
X0212250Y0201544D01*
Y0202052D01*
X0211996Y0202306D01*
X0210726D01*
X0212250Y0202814D02*
Y0203321D01*
Y0203067D01*
X0210726D01*
X0210980Y0202814D01*
Y0204083D02*
X0210726Y0204337D01*
Y0204845D01*
X0210980Y0205099D01*
X0211234D01*
X0211488Y0204845D01*
Y0204591D01*
Y0204845D01*
X0211742Y0205099D01*
X0211996D01*
X0212250Y0204845D01*
Y0204337D01*
X0211996Y0204083D01*
X0217348Y0213385D02*
Y0212115D01*
X0217602Y0211861D01*
X0218110D01*
X0218363Y0212115D01*
Y0213385D01*
X0218871Y0211861D02*
X0219379D01*
X0219125D01*
Y0213385D01*
X0218871Y0213131D01*
X0220141Y0211861D02*
X0220649D01*
X0220395D01*
Y0213385D01*
X0220141Y0213131D01*
X0268750Y0176814D02*
Y0175544D01*
X0269004Y0175290D01*
X0269512D01*
X0269766Y0175544D01*
Y0176814D01*
X0270273Y0175290D02*
X0270781D01*
X0270527D01*
Y0176814D01*
X0270273Y0176560D01*
X0271543D02*
X0271797Y0176814D01*
X0272305D01*
X0272559Y0176560D01*
Y0175544D01*
X0272305Y0175290D01*
X0271797D01*
X0271543Y0175544D01*
Y0176560D01*
X0277038Y0197459D02*
Y0196190D01*
X0277292Y0195936D01*
X0277800D01*
X0278053Y0196190D01*
Y0197459D01*
X0278561Y0196190D02*
X0278815Y0195936D01*
X0279323D01*
X0279577Y0196190D01*
Y0197205D01*
X0279323Y0197459D01*
X0278815D01*
X0278561Y0197205D01*
Y0196951D01*
X0278815Y0196697D01*
X0279577D01*
X0300750Y0200564D02*
Y0199294D01*
X0301004Y0199040D01*
X0301512D01*
X0301766Y0199294D01*
Y0200564D01*
X0303289Y0199040D02*
X0302273D01*
X0303289Y0200056D01*
Y0200310D01*
X0303035Y0200564D01*
X0302527D01*
X0302273Y0200310D01*
X0294250Y0220314D02*
Y0219044D01*
X0294504Y0218790D01*
X0295012D01*
X0295266Y0219044D01*
Y0220314D01*
X0295773Y0218790D02*
X0296281D01*
X0296027D01*
Y0220314D01*
X0295773Y0220060D01*
X0260500Y0214790D02*
Y0216314D01*
X0261262D01*
X0261516Y0216060D01*
Y0215552D01*
X0261262Y0215298D01*
X0260500D01*
X0261008D02*
X0261516Y0214790D01*
X0263039Y0216314D02*
X0262531Y0216060D01*
X0262023Y0215552D01*
Y0215044D01*
X0262277Y0214790D01*
X0262785D01*
X0263039Y0215044D01*
Y0215298D01*
X0262785Y0215552D01*
X0262023D01*
X0263547Y0215044D02*
X0263801Y0214790D01*
X0264309D01*
X0264563Y0215044D01*
Y0216060D01*
X0264309Y0216314D01*
X0263801D01*
X0263547Y0216060D01*
Y0215806D01*
X0263801Y0215552D01*
X0264563D01*
X0271640Y0218300D02*
Y0219823D01*
X0272402D01*
X0272656Y0219570D01*
Y0219062D01*
X0272402Y0218808D01*
X0271640D01*
X0272148D02*
X0272656Y0218300D01*
X0274179Y0219823D02*
X0273671Y0219570D01*
X0273164Y0219062D01*
Y0218554D01*
X0273417Y0218300D01*
X0273925D01*
X0274179Y0218554D01*
Y0218808D01*
X0273925Y0219062D01*
X0273164D01*
X0274687Y0219570D02*
X0274941Y0219823D01*
X0275449D01*
X0275703Y0219570D01*
Y0219316D01*
X0275449Y0219062D01*
X0275703Y0218808D01*
Y0218554D01*
X0275449Y0218300D01*
X0274941D01*
X0274687Y0218554D01*
Y0218808D01*
X0274941Y0219062D01*
X0274687Y0219316D01*
Y0219570D01*
X0274941Y0219062D02*
X0275449D01*
X0283000Y0217540D02*
Y0218540D01*
X0283500D01*
X0283666Y0218373D01*
Y0218040D01*
X0283500Y0217873D01*
X0283000D01*
X0283333D02*
X0283666Y0217540D01*
X0284666Y0218540D02*
X0284333Y0218373D01*
X0284000Y0218040D01*
Y0217707D01*
X0284166Y0217540D01*
X0284500D01*
X0284666Y0217707D01*
Y0217873D01*
X0284500Y0218040D01*
X0284000D01*
X0284999Y0218540D02*
X0285666D01*
Y0218373D01*
X0284999Y0217707D01*
Y0217540D01*
X0279250Y0222040D02*
Y0223564D01*
X0280012D01*
X0280266Y0223310D01*
Y0222802D01*
X0280012Y0222548D01*
X0279250D01*
X0279758D02*
X0280266Y0222040D01*
X0281789Y0223564D02*
X0281281Y0223310D01*
X0280773Y0222802D01*
Y0222294D01*
X0281027Y0222040D01*
X0281535D01*
X0281789Y0222294D01*
Y0222548D01*
X0281535Y0222802D01*
X0280773D01*
X0283313Y0223564D02*
X0282805Y0223310D01*
X0282297Y0222802D01*
Y0222294D01*
X0282551Y0222040D01*
X0283059D01*
X0283313Y0222294D01*
Y0222548D01*
X0283059Y0222802D01*
X0282297D01*
X0264000Y0224540D02*
Y0226064D01*
X0264762D01*
X0265016Y0225810D01*
Y0225302D01*
X0264762Y0225048D01*
X0264000D01*
X0264508D02*
X0265016Y0224540D01*
X0266539Y0226064D02*
X0266031Y0225810D01*
X0265523Y0225302D01*
Y0224794D01*
X0265777Y0224540D01*
X0266285D01*
X0266539Y0224794D01*
Y0225048D01*
X0266285Y0225302D01*
X0265523D01*
X0268063Y0226064D02*
X0267047D01*
Y0225302D01*
X0267555Y0225556D01*
X0267809D01*
X0268063Y0225302D01*
Y0224794D01*
X0267809Y0224540D01*
X0267301D01*
X0267047Y0224794D01*
X0260500Y0212540D02*
Y0214064D01*
X0261262D01*
X0261516Y0213810D01*
Y0213302D01*
X0261262Y0213048D01*
X0260500D01*
X0261008D02*
X0261516Y0212540D01*
X0263039Y0214064D02*
X0262531Y0213810D01*
X0262023Y0213302D01*
Y0212794D01*
X0262277Y0212540D01*
X0262785D01*
X0263039Y0212794D01*
Y0213048D01*
X0262785Y0213302D01*
X0262023D01*
X0264309Y0212540D02*
Y0214064D01*
X0263547Y0213302D01*
X0264563D01*
X0279500Y0213040D02*
Y0214564D01*
X0280262D01*
X0280516Y0214310D01*
Y0213802D01*
X0280262Y0213548D01*
X0279500D01*
X0280008D02*
X0280516Y0213040D01*
X0282039Y0214564D02*
X0281531Y0214310D01*
X0281023Y0213802D01*
Y0213294D01*
X0281277Y0213040D01*
X0281785D01*
X0282039Y0213294D01*
Y0213548D01*
X0281785Y0213802D01*
X0281023D01*
X0282547Y0214310D02*
X0282801Y0214564D01*
X0283309D01*
X0283563Y0214310D01*
Y0214056D01*
X0283309Y0213802D01*
X0283055D01*
X0283309D01*
X0283563Y0213548D01*
Y0213294D01*
X0283309Y0213040D01*
X0282801D01*
X0282547Y0213294D01*
X0233250Y0157790D02*
X0231726D01*
Y0158552D01*
X0231980Y0158806D01*
X0232488D01*
X0232742Y0158552D01*
Y0157790D01*
Y0158298D02*
X0233250Y0158806D01*
X0231726Y0160329D02*
Y0159314D01*
X0232488D01*
X0232234Y0159821D01*
Y0160075D01*
X0232488Y0160329D01*
X0232996D01*
X0233250Y0160075D01*
Y0159567D01*
X0232996Y0159314D01*
X0231980Y0160837D02*
X0231726Y0161091D01*
Y0161599D01*
X0231980Y0161853D01*
X0232234D01*
X0232488Y0161599D01*
X0232742Y0161853D01*
X0232996D01*
X0233250Y0161599D01*
Y0161091D01*
X0232996Y0160837D01*
X0232742D01*
X0232488Y0161091D01*
X0232234Y0160837D01*
X0231980D01*
X0232488Y0161091D02*
Y0161599D01*
X0211750Y0192540D02*
Y0194064D01*
X0212512D01*
X0212766Y0193810D01*
Y0193302D01*
X0212512Y0193048D01*
X0211750D01*
X0212258D02*
X0212766Y0192540D01*
X0214289Y0194064D02*
X0213274D01*
Y0193302D01*
X0213781Y0193556D01*
X0214035D01*
X0214289Y0193302D01*
Y0192794D01*
X0214035Y0192540D01*
X0213527D01*
X0213274Y0192794D01*
X0214797Y0193810D02*
X0215051Y0194064D01*
X0215559D01*
X0215813Y0193810D01*
Y0193556D01*
X0215559Y0193302D01*
X0215305D01*
X0215559D01*
X0215813Y0193048D01*
Y0192794D01*
X0215559Y0192540D01*
X0215051D01*
X0214797Y0192794D01*
X0292000Y0160790D02*
X0290477D01*
Y0161552D01*
X0290730Y0161806D01*
X0291238D01*
X0291492Y0161552D01*
Y0160790D01*
Y0161298D02*
X0292000Y0161806D01*
X0290477Y0163329D02*
Y0162314D01*
X0291238D01*
X0290984Y0162821D01*
Y0163075D01*
X0291238Y0163329D01*
X0291746D01*
X0292000Y0163075D01*
Y0162567D01*
X0291746Y0162314D01*
X0292000Y0163837D02*
Y0164345D01*
Y0164091D01*
X0290477D01*
X0290730Y0163837D01*
X0210250Y0149290D02*
X0208726D01*
Y0150052D01*
X0208980Y0150306D01*
X0209488D01*
X0209742Y0150052D01*
Y0149290D01*
Y0149798D02*
X0210250Y0150306D01*
Y0151575D02*
X0208726D01*
X0209488Y0150814D01*
Y0151829D01*
X0209996Y0152337D02*
X0210250Y0152591D01*
Y0153099D01*
X0209996Y0153353D01*
X0208980D01*
X0208726Y0153099D01*
Y0152591D01*
X0208980Y0152337D01*
X0209234D01*
X0209488Y0152591D01*
Y0153353D01*
X0297250Y0157540D02*
X0295727D01*
Y0158302D01*
X0295980Y0158556D01*
X0296488D01*
X0296742Y0158302D01*
Y0157540D01*
Y0158048D02*
X0297250Y0158556D01*
Y0159825D02*
X0295727D01*
X0296488Y0159064D01*
Y0160079D01*
X0295980Y0160587D02*
X0295727Y0160841D01*
Y0161349D01*
X0295980Y0161603D01*
X0296234D01*
X0296488Y0161349D01*
X0296742Y0161603D01*
X0296996D01*
X0297250Y0161349D01*
Y0160841D01*
X0296996Y0160587D01*
X0296742D01*
X0296488Y0160841D01*
X0296234Y0160587D01*
X0295980D01*
X0296488Y0160841D02*
Y0161349D01*
X0211750Y0225040D02*
Y0226564D01*
X0212512D01*
X0212766Y0226310D01*
Y0225802D01*
X0212512Y0225548D01*
X0211750D01*
X0212258D02*
X0212766Y0225040D01*
X0214035D02*
Y0226564D01*
X0213274Y0225802D01*
X0214289D01*
X0215813Y0226564D02*
X0215305Y0226310D01*
X0214797Y0225802D01*
Y0225294D01*
X0215051Y0225040D01*
X0215559D01*
X0215813Y0225294D01*
Y0225548D01*
X0215559Y0225802D01*
X0214797D01*
X0214000Y0161290D02*
X0212476D01*
Y0162052D01*
X0212730Y0162306D01*
X0213238D01*
X0213492Y0162052D01*
Y0161290D01*
Y0161798D02*
X0214000Y0162306D01*
Y0163575D02*
X0212476D01*
X0213238Y0162814D01*
Y0163829D01*
X0212476Y0165353D02*
Y0164337D01*
X0213238D01*
X0212984Y0164845D01*
Y0165099D01*
X0213238Y0165353D01*
X0213746D01*
X0214000Y0165099D01*
Y0164591D01*
X0213746Y0164337D01*
X0220750Y0161290D02*
X0219226D01*
Y0162052D01*
X0219480Y0162306D01*
X0219988D01*
X0220242Y0162052D01*
Y0161290D01*
Y0161798D02*
X0220750Y0162306D01*
Y0163575D02*
X0219226D01*
X0219988Y0162814D01*
Y0163829D01*
X0220750Y0165353D02*
Y0164337D01*
X0219734Y0165353D01*
X0219480D01*
X0219226Y0165099D01*
Y0164591D01*
X0219480Y0164337D01*
X0211277Y0209093D02*
Y0210616D01*
X0212039D01*
X0212293Y0210362D01*
Y0209855D01*
X0212039Y0209601D01*
X0211277D01*
X0211785D02*
X0212293Y0209093D01*
X0213562D02*
Y0210616D01*
X0212801Y0209855D01*
X0213816D01*
X0214324Y0209093D02*
X0214832D01*
X0214578D01*
Y0210616D01*
X0214324Y0210362D01*
X0285000Y0168290D02*
Y0169814D01*
X0285762D01*
X0286016Y0169560D01*
Y0169052D01*
X0285762Y0168798D01*
X0285000D01*
X0285508D02*
X0286016Y0168290D01*
X0286523Y0169560D02*
X0286777Y0169814D01*
X0287285D01*
X0287539Y0169560D01*
Y0169306D01*
X0287285Y0169052D01*
X0287031D01*
X0287285D01*
X0287539Y0168798D01*
Y0168544D01*
X0287285Y0168290D01*
X0286777D01*
X0286523Y0168544D01*
X0288047D02*
X0288301Y0168290D01*
X0288809D01*
X0289063Y0168544D01*
Y0169560D01*
X0288809Y0169814D01*
X0288301D01*
X0288047Y0169560D01*
Y0169306D01*
X0288301Y0169052D01*
X0289063D01*
X0285000Y0170790D02*
Y0172314D01*
X0285762D01*
X0286016Y0172060D01*
Y0171552D01*
X0285762Y0171298D01*
X0285000D01*
X0285508D02*
X0286016Y0170790D01*
X0286523Y0172060D02*
X0286777Y0172314D01*
X0287285D01*
X0287539Y0172060D01*
Y0171806D01*
X0287285Y0171552D01*
X0287031D01*
X0287285D01*
X0287539Y0171298D01*
Y0171044D01*
X0287285Y0170790D01*
X0286777D01*
X0286523Y0171044D01*
X0288047Y0172060D02*
X0288301Y0172314D01*
X0288809D01*
X0289063Y0172060D01*
Y0171806D01*
X0288809Y0171552D01*
X0289063Y0171298D01*
Y0171044D01*
X0288809Y0170790D01*
X0288301D01*
X0288047Y0171044D01*
Y0171298D01*
X0288301Y0171552D01*
X0288047Y0171806D01*
Y0172060D01*
X0288301Y0171552D02*
X0288809D01*
X0288750Y0175290D02*
Y0176814D01*
X0289512D01*
X0289766Y0176560D01*
Y0176052D01*
X0289512Y0175798D01*
X0288750D01*
X0289258D02*
X0289766Y0175290D01*
X0290273Y0176560D02*
X0290527Y0176814D01*
X0291035D01*
X0291289Y0176560D01*
Y0176306D01*
X0291035Y0176052D01*
X0290781D01*
X0291035D01*
X0291289Y0175798D01*
Y0175544D01*
X0291035Y0175290D01*
X0290527D01*
X0290273Y0175544D01*
X0291797Y0176814D02*
X0292813D01*
Y0176560D01*
X0291797Y0175544D01*
Y0175290D01*
X0270750Y0178290D02*
X0269227D01*
Y0179052D01*
X0269480Y0179306D01*
X0269988D01*
X0270242Y0179052D01*
Y0178290D01*
Y0178798D02*
X0270750Y0179306D01*
X0269480Y0179814D02*
X0269227Y0180067D01*
Y0180575D01*
X0269480Y0180829D01*
X0269734D01*
X0269988Y0180575D01*
Y0180321D01*
Y0180575D01*
X0270242Y0180829D01*
X0270496D01*
X0270750Y0180575D01*
Y0180067D01*
X0270496Y0179814D01*
X0269227Y0182353D02*
X0269480Y0181845D01*
X0269988Y0181337D01*
X0270496D01*
X0270750Y0181591D01*
Y0182099D01*
X0270496Y0182353D01*
X0270242D01*
X0269988Y0182099D01*
Y0181337D01*
X0315750Y0187290D02*
Y0188814D01*
X0316512D01*
X0316766Y0188560D01*
Y0188052D01*
X0316512Y0187798D01*
X0315750D01*
X0316258D02*
X0316766Y0187290D01*
X0317273Y0188560D02*
X0317527Y0188814D01*
X0318035D01*
X0318289Y0188560D01*
Y0188306D01*
X0318035Y0188052D01*
X0317781D01*
X0318035D01*
X0318289Y0187798D01*
Y0187544D01*
X0318035Y0187290D01*
X0317527D01*
X0317273Y0187544D01*
X0319813Y0188814D02*
X0318797D01*
Y0188052D01*
X0319305Y0188306D01*
X0319559D01*
X0319813Y0188052D01*
Y0187544D01*
X0319559Y0187290D01*
X0319051D01*
X0318797Y0187544D01*
X0285000Y0165790D02*
Y0167314D01*
X0285762D01*
X0286016Y0167060D01*
Y0166552D01*
X0285762Y0166298D01*
X0285000D01*
X0285508D02*
X0286016Y0165790D01*
X0286523Y0167060D02*
X0286777Y0167314D01*
X0287285D01*
X0287539Y0167060D01*
Y0166806D01*
X0287285Y0166552D01*
X0287031D01*
X0287285D01*
X0287539Y0166298D01*
Y0166044D01*
X0287285Y0165790D01*
X0286777D01*
X0286523Y0166044D01*
X0289063Y0165790D02*
X0288047D01*
X0289063Y0166806D01*
Y0167060D01*
X0288809Y0167314D01*
X0288301D01*
X0288047Y0167060D01*
X0306000Y0169040D02*
X0304477D01*
Y0169802D01*
X0304730Y0170056D01*
X0305238D01*
X0305492Y0169802D01*
Y0169040D01*
Y0169548D02*
X0306000Y0170056D01*
Y0171579D02*
Y0170564D01*
X0304984Y0171579D01*
X0304730D01*
X0304477Y0171325D01*
Y0170817D01*
X0304730Y0170564D01*
X0304477Y0172087D02*
Y0173103D01*
X0304730D01*
X0305746Y0172087D01*
X0306000D01*
X0238500Y0214790D02*
Y0216314D01*
X0239262D01*
X0239516Y0216060D01*
Y0215552D01*
X0239262Y0215298D01*
X0238500D01*
X0239008D02*
X0239516Y0214790D01*
X0241039D02*
X0240024D01*
X0241039Y0215806D01*
Y0216060D01*
X0240785Y0216314D01*
X0240277D01*
X0240024Y0216060D01*
X0242563Y0216314D02*
X0242055Y0216060D01*
X0241547Y0215552D01*
Y0215044D01*
X0241801Y0214790D01*
X0242309D01*
X0242563Y0215044D01*
Y0215298D01*
X0242309Y0215552D01*
X0241547D01*
X0263250Y0206540D02*
Y0208064D01*
X0264012D01*
X0264266Y0207810D01*
Y0207302D01*
X0264012Y0207048D01*
X0263250D01*
X0263758D02*
X0264266Y0206540D01*
X0265789D02*
X0264773D01*
X0265789Y0207556D01*
Y0207810D01*
X0265535Y0208064D01*
X0265027D01*
X0264773Y0207810D01*
X0267313Y0208064D02*
X0266297D01*
Y0207302D01*
X0266805Y0207556D01*
X0267059D01*
X0267313Y0207302D01*
Y0206794D01*
X0267059Y0206540D01*
X0266551D01*
X0266297Y0206794D01*
X0241250Y0206540D02*
Y0208064D01*
X0242012D01*
X0242266Y0207810D01*
Y0207302D01*
X0242012Y0207048D01*
X0241250D01*
X0241758D02*
X0242266Y0206540D01*
X0243789D02*
X0242774D01*
X0243789Y0207556D01*
Y0207810D01*
X0243535Y0208064D01*
X0243027D01*
X0242774Y0207810D01*
X0245059Y0206540D02*
Y0208064D01*
X0244297Y0207302D01*
X0245313D01*
X0250000Y0201040D02*
Y0202564D01*
X0250762D01*
X0251016Y0202310D01*
Y0201802D01*
X0250762Y0201548D01*
X0250000D01*
X0250508D02*
X0251016Y0201040D01*
X0252539D02*
X0251524D01*
X0252539Y0202056D01*
Y0202310D01*
X0252285Y0202564D01*
X0251777D01*
X0251524Y0202310D01*
X0253047D02*
X0253301Y0202564D01*
X0253809D01*
X0254063Y0202310D01*
Y0202056D01*
X0253809Y0201802D01*
X0253555D01*
X0253809D01*
X0254063Y0201548D01*
Y0201294D01*
X0253809Y0201040D01*
X0253301D01*
X0253047Y0201294D01*
X0263250Y0209040D02*
Y0210564D01*
X0264012D01*
X0264266Y0210310D01*
Y0209802D01*
X0264012Y0209548D01*
X0263250D01*
X0263758D02*
X0264266Y0209040D01*
X0265789D02*
X0264773D01*
X0265789Y0210056D01*
Y0210310D01*
X0265535Y0210564D01*
X0265027D01*
X0264773Y0210310D01*
X0267313Y0209040D02*
X0266297D01*
X0267313Y0210056D01*
Y0210310D01*
X0267059Y0210564D01*
X0266551D01*
X0266297Y0210310D01*
X0251500Y0216040D02*
Y0217564D01*
X0252262D01*
X0252516Y0217310D01*
Y0216802D01*
X0252262Y0216548D01*
X0251500D01*
X0252008D02*
X0252516Y0216040D01*
X0254039D02*
X0253024D01*
X0254039Y0217056D01*
Y0217310D01*
X0253785Y0217564D01*
X0253277D01*
X0253024Y0217310D01*
X0254547Y0216040D02*
X0255055D01*
X0254801D01*
Y0217564D01*
X0254547Y0217310D01*
X0312200Y0144290D02*
X0313723D01*
Y0143528D01*
X0313470Y0143274D01*
X0312962D01*
X0312708Y0143528D01*
Y0144290D01*
Y0143782D02*
X0312200Y0143274D01*
Y0141751D02*
Y0142766D01*
X0313216Y0141751D01*
X0313470D01*
X0313723Y0142005D01*
Y0142513D01*
X0313470Y0142766D01*
Y0141243D02*
X0313723Y0140989D01*
Y0140481D01*
X0313470Y0140227D01*
X0312454D01*
X0312200Y0140481D01*
Y0140989D01*
X0312454Y0141243D01*
X0313470D01*
X0316111Y0204237D02*
X0317635D01*
Y0203475D01*
X0317381Y0203221D01*
X0316873D01*
X0316619Y0203475D01*
Y0204237D01*
Y0203729D02*
X0316111Y0203221D01*
Y0201698D02*
Y0202713D01*
X0317127Y0201698D01*
X0317381D01*
X0317635Y0201952D01*
Y0202460D01*
X0317381Y0202713D01*
Y0201190D02*
X0317635Y0200936D01*
Y0200428D01*
X0317381Y0200174D01*
X0316365D01*
X0316111Y0200428D01*
Y0200936D01*
X0316365Y0201190D01*
X0317381D01*
X0316250Y0146290D02*
X0314727D01*
Y0147052D01*
X0314980Y0147306D01*
X0315488D01*
X0315742Y0147052D01*
Y0146290D01*
Y0146798D02*
X0316250Y0147306D01*
Y0147814D02*
Y0148321D01*
Y0148067D01*
X0314727D01*
X0314980Y0147814D01*
X0315996Y0149083D02*
X0316250Y0149337D01*
Y0149845D01*
X0315996Y0150099D01*
X0314980D01*
X0314727Y0149845D01*
Y0149337D01*
X0314980Y0149083D01*
X0315234D01*
X0315488Y0149337D01*
Y0150099D01*
X0320500Y0208290D02*
X0319700D01*
Y0208690D01*
X0319834Y0208823D01*
X0320100D01*
X0320233Y0208690D01*
Y0208290D01*
Y0208557D02*
X0320500Y0208823D01*
Y0209090D02*
Y0209356D01*
Y0209223D01*
X0319700D01*
X0319834Y0209090D01*
X0320367Y0209756D02*
X0320500Y0209889D01*
Y0210156D01*
X0320367Y0210289D01*
X0319834D01*
X0319700Y0210156D01*
Y0209889D01*
X0319834Y0209756D01*
X0319967D01*
X0320100Y0209889D01*
Y0210289D01*
X0316250Y0150290D02*
X0314727D01*
Y0151052D01*
X0314980Y0151306D01*
X0315488D01*
X0315742Y0151052D01*
Y0150290D01*
Y0150798D02*
X0316250Y0151306D01*
Y0151814D02*
Y0152321D01*
Y0152067D01*
X0314727D01*
X0314980Y0151814D01*
Y0153083D02*
X0314727Y0153337D01*
Y0153845D01*
X0314980Y0154099D01*
X0315234D01*
X0315488Y0153845D01*
X0315742Y0154099D01*
X0315996D01*
X0316250Y0153845D01*
Y0153337D01*
X0315996Y0153083D01*
X0315742D01*
X0315488Y0153337D01*
X0315234Y0153083D01*
X0314980D01*
X0315488Y0153337D02*
Y0153845D01*
X0320750Y0212540D02*
X0319950D01*
Y0212940D01*
X0320084Y0213073D01*
X0320350D01*
X0320483Y0212940D01*
Y0212540D01*
Y0212807D02*
X0320750Y0213073D01*
Y0213340D02*
Y0213606D01*
Y0213473D01*
X0319950D01*
X0320084Y0213340D01*
Y0214006D02*
X0319950Y0214139D01*
Y0214406D01*
X0320084Y0214539D01*
X0320217D01*
X0320350Y0214406D01*
X0320483Y0214539D01*
X0320617D01*
X0320750Y0214406D01*
Y0214139D01*
X0320617Y0214006D01*
X0320483D01*
X0320350Y0214139D01*
X0320217Y0214006D01*
X0320084D01*
X0320350Y0214139D02*
Y0214406D01*
X0325750Y0144540D02*
X0324227D01*
Y0145302D01*
X0324480Y0145556D01*
X0324988D01*
X0325242Y0145302D01*
Y0144540D01*
Y0145048D02*
X0325750Y0145556D01*
Y0146064D02*
Y0146571D01*
Y0146317D01*
X0324227D01*
X0324480Y0146064D01*
X0324227Y0147333D02*
Y0148349D01*
X0324480D01*
X0325496Y0147333D01*
X0325750D01*
X0321750Y0208790D02*
X0320950D01*
Y0209190D01*
X0321084Y0209323D01*
X0321350D01*
X0321483Y0209190D01*
Y0208790D01*
Y0209057D02*
X0321750Y0209323D01*
Y0209590D02*
Y0209856D01*
Y0209723D01*
X0320950D01*
X0321084Y0209590D01*
X0320950Y0210256D02*
Y0210789D01*
X0321084D01*
X0321617Y0210256D01*
X0321750D01*
X0306000Y0153790D02*
Y0155314D01*
X0306762D01*
X0307016Y0155060D01*
Y0154552D01*
X0306762Y0154298D01*
X0306000D01*
X0306508D02*
X0307016Y0153790D01*
X0307523D02*
X0308031D01*
X0307777D01*
Y0155314D01*
X0307523Y0155060D01*
X0309809Y0155314D02*
X0309301Y0155060D01*
X0308793Y0154552D01*
Y0154044D01*
X0309047Y0153790D01*
X0309555D01*
X0309809Y0154044D01*
Y0154298D01*
X0309555Y0154552D01*
X0308793D01*
X0315500Y0216540D02*
X0314500D01*
Y0217040D01*
X0314667Y0217206D01*
X0315000D01*
X0315167Y0217040D01*
Y0216540D01*
Y0216873D02*
X0315500Y0217206D01*
Y0217540D02*
Y0217873D01*
Y0217706D01*
X0314500D01*
X0314667Y0217540D01*
X0314500Y0219039D02*
X0314667Y0218706D01*
X0315000Y0218373D01*
X0315333D01*
X0315500Y0218539D01*
Y0218873D01*
X0315333Y0219039D01*
X0315167D01*
X0315000Y0218873D01*
Y0218373D01*
X0327500Y0145790D02*
X0325977D01*
Y0146552D01*
X0326230Y0146806D01*
X0326738D01*
X0326992Y0146552D01*
Y0145790D01*
Y0146298D02*
X0327500Y0146806D01*
Y0147314D02*
Y0147821D01*
Y0147567D01*
X0325977D01*
X0326230Y0147314D01*
X0325977Y0149599D02*
Y0148583D01*
X0326738D01*
X0326484Y0149091D01*
Y0149345D01*
X0326738Y0149599D01*
X0327246D01*
X0327500Y0149345D01*
Y0148837D01*
X0327246Y0148583D01*
X0330250Y0209290D02*
Y0210814D01*
X0331012D01*
X0331266Y0210560D01*
Y0210052D01*
X0331012Y0209798D01*
X0330250D01*
X0330758D02*
X0331266Y0209290D01*
X0331773D02*
X0332281D01*
X0332027D01*
Y0210814D01*
X0331773Y0210560D01*
X0334059Y0210814D02*
X0333043D01*
Y0210052D01*
X0333551Y0210306D01*
X0333805D01*
X0334059Y0210052D01*
Y0209544D01*
X0333805Y0209290D01*
X0333297D01*
X0333043Y0209544D01*
X0317750Y0154290D02*
X0316750D01*
Y0154790D01*
X0316917Y0154956D01*
X0317250D01*
X0317417Y0154790D01*
Y0154290D01*
Y0154623D02*
X0317750Y0154956D01*
Y0155290D02*
Y0155623D01*
Y0155456D01*
X0316750D01*
X0316917Y0155290D01*
X0317750Y0156623D02*
X0316750D01*
X0317250Y0156123D01*
Y0156789D01*
X0323500Y0215290D02*
X0322500D01*
Y0215790D01*
X0322667Y0215956D01*
X0323000D01*
X0323167Y0215790D01*
Y0215290D01*
Y0215623D02*
X0323500Y0215956D01*
Y0216290D02*
Y0216623D01*
Y0216456D01*
X0322500D01*
X0322667Y0216290D01*
X0323500Y0217623D02*
X0322500D01*
X0323000Y0217123D01*
Y0217789D01*
X0306000Y0151540D02*
Y0153064D01*
X0306762D01*
X0307016Y0152810D01*
Y0152302D01*
X0306762Y0152048D01*
X0306000D01*
X0306508D02*
X0307016Y0151540D01*
X0307523D02*
X0308031D01*
X0307777D01*
Y0153064D01*
X0307523Y0152810D01*
X0308793D02*
X0309047Y0153064D01*
X0309555D01*
X0309809Y0152810D01*
Y0152556D01*
X0309555Y0152302D01*
X0309301D01*
X0309555D01*
X0309809Y0152048D01*
Y0151794D01*
X0309555Y0151540D01*
X0309047D01*
X0308793Y0151794D01*
X0315885Y0208396D02*
X0315086D01*
Y0208796D01*
X0315219Y0208929D01*
X0315486D01*
X0315619Y0208796D01*
Y0208396D01*
Y0208662D02*
X0315885Y0208929D01*
Y0209196D02*
Y0209462D01*
Y0209329D01*
X0315086D01*
X0315219Y0209196D01*
Y0209862D02*
X0315086Y0209995D01*
Y0210262D01*
X0315219Y0210395D01*
X0315352D01*
X0315486Y0210262D01*
Y0210129D01*
Y0210262D01*
X0315619Y0210395D01*
X0315752D01*
X0315885Y0210262D01*
Y0209995D01*
X0315752Y0209862D01*
X0314250Y0144540D02*
Y0146064D01*
X0315012D01*
X0315266Y0145810D01*
Y0145302D01*
X0315012Y0145048D01*
X0314250D01*
X0314758D02*
X0315266Y0144540D01*
X0315773D02*
X0316281D01*
X0316027D01*
Y0146064D01*
X0315773Y0145810D01*
X0318059Y0144540D02*
X0317043D01*
X0318059Y0145556D01*
Y0145810D01*
X0317805Y0146064D01*
X0317297D01*
X0317043Y0145810D01*
X0319750Y0206540D02*
Y0208064D01*
X0320512D01*
X0320766Y0207810D01*
Y0207302D01*
X0320512Y0207048D01*
X0319750D01*
X0320258D02*
X0320766Y0206540D01*
X0321273D02*
X0321781D01*
X0321527D01*
Y0208064D01*
X0321273Y0207810D01*
X0323559Y0206540D02*
X0322543D01*
X0323559Y0207556D01*
Y0207810D01*
X0323305Y0208064D01*
X0322797D01*
X0322543Y0207810D01*
X0325500Y0149790D02*
X0323977D01*
Y0150552D01*
X0324230Y0150806D01*
X0324738D01*
X0324992Y0150552D01*
Y0149790D01*
Y0150298D02*
X0325500Y0150806D01*
Y0151314D02*
Y0151821D01*
Y0151567D01*
X0323977D01*
X0324230Y0151314D01*
X0325500Y0152583D02*
Y0153091D01*
Y0152837D01*
X0323977D01*
X0324230Y0152583D01*
X0321750Y0212540D02*
X0320950D01*
Y0212940D01*
X0321084Y0213073D01*
X0321350D01*
X0321483Y0212940D01*
Y0212540D01*
Y0212807D02*
X0321750Y0213073D01*
Y0213340D02*
Y0213606D01*
Y0213473D01*
X0320950D01*
X0321084Y0213340D01*
X0321750Y0214006D02*
Y0214273D01*
Y0214139D01*
X0320950D01*
X0321084Y0214006D01*
X0326750Y0153540D02*
X0325227D01*
Y0154302D01*
X0325480Y0154556D01*
X0325988D01*
X0326242Y0154302D01*
Y0153540D01*
Y0154048D02*
X0326750Y0154556D01*
Y0155064D02*
Y0155571D01*
Y0155317D01*
X0325227D01*
X0325480Y0155064D01*
Y0156333D02*
X0325227Y0156587D01*
Y0157095D01*
X0325480Y0157349D01*
X0326496D01*
X0326750Y0157095D01*
Y0156587D01*
X0326496Y0156333D01*
X0325480D01*
X0295700Y0200540D02*
Y0202064D01*
X0296462D01*
X0296716Y0201810D01*
Y0201302D01*
X0296462Y0201048D01*
X0295700D01*
X0296208D02*
X0296716Y0200540D01*
X0297224Y0200794D02*
X0297477Y0200540D01*
X0297985D01*
X0298239Y0200794D01*
Y0201810D01*
X0297985Y0202064D01*
X0297477D01*
X0297224Y0201810D01*
Y0201556D01*
X0297477Y0201302D01*
X0298239D01*
X0307000Y0225790D02*
X0305477D01*
Y0226552D01*
X0305730Y0226806D01*
X0306238D01*
X0306492Y0226552D01*
Y0225790D01*
Y0226298D02*
X0307000Y0226806D01*
X0305477Y0227314D02*
Y0228329D01*
X0305730D01*
X0306746Y0227314D01*
X0307000D01*
X0285000Y0223340D02*
Y0224864D01*
X0285762D01*
X0286016Y0224610D01*
Y0224102D01*
X0285762Y0223848D01*
X0285000D01*
X0285508D02*
X0286016Y0223340D01*
X0287539Y0224864D02*
X0287031Y0224610D01*
X0286523Y0224102D01*
Y0223594D01*
X0286777Y0223340D01*
X0287285D01*
X0287539Y0223594D01*
Y0223848D01*
X0287285Y0224102D01*
X0286523D01*
X0309000Y0224290D02*
X0307477D01*
Y0225052D01*
X0307730Y0225306D01*
X0308238D01*
X0308492Y0225052D01*
Y0224290D01*
Y0224798D02*
X0309000Y0225306D01*
X0307477Y0226829D02*
Y0225814D01*
X0308238D01*
X0307984Y0226321D01*
Y0226575D01*
X0308238Y0226829D01*
X0308746D01*
X0309000Y0226575D01*
Y0226067D01*
X0308746Y0225814D01*
X0286380Y0219796D02*
Y0220796D01*
X0286880D01*
X0287047Y0220629D01*
Y0220296D01*
X0286880Y0220129D01*
X0286380D01*
X0286714D02*
X0287047Y0219796D01*
X0287880D02*
Y0220796D01*
X0287380Y0220296D01*
X0288047D01*
X0298500Y0224540D02*
X0296977D01*
Y0225302D01*
X0297230Y0225556D01*
X0297738D01*
X0297992Y0225302D01*
Y0224540D01*
Y0225048D02*
X0298500Y0225556D01*
X0297230Y0226064D02*
X0296977Y0226317D01*
Y0226825D01*
X0297230Y0227079D01*
X0297484D01*
X0297738Y0226825D01*
Y0226571D01*
Y0226825D01*
X0297992Y0227079D01*
X0298246D01*
X0298500Y0226825D01*
Y0226317D01*
X0298246Y0226064D01*
X0285000Y0208540D02*
Y0210064D01*
X0285762D01*
X0286016Y0209810D01*
Y0209302D01*
X0285762Y0209048D01*
X0285000D01*
X0285508D02*
X0286016Y0208540D01*
X0287539D02*
X0286523D01*
X0287539Y0209556D01*
Y0209810D01*
X0287285Y0210064D01*
X0286777D01*
X0286523Y0209810D01*
X0296000Y0213790D02*
Y0215314D01*
X0296762D01*
X0297016Y0215060D01*
Y0214552D01*
X0296762Y0214298D01*
X0296000D01*
X0296508D02*
X0297016Y0213790D01*
X0297523D02*
X0298031D01*
X0297777D01*
Y0215314D01*
X0297523Y0215060D01*
X0205500Y0188290D02*
Y0189814D01*
X0206262D01*
X0206516Y0189560D01*
Y0189052D01*
X0206262Y0188798D01*
X0205500D01*
X0207024Y0188290D02*
X0207531D01*
X0207277D01*
Y0189814D01*
X0207024Y0189560D01*
X0209309Y0189814D02*
X0208293D01*
Y0189052D01*
X0208801Y0189306D01*
X0209055D01*
X0209309Y0189052D01*
Y0188544D01*
X0209055Y0188290D01*
X0208547D01*
X0208293Y0188544D01*
X0205500Y0199790D02*
Y0201314D01*
X0206262D01*
X0206516Y0201060D01*
Y0200552D01*
X0206262Y0200298D01*
X0205500D01*
X0207024Y0199790D02*
X0207531D01*
X0207277D01*
Y0201314D01*
X0207024Y0201060D01*
X0209055Y0199790D02*
Y0201314D01*
X0208293Y0200552D01*
X0209309D01*
X0228500Y0193540D02*
Y0195064D01*
X0229262D01*
X0229516Y0194810D01*
Y0194302D01*
X0229262Y0194048D01*
X0228500D01*
X0230024Y0193540D02*
X0230531D01*
X0230277D01*
Y0195064D01*
X0230024Y0194810D01*
X0231293D02*
X0231547Y0195064D01*
X0232055D01*
X0232309Y0194810D01*
Y0194556D01*
X0232055Y0194302D01*
X0231801D01*
X0232055D01*
X0232309Y0194048D01*
Y0193794D01*
X0232055Y0193540D01*
X0231547D01*
X0231293Y0193794D01*
X0205250Y0226540D02*
Y0228064D01*
X0206012D01*
X0206266Y0227810D01*
Y0227302D01*
X0206012Y0227048D01*
X0205250D01*
X0206774Y0226540D02*
X0207281D01*
X0207027D01*
Y0228064D01*
X0206774Y0227810D01*
X0209059Y0226540D02*
X0208043D01*
X0209059Y0227556D01*
Y0227810D01*
X0208805Y0228064D01*
X0208297D01*
X0208043Y0227810D01*
X0205500Y0211290D02*
Y0212814D01*
X0206262D01*
X0206516Y0212560D01*
Y0212052D01*
X0206262Y0211798D01*
X0205500D01*
X0207024Y0211290D02*
X0207531D01*
X0207277D01*
Y0212814D01*
X0207024Y0212560D01*
X0208293D02*
X0208547Y0212814D01*
X0209055D01*
X0209309Y0212560D01*
Y0211544D01*
X0209055Y0211290D01*
X0208547D01*
X0208293Y0211544D01*
Y0212560D01*
X0319750Y0159540D02*
X0318227D01*
Y0160302D01*
X0318480Y0160556D01*
X0318988D01*
X0319242Y0160302D01*
Y0159540D01*
X0318480Y0161064D02*
X0318227Y0161317D01*
Y0161825D01*
X0318480Y0162079D01*
X0318734D01*
X0318988Y0161825D01*
X0319242Y0162079D01*
X0319496D01*
X0319750Y0161825D01*
Y0161317D01*
X0319496Y0161064D01*
X0319242D01*
X0318988Y0161317D01*
X0318734Y0161064D01*
X0318480D01*
X0318988Y0161317D02*
Y0161825D01*
X0322250Y0169040D02*
X0320727D01*
Y0169802D01*
X0320980Y0170056D01*
X0321488D01*
X0321742Y0169802D01*
Y0169040D01*
X0320727Y0170564D02*
Y0171579D01*
X0320980D01*
X0321996Y0170564D01*
X0322250D01*
X0325000Y0197790D02*
X0323477D01*
Y0198552D01*
X0323730Y0198806D01*
X0324238D01*
X0324492Y0198552D01*
Y0197790D01*
X0323477Y0200329D02*
X0323730Y0199821D01*
X0324238Y0199314D01*
X0324746D01*
X0325000Y0199567D01*
Y0200075D01*
X0324746Y0200329D01*
X0324492D01*
X0324238Y0200075D01*
Y0199314D01*
X0324750Y0187540D02*
X0323227D01*
Y0188302D01*
X0323480Y0188556D01*
X0323988D01*
X0324242Y0188302D01*
Y0187540D01*
X0323227Y0190079D02*
Y0189064D01*
X0323988D01*
X0323734Y0189571D01*
Y0189825D01*
X0323988Y0190079D01*
X0324496D01*
X0324750Y0189825D01*
Y0189317D01*
X0324496Y0189064D01*
X0324750Y0178290D02*
X0323227D01*
Y0179052D01*
X0323480Y0179306D01*
X0323988D01*
X0324242Y0179052D01*
Y0178290D01*
X0324750Y0180575D02*
X0323227D01*
X0323988Y0179814D01*
Y0180829D01*
X0263500Y0203790D02*
Y0205314D01*
X0264262D01*
X0264516Y0205060D01*
Y0204552D01*
X0264262Y0204298D01*
X0263500D01*
X0265023Y0205060D02*
X0265277Y0205314D01*
X0265785D01*
X0266039Y0205060D01*
Y0204806D01*
X0265785Y0204552D01*
X0265531D01*
X0265785D01*
X0266039Y0204298D01*
Y0204044D01*
X0265785Y0203790D01*
X0265277D01*
X0265023Y0204044D01*
X0294810Y0194540D02*
X0293286D01*
Y0195302D01*
X0293540Y0195556D01*
X0294048D01*
X0294302Y0195302D01*
Y0194540D01*
X0294810Y0196064D02*
Y0196571D01*
Y0196317D01*
X0293286D01*
X0293540Y0196064D01*
X0208976Y0141540D02*
X0210500D01*
Y0142556D01*
X0208976Y0144079D02*
Y0143064D01*
X0210500D01*
Y0144079D01*
X0209738Y0143064D02*
Y0143571D01*
X0208976Y0144587D02*
X0210500D01*
Y0145349D01*
X0210246Y0145603D01*
X0209230D01*
X0208976Y0145349D01*
Y0144587D01*
X0210246Y0146111D02*
X0210500Y0146364D01*
Y0146872D01*
X0210246Y0147126D01*
X0209230D01*
X0208976Y0146872D01*
Y0146364D01*
X0209230Y0146111D01*
X0209484D01*
X0209738Y0146364D01*
Y0147126D01*
X0295727Y0150290D02*
X0297250D01*
Y0151306D01*
X0295727Y0152829D02*
Y0151814D01*
X0297250D01*
Y0152829D01*
X0296488Y0151814D02*
Y0152321D01*
X0295727Y0153337D02*
X0297250D01*
Y0154099D01*
X0296996Y0154353D01*
X0295980D01*
X0295727Y0154099D01*
Y0153337D01*
X0295980Y0154861D02*
X0295727Y0155114D01*
Y0155622D01*
X0295980Y0155876D01*
X0296234D01*
X0296488Y0155622D01*
X0296742Y0155876D01*
X0296996D01*
X0297250Y0155622D01*
Y0155114D01*
X0296996Y0154861D01*
X0296742D01*
X0296488Y0155114D01*
X0296234Y0154861D01*
X0295980D01*
X0296488Y0155114D02*
Y0155622D01*
X0284500Y0163818D02*
Y0162295D01*
X0285516D01*
X0287039Y0163818D02*
X0286023D01*
Y0162295D01*
X0287039D01*
X0286023Y0163056D02*
X0286531D01*
X0287547Y0163818D02*
Y0162295D01*
X0288309D01*
X0288563Y0162549D01*
Y0163564D01*
X0288309Y0163818D01*
X0287547D01*
X0290086D02*
X0289578Y0163564D01*
X0289071Y0163056D01*
Y0162549D01*
X0289324Y0162295D01*
X0289832D01*
X0290086Y0162549D01*
Y0162803D01*
X0289832Y0163056D01*
X0289071D01*
X0298250Y0169564D02*
Y0168040D01*
X0299266D01*
X0300789Y0169564D02*
X0299773D01*
Y0168040D01*
X0300789D01*
X0299773Y0168802D02*
X0300281D01*
X0301297Y0169564D02*
Y0168040D01*
X0302059D01*
X0302313Y0168294D01*
Y0169310D01*
X0302059Y0169564D01*
X0301297D01*
X0303836D02*
X0302821D01*
Y0168802D01*
X0303328Y0169056D01*
X0303582D01*
X0303836Y0168802D01*
Y0168294D01*
X0303582Y0168040D01*
X0303074D01*
X0302821Y0168294D01*
X0298250Y0172814D02*
Y0171290D01*
X0299266D01*
X0300789Y0172814D02*
X0299773D01*
Y0171290D01*
X0300789D01*
X0299773Y0172052D02*
X0300281D01*
X0301297Y0172814D02*
Y0171290D01*
X0302059D01*
X0302313Y0171544D01*
Y0172560D01*
X0302059Y0172814D01*
X0301297D01*
X0303582Y0171290D02*
Y0172814D01*
X0302821Y0172052D01*
X0303836D01*
X0298250Y0175314D02*
Y0173790D01*
X0299266D01*
X0300789Y0175314D02*
X0299773D01*
Y0173790D01*
X0300789D01*
X0299773Y0174552D02*
X0300281D01*
X0301297Y0175314D02*
Y0173790D01*
X0302059D01*
X0302313Y0174044D01*
Y0175060D01*
X0302059Y0175314D01*
X0301297D01*
X0302821Y0175060D02*
X0303074Y0175314D01*
X0303582D01*
X0303836Y0175060D01*
Y0174806D01*
X0303582Y0174552D01*
X0303328D01*
X0303582D01*
X0303836Y0174298D01*
Y0174044D01*
X0303582Y0173790D01*
X0303074D01*
X0302821Y0174044D01*
X0298250Y0167064D02*
Y0165540D01*
X0299266D01*
X0300789Y0167064D02*
X0299773D01*
Y0165540D01*
X0300789D01*
X0299773Y0166302D02*
X0300281D01*
X0301297Y0167064D02*
Y0165540D01*
X0302059D01*
X0302313Y0165794D01*
Y0166810D01*
X0302059Y0167064D01*
X0301297D01*
X0303836Y0165540D02*
X0302821D01*
X0303836Y0166556D01*
Y0166810D01*
X0303582Y0167064D01*
X0303074D01*
X0302821Y0166810D01*
X0293000Y0204564D02*
Y0203040D01*
X0294016D01*
X0295539Y0204564D02*
X0294523D01*
Y0203040D01*
X0295539D01*
X0294523Y0203802D02*
X0295031D01*
X0296047Y0204564D02*
Y0203040D01*
X0296809D01*
X0297063Y0203294D01*
Y0204310D01*
X0296809Y0204564D01*
X0296047D01*
X0297571Y0203040D02*
X0298078D01*
X0297824D01*
Y0204564D01*
X0297571Y0204310D01*
X0293243Y0164084D02*
Y0162560D01*
X0294259D01*
X0295782Y0164084D02*
X0294767D01*
Y0163322D01*
X0295274Y0163576D01*
X0295528D01*
X0295782Y0163322D01*
Y0162814D01*
X0295528Y0162560D01*
X0295020D01*
X0294767Y0162814D01*
X0300863Y0164084D02*
Y0162560D01*
X0301879D01*
X0303148D02*
Y0164084D01*
X0302387Y0163322D01*
X0303402D01*
X0243000Y0220064D02*
Y0218540D01*
X0244016D01*
X0244524Y0219810D02*
X0244777Y0220064D01*
X0245285D01*
X0245539Y0219810D01*
Y0219556D01*
X0245285Y0219302D01*
X0245031D01*
X0245285D01*
X0245539Y0219048D01*
Y0218794D01*
X0245285Y0218540D01*
X0244777D01*
X0244524Y0218794D01*
X0212725Y0179908D02*
Y0178384D01*
X0213741D01*
X0215264D02*
X0214249D01*
X0215264Y0179400D01*
Y0179654D01*
X0215010Y0179908D01*
X0214502D01*
X0214249Y0179654D01*
X0240000Y0212564D02*
Y0211040D01*
X0241016D01*
X0241524D02*
X0242031D01*
X0241777D01*
Y0212564D01*
X0241524Y0212310D01*
X0257516Y0226560D02*
X0257262Y0226814D01*
X0256754D01*
X0256500Y0226560D01*
Y0225544D01*
X0256754Y0225290D01*
X0257262D01*
X0257516Y0225544D01*
X0258785Y0226814D02*
X0258277D01*
X0258023Y0226560D01*
Y0225544D01*
X0258277Y0225290D01*
X0258785D01*
X0259039Y0225544D01*
Y0226560D01*
X0258785Y0226814D01*
X0259547Y0225290D02*
Y0226814D01*
X0260563Y0225290D01*
Y0226814D01*
X0261071Y0226560D02*
X0261324Y0226814D01*
X0261832D01*
X0262086Y0226560D01*
Y0226306D01*
X0261832Y0226052D01*
X0262086Y0225798D01*
Y0225544D01*
X0261832Y0225290D01*
X0261324D01*
X0261071Y0225544D01*
Y0225798D01*
X0261324Y0226052D01*
X0261071Y0226306D01*
Y0226560D01*
X0261324Y0226052D02*
X0261832D01*
X0237016Y0219560D02*
X0236762Y0219814D01*
X0236254D01*
X0236000Y0219560D01*
Y0218544D01*
X0236254Y0218290D01*
X0236762D01*
X0237016Y0218544D01*
X0238285Y0219814D02*
X0237777D01*
X0237524Y0219560D01*
Y0218544D01*
X0237777Y0218290D01*
X0238285D01*
X0238539Y0218544D01*
Y0219560D01*
X0238285Y0219814D01*
X0239047Y0218290D02*
Y0219814D01*
X0240063Y0218290D01*
Y0219814D01*
X0241332Y0218290D02*
Y0219814D01*
X0240571Y0219052D01*
X0241586D01*
X0329016Y0159060D02*
X0328762Y0159314D01*
X0328254D01*
X0328000Y0159060D01*
Y0158044D01*
X0328254Y0157790D01*
X0328762D01*
X0329016Y0158044D01*
X0330285Y0159314D02*
X0329777D01*
X0329523Y0159060D01*
Y0158044D01*
X0329777Y0157790D01*
X0330285D01*
X0330539Y0158044D01*
Y0159060D01*
X0330285Y0159314D01*
X0331047Y0157790D02*
Y0159314D01*
X0332063Y0157790D01*
Y0159314D01*
X0333586Y0157790D02*
X0332571D01*
X0333586Y0158806D01*
Y0159060D01*
X0333332Y0159314D01*
X0332824D01*
X0332571Y0159060D01*
X0313076Y0227563D02*
X0312822Y0227816D01*
X0312314D01*
X0312060Y0227563D01*
Y0226547D01*
X0312314Y0226293D01*
X0312822D01*
X0313076Y0226547D01*
X0314346Y0227816D02*
X0313838D01*
X0313584Y0227563D01*
Y0226547D01*
X0313838Y0226293D01*
X0314346D01*
X0314600Y0226547D01*
Y0227563D01*
X0314346Y0227816D01*
X0315107Y0226293D02*
Y0227816D01*
X0316123Y0226293D01*
Y0227816D01*
X0317647Y0226293D02*
X0316631D01*
X0317647Y0227309D01*
Y0227563D01*
X0317393Y0227816D01*
X0316885D01*
X0316631Y0227563D01*
X0270516Y0226310D02*
X0270262Y0226564D01*
X0269754D01*
X0269500Y0226310D01*
Y0225294D01*
X0269754Y0225040D01*
X0270262D01*
X0270516Y0225294D01*
X0272039Y0226564D02*
X0271531Y0226310D01*
X0271023Y0225802D01*
Y0225294D01*
X0271277Y0225040D01*
X0271785D01*
X0272039Y0225294D01*
Y0225548D01*
X0271785Y0225802D01*
X0271023D01*
X0272547Y0225040D02*
X0273055D01*
X0272801D01*
Y0226564D01*
X0272547Y0226310D01*
X0274516Y0225310D02*
X0274262Y0225564D01*
X0273754D01*
X0273500Y0225310D01*
Y0224294D01*
X0273754Y0224040D01*
X0274262D01*
X0274516Y0224294D01*
X0276039Y0225564D02*
X0275531Y0225310D01*
X0275023Y0224802D01*
Y0224294D01*
X0275277Y0224040D01*
X0275785D01*
X0276039Y0224294D01*
Y0224548D01*
X0275785Y0224802D01*
X0275023D01*
X0276547Y0225310D02*
X0276801Y0225564D01*
X0277309D01*
X0277563Y0225310D01*
Y0224294D01*
X0277309Y0224040D01*
X0276801D01*
X0276547Y0224294D01*
Y0225310D01*
X0265016Y0223310D02*
X0264762Y0223564D01*
X0264254D01*
X0264000Y0223310D01*
Y0222294D01*
X0264254Y0222040D01*
X0264762D01*
X0265016Y0222294D01*
X0266539Y0223564D02*
X0265523D01*
Y0222802D01*
X0266031Y0223056D01*
X0266285D01*
X0266539Y0222802D01*
Y0222294D01*
X0266285Y0222040D01*
X0265777D01*
X0265523Y0222294D01*
X0267047D02*
X0267301Y0222040D01*
X0267809D01*
X0268063Y0222294D01*
Y0223310D01*
X0267809Y0223564D01*
X0267301D01*
X0267047Y0223310D01*
Y0223056D01*
X0267301Y0222802D01*
X0268063D01*
X0273016Y0215560D02*
X0272762Y0215814D01*
X0272254D01*
X0272000Y0215560D01*
Y0214544D01*
X0272254Y0214290D01*
X0272762D01*
X0273016Y0214544D01*
X0274539Y0215814D02*
X0273523D01*
Y0215052D01*
X0274031Y0215306D01*
X0274285D01*
X0274539Y0215052D01*
Y0214544D01*
X0274285Y0214290D01*
X0273777D01*
X0273523Y0214544D01*
X0275047Y0215560D02*
X0275301Y0215814D01*
X0275809D01*
X0276063Y0215560D01*
Y0215306D01*
X0275809Y0215052D01*
X0276063Y0214798D01*
Y0214544D01*
X0275809Y0214290D01*
X0275301D01*
X0275047Y0214544D01*
Y0214798D01*
X0275301Y0215052D01*
X0275047Y0215306D01*
Y0215560D01*
X0275301Y0215052D02*
X0275809D01*
X0273016Y0212310D02*
X0272762Y0212564D01*
X0272254D01*
X0272000Y0212310D01*
Y0211294D01*
X0272254Y0211040D01*
X0272762D01*
X0273016Y0211294D01*
X0274539Y0212564D02*
X0273523D01*
Y0211802D01*
X0274031Y0212056D01*
X0274285D01*
X0274539Y0211802D01*
Y0211294D01*
X0274285Y0211040D01*
X0273777D01*
X0273523Y0211294D01*
X0275047Y0212564D02*
X0276063D01*
Y0212310D01*
X0275047Y0211294D01*
Y0211040D01*
X0255516Y0173310D02*
X0255262Y0173564D01*
X0254754D01*
X0254500Y0173310D01*
Y0172294D01*
X0254754Y0172040D01*
X0255262D01*
X0255516Y0172294D01*
X0257039Y0173564D02*
X0256023D01*
Y0172802D01*
X0256531Y0173056D01*
X0256785D01*
X0257039Y0172802D01*
Y0172294D01*
X0256785Y0172040D01*
X0256277D01*
X0256023Y0172294D01*
X0258563Y0173564D02*
X0258055Y0173310D01*
X0257547Y0172802D01*
Y0172294D01*
X0257801Y0172040D01*
X0258309D01*
X0258563Y0172294D01*
Y0172548D01*
X0258309Y0172802D01*
X0257547D01*
X0274980Y0189806D02*
X0274727Y0189552D01*
Y0189044D01*
X0274980Y0188790D01*
X0275996D01*
X0276250Y0189044D01*
Y0189552D01*
X0275996Y0189806D01*
X0274727Y0191329D02*
Y0190314D01*
X0275488D01*
X0275234Y0190821D01*
Y0191075D01*
X0275488Y0191329D01*
X0275996D01*
X0276250Y0191075D01*
Y0190567D01*
X0275996Y0190314D01*
X0274980Y0191837D02*
X0274727Y0192091D01*
Y0192599D01*
X0274980Y0192853D01*
X0275996D01*
X0276250Y0192599D01*
Y0192091D01*
X0275996Y0191837D01*
X0274980D01*
X0286740Y0199593D02*
X0286486Y0199847D01*
X0285979D01*
X0285725Y0199593D01*
Y0198577D01*
X0285979Y0198323D01*
X0286486D01*
X0286740Y0198577D01*
X0288010Y0198323D02*
Y0199847D01*
X0287248Y0199085D01*
X0288264D01*
X0288772Y0198577D02*
X0289026Y0198323D01*
X0289533D01*
X0289787Y0198577D01*
Y0199593D01*
X0289533Y0199847D01*
X0289026D01*
X0288772Y0199593D01*
Y0199339D01*
X0289026Y0199085D01*
X0289787D01*
X0300266Y0191310D02*
X0300012Y0191564D01*
X0299504D01*
X0299250Y0191310D01*
Y0190294D01*
X0299504Y0190040D01*
X0300012D01*
X0300266Y0190294D01*
X0301535Y0190040D02*
Y0191564D01*
X0300773Y0190802D01*
X0301789D01*
X0302297Y0191310D02*
X0302551Y0191564D01*
X0303059D01*
X0303313Y0191310D01*
Y0191056D01*
X0303059Y0190802D01*
X0303313Y0190548D01*
Y0190294D01*
X0303059Y0190040D01*
X0302551D01*
X0302297Y0190294D01*
Y0190548D01*
X0302551Y0190802D01*
X0302297Y0191056D01*
Y0191310D01*
X0302551Y0190802D02*
X0303059D01*
X0300016Y0186310D02*
X0299762Y0186564D01*
X0299254D01*
X0299000Y0186310D01*
Y0185294D01*
X0299254Y0185040D01*
X0299762D01*
X0300016Y0185294D01*
X0301285Y0185040D02*
Y0186564D01*
X0300523Y0185802D01*
X0301539D01*
X0302047Y0186564D02*
X0303063D01*
Y0186310D01*
X0302047Y0185294D01*
Y0185040D01*
X0295878Y0184198D02*
X0295711Y0184365D01*
X0295378D01*
X0295211Y0184198D01*
Y0183532D01*
X0295378Y0183365D01*
X0295711D01*
X0295878Y0183532D01*
X0296711Y0183365D02*
Y0184365D01*
X0296211Y0183865D01*
X0296878D01*
X0297877Y0184365D02*
X0297544Y0184198D01*
X0297211Y0183865D01*
Y0183532D01*
X0297377Y0183365D01*
X0297711D01*
X0297877Y0183532D01*
Y0183698D01*
X0297711Y0183865D01*
X0297211D01*
X0281480Y0173056D02*
X0281227Y0172802D01*
Y0172294D01*
X0281480Y0172040D01*
X0282496D01*
X0282750Y0172294D01*
Y0172802D01*
X0282496Y0173056D01*
X0282750Y0174325D02*
X0281227D01*
X0281988Y0173564D01*
Y0174579D01*
X0282750Y0175849D02*
X0281227D01*
X0281988Y0175087D01*
Y0176103D01*
X0279266Y0169560D02*
X0279012Y0169814D01*
X0278504D01*
X0278250Y0169560D01*
Y0168544D01*
X0278504Y0168290D01*
X0279012D01*
X0279266Y0168544D01*
X0280535Y0168290D02*
Y0169814D01*
X0279773Y0169052D01*
X0280789D01*
X0281297Y0169560D02*
X0281551Y0169814D01*
X0282059D01*
X0282313Y0169560D01*
Y0169306D01*
X0282059Y0169052D01*
X0281805D01*
X0282059D01*
X0282313Y0168798D01*
Y0168544D01*
X0282059Y0168290D01*
X0281551D01*
X0281297Y0168544D01*
X0271480Y0179306D02*
X0271227Y0179052D01*
Y0178544D01*
X0271480Y0178290D01*
X0272496D01*
X0272750Y0178544D01*
Y0179052D01*
X0272496Y0179306D01*
X0272750Y0180575D02*
X0271227D01*
X0271988Y0179814D01*
Y0180829D01*
X0272750Y0182353D02*
Y0181337D01*
X0271734Y0182353D01*
X0271480D01*
X0271227Y0182099D01*
Y0181591D01*
X0271480Y0181337D01*
X0321770Y0187274D02*
X0322023Y0187528D01*
Y0188036D01*
X0321770Y0188290D01*
X0320754D01*
X0320500Y0188036D01*
Y0187528D01*
X0320754Y0187274D01*
X0321770Y0186766D02*
X0322023Y0186513D01*
Y0186005D01*
X0321770Y0185751D01*
X0321516D01*
X0321262Y0186005D01*
Y0186259D01*
Y0186005D01*
X0321008Y0185751D01*
X0320754D01*
X0320500Y0186005D01*
Y0186513D01*
X0320754Y0186766D01*
Y0185243D02*
X0320500Y0184989D01*
Y0184481D01*
X0320754Y0184227D01*
X0321770D01*
X0322023Y0184481D01*
Y0184989D01*
X0321770Y0185243D01*
X0321516D01*
X0321262Y0184989D01*
Y0184227D01*
X0271980Y0190056D02*
X0271727Y0189802D01*
Y0189294D01*
X0271980Y0189040D01*
X0272996D01*
X0273250Y0189294D01*
Y0189802D01*
X0272996Y0190056D01*
X0271980Y0190564D02*
X0271727Y0190817D01*
Y0191325D01*
X0271980Y0191579D01*
X0272234D01*
X0272488Y0191325D01*
Y0191071D01*
Y0191325D01*
X0272742Y0191579D01*
X0272996D01*
X0273250Y0191325D01*
Y0190817D01*
X0272996Y0190564D01*
X0271980Y0192087D02*
X0271727Y0192341D01*
Y0192849D01*
X0271980Y0193103D01*
X0272234D01*
X0272488Y0192849D01*
X0272742Y0193103D01*
X0272996D01*
X0273250Y0192849D01*
Y0192341D01*
X0272996Y0192087D01*
X0272742D01*
X0272488Y0192341D01*
X0272234Y0192087D01*
X0271980D01*
X0272488Y0192341D02*
Y0192849D01*
X0269730Y0190056D02*
X0269477Y0189802D01*
Y0189294D01*
X0269730Y0189040D01*
X0270746D01*
X0271000Y0189294D01*
Y0189802D01*
X0270746Y0190056D01*
X0269730Y0190564D02*
X0269477Y0190817D01*
Y0191325D01*
X0269730Y0191579D01*
X0269984D01*
X0270238Y0191325D01*
Y0191071D01*
Y0191325D01*
X0270492Y0191579D01*
X0270746D01*
X0271000Y0191325D01*
Y0190817D01*
X0270746Y0190564D01*
X0269477Y0192087D02*
Y0193103D01*
X0269730D01*
X0270746Y0192087D01*
X0271000D01*
X0253436Y0213810D02*
X0253182Y0214064D01*
X0252674D01*
X0252420Y0213810D01*
Y0212794D01*
X0252674Y0212540D01*
X0253182D01*
X0253436Y0212794D01*
X0254959Y0212540D02*
X0253943D01*
X0254959Y0213556D01*
Y0213810D01*
X0254705Y0214064D01*
X0254197D01*
X0253943Y0213810D01*
X0255467Y0212794D02*
X0255721Y0212540D01*
X0256229D01*
X0256483Y0212794D01*
Y0213810D01*
X0256229Y0214064D01*
X0255721D01*
X0255467Y0213810D01*
Y0213556D01*
X0255721Y0213302D01*
X0256483D01*
X0242266Y0205310D02*
X0242012Y0205564D01*
X0241504D01*
X0241250Y0205310D01*
Y0204294D01*
X0241504Y0204040D01*
X0242012D01*
X0242266Y0204294D01*
X0243789Y0204040D02*
X0242774D01*
X0243789Y0205056D01*
Y0205310D01*
X0243535Y0205564D01*
X0243027D01*
X0242774Y0205310D01*
X0244297D02*
X0244551Y0205564D01*
X0245059D01*
X0245313Y0205310D01*
Y0205056D01*
X0245059Y0204802D01*
X0245313Y0204548D01*
Y0204294D01*
X0245059Y0204040D01*
X0244551D01*
X0244297Y0204294D01*
Y0204548D01*
X0244551Y0204802D01*
X0244297Y0205056D01*
Y0205310D01*
X0244551Y0204802D02*
X0245059D01*
X0256266Y0202310D02*
X0256012Y0202564D01*
X0255504D01*
X0255250Y0202310D01*
Y0201294D01*
X0255504Y0201040D01*
X0256012D01*
X0256266Y0201294D01*
X0257789Y0201040D02*
X0256773D01*
X0257789Y0202056D01*
Y0202310D01*
X0257535Y0202564D01*
X0257027D01*
X0256773Y0202310D01*
X0258297Y0202564D02*
X0259313D01*
Y0202310D01*
X0258297Y0201294D01*
Y0201040D01*
X0245917Y0215456D02*
X0245750Y0215290D01*
Y0214957D01*
X0245917Y0214790D01*
X0246583D01*
X0246750Y0214957D01*
Y0215290D01*
X0246583Y0215456D01*
X0246750Y0216456D02*
Y0215790D01*
X0246084Y0216456D01*
X0245917D01*
X0245750Y0216290D01*
Y0215956D01*
X0245917Y0215790D01*
X0245750Y0217456D02*
X0245917Y0217123D01*
X0246250Y0216789D01*
X0246583D01*
X0246750Y0216956D01*
Y0217289D01*
X0246583Y0217456D01*
X0246417D01*
X0246250Y0217289D01*
Y0216789D01*
X0248230Y0214056D02*
X0247976Y0213802D01*
Y0213294D01*
X0248230Y0213040D01*
X0249246D01*
X0249500Y0213294D01*
Y0213802D01*
X0249246Y0214056D01*
X0249500Y0215579D02*
Y0214564D01*
X0248484Y0215579D01*
X0248230D01*
X0247976Y0215325D01*
Y0214817D01*
X0248230Y0214564D01*
X0247976Y0217103D02*
Y0216087D01*
X0248738D01*
X0248484Y0216595D01*
Y0216849D01*
X0248738Y0217103D01*
X0249246D01*
X0249500Y0216849D01*
Y0216341D01*
X0249246Y0216087D01*
X0253016Y0215560D02*
X0252762Y0215814D01*
X0252254D01*
X0252000Y0215560D01*
Y0214544D01*
X0252254Y0214290D01*
X0252762D01*
X0253016Y0214544D01*
X0254539Y0214290D02*
X0253524D01*
X0254539Y0215306D01*
Y0215560D01*
X0254285Y0215814D01*
X0253777D01*
X0253524Y0215560D01*
X0255809Y0214290D02*
Y0215814D01*
X0255047Y0215052D01*
X0256063D01*
X0252016Y0219060D02*
X0251762Y0219314D01*
X0251254D01*
X0251000Y0219060D01*
Y0218044D01*
X0251254Y0217790D01*
X0251762D01*
X0252016Y0218044D01*
X0253539Y0217790D02*
X0252524D01*
X0253539Y0218806D01*
Y0219060D01*
X0253285Y0219314D01*
X0252777D01*
X0252524Y0219060D01*
X0254047D02*
X0254301Y0219314D01*
X0254809D01*
X0255063Y0219060D01*
Y0218806D01*
X0254809Y0218552D01*
X0254555D01*
X0254809D01*
X0255063Y0218298D01*
Y0218044D01*
X0254809Y0217790D01*
X0254301D01*
X0254047Y0218044D01*
X0318610Y0140180D02*
X0318776Y0140014D01*
X0319109D01*
X0319276Y0140180D01*
Y0140847D01*
X0319109Y0141013D01*
X0318776D01*
X0318610Y0140847D01*
X0317610Y0141013D02*
X0318276D01*
X0317610Y0140347D01*
Y0140180D01*
X0317777Y0140014D01*
X0318110D01*
X0318276Y0140180D01*
X0316610Y0141013D02*
X0317277D01*
X0316610Y0140347D01*
Y0140180D01*
X0316777Y0140014D01*
X0317110D01*
X0317277Y0140180D01*
X0324334Y0201323D02*
X0324200Y0201190D01*
Y0200923D01*
X0324334Y0200790D01*
X0324867D01*
X0325000Y0200923D01*
Y0201190D01*
X0324867Y0201323D01*
X0325000Y0202123D02*
Y0201590D01*
X0324467Y0202123D01*
X0324334D01*
X0324200Y0201990D01*
Y0201723D01*
X0324334Y0201590D01*
X0325000Y0202923D02*
Y0202389D01*
X0324467Y0202923D01*
X0324334D01*
X0324200Y0202789D01*
Y0202523D01*
X0324334Y0202389D01*
X0322222Y0140231D02*
X0322389Y0140064D01*
X0322722D01*
X0322889Y0140231D01*
Y0140898D01*
X0322722Y0141064D01*
X0322389D01*
X0322222Y0140898D01*
X0321223Y0141064D02*
X0321889D01*
X0321223Y0140398D01*
Y0140231D01*
X0321389Y0140064D01*
X0321723D01*
X0321889Y0140231D01*
X0320889Y0141064D02*
X0320556D01*
X0320723D01*
Y0140064D01*
X0320889Y0140231D01*
X0328766Y0206560D02*
X0328512Y0206814D01*
X0328004D01*
X0327750Y0206560D01*
Y0205544D01*
X0328004Y0205290D01*
X0328512D01*
X0328766Y0205544D01*
X0330289Y0205290D02*
X0329273D01*
X0330289Y0206306D01*
Y0206560D01*
X0330035Y0206814D01*
X0329527D01*
X0329273Y0206560D01*
X0330797Y0205290D02*
X0331305D01*
X0331051D01*
Y0206814D01*
X0330797Y0206560D01*
X0312730Y0159806D02*
X0312477Y0159552D01*
Y0159044D01*
X0312730Y0158790D01*
X0313746D01*
X0314000Y0159044D01*
Y0159552D01*
X0313746Y0159806D01*
X0314000Y0161329D02*
Y0160314D01*
X0312984Y0161329D01*
X0312730D01*
X0312477Y0161075D01*
Y0160567D01*
X0312730Y0160314D01*
Y0161837D02*
X0312477Y0162091D01*
Y0162599D01*
X0312730Y0162853D01*
X0313746D01*
X0314000Y0162599D01*
Y0162091D01*
X0313746Y0161837D01*
X0312730D01*
X0320873Y0219934D02*
X0320619Y0220188D01*
X0320111D01*
X0319857Y0219934D01*
Y0218919D01*
X0320111Y0218665D01*
X0320619D01*
X0320873Y0218919D01*
X0322397Y0218665D02*
X0321381D01*
X0322397Y0219680D01*
Y0219934D01*
X0322143Y0220188D01*
X0321635D01*
X0321381Y0219934D01*
X0322904D02*
X0323158Y0220188D01*
X0323666D01*
X0323920Y0219934D01*
Y0218919D01*
X0323666Y0218665D01*
X0323158D01*
X0322904Y0218919D01*
Y0219934D01*
X0310730Y0159806D02*
X0310477Y0159552D01*
Y0159044D01*
X0310730Y0158790D01*
X0311746D01*
X0312000Y0159044D01*
Y0159552D01*
X0311746Y0159806D01*
X0312000Y0160314D02*
Y0160821D01*
Y0160567D01*
X0310477D01*
X0310730Y0160314D01*
X0311746Y0161583D02*
X0312000Y0161837D01*
Y0162345D01*
X0311746Y0162599D01*
X0310730D01*
X0310477Y0162345D01*
Y0161837D01*
X0310730Y0161583D01*
X0310984D01*
X0311238Y0161837D01*
Y0162599D01*
X0316230Y0223306D02*
X0315977Y0223052D01*
Y0222544D01*
X0316230Y0222290D01*
X0317246D01*
X0317500Y0222544D01*
Y0223052D01*
X0317246Y0223306D01*
X0317500Y0223814D02*
Y0224321D01*
Y0224067D01*
X0315977D01*
X0316230Y0223814D01*
X0317246Y0225083D02*
X0317500Y0225337D01*
Y0225845D01*
X0317246Y0226099D01*
X0316230D01*
X0315977Y0225845D01*
Y0225337D01*
X0316230Y0225083D01*
X0316484D01*
X0316738Y0225337D01*
Y0226099D01*
X0324016Y0159060D02*
X0323762Y0159314D01*
X0323254D01*
X0323000Y0159060D01*
Y0158044D01*
X0323254Y0157790D01*
X0323762D01*
X0324016Y0158044D01*
X0324523Y0157790D02*
X0325031D01*
X0324777D01*
Y0159314D01*
X0324523Y0159060D01*
X0325793D02*
X0326047Y0159314D01*
X0326555D01*
X0326809Y0159060D01*
Y0158806D01*
X0326555Y0158552D01*
X0326809Y0158298D01*
Y0158044D01*
X0326555Y0157790D01*
X0326047D01*
X0325793Y0158044D01*
Y0158298D01*
X0326047Y0158552D01*
X0325793Y0158806D01*
Y0159060D01*
X0326047Y0158552D02*
X0326555D01*
X0294516Y0210310D02*
X0294262Y0210564D01*
X0293754D01*
X0293500Y0210310D01*
Y0209294D01*
X0293754Y0209040D01*
X0294262D01*
X0294516Y0209294D01*
X0295023Y0209040D02*
X0295531D01*
X0295277D01*
Y0210564D01*
X0295023Y0210310D01*
X0296293Y0210564D02*
X0297309D01*
Y0210310D01*
X0296293Y0209294D01*
Y0209040D01*
X0311730Y0209806D02*
X0311477Y0209552D01*
Y0209044D01*
X0311730Y0208790D01*
X0312746D01*
X0313000Y0209044D01*
Y0209552D01*
X0312746Y0209806D01*
X0313000Y0210314D02*
Y0210821D01*
Y0210567D01*
X0311477D01*
X0311730Y0210314D01*
X0311477Y0212599D02*
X0311730Y0212091D01*
X0312238Y0211583D01*
X0312746D01*
X0313000Y0211837D01*
Y0212345D01*
X0312746Y0212599D01*
X0312492D01*
X0312238Y0212345D01*
Y0211583D01*
X0312480Y0217556D02*
X0312227Y0217302D01*
Y0216794D01*
X0312480Y0216540D01*
X0313496D01*
X0313750Y0216794D01*
Y0217302D01*
X0313496Y0217556D01*
X0313750Y0218064D02*
Y0218571D01*
Y0218317D01*
X0312227D01*
X0312480Y0218064D01*
X0312227Y0220349D02*
Y0219333D01*
X0312988D01*
X0312734Y0219841D01*
Y0220095D01*
X0312988Y0220349D01*
X0313496D01*
X0313750Y0220095D01*
Y0219587D01*
X0313496Y0219333D01*
X0310480Y0217556D02*
X0310227Y0217302D01*
Y0216794D01*
X0310480Y0216540D01*
X0311496D01*
X0311750Y0216794D01*
Y0217302D01*
X0311496Y0217556D01*
X0311750Y0218064D02*
Y0218571D01*
Y0218317D01*
X0310227D01*
X0310480Y0218064D01*
X0311750Y0220095D02*
X0310227D01*
X0310988Y0219333D01*
Y0220349D01*
X0308480Y0217556D02*
X0308227Y0217302D01*
Y0216794D01*
X0308480Y0216540D01*
X0309496D01*
X0309750Y0216794D01*
Y0217302D01*
X0309496Y0217556D01*
X0309750Y0218064D02*
Y0218571D01*
Y0218317D01*
X0308227D01*
X0308480Y0218064D01*
Y0219333D02*
X0308227Y0219587D01*
Y0220095D01*
X0308480Y0220349D01*
X0308734D01*
X0308988Y0220095D01*
Y0219841D01*
Y0220095D01*
X0309242Y0220349D01*
X0309496D01*
X0309750Y0220095D01*
Y0219587D01*
X0309496Y0219333D01*
X0306730Y0217556D02*
X0306477Y0217302D01*
Y0216794D01*
X0306730Y0216540D01*
X0307746D01*
X0308000Y0216794D01*
Y0217302D01*
X0307746Y0217556D01*
X0308000Y0218064D02*
Y0218571D01*
Y0218317D01*
X0306477D01*
X0306730Y0218064D01*
X0308000Y0220349D02*
Y0219333D01*
X0306984Y0220349D01*
X0306730D01*
X0306477Y0220095D01*
Y0219587D01*
X0306730Y0219333D01*
X0304480Y0217556D02*
X0304227Y0217302D01*
Y0216794D01*
X0304480Y0216540D01*
X0305496D01*
X0305750Y0216794D01*
Y0217302D01*
X0305496Y0217556D01*
X0305750Y0218064D02*
Y0218571D01*
Y0218317D01*
X0304227D01*
X0304480Y0218064D01*
X0305750Y0219333D02*
Y0219841D01*
Y0219587D01*
X0304227D01*
X0304480Y0219333D01*
X0303730Y0225556D02*
X0303477Y0225302D01*
Y0224794D01*
X0303730Y0224540D01*
X0304746D01*
X0305000Y0224794D01*
Y0225302D01*
X0304746Y0225556D01*
X0305000Y0226064D02*
Y0226571D01*
Y0226317D01*
X0303477D01*
X0303730Y0226064D01*
Y0227333D02*
X0303477Y0227587D01*
Y0228095D01*
X0303730Y0228349D01*
X0304746D01*
X0305000Y0228095D01*
Y0227587D01*
X0304746Y0227333D01*
X0303730D01*
X0301730Y0226556D02*
X0301477Y0226302D01*
Y0225794D01*
X0301730Y0225540D01*
X0302746D01*
X0303000Y0225794D01*
Y0226302D01*
X0302746Y0226556D01*
Y0227064D02*
X0303000Y0227317D01*
Y0227825D01*
X0302746Y0228079D01*
X0301730D01*
X0301477Y0227825D01*
Y0227317D01*
X0301730Y0227064D01*
X0301984D01*
X0302238Y0227317D01*
Y0228079D01*
X0300680Y0217606D02*
X0300427Y0217352D01*
Y0216844D01*
X0300680Y0216590D01*
X0301696D01*
X0301950Y0216844D01*
Y0217352D01*
X0301696Y0217606D01*
X0300680Y0218114D02*
X0300427Y0218367D01*
Y0218875D01*
X0300680Y0219129D01*
X0300934D01*
X0301188Y0218875D01*
X0301442Y0219129D01*
X0301696D01*
X0301950Y0218875D01*
Y0218367D01*
X0301696Y0218114D01*
X0301442D01*
X0301188Y0218367D01*
X0300934Y0218114D01*
X0300680D01*
X0301188Y0218367D02*
Y0218875D01*
X0298780Y0217606D02*
X0298526Y0217352D01*
Y0216844D01*
X0298780Y0216590D01*
X0299796D01*
X0300050Y0216844D01*
Y0217352D01*
X0299796Y0217606D01*
X0298526Y0218114D02*
Y0219129D01*
X0298780D01*
X0299796Y0218114D01*
X0300050D01*
X0286016Y0222710D02*
X0285762Y0222964D01*
X0285254D01*
X0285000Y0222710D01*
Y0221694D01*
X0285254Y0221440D01*
X0285762D01*
X0286016Y0221694D01*
X0287539Y0222964D02*
X0286523D01*
Y0222202D01*
X0287031Y0222456D01*
X0287285D01*
X0287539Y0222202D01*
Y0221694D01*
X0287285Y0221440D01*
X0286777D01*
X0286523Y0221694D01*
X0302580Y0217606D02*
X0302327Y0217352D01*
Y0216844D01*
X0302580Y0216590D01*
X0303596D01*
X0303850Y0216844D01*
Y0217352D01*
X0303596Y0217606D01*
X0303850Y0218875D02*
X0302327D01*
X0303088Y0218114D01*
Y0219129D01*
X0299730Y0225556D02*
X0299477Y0225302D01*
Y0224794D01*
X0299730Y0224540D01*
X0300746D01*
X0301000Y0224794D01*
Y0225302D01*
X0300746Y0225556D01*
X0299730Y0226064D02*
X0299477Y0226317D01*
Y0226825D01*
X0299730Y0227079D01*
X0299984D01*
X0300238Y0226825D01*
Y0226571D01*
Y0226825D01*
X0300492Y0227079D01*
X0300746D01*
X0301000Y0226825D01*
Y0226317D01*
X0300746Y0226064D01*
X0290016Y0209810D02*
X0289762Y0210064D01*
X0289254D01*
X0289000Y0209810D01*
Y0208794D01*
X0289254Y0208540D01*
X0289762D01*
X0290016Y0208794D01*
X0291539Y0208540D02*
X0290523D01*
X0291539Y0209556D01*
Y0209810D01*
X0291285Y0210064D01*
X0290777D01*
X0290523Y0209810D01*
X0292666Y0211873D02*
X0292500Y0212040D01*
X0292167D01*
X0292000Y0211873D01*
Y0211207D01*
X0292167Y0211040D01*
X0292500D01*
X0292666Y0211207D01*
X0293000Y0211040D02*
X0293333D01*
X0293166D01*
Y0212040D01*
X0293000Y0211873D01*
X0261273Y0190540D02*
X0260004D01*
X0259750Y0190286D01*
Y0189778D01*
X0260004Y0189524D01*
X0261273D01*
Y0188001D02*
Y0189016D01*
X0260512D01*
X0260766Y0188509D01*
Y0188255D01*
X0260512Y0188001D01*
X0260004D01*
X0259750Y0188255D01*
Y0188763D01*
X0260004Y0189016D01*
X0203976Y0141040D02*
X0205500D01*
Y0142056D01*
X0203976Y0143579D02*
Y0142564D01*
X0205500D01*
Y0143579D01*
X0204738Y0142564D02*
Y0143071D01*
X0203976Y0144087D02*
X0205500D01*
Y0144849D01*
X0205246Y0145103D01*
X0204230D01*
X0203976Y0144849D01*
Y0144087D01*
X0205500Y0145611D02*
Y0146118D01*
Y0145864D01*
X0203976D01*
X0204230Y0145611D01*
Y0146880D02*
X0203976Y0147134D01*
Y0147642D01*
X0204230Y0147896D01*
X0205246D01*
X0205500Y0147642D01*
Y0147134D01*
X0205246Y0146880D01*
X0204230D01*
X0205500Y0149540D02*
X0203976D01*
Y0150302D01*
X0204230Y0150556D01*
X0204738D01*
X0204992Y0150302D01*
Y0149540D01*
Y0150048D02*
X0205500Y0150556D01*
X0204230Y0151064D02*
X0203976Y0151317D01*
Y0151825D01*
X0204230Y0152079D01*
X0204484D01*
X0204738Y0151825D01*
Y0151571D01*
Y0151825D01*
X0204992Y0152079D01*
X0205246D01*
X0205500Y0151825D01*
Y0151317D01*
X0205246Y0151064D01*
X0204230Y0152587D02*
X0203976Y0152841D01*
Y0153349D01*
X0204230Y0153603D01*
X0204484D01*
X0204738Y0153349D01*
Y0153095D01*
Y0153349D01*
X0204992Y0153603D01*
X0205246D01*
X0205500Y0153349D01*
Y0152841D01*
X0205246Y0152587D01*
X0286250Y0140790D02*
Y0142314D01*
X0287012D01*
X0287266Y0142060D01*
Y0141552D01*
X0287012Y0141298D01*
X0286250D01*
X0287773Y0140790D02*
X0288281D01*
X0288027D01*
Y0142314D01*
X0287773Y0142060D01*
X0289043D02*
X0289297Y0142314D01*
X0289805D01*
X0290059Y0142060D01*
Y0141806D01*
X0289805Y0141552D01*
X0290059Y0141298D01*
Y0141044D01*
X0289805Y0140790D01*
X0289297D01*
X0289043Y0141044D01*
Y0141298D01*
X0289297Y0141552D01*
X0289043Y0141806D01*
Y0142060D01*
X0289297Y0141552D02*
X0289805D01*
X0249500Y0140790D02*
Y0142314D01*
X0250262D01*
X0250516Y0142060D01*
Y0141552D01*
X0250262Y0141298D01*
X0249500D01*
X0252039Y0140790D02*
X0251024D01*
X0252039Y0141806D01*
Y0142060D01*
X0251785Y0142314D01*
X0251277D01*
X0251024Y0142060D01*
X0252547D02*
X0252801Y0142314D01*
X0253309D01*
X0253563Y0142060D01*
Y0141044D01*
X0253309Y0140790D01*
X0252801D01*
X0252547Y0141044D01*
Y0142060D01*
X0240516Y0198060D02*
X0240262Y0198314D01*
X0239754D01*
X0239500Y0198060D01*
Y0197044D01*
X0239754Y0196790D01*
X0240262D01*
X0240516Y0197044D01*
X0241024Y0198060D02*
X0241277Y0198314D01*
X0241785D01*
X0242039Y0198060D01*
Y0197806D01*
X0241785Y0197552D01*
X0241531D01*
X0241785D01*
X0242039Y0197298D01*
Y0197044D01*
X0241785Y0196790D01*
X0241277D01*
X0241024Y0197044D01*
X0242547Y0198060D02*
X0242801Y0198314D01*
X0243309D01*
X0243563Y0198060D01*
Y0197044D01*
X0243309Y0196790D01*
X0242801D01*
X0242547Y0197044D01*
Y0198060D01*
X0240516Y0196060D02*
X0240262Y0196314D01*
X0239754D01*
X0239500Y0196060D01*
Y0195044D01*
X0239754Y0194790D01*
X0240262D01*
X0240516Y0195044D01*
X0241024Y0196060D02*
X0241277Y0196314D01*
X0241785D01*
X0242039Y0196060D01*
Y0195806D01*
X0241785Y0195552D01*
X0241531D01*
X0241785D01*
X0242039Y0195298D01*
Y0195044D01*
X0241785Y0194790D01*
X0241277D01*
X0241024Y0195044D01*
X0242547Y0194790D02*
X0243055D01*
X0242801D01*
Y0196314D01*
X0242547Y0196060D01*
X0242266Y0192560D02*
X0242012Y0192814D01*
X0241504D01*
X0241250Y0192560D01*
Y0191544D01*
X0241504Y0191290D01*
X0242012D01*
X0242266Y0191544D01*
X0242774Y0192560D02*
X0243027Y0192814D01*
X0243535D01*
X0243789Y0192560D01*
Y0192306D01*
X0243535Y0192052D01*
X0243281D01*
X0243535D01*
X0243789Y0191798D01*
Y0191544D01*
X0243535Y0191290D01*
X0243027D01*
X0242774Y0191544D01*
X0245313Y0191290D02*
X0244297D01*
X0245313Y0192306D01*
Y0192560D01*
X0245059Y0192814D01*
X0244551D01*
X0244297Y0192560D01*
X0242266Y0194310D02*
X0242012Y0194564D01*
X0241504D01*
X0241250Y0194310D01*
Y0193294D01*
X0241504Y0193040D01*
X0242012D01*
X0242266Y0193294D01*
X0242774Y0194310D02*
X0243027Y0194564D01*
X0243535D01*
X0243789Y0194310D01*
Y0194056D01*
X0243535Y0193802D01*
X0243281D01*
X0243535D01*
X0243789Y0193548D01*
Y0193294D01*
X0243535Y0193040D01*
X0243027D01*
X0242774Y0193294D01*
X0244297Y0194310D02*
X0244551Y0194564D01*
X0245059D01*
X0245313Y0194310D01*
Y0194056D01*
X0245059Y0193802D01*
X0244805D01*
X0245059D01*
X0245313Y0193548D01*
Y0193294D01*
X0245059Y0193040D01*
X0244551D01*
X0244297Y0193294D01*
X0242266Y0189060D02*
X0242012Y0189314D01*
X0241504D01*
X0241250Y0189060D01*
Y0188044D01*
X0241504Y0187790D01*
X0242012D01*
X0242266Y0188044D01*
X0242774Y0189060D02*
X0243027Y0189314D01*
X0243535D01*
X0243789Y0189060D01*
Y0188806D01*
X0243535Y0188552D01*
X0243281D01*
X0243535D01*
X0243789Y0188298D01*
Y0188044D01*
X0243535Y0187790D01*
X0243027D01*
X0242774Y0188044D01*
X0245059Y0187790D02*
Y0189314D01*
X0244297Y0188552D01*
X0245313D01*
X0242266Y0187060D02*
X0242012Y0187314D01*
X0241504D01*
X0241250Y0187060D01*
Y0186044D01*
X0241504Y0185790D01*
X0242012D01*
X0242266Y0186044D01*
X0242774Y0187060D02*
X0243027Y0187314D01*
X0243535D01*
X0243789Y0187060D01*
Y0186806D01*
X0243535Y0186552D01*
X0243281D01*
X0243535D01*
X0243789Y0186298D01*
Y0186044D01*
X0243535Y0185790D01*
X0243027D01*
X0242774Y0186044D01*
X0245313Y0187314D02*
X0244297D01*
Y0186552D01*
X0244805Y0186806D01*
X0245059D01*
X0245313Y0186552D01*
Y0186044D01*
X0245059Y0185790D01*
X0244551D01*
X0244297Y0186044D01*
X0311455Y0203072D02*
X0309932D01*
Y0203833D01*
X0310186Y0204087D01*
X0310694D01*
X0310947Y0203833D01*
Y0203072D01*
Y0203579D02*
X0311455Y0204087D01*
X0310186Y0204595D02*
X0309932Y0204849D01*
Y0205357D01*
X0310186Y0205611D01*
X0310440D01*
X0310694Y0205357D01*
X0310947Y0205611D01*
X0311201D01*
X0311455Y0205357D01*
Y0204849D01*
X0311201Y0204595D01*
X0310947D01*
X0310694Y0204849D01*
X0310440Y0204595D01*
X0310186D01*
X0310694Y0204849D02*
Y0205357D01*
X0243500Y0226814D02*
Y0225290D01*
X0244516D01*
X0246039Y0226814D02*
X0245024D01*
Y0225290D01*
X0246039D01*
X0245024Y0226052D02*
X0245531D01*
X0246547Y0226814D02*
Y0225290D01*
X0247309D01*
X0247563Y0225544D01*
Y0226560D01*
X0247309Y0226814D01*
X0246547D01*
X0248071D02*
X0249086D01*
Y0226560D01*
X0248071Y0225544D01*
Y0225290D01*
X0250500D02*
Y0226814D01*
X0251262D01*
X0251516Y0226560D01*
Y0226052D01*
X0251262Y0225798D01*
X0250500D01*
X0251008D02*
X0251516Y0225290D01*
X0252785D02*
Y0226814D01*
X0252024Y0226052D01*
X0253039D01*
X0253547Y0226814D02*
X0254563D01*
Y0226560D01*
X0253547Y0225544D01*
Y0225290D01*
X0213226Y0141040D02*
X0214750D01*
Y0142056D01*
X0213226Y0143579D02*
Y0142564D01*
X0214750D01*
Y0143579D01*
X0213988Y0142564D02*
Y0143071D01*
X0213226Y0144087D02*
X0214750D01*
Y0144849D01*
X0214496Y0145103D01*
X0213480D01*
X0213226Y0144849D01*
Y0144087D01*
X0214750Y0145611D02*
Y0146118D01*
Y0145864D01*
X0213226D01*
X0213480Y0145611D01*
X0214750Y0147896D02*
Y0146880D01*
X0213734Y0147896D01*
X0213480D01*
X0213226Y0147642D01*
Y0147134D01*
X0213480Y0146880D01*
X0214750Y0149290D02*
X0213226D01*
Y0150052D01*
X0213480Y0150306D01*
X0213988D01*
X0214242Y0150052D01*
Y0149290D01*
Y0149798D02*
X0214750Y0150306D01*
X0213226Y0150814D02*
Y0151829D01*
X0213480D01*
X0214496Y0150814D01*
X0214750D01*
Y0153353D02*
Y0152337D01*
X0213734Y0153353D01*
X0213480D01*
X0213226Y0153099D01*
Y0152591D01*
X0213480Y0152337D01*
X0236516Y0163314D02*
X0236008D01*
X0236262D01*
Y0162044D01*
X0236008Y0161790D01*
X0235754D01*
X0235500Y0162044D01*
X0237024Y0163060D02*
X0237277Y0163314D01*
X0237785D01*
X0238039Y0163060D01*
Y0162806D01*
X0237785Y0162552D01*
X0237531D01*
X0237785D01*
X0238039Y0162298D01*
Y0162044D01*
X0237785Y0161790D01*
X0237277D01*
X0237024Y0162044D01*
X0244500Y0228790D02*
Y0227290D01*
X0245250D01*
X0245500Y0227540D01*
Y0227790D01*
X0245250Y0228040D01*
X0244500D01*
X0245250D01*
X0245500Y0228290D01*
Y0228540D01*
X0245250Y0228790D01*
X0244500D01*
X0246999Y0227290D02*
X0246000D01*
X0246999Y0228290D01*
Y0228540D01*
X0246749Y0228790D01*
X0246249D01*
X0246000Y0228540D01*
X0247499Y0227540D02*
X0247749Y0227290D01*
X0248249D01*
X0248499Y0227540D01*
Y0228540D01*
X0248249Y0228790D01*
X0247749D01*
X0247499Y0228540D01*
Y0228290D01*
X0247749Y0228040D01*
X0248499D01*
X0248999Y0228540D02*
X0249248Y0228790D01*
X0249748D01*
X0249998Y0228540D01*
Y0228290D01*
X0249748Y0228040D01*
X0249498D01*
X0249748D01*
X0249998Y0227790D01*
Y0227540D01*
X0249748Y0227290D01*
X0249248D01*
X0248999Y0227540D01*
X0250498Y0227290D02*
Y0228290D01*
X0250998Y0228790D01*
X0251498Y0228290D01*
Y0227290D01*
Y0228040D01*
X0250498D01*
X0253497Y0227290D02*
Y0228790D01*
X0253997Y0228290D01*
X0254497Y0228790D01*
Y0227290D01*
X0255996D02*
X0255746Y0227540D01*
X0255496Y0227290D01*
X0255247D01*
X0254997Y0227540D01*
Y0227790D01*
X0255247Y0228040D01*
X0254997Y0228290D01*
Y0228540D01*
X0255247Y0228790D01*
X0255496D01*
X0255746Y0228540D01*
Y0228290D01*
X0255496Y0228040D01*
X0255746Y0227790D01*
Y0227540D01*
X0255996Y0228040D02*
X0255746Y0227790D01*
X0255247Y0228040D02*
X0255496D01*
X0256496Y0227290D02*
Y0228790D01*
X0256996Y0228290D01*
X0257496Y0228790D01*
Y0227290D01*
X0260495Y0228540D02*
X0260245Y0228790D01*
X0259745D01*
X0259495Y0228540D01*
Y0228290D01*
X0259745Y0228040D01*
X0260245D01*
X0260495Y0227790D01*
Y0227540D01*
X0260245Y0227290D01*
X0259745D01*
X0259495Y0227540D01*
X0260995Y0227290D02*
X0261495D01*
X0261245D01*
Y0228290D01*
X0260995D01*
X0262244Y0227290D02*
Y0228290D01*
X0262994D01*
X0263244Y0228040D01*
Y0227290D01*
X0264244Y0226790D02*
X0264494D01*
X0264743Y0227040D01*
Y0228290D01*
X0263994D01*
X0263744Y0228040D01*
Y0227540D01*
X0263994Y0227290D01*
X0264743D01*
X0265243D02*
X0265743D01*
X0265493D01*
Y0228790D01*
X0265243D01*
X0267243Y0227290D02*
X0266743D01*
X0266493Y0227540D01*
Y0228040D01*
X0266743Y0228290D01*
X0267243D01*
X0267493Y0228040D01*
Y0227790D01*
X0266493D01*
X0269492Y0228790D02*
Y0227290D01*
X0270242D01*
X0270492Y0227540D01*
Y0227790D01*
X0270242Y0228040D01*
X0269492D01*
X0270242D01*
X0270492Y0228290D01*
Y0228540D01*
X0270242Y0228790D01*
X0269492D01*
X0271241Y0227290D02*
X0271741D01*
X0271991Y0227540D01*
Y0228040D01*
X0271741Y0228290D01*
X0271241D01*
X0270991Y0228040D01*
Y0227540D01*
X0271241Y0227290D01*
X0272741Y0228290D02*
X0273241D01*
X0273491Y0228040D01*
Y0227290D01*
X0272741D01*
X0272491Y0227540D01*
X0272741Y0227790D01*
X0273491D01*
X0273990Y0228290D02*
Y0227290D01*
Y0227790D01*
X0274240Y0228040D01*
X0274490Y0228290D01*
X0274740D01*
X0276490Y0228790D02*
Y0227290D01*
X0275740D01*
X0275490Y0227540D01*
Y0228040D01*
X0275740Y0228290D01*
X0276490D01*
X0278489Y0227290D02*
Y0228790D01*
X0278989Y0228290D01*
X0279489Y0228790D01*
Y0227290D01*
X0279988D02*
Y0227540D01*
X0280238D01*
Y0227290D01*
X0279988D01*
X0282238Y0228540D02*
X0281988Y0228790D01*
X0281488D01*
X0281238Y0228540D01*
Y0228290D01*
X0281488Y0228040D01*
X0281988D01*
X0282238Y0227790D01*
Y0227540D01*
X0281988Y0227290D01*
X0281488D01*
X0281238Y0227540D01*
X0282988Y0227290D02*
X0283487D01*
X0283737Y0227540D01*
Y0228040D01*
X0283487Y0228290D01*
X0282988D01*
X0282738Y0228040D01*
Y0227540D01*
X0282988Y0227290D01*
X0284237Y0228290D02*
Y0227540D01*
X0284487Y0227290D01*
X0285237D01*
Y0228290D01*
X0285987Y0228540D02*
Y0228290D01*
X0285737D01*
X0286236D01*
X0285987D01*
Y0227540D01*
X0286236Y0227290D01*
X0286986Y0228790D02*
Y0227290D01*
Y0228040D01*
X0287236Y0228290D01*
X0287736D01*
X0287986Y0228040D01*
Y0227290D01*
X0288986Y0226790D02*
X0289236D01*
X0289485Y0227040D01*
Y0228290D01*
X0288736D01*
X0288486Y0228040D01*
Y0227540D01*
X0288736Y0227290D01*
X0289485D01*
X0290235Y0228290D02*
X0290735D01*
X0290985Y0228040D01*
Y0227290D01*
X0290235D01*
X0289985Y0227540D01*
X0290235Y0227790D01*
X0290985D01*
X0291735Y0228540D02*
Y0228290D01*
X0291485D01*
X0291985D01*
X0291735D01*
Y0227540D01*
X0291985Y0227290D01*
X0293484D02*
X0292984D01*
X0292734Y0227540D01*
Y0228040D01*
X0292984Y0228290D01*
X0293484D01*
X0293734Y0228040D01*
Y0227790D01*
X0292734D01*
X0296733Y0227290D02*
X0295733D01*
X0296733Y0228290D01*
Y0228540D01*
X0296483Y0228790D01*
X0295983D01*
X0295733Y0228540D01*
X0297233D02*
X0297483Y0228790D01*
X0297983D01*
X0298233Y0228540D01*
Y0227540D01*
X0297983Y0227290D01*
X0297483D01*
X0297233Y0227540D01*
Y0228540D01*
X0298732Y0227290D02*
X0299232D01*
X0298982D01*
Y0228790D01*
X0298732Y0228540D01*
X0300732Y0227290D02*
Y0228790D01*
X0299982Y0228040D01*
X0300982D01*
X0218750Y0150040D02*
X0220083D01*
X0219416Y0150706D02*
Y0149373D01*
X0222749Y0150040D02*
X0224082D01*
X0228000D02*
X0229333D01*
X0228666Y0150706D02*
Y0149373D01*
X0231999Y0150040D02*
X0233332D01*
X0205500Y0163040D02*
Y0161707D01*
X0206166Y0162374D02*
X0204833D01*
X0205500Y0159041D02*
Y0157708D01*
Y0173040D02*
Y0171707D01*
X0206166Y0172374D02*
X0204833D01*
X0205500Y0169041D02*
Y0167708D01*
Y0186790D02*
Y0185457D01*
X0206166Y0186124D02*
X0204833D01*
X0205500Y0182791D02*
Y0181458D01*
Y0198040D02*
Y0196707D01*
X0206166Y0197374D02*
X0204833D01*
X0205500Y0194041D02*
Y0192708D01*
Y0209290D02*
Y0207957D01*
X0206166Y0208624D02*
X0204833D01*
X0205500Y0205291D02*
Y0203958D01*
Y0224290D02*
Y0222957D01*
X0206166Y0223624D02*
X0204833D01*
X0205500Y0220291D02*
Y0218958D01*
X0219000Y0147290D02*
X0220333D01*
X0219666Y0147956D02*
Y0146623D01*
X0222999Y0147290D02*
X0224332D01*
X0220583Y0140790D02*
X0219250D01*
X0220583Y0142123D01*
Y0142456D01*
X0220250Y0142789D01*
X0219583D01*
X0219250Y0142456D01*
X0222249Y0140790D02*
Y0142789D01*
X0221249Y0141790D01*
X0222582D01*
X0223249Y0142789D02*
Y0141456D01*
X0223915Y0140790D01*
X0224582Y0141456D01*
Y0142789D01*
X0220583Y0145539D02*
X0219250D01*
Y0144540D01*
X0219916D01*
X0219250D01*
Y0143540D01*
X0221583Y0144873D02*
X0222249D01*
X0222582Y0144540D01*
Y0143540D01*
X0221583D01*
X0221249Y0143873D01*
X0221583Y0144206D01*
X0222582D01*
X0223249Y0143540D02*
Y0144873D01*
X0224248D01*
X0224582Y0144540D01*
Y0143540D01*
D83*
X0246795Y0180370D02*
G03*
X0246795Y0180370I-0000300J0000000D01*
G01*
X0256310Y0188365D02*
G03*
X0256310Y0188365I-0000300J0000000D01*
G01*
X0316770Y0164515D02*
G03*
X0316770Y0164515I-0000300J0000000D01*
G01*
X0280150Y0181390D02*
G03*
X0280150Y0181390I-0000300J0000000D01*
G01*
X0302485Y0204785D02*
G03*
X0302485Y0204785I-0000300J0000000D01*
G01*
D84*
X0290100Y0218240D02*
G03*
X0290100Y0218240I-0000200J0000000D01*
G01*
D85*
X0319665Y0142700D02*
Y0142800D01*
X0318415Y0142700D02*
Y0142800D01*
X0323990Y0216450D02*
Y0216550D01*
X0325090Y0216450D02*
Y0216550D01*
X0327115Y0204700D02*
Y0204800D01*
X0325965Y0204700D02*
Y0204800D01*
X0325165Y0204700D02*
Y0204800D01*
X0323915Y0204700D02*
Y0204800D01*
X0325090Y0212950D02*
Y0213050D01*
X0323990Y0212950D02*
Y0213050D01*
X0321640Y0204700D02*
Y0204800D01*
X0320440Y0204700D02*
Y0204800D01*
X0317340Y0209450D02*
Y0209550D01*
X0316240Y0209450D02*
Y0209550D01*
X0317440Y0213450D02*
Y0213550D01*
X0316140Y0213450D02*
Y0213550D01*
X0325090Y0209700D02*
Y0209800D01*
X0323990Y0209700D02*
Y0209800D01*
X0322240Y0212950D02*
Y0213050D01*
X0323340Y0212950D02*
Y0213050D01*
X0322190Y0209700D02*
Y0209800D01*
X0323390Y0209700D02*
Y0209800D01*
X0316190Y0206200D02*
Y0206300D01*
X0317390Y0206200D02*
Y0206300D01*
X0318490Y0154450D02*
Y0154550D01*
X0319590Y0154450D02*
Y0154550D01*
X0321490Y0157175D02*
X0321590D01*
X0321490Y0158325D02*
X0321590D01*
X0327800Y0150340D02*
Y0156740D01*
Y0150340D02*
X0334200D01*
Y0156740D01*
X0327800D02*
X0334200D01*
X0323590Y0155200D02*
Y0155300D01*
X0322490Y0155200D02*
Y0155300D01*
X0323690Y0149450D02*
Y0149550D01*
X0322390Y0149450D02*
Y0149550D01*
X0319590Y0147700D02*
Y0147800D01*
X0318490Y0147700D02*
Y0147800D01*
X0319590Y0150950D02*
Y0151050D01*
X0318490Y0150950D02*
Y0151050D01*
X0316740Y0150950D02*
Y0151050D01*
X0317840Y0150950D02*
Y0151050D01*
X0316690Y0147700D02*
Y0147800D01*
X0317890Y0147700D02*
Y0147800D01*
X0316140Y0142700D02*
Y0142800D01*
X0314940Y0142700D02*
Y0142800D01*
X0321615Y0142700D02*
Y0142800D01*
X0320465Y0142700D02*
Y0142800D01*
X0310690Y0144200D02*
Y0144300D01*
X0311890Y0144200D02*
Y0144300D01*
X0311840Y0147450D02*
Y0147550D01*
X0310740Y0147450D02*
Y0147550D01*
X0311940Y0151450D02*
Y0151550D01*
X0310640Y0151450D02*
Y0151550D01*
X0312715Y0156700D02*
Y0156800D01*
X0313865Y0156700D02*
Y0156800D01*
X0310665Y0156700D02*
Y0156800D01*
X0311915Y0156700D02*
Y0156800D01*
X0235300Y0227740D02*
X0241700D01*
X0235300Y0221340D02*
Y0227740D01*
Y0221340D02*
X0241700D01*
Y0227740D01*
X0245495Y0163470D02*
X0251845D01*
X0245495Y0181370D02*
X0251845D01*
Y0163470D02*
Y0181370D01*
X0245495Y0163470D02*
Y0181370D01*
X0289950Y0220940D02*
X0290050D01*
X0289950Y0219740D02*
X0290050D01*
X0289950Y0221715D02*
X0290050D01*
X0289950Y0222865D02*
X0290050D01*
X0289950Y0224590D02*
X0290050D01*
X0289950Y0223490D02*
X0290050Y0223490D01*
X0294200Y0214290D02*
Y0214390D01*
X0295400Y0214290D02*
Y0214390D01*
X0289100Y0214040D02*
Y0219040D01*
X0290900Y0214040D02*
X0290900Y0219040D01*
X0289100D02*
X0290900D01*
X0289100Y0214040D02*
X0290900Y0214040D01*
X0280750Y0216290D02*
X0280850Y0216290D01*
X0280750Y0215190D02*
X0280850D01*
X0280710Y0218880D02*
X0280810D01*
X0280710Y0217580D02*
X0280810Y0217580D01*
X0280710Y0221580D02*
X0280810D01*
X0280710Y0220480D02*
X0280810Y0220480D01*
X0273910Y0217680D02*
X0274010D01*
X0273910Y0216380D02*
X0274010Y0216380D01*
X0274200Y0212965D02*
X0274300D01*
X0274200Y0214115D02*
X0274300Y0214115D01*
X0274200Y0209415D02*
X0274300D01*
X0274200Y0210665D02*
X0274300Y0210665D01*
X0273200Y0221615D02*
X0273300D01*
X0273200Y0220465D02*
X0273300Y0220465D01*
X0272950Y0223665D02*
X0273050D01*
X0272950Y0222415D02*
X0273050Y0222415D01*
X0266550Y0218965D02*
X0266650Y0218965D01*
X0266550Y0217715D02*
X0266650D01*
X0266550Y0221590D02*
X0266650Y0221590D01*
X0266550Y0220290D02*
X0266650D01*
X0266550Y0215090D02*
X0266650D01*
X0266550Y0216390D02*
X0266650Y0216390D01*
X0266550Y0212590D02*
X0266650D01*
X0266550Y0213690D02*
X0266650D01*
X0245862Y0220094D02*
Y0222126D01*
X0251958D01*
Y0220094D02*
Y0222126D01*
X0245862Y0220094D02*
X0251958D01*
X0244846Y0221110D02*
X0245862D01*
X0251958D02*
X0252974D01*
X0243050Y0215690D02*
Y0215790D01*
X0244150Y0215690D02*
Y0215790D01*
X0248175Y0210890D02*
Y0210990D01*
X0249425Y0210890D02*
Y0210990D01*
X0247075Y0210890D02*
Y0210990D01*
X0245725Y0210890D02*
Y0210990D01*
X0254820Y0203645D02*
X0254920D01*
X0254820Y0204995D02*
X0254920D01*
X0254820Y0206185D02*
X0254920D01*
X0254820Y0207535D02*
X0254920D01*
X0254820Y0209950D02*
X0254920D01*
X0254820Y0208850D02*
X0254920D01*
X0254820Y0210630D02*
X0254920D01*
X0254820Y0211980D02*
X0254920D01*
X0261350Y0209390D02*
X0261450D01*
X0261350Y0210490D02*
X0261450D01*
X0261350Y0207890D02*
X0261450D01*
X0261350Y0206790D02*
X0261450D01*
X0247350Y0207940D02*
X0247450D01*
X0247350Y0206740D02*
X0247450D01*
X0247350Y0204065D02*
X0247450D01*
X0247350Y0205415D02*
X0247450D01*
X0256725Y0200550D02*
X0256825D01*
X0256725Y0199200D02*
X0256825D01*
X0252750Y0200490D02*
X0252850D01*
X0252750Y0199390D02*
X0252850D01*
X0252610Y0197865D02*
X0257010D01*
X0252610Y0187365D02*
X0257010D01*
X0252610D02*
Y0197865D01*
X0257010Y0187365D02*
Y0197865D01*
X0247200Y0198210D02*
X0247300D01*
X0247200Y0196860D02*
X0247300D01*
X0247200Y0196305D02*
X0247300D01*
X0247200Y0194955D02*
X0247300D01*
X0247200Y0193050D02*
X0247300D01*
X0247200Y0194400D02*
X0247300D01*
X0247200Y0192445D02*
X0247300D01*
X0247200Y0191195D02*
X0247300D01*
X0247200Y0188240D02*
X0247300D01*
X0247200Y0189590D02*
X0247300D01*
X0247150Y0185915D02*
X0247250D01*
X0247150Y0187165D02*
X0247250D01*
X0228130Y0166010D02*
X0233210D01*
X0228130Y0189505D02*
Y0191410D01*
X0233210D01*
Y0189505D02*
Y0191410D01*
Y0166010D02*
Y0189505D01*
X0228130Y0166010D02*
Y0189505D01*
X0262490Y0176235D02*
X0267570D01*
X0262490Y0199730D02*
Y0201635D01*
X0267570D01*
Y0199730D02*
Y0201635D01*
Y0176235D02*
Y0199730D01*
X0262490Y0176235D02*
Y0199730D01*
X0322130Y0192870D02*
Y0197950D01*
X0296730Y0192870D02*
X0298635D01*
X0296730D02*
Y0197950D01*
X0298635D01*
X0322130D01*
X0298635Y0192870D02*
X0322130D01*
X0281550Y0205315D02*
X0281650D01*
X0281550Y0204165D02*
X0281650D01*
X0288350D02*
X0288450D01*
X0288350Y0205315D02*
X0288450D01*
X0289950Y0211765D02*
X0290050Y0211765D01*
X0289950Y0210515D02*
X0290050Y0210515D01*
X0286150Y0211740D02*
X0286250D01*
X0286150Y0210540D02*
X0286250D01*
X0313325Y0210990D02*
Y0211090D01*
X0314675Y0210990D02*
Y0211090D01*
X0313375Y0214690D02*
Y0214790D01*
X0312225Y0214690D02*
Y0214790D01*
X0311575Y0214690D02*
Y0214790D01*
X0310425Y0214690D02*
Y0214790D01*
X0309575Y0214690D02*
Y0214790D01*
X0308425Y0214690D02*
Y0214790D01*
X0307825D02*
X0307825Y0214690D01*
X0306575D02*
Y0214790D01*
X0310625Y0222240D02*
X0310625Y0222340D01*
X0309375Y0222240D02*
Y0222340D01*
X0308600Y0222240D02*
Y0222340D01*
X0307400Y0222240D02*
Y0222340D01*
X0305400Y0222240D02*
Y0222340D01*
X0306600Y0222240D02*
Y0222340D01*
X0304775Y0222340D02*
Y0222440D01*
X0303625Y0222340D02*
Y0222440D01*
X0303025Y0222440D02*
X0303025Y0222340D01*
X0301775D02*
Y0222440D01*
X0300875Y0222340D02*
Y0222440D01*
X0299525Y0222340D02*
Y0222440D01*
X0297150Y0222340D02*
Y0222440D01*
X0298450Y0222340D02*
Y0222440D01*
X0305575Y0214690D02*
Y0214790D01*
X0304425Y0214690D02*
Y0214790D01*
X0303825Y0214740D02*
Y0214840D01*
X0302675Y0214740D02*
Y0214840D01*
X0302075Y0214740D02*
Y0214840D01*
X0300925Y0214740D02*
Y0214840D01*
X0300325Y0214740D02*
Y0214840D01*
X0299175Y0214740D02*
Y0214840D01*
X0299975Y0209890D02*
Y0209990D01*
X0298825Y0209890D02*
Y0209990D01*
X0298800Y0201090D02*
Y0201190D01*
X0300000Y0201090D02*
Y0201190D01*
X0318215Y0218700D02*
Y0218800D01*
X0319365Y0218700D02*
Y0218800D01*
X0316165Y0218700D02*
Y0218800D01*
X0317415Y0218700D02*
Y0218800D01*
X0320375Y0190490D02*
Y0190590D01*
X0321625Y0190490D02*
Y0190590D01*
X0319550Y0190490D02*
Y0190590D01*
X0318450Y0190490D02*
Y0190590D01*
X0315800Y0183990D02*
X0316200D01*
X0315800D02*
Y0184840D01*
Y0187090D02*
X0316200D01*
X0315800Y0186240D02*
Y0187090D01*
X0306650Y0170990D02*
Y0171090D01*
X0307750Y0170990D02*
Y0171090D01*
X0311120Y0181415D02*
X0317470D01*
X0311120Y0163515D02*
X0317470D01*
X0311120D02*
Y0181415D01*
X0317470Y0163515D02*
Y0181415D01*
X0307825Y0174690D02*
Y0174790D01*
X0306575Y0174690D02*
Y0174790D01*
X0295750Y0191140D02*
X0295850D01*
X0295750Y0190340D02*
X0295850D01*
X0295750Y0187140D02*
X0295850D01*
X0295750Y0186340D02*
X0295850D01*
X0296550Y0182940D02*
X0296650D01*
X0296550Y0182140D02*
X0296650D01*
X0296550Y0179890D02*
X0296650D01*
X0296550Y0181190D02*
X0296650D01*
X0290950Y0168440D02*
X0291050D01*
X0290950Y0169640D02*
X0291050D01*
X0290950Y0165940D02*
X0291050D01*
X0290950Y0167140D02*
X0291050D01*
X0290950Y0170940D02*
X0291050Y0170940D01*
X0290950Y0172140D02*
X0291050D01*
X0290950Y0173440D02*
X0291050D01*
X0290950Y0174640D02*
X0291050D01*
X0285950Y0175840D02*
X0286050D01*
X0285950Y0176640D02*
X0286050Y0176640D01*
X0280800Y0176490D02*
Y0176590D01*
X0280000Y0176490D02*
Y0176590D01*
X0279200Y0172890D02*
Y0175790D01*
X0274000Y0172890D02*
Y0175790D01*
X0276150Y0169565D02*
X0276250D01*
X0276150Y0168315D02*
X0276250D01*
X0276225Y0182090D02*
Y0182190D01*
X0274975Y0182090D02*
Y0182190D01*
X0273050Y0182090D02*
Y0182190D01*
X0274150Y0182090D02*
Y0182190D01*
X0276200Y0186490D02*
Y0186590D01*
X0275400Y0186490D02*
Y0186590D01*
X0273300Y0185990D02*
Y0187090D01*
X0271800Y0185990D02*
Y0187090D01*
X0270975Y0186490D02*
Y0186590D01*
X0269725Y0186490D02*
Y0186590D01*
X0271300Y0167990D02*
Y0174690D01*
X0267900Y0167990D02*
Y0174690D01*
Y0167990D02*
X0271300D01*
X0267900Y0174690D02*
X0271300D01*
X0256900Y0175990D02*
Y0176090D01*
X0258100Y0175990D02*
Y0176090D01*
X0255325Y0169890D02*
Y0169990D01*
X0256675Y0169890D02*
Y0169990D01*
X0234800Y0159490D02*
Y0159590D01*
X0233700Y0159490D02*
Y0159590D01*
X0216750Y0163290D02*
Y0163390D01*
X0215650Y0163290D02*
Y0163390D01*
X0218600Y0163290D02*
Y0163390D01*
X0217400Y0163290D02*
Y0163390D01*
X0212550Y0151290D02*
Y0151390D01*
X0211450Y0151290D02*
Y0151390D01*
X0207750Y0151290D02*
Y0151390D01*
X0206650Y0151290D02*
Y0151390D01*
X0252770Y0143020D02*
Y0158260D01*
X0250230Y0143020D02*
Y0158260D01*
Y0143020D02*
X0252770D01*
X0250230Y0158260D02*
X0252770D01*
X0289270Y0143020D02*
Y0158260D01*
X0286730Y0143020D02*
Y0158260D01*
Y0143020D02*
X0289270D01*
X0286730Y0158260D02*
X0289270D01*
X0291645Y0158625D02*
Y0158725D01*
X0290445Y0158625D02*
Y0158725D01*
X0217200Y0214200D02*
X0224800D01*
X0217200D02*
Y0225900D01*
X0224800D01*
Y0214200D02*
Y0225900D01*
X0298065Y0158625D02*
Y0158725D01*
X0299265Y0158625D02*
Y0158725D01*
X0268730Y0158260D02*
X0271270D01*
X0268730Y0143020D02*
X0271270D01*
X0268730D02*
Y0158260D01*
X0271270Y0143020D02*
Y0158260D01*
X0290500Y0148290D02*
X0310000D01*
X0290500Y0140790D02*
Y0148290D01*
Y0140790D02*
X0310000D01*
Y0148290D01*
X0286950Y0197190D02*
X0287050D01*
X0286950Y0196390D02*
X0287050D01*
X0212684Y0174668D02*
X0214716D01*
Y0168572D02*
Y0174668D01*
X0212684Y0168572D02*
X0214716D01*
X0212684D02*
Y0174668D01*
X0213700D02*
Y0175684D01*
Y0167556D02*
Y0168572D01*
X0300824Y0152452D02*
X0302856D01*
X0300824D02*
Y0158548D01*
X0302856D01*
Y0152452D02*
Y0158548D01*
X0301840Y0151436D02*
Y0152452D01*
Y0158548D02*
Y0159564D01*
X0293204Y0152452D02*
X0295236D01*
X0293204D02*
Y0158548D01*
X0295236D01*
Y0152452D02*
Y0158548D01*
X0294220Y0151436D02*
Y0152452D01*
Y0158548D02*
Y0159564D01*
X0278850Y0180390D02*
X0291550D01*
X0278850Y0193090D02*
X0291550D01*
X0278850Y0180390D02*
Y0193090D01*
X0291550Y0180390D02*
Y0193090D01*
X0217200Y0199290D02*
X0224800D01*
X0217200D02*
Y0210990D01*
X0224800D01*
Y0199290D02*
Y0210990D01*
X0217200Y0182840D02*
X0224800D01*
X0217200D02*
Y0194540D01*
X0224800D01*
Y0182840D02*
Y0194540D01*
X0217200Y0166040D02*
X0224800D01*
X0217200D02*
Y0177740D01*
X0224800D01*
Y0166040D02*
Y0177740D01*
X0301185Y0203785D02*
X0311685D01*
X0301185Y0207585D02*
X0311685D01*
X0301185Y0203785D02*
Y0207585D01*
X0311685Y0203785D02*
Y0207585D01*
X0314150Y0204990D02*
Y0205090D01*
X0312850Y0204990D02*
Y0205090D01*
X0251350Y0223590D02*
X0251450D01*
X0251350Y0224690D02*
X0251450D01*
X0216750Y0151290D02*
Y0151390D01*
X0215650Y0151290D02*
Y0151390D01*
X0329190Y0211450D02*
Y0211550D01*
X0327890Y0211450D02*
Y0211550D01*
X0256200Y0217940D02*
X0262600D01*
X0262600Y0224340D01*
X0256200D02*
X0262600D01*
X0256200D02*
X0256200Y0217940D01*
X0318800Y0221340D02*
Y0227740D01*
Y0221340D02*
X0325200D01*
Y0227740D01*
X0318800D02*
X0325200D01*
X0289950Y0213515D02*
X0290050D01*
X0289950Y0212365D02*
X0290050D01*
X0242455Y0161380D02*
X0243555D01*
X0240395D02*
X0241015D01*
X0244995D02*
X0248975D01*
Y0140810D02*
Y0150198D01*
Y0152862D02*
Y0161380D01*
X0235765D02*
X0237995D01*
X0235765Y0152862D02*
Y0161380D01*
Y0140810D02*
Y0150198D01*
Y0140810D02*
X0248975D01*
X0254180Y0140810D02*
X0267390D01*
X0254180D02*
Y0150198D01*
Y0152862D02*
Y0161380D01*
X0256410D01*
X0267390Y0152862D02*
Y0161380D01*
Y0140810D02*
Y0150198D01*
X0263410Y0161380D02*
X0267390D01*
X0258810D02*
X0259430D01*
X0260870D02*
X0261970D01*
X0279285Y0161380D02*
X0280385D01*
X0277225D02*
X0277845D01*
X0281825D02*
X0285805D01*
Y0140810D02*
Y0150198D01*
Y0152862D02*
Y0161380D01*
X0272595D02*
X0274825D01*
X0272595Y0152862D02*
Y0161380D01*
Y0140810D02*
Y0150198D01*
Y0140810D02*
X0285805D01*
D86*
X0242600Y0214140D02*
X0244600D01*
X0242600Y0209340D02*
X0244600D01*
X0242600Y0212740D02*
Y0214140D01*
X0244600Y0212740D02*
Y0214140D01*
X0244641Y0209340D02*
Y0210740D01*
X0242584Y0209340D02*
Y0210740D01*
X0243600Y0212146D02*
X0244235D01*
X0242965Y0211359D02*
X0244235Y0211359D01*
X0242965Y0211359D02*
X0243600Y0212146D01*
X0244235Y0211359D01*
X0242965Y0212146D02*
X0243600D01*
X0298400Y0207940D02*
X0300400D01*
X0298400Y0203140D02*
X0300400D01*
X0298400Y0206540D02*
Y0207940D01*
X0300400Y0206540D02*
Y0207940D01*
X0300441Y0203140D02*
Y0204540D01*
X0298384Y0203140D02*
X0298384Y0204540D01*
X0299400Y0205946D02*
X0300035D01*
X0298765Y0205159D02*
X0300035D01*
X0298765D02*
X0299400Y0205946D01*
X0300035Y0205159D01*
X0298765Y0205946D02*
X0299400D01*
X0297650Y0170540D02*
Y0172540D01*
X0292850Y0170540D02*
Y0172540D01*
X0296250D02*
X0297650D01*
X0296250Y0170540D02*
X0297650D01*
X0292850Y0170499D02*
X0294250D01*
X0292850Y0172556D02*
X0294250D01*
X0295656Y0170905D02*
X0295656Y0171540D01*
X0294869Y0172175D02*
X0294869Y0170905D01*
X0294869Y0172175D02*
X0295656Y0171540D01*
X0294869Y0170905D02*
X0295656Y0171540D01*
X0295656Y0172175D02*
X0295656Y0171540D01*
X0297650Y0165540D02*
Y0167540D01*
X0292850Y0165540D02*
Y0167540D01*
X0296250D02*
X0297650D01*
X0296250Y0165540D02*
X0297650D01*
X0292850Y0165499D02*
X0294250D01*
X0292850Y0167556D02*
X0294250D01*
X0295656Y0165905D02*
Y0166540D01*
X0294869Y0165905D02*
Y0167175D01*
X0295656Y0166540D01*
X0294869Y0165905D02*
X0295656Y0166540D01*
Y0167175D01*
X0297650Y0168040D02*
X0297650Y0170040D01*
X0292850Y0168040D02*
Y0170040D01*
X0296250D02*
X0297650Y0170040D01*
X0296250Y0168040D02*
X0297650Y0168040D01*
X0292850Y0167999D02*
X0294250D01*
X0292850Y0170056D02*
X0294250D01*
X0295656Y0168405D02*
Y0169040D01*
X0294869Y0168405D02*
Y0169675D01*
X0295656Y0169040D01*
X0294869Y0168405D02*
X0295656Y0169040D01*
Y0169675D01*
X0297650Y0173040D02*
Y0175040D01*
X0292850Y0173040D02*
Y0175040D01*
X0296250D02*
X0297650Y0175040D01*
X0296250Y0173040D02*
X0297650Y0173040D01*
X0292850Y0172999D02*
X0294250D01*
X0292850Y0175056D02*
X0294250D01*
X0295656Y0174040D02*
X0295656Y0173405D01*
X0294869D02*
Y0174675D01*
X0295656Y0174040D01*
X0294869Y0173405D02*
X0295656Y0174040D01*
X0295656Y0174675D01*
X0259000Y0178440D02*
X0261000D01*
X0259000Y0173640D02*
X0261000D01*
X0259000Y0177040D02*
Y0178440D01*
X0261000Y0177040D02*
Y0178440D01*
X0261041Y0173640D02*
Y0175040D01*
X0258984Y0173640D02*
Y0175040D01*
X0260000Y0176446D02*
X0260635D01*
X0259365Y0175659D02*
X0260635D01*
X0259365D02*
X0260000Y0176446D01*
X0260635Y0175659D01*
X0259365Y0176446D02*
X0260000D01*
X0207200Y0144134D02*
X0207835D01*
X0206565Y0144921D02*
X0207200Y0144134D01*
X0207835Y0144921D01*
X0206565D02*
X0207835D01*
X0206565Y0144134D02*
X0207200D01*
X0208216Y0145540D02*
Y0146940D01*
X0206159Y0145540D02*
Y0146940D01*
X0206200Y0142140D02*
Y0143540D01*
X0208200Y0142140D02*
Y0143540D01*
X0206200Y0146940D02*
X0208200D01*
X0206200Y0142140D02*
X0208200D01*
X0211000D02*
X0213000D01*
X0211000Y0146940D02*
X0213000D01*
Y0142140D02*
Y0143540D01*
X0211000Y0142140D02*
Y0143540D01*
X0210959Y0145540D02*
Y0146940D01*
X0213016Y0145540D02*
Y0146940D01*
X0211365Y0144134D02*
X0212000D01*
X0211365Y0144921D02*
X0212635D01*
X0212000Y0144134D02*
X0212635Y0144921D01*
X0211365D02*
X0212000Y0144134D01*
X0212635D01*
X0297665Y0151195D02*
X0299665D01*
X0297665Y0155995D02*
X0299665D01*
Y0151195D02*
Y0152595D01*
X0297665Y0151195D02*
Y0152595D01*
X0297624Y0154595D02*
Y0155995D01*
X0299681Y0154595D02*
Y0155995D01*
X0298030Y0153189D02*
X0298665D01*
X0298030Y0153976D02*
X0299300D01*
X0298665Y0153189D02*
X0299300Y0153976D01*
X0298030D02*
X0298665Y0153189D01*
X0299300D01*
X0290045Y0155995D02*
X0292045D01*
X0290045Y0151195D02*
X0292045D01*
X0290045Y0154595D02*
Y0155995D01*
X0292045Y0154595D02*
Y0155995D01*
X0292086Y0151195D02*
Y0152595D01*
X0290029Y0151195D02*
Y0152595D01*
X0291045Y0154001D02*
X0291680D01*
X0290410Y0153214D02*
X0291680D01*
X0290410D02*
X0291045Y0154001D01*
X0291680Y0153214D01*
X0290410Y0154001D02*
X0291045D01*
X0246794Y0223505D02*
Y0224140D01*
X0247581Y0224775D01*
X0246794Y0224140D02*
X0247581Y0223505D01*
Y0224775D01*
X0246794Y0224140D02*
Y0224775D01*
X0248200Y0223124D02*
X0249600D01*
X0248200Y0225181D02*
X0249600D01*
X0244800Y0225140D02*
X0246200D01*
X0244800Y0223140D02*
X0246200D01*
X0249600D02*
Y0225140D01*
X0244800Y0223140D02*
Y0225140D01*
X0216200Y0144134D02*
X0216835D01*
X0215565Y0144921D02*
X0216200Y0144134D01*
X0216835Y0144921D01*
X0215565D02*
X0216835D01*
X0215565Y0144134D02*
X0216200D01*
X0217216Y0145540D02*
Y0146940D01*
X0215159Y0145540D02*
Y0146940D01*
X0215200Y0142140D02*
Y0143540D01*
X0217200Y0142140D02*
Y0143540D01*
X0215200Y0146940D02*
X0217200D01*
X0215200Y0142140D02*
X0217200D01*
X0231432Y0164910D02*
Y0165756D01*
X0232278Y0164910D01*
X0232490D01*
X0232702Y0165121D01*
Y0165544D01*
X0232490Y0165756D01*
Y0164486D02*
X0232702Y0164275D01*
Y0163852D01*
X0232490Y0163640D01*
X0231644D01*
X0231432Y0163852D01*
Y0164275D01*
X0231644Y0164486D01*
X0232490D01*
X0229000Y0165540D02*
Y0165117D01*
Y0165328D01*
X0230270D01*
X0230058Y0165540D01*
X0229212Y0164482D02*
X0229000Y0164270D01*
Y0163847D01*
X0229212Y0163636D01*
X0230058D01*
X0230270Y0163847D01*
Y0164270D01*
X0230058Y0164482D01*
X0229846D01*
X0229635Y0164270D01*
Y0163636D01*
X0228892Y0192680D02*
Y0192257D01*
Y0192468D01*
X0230162D01*
X0229950Y0192680D01*
X0231432Y0191834D02*
Y0192680D01*
X0232278Y0191834D01*
X0232490D01*
X0232702Y0192045D01*
Y0192468D01*
X0232490Y0192680D01*
X0265792Y0175135D02*
Y0175981D01*
X0266638Y0175135D01*
X0266850D01*
X0267062Y0175346D01*
Y0175769D01*
X0266850Y0175981D01*
Y0174711D02*
X0267062Y0174500D01*
Y0174077D01*
X0266850Y0173865D01*
X0266004D01*
X0265792Y0174077D01*
Y0174500D01*
X0266004Y0174711D01*
X0266850D01*
X0263252Y0175981D02*
Y0175558D01*
Y0175769D01*
X0264522D01*
X0264310Y0175981D01*
X0263464Y0174923D02*
X0263252Y0174711D01*
Y0174288D01*
X0263464Y0174077D01*
X0264310D01*
X0264522Y0174288D01*
Y0174711D01*
X0264310Y0174923D01*
X0264098D01*
X0263887Y0174711D01*
Y0174077D01*
X0263252Y0202905D02*
Y0202482D01*
Y0202693D01*
X0264522D01*
X0264310Y0202905D01*
X0265792Y0202059D02*
Y0202905D01*
X0266638Y0202059D01*
X0266850D01*
X0267062Y0202270D01*
Y0202693D01*
X0266850Y0202905D01*
X0323230Y0196172D02*
X0322384D01*
X0323230Y0197018D01*
Y0197230D01*
X0323019Y0197442D01*
X0322596D01*
X0322384Y0197230D01*
X0323654D02*
X0323865Y0197442D01*
X0324288D01*
X0324500Y0197230D01*
Y0196384D01*
X0324288Y0196172D01*
X0323865D01*
X0323654Y0196384D01*
Y0197230D01*
X0322384Y0193632D02*
X0322807D01*
X0322596D01*
Y0194902D01*
X0322384Y0194690D01*
X0323442Y0193844D02*
X0323654Y0193632D01*
X0324077D01*
X0324288Y0193844D01*
Y0194690D01*
X0324077Y0194902D01*
X0323654D01*
X0323442Y0194690D01*
Y0194478D01*
X0323654Y0194267D01*
X0324288D01*
X0295460Y0193632D02*
X0295883D01*
X0295672D01*
Y0194902D01*
X0295460Y0194690D01*
X0296306Y0196172D02*
X0295460D01*
X0296306Y0197018D01*
Y0197230D01*
X0296095Y0197442D01*
X0295672D01*
X0295460Y0197230D01*
D87*
X0279158Y0203153D02*
X0290842D01*
Y0198327D02*
Y0199597D01*
Y0201883D02*
Y0203153D01*
X0279158Y0201883D02*
Y0203153D01*
X0285635Y0200740D02*
X0286143D01*
X0285635Y0199978D02*
Y0201502D01*
X0285254Y0199470D02*
Y0202010D01*
X0284746D02*
X0285254D01*
X0284746Y0199470D02*
Y0202010D01*
Y0199470D02*
X0285254D01*
X0284365Y0199978D02*
Y0201502D01*
X0283857Y0200740D02*
X0284365D01*
X0279158Y0198327D02*
X0290842D01*
X0279158D02*
Y0199597D01*
X0212442Y0187292D02*
Y0188308D01*
X0215142D01*
Y0187292D02*
Y0188308D01*
X0212442Y0187292D02*
X0215142D01*
X0212442Y0203167D02*
Y0204183D01*
X0215142D01*
Y0203167D02*
Y0204183D01*
X0212442Y0203167D02*
X0215142D01*
X0212442Y0219677D02*
Y0220693D01*
X0215142D01*
Y0219677D02*
Y0220693D01*
X0212442Y0219677D02*
X0215142D01*
D88*
X0214900Y0191975D02*
X0216700D01*
Y0189975D02*
Y0191975D01*
X0214900Y0189975D02*
X0216700D01*
X0211300D02*
X0213100D01*
X0211300D02*
Y0191975D01*
X0213100D01*
X0214770Y0224690D02*
X0216570D01*
Y0222690D02*
Y0224690D01*
X0214770Y0222690D02*
X0216570D01*
X0211170D02*
X0212970D01*
X0211170D02*
Y0224690D01*
X0212970D01*
X0214770Y0208180D02*
X0216570D01*
Y0206180D02*
Y0208180D01*
X0214770Y0206180D02*
X0216570D01*
X0211170D02*
X0212970D01*
X0211170D02*
Y0208180D01*
X0212970D01*
M02*
